<?xml version="1.0" encoding="utf-8"?>
<!-- Generator: Adobe Illustrator 25.2.0, SVG Export Plug-In . SVG Version: 6.00 Build 0)  -->
<svg version="1.1" width="22" height="27" id="Layer_1" xmlns="http://www.w3.org/2000/svg" xmlns:xlink="http://www.w3.org/1999/xlink" x="0px" y="0px"
	 viewBox="0 0 22 27" style="enable-background:new 0 0 22 27;" xml:space="preserve">
<style type="text/css">
	.st0{fill-rule:evenodd;clip-rule:evenodd;fill:#579FBA;}
</style>
<path class="st0" d="M21.3,7.4l-2.4,1.3c0,0-0.1,0-0.2,0c-0.1,0-0.3-0.1-0.4-0.2c-0.1-0.2,0-0.5,0.2-0.6L21,6.7
	c0.2-0.1,0.5,0,0.5,0.2C21.6,7.1,21.5,7.3,21.3,7.4z M16.1,5.4c-0.1,0.1-0.2,0.2-0.3,0.2c-0.1,0-0.1,0-0.2-0.1
	c-0.2-0.1-0.2-0.4-0.1-0.6L17,2.6c0.1-0.2,0.4-0.2,0.5-0.1c0.2,0.1,0.2,0.4,0.1,0.5L16.1,5.4z M10.8,4.1c-0.2,0-0.4-0.2-0.4-0.4V0.9
	c0-0.2,0.2-0.4,0.4-0.4s0.4,0.2,0.4,0.4v2.8C11.2,3.9,11,4.1,10.8,4.1z M5.9,5.5c-0.1,0-0.3,0-0.4-0.2L4.1,3C4,2.8,4,2.5,4.2,2.4
	c0.2-0.1,0.5-0.1,0.6,0.1l1.5,2.3C6.4,5,6.3,5.3,6.2,5.4C6.1,5.5,6,5.5,5.9,5.5z M2.9,8.8c-0.1,0-0.1,0-0.2,0L0.2,7.4
	C0,7.3,0,7.1,0.1,6.9c0.1-0.2,0.4-0.3,0.5-0.2L3,8c0.2,0.1,0.3,0.4,0.2,0.6C3.1,8.7,3,8.8,2.9,8.8z M10.8,6.1c3.7,0,6.6,3,6.6,6.6
	c0,1.9-0.8,3.7-2.2,4.9l-0.1,0.1c-1.1,1.1-0.9,3.3-0.9,3.3c0,0.1,0,0.2-0.1,0.3c-0.1,0.1-0.2,0.1-0.3,0.1H7.8c-0.1,0-0.2,0-0.3-0.1
	c-0.1-0.1-0.1-0.2-0.1-0.3c0,0,0.1-2.3-0.9-3.3c-1.4-1.2-2.2-3.1-2.2-5C4.2,9,7.2,6.1,10.8,6.1z M7,17.1c1,1,1.2,2.7,1.2,3.5h5.3
	c0-0.8,0.2-2.4,1.1-3.4c0,0,0-0.1,0.1-0.1c1.3-1.1,2-2.7,2-4.4c0-3.2-2.6-5.8-5.8-5.8S5,9.5,5,12.7C5,14.4,5.7,16,7,17.1z M10.8,7.8
	c2.9,0,5.2,2.3,5.2,5.2c0,0.2-0.2,0.4-0.4,0.4s-0.4-0.2-0.4-0.4c0-2.4-1.9-4.3-4.3-4.3c-0.2,0-0.4-0.2-0.4-0.4S10.6,7.8,10.8,7.8z
	 M8.1,21.9h5.3c0.5,0,1,0.5,1,1c0,0.5-0.5,1-1,1H8.1c-0.5,0-1-0.5-1-1C7.1,22.4,7.6,21.9,8.1,21.9z M8.1,23.1h5.3
	c0.1,0,0.2-0.1,0.2-0.2c0-0.1-0.1-0.2-0.2-0.2H8.1c-0.1,0-0.2,0.1-0.2,0.2C7.9,23,8,23.1,8.1,23.1z M8.9,24.3h3.7c0.6,0,1,0.4,1,1
	c0,0.5-0.5,1-1,1H8.9c-0.5,0-1-0.5-1-1C7.9,24.8,8.4,24.3,8.9,24.3z M8.9,25.5h3.7c0.1,0,0.2-0.1,0.2-0.2c0-0.1-0.1-0.2-0.2-0.2H8.9
	c-0.1,0-0.2,0.1-0.2,0.2C8.7,25.4,8.8,25.5,8.9,25.5z"/>
</svg>
