<svg xmlns="http://www.w3.org/2000/svg" width="22" height="27">
    <path fill="#ED3E48" fill-rule="evenodd" d="M21.345 7.423l-2.437 1.314c-.048.024-.119.048-.191.048-.144 0-.287-.072-.359-.215-.095-.191-.024-.454.168-.55l2.437-1.313c.191-.096.453-.024.549.166.095.192.024.454-.167.55zm-5.232-2.031c-.072.119-.192.191-.335.191-.072 0-.143-.024-.215-.072-.191-.119-.239-.382-.095-.573l1.529-2.293c.119-.168.358-.24.549-.096.191.119.239.382.096.549l-1.529 2.294zm-5.328-1.313c-.215 0-.406-.192-.406-.408V.9c0-.215.191-.406.406-.406.215 0 .406.191.406.406v2.771c0 .216-.167.408-.406.408zm-4.85 1.409c-.143 0-.263-.048-.358-.191L4.096 2.979c-.12-.191-.072-.454.119-.574.191-.119.454-.072.574.12L6.27 4.843c.119.19.071.454-.12.573-.071.048-.143.072-.215.072zM2.853 8.785c-.071 0-.119-.024-.191-.048L.249 7.423c-.215-.096-.286-.358-.167-.55.096-.19.358-.262.549-.166L3.044 8.02c.191.096.263.359.168.55-.072.143-.215.215-.359.215zm7.956-2.723c3.655 0 6.642 2.986 6.642 6.641 0 1.864-.813 3.657-2.198 4.923l-.072.071c-1.051 1.052-.932 3.298-.932 3.321 0 .12-.047.24-.119.312-.072.07-.167.118-.287.118H7.751c-.096 0-.215-.048-.287-.118-.095-.096-.119-.192-.119-.312.024-.023.119-2.269-.932-3.321-1.409-1.242-2.246-3.082-2.246-4.994 0-3.655 2.987-6.641 6.642-6.641zM6.963 17.076c1.003 1.028 1.17 2.748 1.194 3.537h5.28c.024-.789.191-2.438 1.123-3.441 0-.024.047-.072.071-.096 1.267-1.099 1.983-2.7 1.983-4.396 0-3.226-2.604-5.83-5.829-5.83-3.225 0-5.829 2.604-5.829 5.83 0 1.696.74 3.297 2.007 4.396zm3.822-9.318c2.867 0 5.184 2.317 5.16 5.161 0 .215-.191.406-.406.406-.215 0-.406-.191-.406-.406 0-2.389-1.935-4.349-4.348-4.349-.215 0-.406-.191-.406-.406 0-.215.191-.406.406-.406zM8.133 21.903h5.304c.549 0 1.003.454 1.003 1.003 0 .55-.454.98-1.027 1.004h-5.28c-.549 0-1.003-.454-1.003-1.004 0-.549.454-1.003 1.003-1.003zm0 1.171h5.304c.095 0 .167-.072.167-.192 0-.118-.096-.191-.191-.191h-5.28c-.119 0-.191.073-.191.191 0 .12.096.192.191.192zm.788 1.242h3.727c.55 0 1.004.43 1.004 1.004 0 .55-.454 1.003-1.004 1.003H8.921c-.549 0-1.003-.453-1.003-1.003 0-.55.454-1.004 1.003-1.004zm0 1.17h3.727c.096 0 .192-.07.192-.191 0-.118-.096-.19-.192-.19H8.921c-.119 0-.191.072-.191.19 0 .121.096.191.191.191z"/>
</svg>
