<svg width="100" height="100" viewBox="0 0 100 100" fill="none" xmlns="http://www.w3.org/2000/svg">
<ellipse cx="52.0072" cy="42.5869" rx="39.2591" ry="39.4133" fill="#FAFAFB"/>
<g filter="url(#filter0_d)">
<path d="M24.9757 18.0691H78.615C81.0636 18.0691 83.0531 20.2614 83.0531 22.9596V58.9801C83.0531 61.6783 81.0636 63.8706 78.615 63.8706H74.9422L63.694 63.7863H24.9757C22.5271 63.7863 20.5376 61.594 20.5376 58.8958V22.8753C20.6141 20.2614 22.6036 18.0691 24.9757 18.0691Z" fill="white"/>
<path d="M24.9757 18.0691H78.615C81.0636 18.0691 83.0531 20.2614 83.0531 22.9596V58.9801C83.0531 61.6783 81.0636 63.8706 78.615 63.8706H74.9422L63.694 63.7863H24.9757C22.5271 63.7863 20.5376 61.594 20.5376 58.8958V22.8753C20.6141 20.2614 22.6036 18.0691 24.9757 18.0691Z" stroke="#BABAC2" stroke-width="2" stroke-miterlimit="10" stroke-linecap="round" stroke-linejoin="round"/>
</g>
<path d="M30.7563 49.4285H72.9187" stroke="#BABAC2" stroke-width="2" stroke-miterlimit="10" stroke-linecap="round" stroke-linejoin="round"/>
<path d="M54 29H71" stroke="#FFD37D" stroke-width="3" stroke-miterlimit="10" stroke-linecap="round" stroke-linejoin="round"/>
<path d="M54 36H65" stroke="#FFD37D" stroke-width="3" stroke-miterlimit="10" stroke-linecap="round" stroke-linejoin="round"/>
<path d="M31 55.3425H47.1258" stroke="#BABAC2" stroke-width="2" stroke-miterlimit="10" stroke-linecap="round" stroke-linejoin="round"/>
<path d="M51.7451 55.3425H55.3566" stroke="#BABAC2" stroke-width="2" stroke-miterlimit="10" stroke-linecap="round" stroke-linejoin="round"/>
<path d="M41.8386 29.3393C41.9665 28.9236 42.0624 28.4441 42.0624 27.9645C42.0304 25.6945 40.3999 24 38.3856 24C36.3714 24 34.7089 25.6945 34.7089 27.9645C34.7089 28.4441 34.7728 28.8917 34.9327 29.3393C34.645 29.5311 34.4531 29.8508 34.4531 30.2345C34.4531 30.7141 34.7728 31.1297 35.2204 31.2576C35.732 32.8242 36.9789 33.9112 38.3856 33.9112C39.7924 33.9112 41.0393 32.8242 41.5508 31.2576C41.9984 31.1297 42.3182 30.7141 42.3182 30.2345C42.3182 29.8508 42.1263 29.5311 41.8386 29.3393Z" stroke="#FFD37D" stroke-width="2" stroke-miterlimit="10" stroke-linecap="round" stroke-linejoin="round"/>
<path d="M35.2842 35.5417L31.8952 36.9485C31.6714 37.0764 31.5115 37.2682 31.3517 37.46C31.1279 37.7798 31 38.1634 31 38.5791V40.6252" stroke="#FFD37D" stroke-width="2" stroke-miterlimit="10" stroke-linecap="round" stroke-linejoin="round"/>
<path d="M41.5508 35.5417L45.0357 37.0124C45.6751 37.3322 45.9309 37.9716 45.9309 38.643V38.7709V40.6252" stroke="#FFD37D" stroke-width="2" stroke-miterlimit="10" stroke-linecap="round" stroke-linejoin="round"/>
<defs>
<filter id="filter0_d" x="19.5376" y="17.0691" width="64.5155" height="50.8015" filterUnits="userSpaceOnUse" color-interpolation-filters="sRGB">
<feFlood flood-opacity="0" result="BackgroundImageFix"/>
<feColorMatrix in="SourceAlpha" type="matrix" values="0 0 0 0 0 0 0 0 0 0 0 0 0 0 0 0 0 0 127 0"/>
<feOffset dy="3"/>
<feColorMatrix type="matrix" values="0 0 0 0 0.188235 0 0 0 0 0.192157 0 0 0 0 0.286275 0 0 0 0.05 0"/>
<feBlend mode="normal" in2="BackgroundImageFix" result="effect1_dropShadow"/>
<feBlend mode="normal" in="SourceGraphic" in2="effect1_dropShadow" result="shape"/>
</filter>
</defs>
</svg>
