<svg width="132" height="91" viewBox="0 0 132 91" fill="none" xmlns="http://www.w3.org/2000/svg">
<path d="M0 5C0 2.23857 2.23858 0 5 0H127C129.761 0 132 2.23858 132 5V85.5693C132 88.3308 129.761 90.5693 127 90.5693H5C2.23858 90.5693 0 88.3308 0 85.5693V5Z" fill="#F8F8FB"/>
<g opacity="0.5">
<rect x="15.3652" y="18.1218" width="13.4806" height="3.35284" rx="1.67642" fill="#B6B6C2"/>
<rect x="15.3649" y="32.1826" width="51.3471" height="4.34636" rx="2.17318" fill="#B6B6C2"/>
<rect x="15.3649" y="48.9176" width="51.3471" height="1.77856" rx="0.88928" fill="#B6B6C2"/>
<rect x="15.3649" y="39.4719" width="31.2234" height="4.34636" rx="2.17318" fill="#B6B6C2"/>
<rect x="77.4464" y="32.1826" width="40.1008" height="27.988" rx="5" fill="#B6B6C2"/>
<rect x="15.3649" y="53.6547" width="51.3471" height="1.77856" rx="0.88928" fill="#B6B6C2"/>
<rect x="15.3649" y="69.6113" width="51.3471" height="1.77856" rx="0.88928" fill="#B6B6C2"/>
<rect x="15.3649" y="58.392" width="51.3471" height="1.77856" rx="0.88928" fill="#B6B6C2"/>
<rect x="77.4464" y="66.088" width="40.1008" height="1.77856" rx="0.88928" fill="#B6B6C2"/>
<rect x="15.3649" y="74.3486" width="41.0995" height="1.77856" rx="0.88928" fill="#B6B6C2"/>
<rect x="15.3649" y="63.1293" width="25.9846" height="1.77856" rx="0.88928" fill="#B6B6C2"/>
<rect x="77.4464" y="70.8253" width="20.2933" height="1.77856" rx="0.88928" fill="#B6B6C2"/>
<rect x="44.6761" y="63.1293" width="5.68439" height="1.77856" rx="0.88928" fill="#B6B6C2"/>
<rect x="100.338" y="70.8253" width="4.43937" height="1.77856" rx="0.88928" fill="#B6B6C2"/>
<rect x="66.712" y="18.1217" width="7.89718" height="3.35284" rx="1.67642" fill="#B6B6C2"/>
<rect x="77.4464" y="18.1217" width="7.89718" height="3.35284" rx="1.67642" fill="#B6B6C2"/>
<rect x="88.1811" y="18.1217" width="7.89718" height="3.35284" rx="1.67642" fill="#B6B6C2"/>
<rect x="98.9158" y="18.1217" width="7.89718" height="3.35284" rx="1.67642" fill="#B6B6C2"/>
<rect x="109.65" y="18.1217" width="7.89718" height="3.35284" rx="1.67642" fill="#B6B6C2"/>
</g>
<circle cx="112.099" cy="71.0985" r="12.0985" fill="#FFD37D"/>
<path d="M112.099 77.0261C112.879 77.0261 113.503 76.4018 113.503 75.5992H110.672C110.672 76.4018 111.296 77.0261 112.099 77.0261ZM116.892 73.7041C116.468 73.2359 115.644 72.5447 115.644 70.2483C115.644 68.5315 114.44 67.1492 112.79 66.7925V66.3243C112.79 65.9452 112.478 65.6108 112.099 65.6108C111.697 65.6108 111.385 65.9452 111.385 66.3243V66.7925C109.735 67.1492 108.531 68.5315 108.531 70.2483C108.531 72.5447 107.706 73.2359 107.283 73.7041C107.149 73.8378 107.082 74.0162 107.104 74.1723C107.104 74.5513 107.372 74.8857 107.818 74.8857H116.357C116.803 74.8857 117.07 74.5513 117.093 74.1723C117.093 74.0162 117.026 73.8378 116.892 73.7041Z" fill="#191A35"/>
</svg>
