<svg width="132" height="91" viewBox="0 0 132 91" fill="none" xmlns="http://www.w3.org/2000/svg">
<path d="M0 5C0 2.23857 2.23858 0 5 0H127C129.761 0 132 2.23858 132 5V85.5693C132 88.3308 129.761 90.5693 127 90.5693H5C2.23858 90.5693 0 88.3308 0 85.5693V5Z" fill="#F8F8FB"/>
<g opacity="0.5">
<rect x="15.3647" y="18.1217" width="13.4806" height="3.35284" rx="1.67642" fill="#B6B6C2"/>
<rect x="15.3647" y="32.1826" width="51.3471" height="4.34636" rx="2.17318" fill="#B6B6C2"/>
<rect x="15.3647" y="48.9176" width="51.3471" height="1.77856" rx="0.88928" fill="#B6B6C2"/>
<rect x="15.3647" y="39.4719" width="31.2234" height="4.34636" rx="2.17318" fill="#B6B6C2"/>
<rect x="77.4463" y="32.1826" width="40.1008" height="27.988" rx="5" fill="#B6B6C2"/>
<rect x="15.3647" y="53.6547" width="51.3471" height="1.77856" rx="0.88928" fill="#B6B6C2"/>
<rect x="15.3647" y="69.6113" width="51.3471" height="1.77856" rx="0.88928" fill="#B6B6C2"/>
<rect x="15.3647" y="58.392" width="51.3471" height="1.77856" rx="0.88928" fill="#B6B6C2"/>
<rect x="77.4463" y="66.088" width="40.1008" height="1.77856" rx="0.88928" fill="#B6B6C2"/>
<rect x="15.3647" y="74.3486" width="41.0995" height="1.77856" rx="0.88928" fill="#B6B6C2"/>
<rect x="15.3647" y="63.1293" width="25.9846" height="1.77856" rx="0.88928" fill="#B6B6C2"/>
<rect x="77.4463" y="70.8253" width="20.2933" height="1.77856" rx="0.88928" fill="#B6B6C2"/>
<rect x="44.6758" y="63.1293" width="5.68439" height="1.77856" rx="0.88928" fill="#B6B6C2"/>
<rect x="100.337" y="70.8253" width="4.43937" height="1.77856" rx="0.88928" fill="#B6B6C2"/>
<rect x="66.7119" y="18.1217" width="7.89718" height="3.35284" rx="1.67642" fill="#B6B6C2"/>
<rect x="77.4463" y="18.1217" width="7.89718" height="3.35284" rx="1.67642" fill="#B6B6C2"/>
<rect x="88.1807" y="18.1217" width="7.89718" height="3.35284" rx="1.67642" fill="#B6B6C2"/>
<rect x="98.9155" y="18.1217" width="7.89718" height="3.35284" rx="1.67642" fill="#B6B6C2"/>
<rect x="109.65" y="18.1217" width="7.89718" height="3.35284" rx="1.67642" fill="#B6B6C2"/>
</g>
<circle cx="15.4159" cy="76.1168" r="10.5985" fill="#FFD37D"/>
<path d="M15.4162 81.5493C16.0997 81.5493 16.6466 81.0024 16.6466 80.2993H14.1662C14.1662 81.0024 14.713 81.5493 15.4162 81.5493ZM19.6154 78.6391C19.2443 78.2289 18.5216 77.6235 18.5216 75.6118C18.5216 74.1078 17.4669 72.8969 16.0216 72.5844V72.1743C16.0216 71.8422 15.7482 71.5493 15.4162 71.5493C15.0646 71.5493 14.7912 71.8422 14.7912 72.1743V72.5844C13.3458 72.8969 12.2912 74.1078 12.2912 75.6118C12.2912 77.6235 11.5685 78.2289 11.1974 78.6391C11.0802 78.7563 11.0216 78.9125 11.0412 79.0493C11.0412 79.3813 11.2755 79.6743 11.6662 79.6743H19.1466C19.5372 79.6743 19.7716 79.3813 19.7912 79.0493C19.7912 78.9125 19.7326 78.7563 19.6154 78.6391Z" fill="#191A35"/>
</svg>
