<svg width="132" height="91" viewBox="0 0 132 91" fill="none" xmlns="http://www.w3.org/2000/svg">
<path d="M0 5C0 2.23857 2.23858 0 5 0H127C129.761 0 132 2.23858 132 5V85.5693C132 88.3308 129.761 90.5693 127 90.5693H5C2.23858 90.5693 0 88.3308 0 85.5693V5Z" fill="#F8F8FB"/>
<g opacity="0.5">
<rect x="15.3657" y="18.1217" width="13.4806" height="3.35284" rx="1.67642" fill="#B6B6C2"/>
<rect x="15.3652" y="32.1826" width="51.3471" height="4.34636" rx="2.17318" fill="#B6B6C2"/>
<rect x="15.3652" y="48.9176" width="51.3471" height="1.77856" rx="0.88928" fill="#B6B6C2"/>
<rect x="15.3652" y="39.4719" width="31.2234" height="4.34636" rx="2.17318" fill="#B6B6C2"/>
<rect x="77.4468" y="32.1826" width="40.1008" height="27.988" rx="5" fill="#B6B6C2"/>
<rect x="15.3652" y="53.6547" width="51.3471" height="1.77856" rx="0.88928" fill="#B6B6C2"/>
<rect x="15.3652" y="69.6113" width="51.3471" height="1.77856" rx="0.88928" fill="#B6B6C2"/>
<rect x="15.3652" y="58.392" width="51.3471" height="1.77856" rx="0.88928" fill="#B6B6C2"/>
<rect x="77.4468" y="66.088" width="40.1008" height="1.77856" rx="0.88928" fill="#B6B6C2"/>
<rect x="15.3652" y="74.3486" width="41.0995" height="1.77856" rx="0.88928" fill="#B6B6C2"/>
<rect x="15.3652" y="63.1293" width="25.9846" height="1.77856" rx="0.88928" fill="#B6B6C2"/>
<rect x="77.4468" y="70.8253" width="20.2933" height="1.77856" rx="0.88928" fill="#B6B6C2"/>
<rect x="44.6763" y="63.1293" width="5.68439" height="1.77856" rx="0.88928" fill="#B6B6C2"/>
<rect x="100.338" y="70.8253" width="4.43937" height="1.77856" rx="0.88928" fill="#B6B6C2"/>
<rect x="66.7124" y="18.1217" width="7.89718" height="3.35284" rx="1.67642" fill="#B6B6C2"/>
<rect x="77.4468" y="18.1217" width="7.89718" height="3.35284" rx="1.67642" fill="#B6B6C2"/>
<rect x="88.1812" y="18.1217" width="7.89718" height="3.35284" rx="1.67642" fill="#B6B6C2"/>
<rect x="98.916" y="18.1217" width="7.89718" height="3.35284" rx="1.67642" fill="#B6B6C2"/>
<rect x="109.65" y="18.1217" width="7.89718" height="3.35284" rx="1.67642" fill="#B6B6C2"/>
</g>
<g filter="url(#filter0_d_2186_51)">
<path d="M123.328 24.1971C123.328 22.5402 124.671 21.1971 126.328 21.1971H132V68.4088H126.328C124.671 68.4088 123.328 67.0656 123.328 65.4088V24.1971Z" fill="#FFD37D"/>
<path d="M124.328 24.1971C124.328 23.0925 125.224 22.1971 126.328 22.1971H131V67.4088H126.328C125.224 67.4088 124.328 66.5133 124.328 65.4088V24.1971Z" stroke="#FFD37D" stroke-width="2"/>
</g>
<rect x="127.183" y="27.9416" width="1.92701" height="11.562" rx="0.963504" fill="#191A35"/>
<rect x="127.183" y="41.4307" width="1.92701" height="4.81752" rx="0.963504" fill="#191A35"/>
<rect x="127.183" y="48.1752" width="1.92701" height="14.4526" rx="0.963504" fill="#191A35"/>
<defs>
<filter id="filter0_d_2186_51" x="123.328" y="21.1971" width="8.67139" height="47.2117" filterUnits="userSpaceOnUse" color-interpolation-filters="sRGB">
<feFlood flood-opacity="0" result="BackgroundImageFix"/>
<feColorMatrix in="SourceAlpha" type="matrix" values="0 0 0 0 0 0 0 0 0 0 0 0 0 0 0 0 0 0 127 0" result="hardAlpha"/>
<feOffset/>
<feColorMatrix type="matrix" values="0 0 0 0 1 0 0 0 0 0.827451 0 0 0 0 0.490196 0 0 0 0.1 0"/>
<feBlend mode="normal" in2="BackgroundImageFix" result="effect1_dropShadow_2186_51"/>
<feBlend mode="normal" in="SourceGraphic" in2="effect1_dropShadow_2186_51" result="shape"/>
</filter>
</defs>
</svg>
