<svg xmlns="http://www.w3.org/2000/svg" width="900" height="1250" viewBox="0 0 900 1250" fill="none">
<g>
<path d="M78.0392 385.358C77.4187 383.497 75.6263 381.981 73.1445 382.67C64.5271 384.875 59.6324 392.593 56.3923 400.311C52.6696 409.132 49.4984 421.261 58.3915 428.221C66.1816 434.354 79.4869 431.598 88.3111 429.806C90.724 429.324 93.4815 428.91 95.6186 427.601C97.8247 426.222 98.3073 424.086 98.583 421.674C99.2035 416.644 99.0656 411.475 97.8936 406.514C95.6876 396.521 88.2421 387.494 78.0392 385.358Z" fill="#FFD37D"/>
<path d="M827.407 554.606C826.924 544.476 821.34 534.07 811.689 530.693C811.275 529.729 810.448 528.902 809.207 528.419C799.9 525.043 790.18 536.069 785.975 543.098C783.493 547.301 781.701 552.056 780.942 556.88C780.322 560.808 779.357 567.148 781.769 570.663C783.355 572.937 786.457 573.488 788.87 574.315C791.972 575.28 795.075 576.176 798.246 576.934C803.278 578.174 808.587 579.552 813.826 578.863C825.339 577.278 827.821 564.529 827.407 554.606Z" fill="#FFD37D"/>
<path d="M805.691 522.011C809.276 523.113 813.55 521.597 815.204 518.152C817.066 514.293 815.687 509.744 812.102 507.47C811.688 507.195 811.275 507.057 810.792 506.988C810.172 506.574 809.413 506.368 808.655 506.299C804.863 506.092 801.416 509.055 800.451 512.639C799.348 516.705 801.692 520.77 805.691 522.011Z" fill="#FFD37D"/>
<path d="M70.0418 374.883C72.8683 376.537 76.7289 376.192 79.0039 373.642C80.1069 372.402 80.6585 370.748 80.5895 369.094C80.4516 367.096 79.4865 365.579 77.9698 364.408C77.763 362.41 75.9706 360.48 73.8335 360.618C70.4555 360.893 67.4911 362.892 66.5259 366.2C65.5608 369.439 67.0774 373.16 70.0418 374.883Z" fill="#FFD37D"/>
<path d="M476.438 7.37363C463.891 1.99847 449.552 1.85966e-05 436.798 5.78865C424.596 4.82388 413.083 10.6814 405.086 19.7089C398.951 26.6002 395.78 35.5588 393.849 44.793C392.264 52.3044 391.092 66.8449 402.191 65.6045C404.949 65.3289 407.293 63.8128 409.636 62.3656C412.946 60.1604 415.152 58.9889 419.15 60.5739C427.009 63.675 438.522 67.3962 445.761 60.9185C448.38 58.5065 449.759 59.4713 453.068 60.3672C460.1 62.2278 468.166 62.9858 475.542 61.6076C475.68 66.776 474.646 71.9444 474.991 77.1129C475.198 79.9383 474.922 83.5217 476.438 86.0715C477.886 88.4834 481.195 89.6549 483.815 88.6901C486.159 87.7943 487.538 85.3823 489.951 84.5554C492.708 83.6595 495.81 84.7621 498.223 82.7637C502.497 79.3181 504.91 72.1512 506.427 67.0517C509.805 55.4744 509.598 42.1054 503.876 31.2173C498.016 20.1913 487.675 12.1975 476.438 7.37363Z" fill="#FFD37D"/>
<path d="M466.166 108.744C467.89 107.435 469.958 105.781 470.716 103.713C471.75 100.957 470.44 97.9246 467.545 97.0288C464.787 96.2018 461.616 97.0288 458.997 98.5448C458.307 98.8205 457.687 99.234 457.135 99.7853C456.653 100.199 456.17 100.612 455.756 101.026C455.412 101.232 455.067 101.439 454.86 101.646C454.033 102.473 453.344 103.369 452.999 104.471C452.378 106.401 452.516 108.606 453.826 110.191C457.135 114.257 462.926 111.225 466.166 108.744ZM465.201 105.092C465.822 104.885 466.028 105.436 465.201 105.092V105.092Z" fill="#F0F0F5"/>
<path d="M402.811 106.676C404.603 109.639 407.568 111.913 410.946 112.671C414.117 113.361 416.737 110.742 416.047 107.572C415.082 103.162 411.566 99.716 407.292 98.4755C405.224 97.8553 402.673 99.2336 402.191 101.37C401.984 102.197 402.053 103.093 402.328 103.851C402.122 104.747 402.259 105.78 402.811 106.676Z" fill="#F0F0F5"/>
<path d="M429.491 142.924C431.766 143.544 433.972 143.544 436.247 143.131C437.97 142.855 439.349 140.788 439.28 139.134C439.211 137.48 438.039 135.412 436.247 135.137C434.868 134.93 433.489 134.723 432.11 134.517C430.938 134.379 429.973 134.31 428.939 134.93C428.594 135.137 428.25 135.412 427.905 135.757C427.284 136.239 426.802 136.997 426.595 137.755C426.112 139.961 427.216 142.304 429.491 142.924Z" fill="#F0F0F5"/>
<path d="M403.225 190.06C401.295 195.298 393.849 197.296 389.23 199.088C377.717 203.636 365.446 206.255 353.106 207.082C342.214 207.771 328.426 208.253 319.05 201.775C318.568 201.431 318.223 201.086 317.947 200.742C319.533 199.226 321.187 197.778 322.842 196.262C333.183 186.89 344.489 177.725 358.139 174.831C373.03 171.73 387.92 175.175 401.157 182.549C403.156 184.409 404.397 186.821 403.225 190.06Z" fill="#F0F0F5"/>
<path d="M497.74 184.685C518.284 207.219 554.201 209.355 583.983 203.153C585.982 202.74 587.706 200.052 586.878 198.054C580.605 182.755 564.749 173.59 548.962 170.696C533.451 167.87 492.708 179.172 497.74 184.685Z" fill="#F0F0F5"/>
<path d="M227.568 361.996C227.154 363.03 227.154 364.201 228.05 365.442C239.494 381.223 263.692 380.672 279.41 371.989C283.202 369.921 286.718 367.234 289.613 363.995C292.302 361.032 296.369 356.552 293.267 352.555C290.302 348.834 283.822 347.663 279.479 346.973C273.964 346.078 268.38 345.595 262.796 345.802C250.387 346.215 238.322 349.316 227.154 354.829C223.845 356.552 224.948 360.618 227.568 361.996Z" fill="#F0F0F5"/>
<path d="M272.861 252.564C293.336 270.55 310.433 291.913 323.531 315.825C323.531 316.652 323.531 317.41 323.531 318.237C323.6 322.165 328.15 323.199 330.494 321.338C332.562 320.442 334.079 318.03 332.7 315.481C332.424 314.929 332.079 314.378 331.804 313.758C331.666 295.427 332.355 277.165 333.803 258.904C334.217 253.597 325.944 253.597 325.53 258.904C324.427 272.41 323.807 285.986 323.6 299.562C311.329 279.922 296.162 262.074 278.79 246.775C274.722 243.192 268.862 249.049 272.861 252.564Z" fill="#F0F0F5"/>
<path d="M157.871 203.085C160.008 203.912 162.352 202.189 162.972 200.19C165.592 191.852 163.386 182.618 157.457 176.209C154.768 173.246 150.287 169.731 146.082 171.523C143.118 172.763 142.015 175.451 141.946 178.276C140.705 179.448 140.015 181.309 140.912 183.307C144.496 191.645 148.978 199.639 157.871 203.085Z" fill="#F0F0F5"/>
<path d="M173.451 138.376C176.208 140.03 179.035 138.721 181.172 136.791C184.688 133.621 187.376 128.59 187.376 123.836C187.376 118.943 182.55 115.29 178.414 117.151C177.311 116.944 176.139 117.289 175.105 118.391C171.658 122.044 169.728 126.937 170.279 131.967C170.555 134.379 171.244 136.998 173.451 138.376Z" fill="#F0F0F5"/>
<path d="M127.882 146.99C128.778 138.169 131.329 129.555 135.327 121.63C137.74 116.875 130.571 112.672 128.158 117.427C123.47 126.73 120.643 136.584 119.609 146.921C119.058 152.227 127.331 152.227 127.882 146.99Z" fill="#F0F0F5"/>
<path d="M655.059 366.476C677.74 355.174 685.323 338.635 678.567 336.154C661.126 329.814 629.965 333.88 616.108 351.039C611.903 356.277 644.029 371.92 655.059 366.476Z" fill="#F0F0F5"/>
<path d="M750.54 189.785C755.09 195.918 762.949 190.198 767.154 186.821C771.635 183.238 777.702 176.347 774.669 170.076C771.084 162.702 760.743 167.802 756.262 171.385C755.779 171.798 755.435 172.212 755.228 172.625C751.229 176.898 746.748 184.685 750.54 189.785Z" fill="#F0F0F5"/>
<path d="M773.221 140.719C773.566 146.025 781.838 146.025 781.494 140.719C780.873 130.451 777.564 120.734 771.566 112.327C768.464 108.055 761.295 112.189 764.397 116.531C769.567 123.629 772.669 131.829 773.221 140.719Z" fill="#F0F0F5"/>
<path d="M373.995 407.478C378.269 412.509 384.336 418.022 391.436 415.679C397.296 413.749 399.364 407.272 399.571 401.69C400.192 388.459 395.642 374.4 388.886 363.099C385.301 357.103 380.958 351.522 375.856 346.767C371.099 342.287 365.24 337.05 358.277 338.084C351.452 339.117 346.419 345.526 345.316 352.073C344.351 357.861 346.143 363.306 348.832 368.405C348.832 368.405 348.832 368.474 348.901 368.474C355.519 382.532 363.93 395.625 373.995 407.478Z" fill="#F0F0F5"/>
<path d="M577.296 310.381C591.015 287.916 608.732 268.207 629.414 251.943C633.619 248.636 627.69 242.847 623.554 246.086C602.321 262.763 584.259 283.161 570.126 306.177C567.369 310.726 574.538 314.929 577.296 310.381Z" fill="#F0F0F5"/>
<path d="M329.184 917.291C327.667 919.565 324.979 919.772 323.255 918.463C322.773 874.496 321.67 830.393 324.427 785.6C341.248 801.518 350.21 824.328 350.9 847.276C351.658 872.153 342.765 896.617 329.184 917.291Z" fill="#F0F0F5"/>
<path d="M544.205 786.358C544.205 786.84 544.205 787.323 544.205 787.874C529.797 803.793 521.18 824.535 520.628 846.036C520.008 868.639 528.349 890.829 543.102 907.781C545.032 909.987 549.514 908.953 549.996 905.99C553.374 886.556 552.478 866.641 552.478 847.001C552.478 828.188 552.478 809.306 552.478 790.493C552.685 789.873 552.616 789.183 552.478 788.563C552.478 787.874 552.478 787.185 552.478 786.496C552.478 780.983 544.205 780.983 544.205 786.358Z" fill="#F0F0F5"/>
<path d="M468.442 562.393C449.001 567.769 430.18 575.004 412.187 584.032C407.431 586.375 411.636 593.542 416.393 591.199C421.011 588.856 425.699 586.719 430.456 584.652C424.252 617.937 425.837 651.842 427.009 685.54C427.63 702.423 428.043 719.376 427.285 736.328C426.458 753.694 424.596 770.991 422.942 788.357C416.53 857.545 417.84 927.008 419.288 996.403C419.702 1015.91 420.115 1035.48 420.529 1054.98C420.943 1074 421.494 1093.22 418.737 1112.11C417.978 1117.34 425.975 1119.55 426.733 1114.31C429.146 1097.7 429.284 1081.03 429.008 1064.28C428.664 1046.85 428.25 1029.41 427.905 1012.05C427.423 988.409 426.871 964.703 426.596 941.066L429.56 808.893C429.698 807.032 429.836 805.171 429.974 803.311C431.283 786.152 433.283 769.061 434.593 751.902C435.902 734.95 436.178 717.928 435.764 700.976C434.868 662.868 431.352 624.346 438.522 586.582C438.867 584.583 437.97 583.067 436.592 582.171C447.691 577.623 459.066 573.764 470.648 570.525C475.749 569.009 473.612 561.015 468.442 562.393Z" fill="#F0F0F5"/>
<path d="M458.376 579.966C458.17 650.256 457.894 720.478 457.687 790.769C457.48 861.197 457.204 931.625 456.998 1002.05C456.86 1041.47 456.722 1080.89 456.584 1120.31C456.584 1125.61 464.857 1125.61 464.857 1120.31C465.063 1049.95 465.339 979.588 465.546 909.229C465.753 838.801 466.029 768.441 466.235 698.013C466.373 658.664 466.511 619.315 466.649 579.966C466.649 574.591 458.376 574.591 458.376 579.966Z" fill="#F0F0F5"/>
<path d="M350.9 1108.94C358.276 1109.83 364.826 1115.28 372.409 1113.48C383.508 1110.87 393.849 1099.84 385.783 1088.68C380.544 1081.37 369.927 1078.48 361.999 1075.17C352.417 1071.17 321.118 1055.25 322.359 1076.69C322.98 1087.09 331.39 1106.52 350.9 1108.94Z" fill="#F0F0F5"/>
<path d="M480.229 1115.48C499.05 1121.07 527.177 1108.32 532.761 1088.61C534.209 1083.44 532.141 1078.06 526.97 1076.07C522.213 1074.2 516.698 1075.45 511.941 1076.75C502.635 1079.24 454.171 1107.77 480.229 1115.48Z" fill="#F0F0F5"/>
<path d="M492.984 1205.62C539.035 1197.83 585.155 1190.67 630.793 1180.81C643.547 1178.06 656.3 1175.09 668.985 1171.85C670.984 1171.37 672.708 1168.82 671.881 1166.75C667.675 1156.35 659.954 1149.11 649.131 1146.01C638.997 1143.12 628.173 1143.67 617.695 1143.6C605.285 1143.53 592.808 1143.81 580.398 1142.77C573.987 1142.22 567.507 1141.19 561.371 1139.26C555.167 1137.26 550.203 1132.78 543.999 1130.85C540.069 1129.61 535.933 1130.02 531.934 1130.64C527.315 1131.33 522.696 1132.16 518.146 1132.92C508.633 1134.5 499.188 1136.09 489.675 1137.67C485.4 1138.36 486.09 1143.74 489.261 1145.32C488.778 1164.07 488.227 1182.88 487.744 1201.62C487.675 1204.52 490.433 1206.03 492.984 1205.62Z" fill="#F0F0F5"/>
<path d="M125.538 1212.65C116.162 1211.2 106.787 1211 97.411 1212.17C92.1716 1212.79 92.1027 1221.13 97.411 1220.44C106.028 1219.33 114.784 1219.33 123.332 1220.64C128.571 1221.4 130.778 1213.41 125.538 1212.65Z" fill="#F0F0F5"/>
<path d="M811 1211.13C722.482 1211.13 633.895 1211.13 545.377 1211.13C497.602 1211.13 449.896 1211.13 402.122 1211.13C402.466 1210.51 402.673 1209.82 402.742 1209.13C404.121 1189.43 405.017 1169.72 405.431 1149.94C405.5 1146.77 402.535 1145.46 400.122 1146.08C399.778 1146.01 399.433 1145.94 399.088 1145.94C383.439 1145.67 367.652 1144.7 352.072 1145.05C344.764 1145.18 340.49 1148.7 335.595 1153.73C331.39 1158.14 326.427 1161.52 320.98 1164.13C299.333 1174.68 274.033 1173.37 251.834 1182.6C240.115 1187.5 228.257 1184.12 223.5 1206.52C223.156 1208.17 222.88 1209.75 223.776 1211C193.305 1211 162.903 1210.31 132.432 1210.31C127.124 1210.31 127.124 1219.26 132.432 1219.26C220.95 1219.26 309.536 1219.26 398.054 1219.26C486.158 1219.26 574.194 1219.26 662.298 1219.26C711.865 1219.26 761.363 1219.26 810.931 1219.26C816.377 1219.4 816.377 1211.13 811 1211.13Z" fill="#F0F0F5"/>
<path d="M781.149 1231.26C775.634 1230.7 770.256 1231.46 764.741 1231.88C759.502 1232.29 754.4 1231.88 749.23 1231.05C739.716 1229.53 729.858 1227.88 721.103 1233.05C716.553 1235.74 720.689 1242.9 725.308 1240.21C733.305 1235.53 743.163 1238.56 751.712 1239.73C754.125 1240.08 756.606 1240.15 759.019 1240.15C758.399 1241.11 758.123 1242.35 758.468 1243.52C759.157 1245.73 761.294 1246.97 763.569 1246.42C764.948 1246.07 766.327 1245.73 767.706 1245.38C769.843 1244.9 771.29 1242.35 770.601 1240.28C770.532 1240.01 770.394 1239.8 770.256 1239.53C773.91 1239.32 777.495 1239.18 781.149 1239.53C786.457 1240.01 786.388 1231.74 781.149 1231.26Z" fill="#F0F0F5"/>
<path d="M678.43 1239.53C676.086 1239.53 673.811 1239.53 671.467 1239.53C673.053 1237.04 670.847 1232.43 666.779 1232.98C657.61 1234.29 648.166 1234.29 638.997 1233.12C630.724 1232.01 622.314 1229.67 614.179 1232.63C609.215 1234.43 611.352 1242.42 616.385 1240.63C624.52 1237.66 633.551 1240.9 641.823 1241.73C650.579 1242.63 659.334 1242.28 668.02 1241.11C667.469 1241.8 667.124 1242.7 667.124 1243.66C667.124 1245.93 668.985 1247.79 671.26 1247.79C673.673 1247.79 676.086 1247.79 678.499 1247.79C680.705 1247.79 682.635 1245.87 682.635 1243.66C682.566 1241.39 680.705 1239.53 678.43 1239.53Z" fill="#F0F0F5"/>
<path d="M395.09 1234.98C384.336 1231.19 372.961 1230.57 361.862 1232.98C356.691 1234.08 358.828 1242.08 364.068 1240.97C373.788 1238.91 383.577 1239.66 392.953 1242.97C397.917 1244.69 400.054 1236.7 395.09 1234.98Z" fill="#F0F0F5"/>
<path d="M418.047 1230.22C416.323 1230.22 414.6 1230.22 412.876 1230.22C410.739 1230.22 408.671 1232.15 408.74 1234.36C408.809 1236.63 410.532 1238.49 412.876 1238.49C414.6 1238.49 416.323 1238.49 418.047 1238.49C420.184 1238.49 422.252 1236.56 422.183 1234.36C422.045 1232.08 420.322 1230.22 418.047 1230.22Z" fill="#F0F0F5"/>
<path d="M292.302 1241.18C287.683 1242.49 283.202 1240.21 278.928 1238.63C274.791 1237.11 270.517 1236.15 266.105 1235.74C257.143 1234.98 248.112 1237.18 240.322 1241.46C235.634 1244 239.839 1251.17 244.527 1248.62C247.354 1247.11 250.318 1245.87 253.42 1245.04H272.172C279.617 1247.11 286.58 1251.31 294.577 1249.04C299.609 1247.73 297.472 1239.73 292.302 1241.18Z" fill="#F0F0F5"/>
<path d="M176.208 1232.84C167.384 1229.88 158.077 1229.53 149.115 1231.67C143.945 1232.91 146.151 1240.9 151.321 1239.66C158.974 1237.87 166.626 1238.29 174.071 1240.83C179.035 1242.56 181.241 1234.56 176.208 1232.84Z" fill="#F0F0F5"/>
<path d="M101.754 1234.29C98.3072 1232.98 94.5845 1233.39 91.2754 1234.98C89.2762 1235.94 88.7246 1238.84 89.7587 1240.63C90.9996 1242.69 93.4125 1243.04 95.4117 1242.14C94.9981 1242.35 96.0322 1241.94 96.1701 1241.87C96.7216 1241.73 96.4458 1241.73 97.1352 1241.73C97.8246 1241.73 98.4451 1241.87 99.4792 1242.21C101.547 1243.04 104.029 1241.32 104.581 1239.32C105.27 1237.04 103.822 1235.11 101.754 1234.29Z" fill="#F0F0F5"/>
<path d="M382.267 503.128C365.377 502.508 348.349 503.611 332.907 511.329C330.77 512.432 331.046 514.775 330.632 516.842C330.08 519.323 329.598 522.286 332.838 522.699C343.868 524.284 355.174 523.32 366.204 524.767C364.343 526.627 362.275 531.314 360.551 533.312C356.415 537.998 352.348 542.684 348.28 547.439C340.145 556.949 332.286 566.597 324.496 576.313C321.256 580.448 327.047 586.306 330.356 582.171C337.802 572.73 345.454 563.427 353.244 554.261C356.967 549.851 360.827 545.441 364.619 541.099C368.135 537.171 371.513 532.209 376.201 529.591C376.614 529.384 376.959 529.108 377.235 528.764C390.885 530.211 404.466 529.866 418.185 528.833C432.455 527.73 446.725 526.627 460.996 527.868C472.922 528.902 484.366 530.004 496.224 527.868C498.361 527.454 500.567 527.11 502.635 526.559C503.876 526.214 507.943 528.006 508.771 529.108C522.972 549.162 536.001 569.973 547.79 591.543C550.341 596.229 557.51 592.025 554.96 587.339C543.171 565.839 530.073 544.958 515.94 524.905C515.733 524.629 515.527 524.422 515.32 524.216C526.695 522.562 538.07 522.217 549.651 523.871C552.823 524.353 555.442 522.148 554.753 518.771C552.064 506.574 538.69 500.854 527.246 500.992C519.042 501.061 511.183 503.611 503.118 504.782C494.776 506.023 487.055 504.507 478.989 502.646C470.854 500.854 462.857 499.821 454.515 500.648C446.036 501.474 437.694 503.335 429.146 504.093C413.566 505.54 397.916 503.68 382.267 503.128Z" fill="#F0F0F5"/>
<path d="M404.121 64.7085C403.087 79.4557 402.811 94.3408 403.294 109.088C403.57 118.116 404.19 127.35 407.568 135.757C410.877 144.164 417.426 151.745 426.113 154.294C431.697 155.948 437.625 155.397 443.278 153.881C453.619 151.193 463.064 145.267 470.096 137.204" stroke="#191A35" stroke-width="6" stroke-miterlimit="10" stroke-linecap="round" stroke-linejoin="round"/>
<path d="M413.565 72.8402C417.357 72.5645 421.149 72.6335 424.94 73.0469C426.25 73.1848 427.698 73.4604 428.525 74.563C429.284 75.5967 429.146 76.9749 428.939 78.2843C427.836 86.2092 426.043 94.0652 423.631 101.646C423.355 102.472 423.079 103.437 423.562 104.264C423.837 104.747 424.32 105.022 424.803 105.298C426.526 106.263 428.249 107.296 429.973 108.261" stroke="#191A35" stroke-width="6" stroke-miterlimit="10" stroke-linecap="round" stroke-linejoin="round"/>
<path d="M417.84 84.8311C417.84 86.6228 417.84 88.4145 417.84 90.2062" stroke="#191A35" stroke-width="6" stroke-miterlimit="10" stroke-linecap="round" stroke-linejoin="round"/>
<path d="M449.966 84.8311C449.966 86.6228 449.966 88.4145 449.966 90.2062" stroke="#191A35" stroke-width="6" stroke-miterlimit="10" stroke-linecap="round" stroke-linejoin="round"/>
<path d="M443.692 73.1159C448.518 70.7729 454.102 69.946 459.479 70.704" stroke="#191A35" stroke-width="6" stroke-miterlimit="10" stroke-linecap="round" stroke-linejoin="round"/>
<path d="M428.87 121.975C433.075 122.319 437.212 123.215 441.21 124.593" stroke="#191A35" stroke-width="6" stroke-miterlimit="10" stroke-linecap="round" stroke-linejoin="round"/>
<path d="M483.332 87.2432C488.434 84.4178 495.397 84.0733 499.464 88.208C502.015 90.7577 502.911 94.6857 502.291 98.2003C501.67 101.715 499.602 104.954 497.051 107.435C492.984 111.363 487.538 113.706 481.885 113.981" stroke="#191A35" stroke-width="6" stroke-miterlimit="10" stroke-linecap="round" stroke-linejoin="round"/>
<path d="M486.985 100.268C488.64 97.9934 490.777 96.0639 493.19 94.6167" stroke="#191A35" stroke-width="6" stroke-miterlimit="10" stroke-linecap="round" stroke-linejoin="round"/>
<path d="M420.735 152.089C420.735 165.734 420.735 178.69 420.735 192.334" stroke="#191A35" stroke-width="6" stroke-miterlimit="10" stroke-linecap="round" stroke-linejoin="round"/>
<path d="M490.158 118.46C489.124 138.652 489.193 158.981 490.433 179.172" stroke="#191A35" stroke-width="6" stroke-miterlimit="10" stroke-linecap="round" stroke-linejoin="round"/>
<path d="M422.527 165.251C431.627 167.043 441.279 165.734 449.551 161.599C457.824 157.464 465.89 145.474 469.957 137.204C457.755 155.259 443.554 159.187 422.596 156.224C422.596 159.049 422.596 161.806 422.596 164.631" fill="#191A35"/>
<path d="M422.527 165.251C431.627 167.043 441.279 165.734 449.551 161.599C457.824 157.464 465.89 145.474 469.957 137.204C457.755 155.259 443.554 159.187 422.596 156.224C422.596 159.049 422.596 161.806 422.596 164.631" stroke="#191A35" stroke-width="6" stroke-miterlimit="10" stroke-linecap="round" stroke-linejoin="round"/>
<path d="M192.823 198.812C215.297 222.931 234.393 250.083 249.629 279.301C250.456 280.955 251.352 282.609 252.179 284.263C253.765 287.364 255.282 290.741 254.799 294.187C254.247 297.632 250.663 300.802 247.423 299.562C243.424 297.977 243.838 292.119 245.423 288.122C246.664 285.09 248.043 282.127 249.698 279.301C252.386 274.547 255.488 269.998 258.66 265.588C276.101 241.124 319.395 181.584 358.139 174.762C373.098 172.143 387.92 175.175 401.157 182.48C406.603 185.512 411.704 189.164 416.392 193.23" stroke="#191A35" stroke-width="6" stroke-miterlimit="10" stroke-linecap="round" stroke-linejoin="round"/>
<path d="M151.459 215.971C175.726 261.867 199.923 307.831 224.19 353.727C228.464 361.79 233.014 370.197 240.804 375.021C247.905 379.431 256.867 380.12 265.002 378.26C273.137 376.468 280.582 372.333 287.476 367.578C304.228 356.139 318.292 340.84 328.426 323.268" stroke="#191A35" stroke-width="6" stroke-miterlimit="10" stroke-linecap="round" stroke-linejoin="round"/>
<path d="M147.116 209.011C145.806 202.74 139.739 198.881 134.431 195.297C127.33 190.542 120.643 185.236 114.37 179.447C112.508 177.725 110.578 175.795 109.958 173.314C109.406 170.971 110.096 168.49 110.785 166.216C113.06 158.981 115.818 151.883 119.609 145.267C120.988 142.855 122.78 140.305 125.469 139.616C127.882 138.996 130.433 140.03 132.639 141.201C138.981 144.509 144.496 149.264 148.77 155.053C149.667 156.293 150.563 157.602 150.77 159.049C151.252 162.013 149.253 164.769 147.116 166.837C144.358 169.455 141.187 171.591 137.74 173.039C136.637 173.521 135.396 173.934 134.362 173.452C133.328 172.97 132.777 171.867 132.708 170.696C132.639 169.593 133.052 168.49 133.466 167.457C134.776 164.356 136.43 161.392 138.499 158.705" stroke="#191A35" stroke-width="6" stroke-miterlimit="10" stroke-linecap="round" stroke-linejoin="round"/>
<path d="M130.157 153.399C134.294 154.846 138.43 156.362 142.566 157.809" stroke="#191A35" stroke-width="6" stroke-miterlimit="10" stroke-linecap="round" stroke-linejoin="round"/>
<path d="M127.262 167.595C128.916 164.011 130.778 160.428 132.777 156.982" stroke="#191A35" stroke-width="6" stroke-miterlimit="10" stroke-linecap="round" stroke-linejoin="round"/>
<path d="M110.854 152.916C112.646 146.783 115.266 140.925 118.644 135.481C120.643 132.311 123.263 129.072 126.986 128.59C129.812 128.246 132.501 129.624 134.914 131.071C142.98 136.033 150.011 142.579 155.595 150.229" stroke="#191A35" stroke-width="6" stroke-miterlimit="10" stroke-linecap="round" stroke-linejoin="round"/>
<path d="M120.161 127.212C121.747 124.249 123.884 121.148 127.124 120.252C130.364 119.356 133.811 120.872 136.707 122.595C144.428 127.212 151.115 133.552 156.078 141.063" stroke="#191A35" stroke-width="6" stroke-miterlimit="10" stroke-linecap="round" stroke-linejoin="round"/>
<path d="M137.051 116.462C146.358 122.388 154.492 130.107 160.973 138.996" stroke="#191A35" stroke-width="6" stroke-miterlimit="10" stroke-linecap="round" stroke-linejoin="round"/>
<path d="M156.699 165.803C162.696 171.867 167.315 179.378 170.004 187.441" stroke="#191A35" stroke-width="6" stroke-miterlimit="10" stroke-linecap="round" stroke-linejoin="round"/>
<path d="M163.937 163.253C163.317 158.567 163.799 153.675 165.316 149.195" stroke="#191A35" stroke-width="6" stroke-miterlimit="10" stroke-linecap="round" stroke-linejoin="round"/>
<path d="M163.662 133.621C165.523 129.969 167.798 126.454 170.831 123.629C173.796 120.803 177.587 118.667 181.655 118.116C182.758 117.978 183.999 117.978 184.895 118.598C186.549 119.701 186.412 122.113 186.067 124.111C185.171 128.866 183.792 133.483 181.862 137.894C180.345 141.477 178.415 144.923 178.001 148.782C177.312 154.915 180.345 160.772 182.413 166.561C186.136 176.829 187.032 188.131 185.033 198.881" stroke="#191A35" stroke-width="6" stroke-miterlimit="10" stroke-linecap="round" stroke-linejoin="round"/>
<path d="M261.624 244.432C288.441 266.621 310.502 294.6 325.737 325.886" stroke="#191A35" stroke-width="6" stroke-miterlimit="10" stroke-linecap="round" stroke-linejoin="round"/>
<path d="M294.439 263.865C307.124 278.475 317.602 294.945 325.393 312.586" stroke="#191A35" stroke-width="6" stroke-miterlimit="10" stroke-linecap="round" stroke-linejoin="round"/>
<path d="M332.287 257.456C328.219 344.906 327.53 432.562 330.287 520.081" stroke="#191A35" stroke-width="6" stroke-miterlimit="10" stroke-linecap="round" stroke-linejoin="round"/>
<path d="M338.629 522.907C352.417 520.632 366.273 525.456 380.199 527.179C406.465 530.487 433.144 522.838 459.41 525.87C468.717 526.903 477.886 529.315 487.262 529.04C499.326 528.695 510.908 524.009 522.972 523.251C533.244 522.631 543.516 524.836 553.581 527.11" stroke="#191A35" stroke-width="6" stroke-miterlimit="10" stroke-linecap="round" stroke-linejoin="round"/>
<path d="M562.543 260.626C559.854 347.111 557.097 433.596 554.408 520.081" stroke="#191A35" stroke-width="6" stroke-miterlimit="10" stroke-linecap="round" stroke-linejoin="round"/>
<path d="M352.417 369.646C365.309 382.188 376.546 396.452 385.783 411.82" stroke="#191A35" stroke-width="6" stroke-miterlimit="10" stroke-linecap="round" stroke-linejoin="round"/>
<path d="M360.138 352.349C367.859 367.923 378.958 381.912 392.401 392.938" stroke="#191A35" stroke-width="6" stroke-miterlimit="10" stroke-linecap="round" stroke-linejoin="round"/>
<path d="M547.445 256.216C549.238 264.141 550.341 272.135 550.892 280.266" stroke="#191A35" stroke-width="6" stroke-miterlimit="10" stroke-linecap="round" stroke-linejoin="round"/>
<path d="M420.598 194.471C432.179 198.812 445.002 199.226 457.204 196.952C469.338 194.677 480.919 189.716 491.674 183.583" stroke="#191A35" stroke-width="6" stroke-miterlimit="10" stroke-linecap="round" stroke-linejoin="round"/>
<path d="M427.491 204.807C442.934 209.562 460.03 208.529 474.783 201.982" stroke="#191A35" stroke-width="6" stroke-miterlimit="10" stroke-linecap="round" stroke-linejoin="round"/>
<path d="M498.43 181.171C510.425 172.901 532.21 167.388 546.549 170.282C590.05 179.103 636.859 249.669 650.992 269.792C655.542 276.269 660.023 283.436 660.299 291.361C660.368 292.74 660.23 294.118 659.54 295.358C657.196 299.493 650.234 297.357 648.165 293.084C644.581 285.848 649.337 277.441 654.025 270.825C672.57 244.432 692.217 218.797 712.83 193.988" stroke="#191A35" stroke-width="6" stroke-miterlimit="10" stroke-linecap="round" stroke-linejoin="round"/>
<path d="M563.715 297.081C576.882 314.998 591.773 331.744 608.043 346.973C614.868 353.382 622.106 359.584 630.586 363.512C639.065 367.44 649.13 368.887 657.886 365.58C669.398 361.169 676.43 349.661 682.497 338.979C694.079 318.719 705.66 298.459 717.242 278.199C731.03 254.011 744.887 229.753 755.917 204.187" stroke="#191A35" stroke-width="6" stroke-miterlimit="10" stroke-linecap="round" stroke-linejoin="round"/>
<path d="M574.47 303.145C584.604 285.021 597.495 268.551 612.662 254.424" stroke="#191A35" stroke-width="6" stroke-miterlimit="10" stroke-linecap="round" stroke-linejoin="round"/>
<path d="M579.502 315.411C595.082 286.744 616.591 261.246 642.237 241.124" stroke="#191A35" stroke-width="6" stroke-miterlimit="10" stroke-linecap="round" stroke-linejoin="round"/>
<path d="M716.14 189.784C706.833 144.302 737.235 125.558 741.371 125.696C745.783 125.834 761.088 138.652 761.088 138.652" stroke="#191A35" stroke-width="6" stroke-miterlimit="10" stroke-linecap="round" stroke-linejoin="round"/>
<path d="M768.396 108.675C758.606 113.981 751.437 119.081 744.818 127.005" stroke="#191A35" stroke-width="6" stroke-miterlimit="10" stroke-linecap="round" stroke-linejoin="round"/>
<path d="M749.161 129.624C755.572 122.113 763.914 116.255 773.221 112.879C774.324 112.465 775.427 112.121 776.599 112.258C777.978 112.465 779.081 113.43 780.046 114.395C782.183 116.6 783.975 119.219 785.216 122.044" stroke="#191A35" stroke-width="6" stroke-miterlimit="10" stroke-linecap="round" stroke-linejoin="round"/>
<path d="M756.124 133.483C759.502 130.244 761.777 128.522 765.569 125.834C767.913 124.18 770.394 122.664 773.152 121.837C775.91 121.01 779.012 121.079 781.562 122.457C784.527 124.111 786.25 127.35 787.56 130.52C789.422 134.93 791.007 139.547 792.179 144.234" stroke="#191A35" stroke-width="6" stroke-miterlimit="10" stroke-linecap="round" stroke-linejoin="round"/>
<path d="M771.015 148.506C772.118 152.089 773.359 155.604 774.875 159.049" stroke="#191A35" stroke-width="6" stroke-miterlimit="10" stroke-linecap="round" stroke-linejoin="round"/>
<path d="M775.358 144.716C770.946 147.334 766.12 149.057 761.019 149.815" stroke="#191A35" stroke-width="6" stroke-miterlimit="10" stroke-linecap="round" stroke-linejoin="round"/>
<path d="M764.259 150.436C765.637 152.779 767.981 154.226 769.705 156.293C771.428 158.361 772.325 161.668 770.463 163.598C768.464 165.596 765.017 164.563 762.535 163.253C760.122 161.944 757.778 160.497 755.572 158.912C753.987 157.74 752.332 156.431 751.781 154.502C750.953 151.607 752.884 148.713 754.814 146.37C759.019 141.408 763.845 136.929 769.084 133.07C771.221 131.485 773.703 129.9 776.392 130.107C780.184 130.313 782.872 133.759 784.871 136.998C789.008 143.958 792.179 151.538 794.178 159.394C794.523 160.773 794.868 162.289 794.523 163.736C794.109 165.596 792.662 167.044 791.283 168.353C786.25 172.901 780.528 176.691 775.358 181.102C769.291 186.27 763.983 192.197 759.502 198.743" stroke="#191A35" stroke-width="6" stroke-miterlimit="10" stroke-linecap="round" stroke-linejoin="round"/>
<path d="M319.671 1122.86C319.671 1089.85 318.705 1056.63 321.118 1023.9C323.669 988.616 323.669 953.54 323.255 918.463C322.773 874.497 321.67 830.393 324.427 785.6C327.185 740.325 327.323 692.431 327.323 646.88C327.323 611.735 320.429 565.908 330.356 532.21" stroke="#191A35" stroke-width="6" stroke-miterlimit="10" stroke-linecap="round" stroke-linejoin="round"/>
<path d="M319.533 1126.85C323.049 1125.55 330.149 1127.34 334.493 1127.41C345.936 1127.68 357.311 1127.96 368.755 1127.96C383.439 1127.96 404.948 1126.17 422.252 1128.03" stroke="#191A35" stroke-width="6" stroke-miterlimit="10" stroke-linecap="round" stroke-linejoin="round"/>
<path d="M436.385 582.723C435.902 630.961 438.384 680.716 436.109 728.817C434.11 770.991 429.353 812.89 427.63 855.133C426.389 885.592 430.111 916.327 430.111 946.924C430.111 977.383 427.561 1007.57 426.389 1038.03C425.493 1059.94 431.421 1099.91 422.666 1119.2" stroke="#191A35" stroke-width="6" stroke-miterlimit="10" stroke-linecap="round" stroke-linejoin="round"/>
<path d="M417.771 587.684C432.456 580.241 451.827 573.419 467.821 568.939" stroke="#191A35" stroke-width="6" stroke-miterlimit="10" stroke-linecap="round" stroke-linejoin="round"/>
<path d="M456.791 576.106C461.065 648.947 452.448 721.374 455.136 794.49C458.032 871.465 454.929 948.784 454.929 1025.97C454.929 1046.57 454.033 1066.97 454.033 1087.5C454.033 1100.32 456.101 1114.45 454.929 1126.99" stroke="#191A35" stroke-width="6" stroke-miterlimit="10" stroke-linecap="round" stroke-linejoin="round"/>
<path d="M454.929 1126.92C487.675 1126.92 528.211 1119.14 560.957 1119.14" stroke="#191A35" stroke-width="6" stroke-miterlimit="10" stroke-linecap="round" stroke-linejoin="round"/>
<path d="M553.374 528.351C553.374 567.699 552.616 606.359 554.822 645.501C557.373 690.501 550.686 733.502 550.617 778.158C550.548 849.482 550.617 920.875 550.617 992.544C550.617 1017.63 553.857 1042.3 554.822 1067.04C555.373 1081.37 552.892 1097.91 557.51 1111.42" stroke="#191A35" stroke-width="6" stroke-miterlimit="10" stroke-linecap="round" stroke-linejoin="round"/>
<path d="M486.09 1099.29C491.536 1094.67 499.74 1091.71 506.013 1088.47C513.597 1084.54 521.593 1081.51 529.177 1077.58" stroke="#191A35" stroke-width="6" stroke-miterlimit="10" stroke-linecap="round" stroke-linejoin="round"/>
<path d="M485.056 1109.97C495.328 1104.32 508.771 1102.32 520.215 1100.67" stroke="#191A35" stroke-width="6" stroke-miterlimit="10" stroke-linecap="round" stroke-linejoin="round"/>
<path d="M338.629 1098.94C348.005 1096.19 357.794 1103.42 366.205 1106.52" stroke="#191A35" stroke-width="6" stroke-miterlimit="10" stroke-linecap="round" stroke-linejoin="round"/>
<path d="M332.769 1070.76C343.799 1082.47 361.241 1084.47 375.856 1089.02" stroke="#191A35" stroke-width="6" stroke-miterlimit="10" stroke-linecap="round" stroke-linejoin="round"/>
<path d="M417.082 890.898C417.082 910.538 420.667 931.212 418.392 950.645" stroke="#191A35" stroke-width="6" stroke-miterlimit="10" stroke-linecap="round" stroke-linejoin="round"/>
<path d="M419.219 959.19C418.806 959.811 418.668 960.569 418.806 961.327" stroke="#191A35" stroke-width="6" stroke-miterlimit="10" stroke-linecap="round" stroke-linejoin="round"/>
<path d="M466.993 723.165C470.509 747.147 466.993 772.024 466.993 796.143" stroke="#191A35" stroke-width="6" stroke-miterlimit="10" stroke-linecap="round" stroke-linejoin="round"/>
<path d="M442.244 529.798C442.244 541.995 440.728 554.813 441.417 566.942" stroke="#191A35" stroke-width="6" stroke-miterlimit="10" stroke-linecap="round" stroke-linejoin="round"/>
<path d="M325.668 575.073C338.905 558.948 352.348 542.547 366.205 527.248" stroke="#191A35" stroke-width="6" stroke-miterlimit="10" stroke-linecap="round" stroke-linejoin="round"/>
<path d="M326.151 591.268C340.973 568.044 358.414 547.853 377.786 528.558" stroke="#191A35" stroke-width="6" stroke-miterlimit="10" stroke-linecap="round" stroke-linejoin="round"/>
<path d="M505.462 527.661C516.216 538.825 525.11 552.814 534.141 565.494C540.138 573.901 546.274 585.479 552.478 592.576" stroke="#191A35" stroke-width="6" stroke-miterlimit="10" stroke-linecap="round" stroke-linejoin="round"/>
<path d="M516.147 524.698C530.28 539.17 541.448 558.465 551.996 575.487" stroke="#191A35" stroke-width="6" stroke-miterlimit="10" stroke-linecap="round" stroke-linejoin="round"/>
<path d="M336.699 1130.37C338.629 1136.09 338.56 1151.18 334.217 1155.38C329.184 1160.21 318.085 1162.83 311.605 1164.96C301.402 1168.27 291.13 1171.1 280.996 1174.68C266.656 1179.78 250.594 1181.98 236.737 1187.84C225.5 1192.6 223.983 1203.48 224.19 1214.58" stroke="#191A35" stroke-width="6" stroke-miterlimit="10" stroke-linecap="round" stroke-linejoin="round"/>
<path d="M405.914 1130.99C405.914 1158.21 406.603 1185.5 406.535 1212.72" stroke="#191A35" stroke-width="6" stroke-miterlimit="10" stroke-linecap="round" stroke-linejoin="round"/>
<path d="M224.259 1214.58C285.684 1214.58 344.971 1213.2 406.396 1213.2" stroke="#191A35" stroke-width="6" stroke-miterlimit="10" stroke-linecap="round" stroke-linejoin="round"/>
<path d="M224.672 1206.79C284.512 1206.79 344.42 1206.79 404.259 1206.79" stroke="#191A35" stroke-width="6" stroke-miterlimit="10" stroke-linecap="round" stroke-linejoin="round"/>
<path d="M337.871 1145.18C359.793 1145.18 382.888 1145.18 404.259 1145.18" stroke="#191A35" stroke-width="6" stroke-miterlimit="10" stroke-linecap="round" stroke-linejoin="round"/>
<path d="M334.493 1155.31C358.208 1155.31 381.233 1155.31 404.948 1155.31" stroke="#191A35" stroke-width="6" stroke-miterlimit="10" stroke-linecap="round" stroke-linejoin="round"/>
<path d="M259.073 1182.26C263.21 1183.64 276.791 1186.05 281.065 1187.01" stroke="#191A35" stroke-width="6" stroke-miterlimit="10" stroke-linecap="round" stroke-linejoin="round"/>
<path d="M281.065 1187.01C283.547 1186.19 315.328 1174.47 322.842 1171.37C327.461 1169.44 333.459 1168.06 337.526 1165.17C341.318 1162.55 336.492 1159.04 333.734 1157.31" stroke="#191A35" stroke-width="6" stroke-miterlimit="10" stroke-linecap="round" stroke-linejoin="round"/>
<path d="M294.921 1171.78C298.093 1173.16 301.057 1175.23 304.228 1176.75" stroke="#191A35" stroke-width="6" stroke-miterlimit="10" stroke-linecap="round" stroke-linejoin="round"/>
<path d="M311.26 1166.55C313.949 1168.06 316.913 1169.3 319.464 1171.1" stroke="#191A35" stroke-width="6" stroke-miterlimit="10" stroke-linecap="round" stroke-linejoin="round"/>
<path d="M544.274 1119.69C545.377 1126.03 547.928 1133.19 551.306 1135.26C557.235 1138.91 568.61 1139.26 575.435 1140.02C586.052 1141.19 596.737 1141.81 607.354 1143.26C622.382 1145.32 638.583 1144.15 653.405 1147.05C665.4 1149.39 669.123 1159.73 671.191 1170.61" stroke="#191A35" stroke-width="6" stroke-miterlimit="10" stroke-linecap="round" stroke-linejoin="round"/>
<path d="M486.09 1127.2V1208.03" stroke="#191A35" stroke-width="6" stroke-miterlimit="10" stroke-linecap="round" stroke-linejoin="round"/>
<path d="M671.122 1170.75C611.007 1183.36 546.135 1195.49 486.021 1208.03" stroke="#191A35" stroke-width="6" stroke-miterlimit="10" stroke-linecap="round" stroke-linejoin="round"/>
<path d="M669.123 1163.24C610.524 1175.51 545.722 1189.08 487.192 1201.35" stroke="#191A35" stroke-width="6" stroke-miterlimit="10" stroke-linecap="round" stroke-linejoin="round"/>
<path d="M545.722 1126.1C524.282 1130.58 507.047 1134.23 486.09 1138.57" stroke="#191A35" stroke-width="6" stroke-miterlimit="10" stroke-linecap="round" stroke-linejoin="round"/>
<path d="M551.099 1135.33C527.867 1140.22 509.253 1144.08 486.09 1148.97" stroke="#191A35" stroke-width="6" stroke-miterlimit="10" stroke-linecap="round" stroke-linejoin="round"/>
<path d="M630.448 1146.22C626.725 1148.42 610.18 1155.8 610.18 1155.8" stroke="#191A35" stroke-width="6" stroke-miterlimit="10" stroke-linecap="round" stroke-linejoin="round"/>
<path d="M610.18 1155.8C607.561 1155.52 554.753 1147.6 550.134 1145.6C545.86 1143.81 549.858 1139.4 552.202 1137.12" stroke="#191A35" stroke-width="6" stroke-miterlimit="10" stroke-linecap="round" stroke-linejoin="round"/>
<path d="M593.221 1143.39C590.395 1145.39 587.913 1148.08 585.155 1150.22" stroke="#191A35" stroke-width="6" stroke-miterlimit="10" stroke-linecap="round" stroke-linejoin="round"/>
<path d="M576.124 1141.6C573.78 1143.67 571.16 1145.39 569.092 1147.73" stroke="#191A35" stroke-width="6" stroke-miterlimit="10" stroke-linecap="round" stroke-linejoin="round"/>
<path d="M131.122 1214.37C160.973 1214.37 190.754 1214.37 220.605 1214.37" stroke="#191A35" stroke-width="6" stroke-miterlimit="10" stroke-linecap="round" stroke-linejoin="round"/>
<path d="M411.429 1212.58C521.318 1212.58 631.138 1212.58 741.027 1212.58" stroke="#191A35" stroke-width="6" stroke-miterlimit="10" stroke-linecap="round" stroke-linejoin="round"/>
<path d="M750.678 1212.51C758.95 1209.62 765.5 1211.48 773.703 1211.62C777.357 1211.68 780.597 1210.58 784.458 1209.96C789.284 1209.2 793.834 1209.89 798.59 1210.65" stroke="#191A35" stroke-width="6" stroke-miterlimit="10" stroke-linecap="round" stroke-linejoin="round"/>
<path d="M807.76 1210.24C809.001 1210.24 810.173 1210.24 811.413 1210.24" stroke="#191A35" stroke-width="6" stroke-miterlimit="10" stroke-linecap="round" stroke-linejoin="round"/>
<path d="M718.759 1237.11C724.136 1235.6 729.238 1233.53 734.959 1232.98C741.784 1232.36 747.3 1234.49 753.918 1235.39C758.675 1236.08 762.122 1234.08 766.809 1233.32C773.152 1232.22 780.184 1232.22 786.25 1234.36" stroke="#191A35" stroke-width="6" stroke-miterlimit="10" stroke-linecap="round" stroke-linejoin="round"/>
<path d="M759.364 1243.04C762.811 1242.28 766.396 1242.63 769.843 1242.56" stroke="#191A35" stroke-width="6" stroke-miterlimit="10" stroke-linecap="round" stroke-linejoin="round"/>
<path d="M613.834 1236.22C622.451 1228.09 637.066 1236.98 646.235 1237.18C650.992 1237.32 661.057 1230.91 664.918 1236.22" stroke="#191A35" stroke-width="6" stroke-miterlimit="10" stroke-linecap="round" stroke-linejoin="round"/>
<path d="M669.95 1243.04C671.88 1242.49 673.88 1242.49 675.879 1242.56" stroke="#191A35" stroke-width="6" stroke-miterlimit="10" stroke-linecap="round" stroke-linejoin="round"/>
<path d="M362.481 1236.7C370.341 1232.08 388.885 1232.29 396.331 1237.25" stroke="#191A35" stroke-width="6" stroke-miterlimit="10" stroke-linecap="round" stroke-linejoin="round"/>
<path d="M412.463 1234.01C414.876 1232.98 417.495 1233.74 419.977 1234.01" stroke="#191A35" stroke-width="6" stroke-miterlimit="10" stroke-linecap="round" stroke-linejoin="round"/>
<path d="M241.149 1243.66C250.663 1239.8 266.174 1236.22 275.55 1243.11" stroke="#191A35" stroke-width="6" stroke-miterlimit="10" stroke-linecap="round" stroke-linejoin="round"/>
<path d="M283.064 1247.93C284.443 1247.17 285.959 1247.17 287.338 1247.93" stroke="#191A35" stroke-width="6" stroke-miterlimit="10" stroke-linecap="round" stroke-linejoin="round"/>
<path d="M96.1699 1216.3C104.029 1214.79 111.543 1215.68 119.265 1215.75" stroke="#191A35" stroke-width="6" stroke-miterlimit="10" stroke-linecap="round" stroke-linejoin="round"/>
<path d="M93.4814 1235.12C94.9292 1235.12 96.3769 1235.12 97.7557 1235.12" stroke="#191A35" stroke-width="6" stroke-miterlimit="10" stroke-linecap="round" stroke-linejoin="round"/>
<path d="M149.736 1237.04C155.94 1233.94 165.04 1235.18 170.9 1238.63" stroke="#191A35" stroke-width="6" stroke-miterlimit="10" stroke-linecap="round" stroke-linejoin="round"/>
<path d="M257.763 881.595C261.624 881.181 257.832 881.595 257.763 881.595" stroke="#191A35" stroke-width="6" stroke-miterlimit="10" stroke-linecap="round" stroke-linejoin="round"/>
<path d="M307.331 406.169C307.537 406.72 307.055 407.34 307.882 407.961C309.743 407.409 308.296 407.203 308.227 406.651" stroke="#191A35" stroke-width="6" stroke-miterlimit="10" stroke-linecap="round" stroke-linejoin="round"/>
<path d="M340.766 156.431C338.973 159.256 343.799 159.394 341.524 156.568C340.007 157.395 341.869 156.982 341.662 157.327" stroke="#191A35" stroke-width="6" stroke-miterlimit="10" stroke-linecap="round" stroke-linejoin="round"/>
<path d="M605.009 187.028C605.974 188.062 604.596 186.615 605.009 187.028" stroke="#191A35" stroke-width="6" stroke-miterlimit="10" stroke-linecap="round" stroke-linejoin="round"/>
<path d="M610.111 548.68C610.387 548.886 610.042 549.575 610.663 549.851C611.214 548.266 611.559 549.506 611.076 547.784C611.008 547.577 611.904 549.713 611.835 549.093C611.973 548.886 612.042 547.99 611.421 548.197" stroke="#191A35" stroke-width="6" stroke-miterlimit="10" stroke-linecap="round" stroke-linejoin="round"/>
<path d="M739.027 142.304C739.992 147.059 739.992 152.02 739.096 156.844" stroke="#191A35" stroke-width="6" stroke-miterlimit="10" stroke-linecap="round" stroke-linejoin="round"/>
<path d="M734.891 139.892C734.891 139.892 752.47 149.057 754.814 146.439" stroke="#191A35" stroke-width="6" stroke-miterlimit="10" stroke-linecap="round" stroke-linejoin="round"/>
<path d="M433.903 6.54673C420.391 1.99852 406.672 15.9188 400.399 26.4624C393.643 37.8329 391.505 52.2356 396.607 64.0885" stroke="#191A35" stroke-width="6" stroke-miterlimit="10" stroke-linecap="round" stroke-linejoin="round"/>
<path d="M404.19 38.1772C400.881 45.413 401.846 55.1986 405.155 62.2276" stroke="#191A35" stroke-width="6" stroke-miterlimit="10" stroke-linecap="round" stroke-linejoin="round"/>
<path d="M415.564 38.6597C415.358 50.0302 425.974 60.7116 435.833 64.5707" stroke="#191A35" stroke-width="6" stroke-miterlimit="10" stroke-linecap="round" stroke-linejoin="round"/>
<path d="M444.795 47.1362C445.691 52.4425 454.998 59.3337 460.375 58.9202" stroke="#191A35" stroke-width="6" stroke-miterlimit="10" stroke-linecap="round" stroke-linejoin="round"/>
<path d="M444.795 32.0444C446.518 38.8667 452.723 47.8943 459.893 49.9616" stroke="#191A35" stroke-width="6" stroke-miterlimit="10" stroke-linecap="round" stroke-linejoin="round"/>
<path d="M467.89 44.793C466.856 53.407 479.54 58.7133 485.814 60.8495" stroke="#191A35" stroke-width="6" stroke-miterlimit="10" stroke-linecap="round" stroke-linejoin="round"/>
<path d="M476.37 68.3608C476.37 76.6992 476.163 85.1754 477.817 93.376" stroke="#191A35" stroke-width="6" stroke-miterlimit="10" stroke-linecap="round" stroke-linejoin="round"/>
<path d="M491.467 49.9614C493.259 52.7179 495.327 55.4744 497.602 57.9552" stroke="#191A35" stroke-width="6" stroke-miterlimit="10" stroke-linecap="round" stroke-linejoin="round"/>
<path d="M438.659 5.65063C450.379 -2.82558 476.162 5.65064 486.71 12.8175C496.706 19.6398 503.324 30.8725 507.047 42.1741C510.149 51.6151 508.908 57.8861 506.564 66.9137" stroke="#191A35" stroke-width="6" stroke-miterlimit="10" stroke-linecap="round" stroke-linejoin="round"/>
<path d="M504.566 73.8052C504.152 76.4928 503.601 78.3534 502.429 81.5234" stroke="#191A35" stroke-width="6" stroke-miterlimit="10" stroke-linecap="round" stroke-linejoin="round"/>
<path d="M107.063 180.688C87.2081 205.29 82.5203 245.466 78.2461 275.58C75.3506 296.047 72.0415 316.721 71.2143 337.463C70.9385 344.217 70.387 355.45 72.7999 361.169" stroke="#191A35" stroke-width="6" stroke-miterlimit="10" stroke-linecap="round" stroke-linejoin="round"/>
<path d="M173.106 160.634C179.173 198.191 154.768 235.749 166.557 272.134C173.451 293.428 183.585 311.483 186.963 334.155C190.203 355.725 187.928 375.71 183.447 396.866C178.414 420.64 170.555 443.657 168.487 468.052C166.833 487.072 172.348 505.885 176.346 524.147C178.414 533.45 187.17 567.975 177.587 574.728C168.142 581.413 164.971 561.359 174.898 558.809C195.098 553.641 181.861 589.889 180.069 596.022C175.864 610.632 166.557 652.048 189.513 656.251" stroke="#191A35" stroke-width="6" stroke-miterlimit="10" stroke-linecap="round" stroke-linejoin="round"/>
<path d="M209.713 680.991C209.23 683.403 209.575 685.608 210.885 686.918" stroke="#191A35" stroke-width="6" stroke-miterlimit="10" stroke-linecap="round" stroke-linejoin="round"/>
<path d="M214.4 658.595C215.572 658.595 216.744 658.595 217.916 658.595" stroke="#191A35" stroke-width="6" stroke-miterlimit="10" stroke-linecap="round" stroke-linejoin="round"/>
<path d="M72.9376 361.652C69.1459 361.583 67.0088 365.924 67.0088 369.232C67.0088 374.883 69.1459 374.538 73.4201 374.332C77.6254 374.125 81.0724 375.227 80.7277 370.404C80.4519 366.2 76.5913 361.79 72.455 361.652" stroke="#191A35" stroke-width="6" stroke-miterlimit="10" stroke-linecap="round" stroke-linejoin="round"/>
<path d="M72.4551 380.327C74.1786 379.845 75.902 379.707 77.6945 379.845" stroke="#191A35" stroke-width="6" stroke-miterlimit="10" stroke-linecap="round" stroke-linejoin="round"/>
<path d="M27.438 406.169C21.6471 401.138 13.3744 398.106 6.8252 394.178" stroke="#191A35" stroke-width="6" stroke-miterlimit="10" stroke-linecap="round" stroke-linejoin="round"/>
<path d="M23.1637 423.397C16.3388 426.153 9.30697 426.705 2.06836 428.152" stroke="#191A35" stroke-width="6" stroke-miterlimit="10" stroke-linecap="round" stroke-linejoin="round"/>
<path d="M746.818 154.433C722.689 178.965 723.861 215.765 730.962 247.326C732.961 256.078 735.443 275.443 743.853 280.956C748.748 284.194 754.608 284.746 755.504 276.821C757.227 261.453 742.13 271.928 738.338 278.337C705.661 334.018 751.368 402.103 721.724 459.163C715.45 471.291 705.316 485.901 691.528 490.035C688.15 491.069 680.843 492.723 678.568 488.726C676.155 484.454 679.878 479.009 684.428 478.251C693.941 476.735 697.25 493.412 695.734 499.821C691.322 517.876 678.361 533.657 684.014 553.366C689.047 570.87 704.075 582.722 701.662 602.294" stroke="#191A35" stroke-width="6" stroke-miterlimit="10" stroke-linecap="round" stroke-linejoin="round"/>
<path d="M695.527 616.42C693.458 618.487 692.286 621.037 692.493 623.449" stroke="#191A35" stroke-width="6" stroke-miterlimit="10" stroke-linecap="round" stroke-linejoin="round"/>
<path d="M705.592 622.484C705.454 625.172 705.109 627.859 704.558 630.547" stroke="#191A35" stroke-width="6" stroke-miterlimit="10" stroke-linecap="round" stroke-linejoin="round"/>
<path d="M795.006 147.403C810.862 155.604 820.927 193.988 825.408 209.562C835.749 245.603 840.299 285.71 840.23 323.13C840.161 359.653 836.852 397.073 826.166 432.149C819.341 454.614 812.516 477.769 809.069 500.923" stroke="#191A35" stroke-width="6" stroke-miterlimit="10" stroke-linecap="round" stroke-linejoin="round"/>
<path d="M53.6348 425.809V407.203C53.6348 395.005 63.562 385.082 75.7642 385.082C87.9664 385.082 97.8937 395.005 97.8937 407.203V425.809" stroke="#191A35" stroke-width="6" stroke-miterlimit="10" stroke-linecap="round" stroke-linejoin="round"/>
<path d="M75.7642 432.907C87.986 432.907 97.8937 429.729 97.8937 425.809C97.8937 421.889 87.986 418.711 75.7642 418.711C63.5425 418.711 53.6348 421.889 53.6348 425.809C53.6348 429.729 63.5425 432.907 75.7642 432.907Z" stroke="#191A35" stroke-width="6" stroke-miterlimit="10" stroke-linecap="round" stroke-linejoin="round"/>
<path d="M53.6348 418.711C53.6348 414.783 63.562 411.613 75.7642 411.613C87.9664 411.613 97.8937 414.783 97.8937 418.711" stroke="#191A35" stroke-width="6" stroke-miterlimit="10" stroke-linecap="round" stroke-linejoin="round"/>
<path d="M66.4575 425.809H71.4901" stroke="#191A35" stroke-width="6" stroke-miterlimit="10" stroke-linecap="round" stroke-linejoin="round"/>
<path d="M80.0386 425.809H85.1401" stroke="#191A35" stroke-width="6" stroke-miterlimit="10" stroke-linecap="round" stroke-linejoin="round"/>
<path d="M808.793 506.643C805.002 506.023 802.313 510.02 801.831 513.328C801.003 518.91 803.14 518.91 807.484 519.254C811.689 519.599 814.86 521.253 815.274 516.429C815.618 512.225 812.447 507.332 808.38 506.574" stroke="#191A35" stroke-width="6" stroke-miterlimit="10" stroke-linecap="round" stroke-linejoin="round"/>
<path d="M805.622 525.043C807.414 524.836 809.138 524.905 810.93 525.318" stroke="#191A35" stroke-width="6" stroke-miterlimit="10" stroke-linecap="round" stroke-linejoin="round"/>
<path d="M780.459 567.355L783.148 548.955C784.94 536.896 796.108 528.488 808.241 530.211C820.306 532.003 828.716 543.167 826.993 555.295L824.304 573.695" stroke="#191A35" stroke-width="6" stroke-miterlimit="10" stroke-linecap="round" stroke-linejoin="round"/>
<path d="M824.314 573.741C824.878 569.861 815.531 565.291 803.436 563.533C791.341 561.775 781.079 563.495 780.515 567.374C779.951 571.254 789.298 575.824 801.392 577.582C813.487 579.34 823.749 577.62 824.314 573.741Z" stroke="#191A35" stroke-width="6" stroke-miterlimit="10" stroke-linecap="round" stroke-linejoin="round"/>
<path d="M781.493 560.326C782.045 556.467 792.317 554.744 804.381 556.536C816.445 558.328 825.821 562.876 825.269 566.735" stroke="#191A35" stroke-width="6" stroke-miterlimit="10" stroke-linecap="round" stroke-linejoin="round"/>
<path d="M794.592 569.422L791.973 587.063" stroke="#191A35" stroke-width="6" stroke-miterlimit="10" stroke-linecap="round" stroke-linejoin="round"/>
<path d="M810.173 571.696L807.622 589.338" stroke="#191A35" stroke-width="6" stroke-miterlimit="10" stroke-linecap="round" stroke-linejoin="round"/>
<path d="M866.22 533.312C875.044 529.66 883.868 526.076 892.692 522.424" stroke="#191A35" stroke-width="6" stroke-miterlimit="10" stroke-linecap="round" stroke-linejoin="round"/>
<path d="M872.77 547.646C881.18 548.335 889.522 548.955 897.932 549.644" stroke="#191A35" stroke-width="6" stroke-miterlimit="10" stroke-linecap="round" stroke-linejoin="round"/>
</g>

</svg>
