<svg width="132" height="91" viewBox="0 0 132 91" fill="none" xmlns="http://www.w3.org/2000/svg">
<path d="M0 5C0 2.23857 2.23858 0 5 0H127C129.761 0 132 2.23858 132 5V85.5693C132 88.3308 129.761 90.5693 127 90.5693H5C2.23858 90.5693 0 88.3308 0 85.5693V5Z" fill="#F8F8FB"/>
<g opacity="0.5">
<rect x="15.3652" y="18.1217" width="13.4806" height="3.35284" rx="1.67642" fill="#B6B6C2"/>
<rect x="15.3649" y="32.1826" width="51.3471" height="4.34636" rx="2.17318" fill="#B6B6C2"/>
<rect x="15.3649" y="48.9176" width="51.3471" height="1.77856" rx="0.88928" fill="#B6B6C2"/>
<rect x="15.3649" y="39.4719" width="31.2234" height="4.34636" rx="2.17318" fill="#B6B6C2"/>
<rect x="77.4464" y="32.1826" width="40.1008" height="27.988" rx="5" fill="#B6B6C2"/>
<rect x="15.3649" y="53.6547" width="51.3471" height="1.77856" rx="0.88928" fill="#B6B6C2"/>
<rect x="15.3649" y="69.6113" width="51.3471" height="1.77856" rx="0.88928" fill="#B6B6C2"/>
<rect x="15.3649" y="58.392" width="51.3471" height="1.77856" rx="0.88928" fill="#B6B6C2"/>
<rect x="77.4464" y="66.088" width="40.1008" height="1.77856" rx="0.88928" fill="#B6B6C2"/>
<rect x="15.3649" y="74.3486" width="41.0995" height="1.77856" rx="0.88928" fill="#B6B6C2"/>
<rect x="15.3649" y="63.1293" width="25.9846" height="1.77856" rx="0.88928" fill="#B6B6C2"/>
<rect x="77.4464" y="70.8253" width="20.2933" height="1.77856" rx="0.88928" fill="#B6B6C2"/>
<rect x="44.6761" y="63.1293" width="5.68439" height="1.77856" rx="0.88928" fill="#B6B6C2"/>
<rect x="100.338" y="70.8253" width="4.43937" height="1.77856" rx="0.88928" fill="#B6B6C2"/>
<rect x="66.712" y="18.1217" width="7.89718" height="3.35284" rx="1.67642" fill="#B6B6C2"/>
<rect x="77.4464" y="18.1217" width="7.89718" height="3.35284" rx="1.67642" fill="#B6B6C2"/>
<rect x="88.1811" y="18.1217" width="7.89718" height="3.35284" rx="1.67642" fill="#B6B6C2"/>
<rect x="98.9158" y="18.1217" width="7.89718" height="3.35284" rx="1.67642" fill="#B6B6C2"/>
<rect x="109.65" y="18.1217" width="7.89718" height="3.35284" rx="1.67642" fill="#B6B6C2"/>
</g>
<g filter="url(#filter0_d_2187_296)">
<rect x="8" y="84" width="16" height="116" rx="3" transform="rotate(-90 8 84)" fill="#FFD37D"/>
<rect x="9" y="83" width="14" height="114" rx="2" transform="rotate(-90 9 83)" stroke="#FFD37D" stroke-width="2"/>
</g>
<rect x="85.5" y="78.5" width="5" height="14" rx="2.5" transform="rotate(-90 85.5 78.5)" stroke="#191A35"/>
<rect x="103" y="79" width="6" height="15" rx="3" transform="rotate(-90 103 79)" fill="#191A35"/>
<rect x="30" y="75" width="2" height="18" rx="1" transform="rotate(-90 30 75)" fill="#191A35"/>
<rect x="30" y="79" width="2" height="26" rx="1" transform="rotate(-90 30 79)" fill="#191A35"/>
<rect x="51" y="75" width="2" height="7" rx="1" transform="rotate(-90 51 75)" fill="#191A35"/>
<rect x="61" y="75" width="2" height="13" rx="1" transform="rotate(-90 61 75)" fill="#191A35"/>
<rect x="13" y="80" width="8" height="10" rx="2" transform="rotate(-90 13 80)" fill="#191A35"/>
<defs>
<filter id="filter0_d_2187_296" x="8" y="68" width="116" height="16" filterUnits="userSpaceOnUse" color-interpolation-filters="sRGB">
<feFlood flood-opacity="0" result="BackgroundImageFix"/>
<feColorMatrix in="SourceAlpha" type="matrix" values="0 0 0 0 0 0 0 0 0 0 0 0 0 0 0 0 0 0 127 0" result="hardAlpha"/>
<feOffset/>
<feColorMatrix type="matrix" values="0 0 0 0 1 0 0 0 0 0.827451 0 0 0 0 0.490196 0 0 0 0.1 0"/>
<feBlend mode="normal" in2="BackgroundImageFix" result="effect1_dropShadow_2187_296"/>
<feBlend mode="normal" in="SourceGraphic" in2="effect1_dropShadow_2187_296" result="shape"/>
</filter>
</defs>
</svg>
