<svg width="2570" height="1600" viewBox="0 0 2570 1600" fill="none" xmlns="http://www.w3.org/2000/svg">
<rect width="2570" height="1600" fill="white"/>
<g clip-path="url(#clip0_2139_1138)">
<path d="M1260.43 293.365C1260.65 341.315 1261.34 389.264 1260.65 437.214C1260.5 447.048 1274.22 443.084 1279.55 442.398C1289.84 441.178 1300.13 440.34 1310.49 440.035C1317.19 439.806 1333.65 442.931 1338.99 438.815C1345.47 433.86 1342.19 417.318 1342.26 409.999C1342.49 367.691 1342.72 325.382 1343.03 283.074C1343.1 265.693 1346.84 244.196 1342.04 227.349C1336.63 208.52 1312.85 213.17 1297.69 212.941C1288.24 212.789 1278.41 211.95 1269.11 213.017C1259.05 214.084 1260.65 220.869 1260.5 230.017C1260.27 251.057 1260.27 272.249 1260.43 293.365Z" fill="#F0F0F5"/>
<path d="M799.793 656.609C811.909 657.066 806.879 611.784 806.956 603.323C807.108 581.52 807.184 559.718 807.337 537.916C807.489 517.791 807.489 497.742 807.718 477.617C807.87 463.743 812.671 437.9 795.907 431.344C788.363 428.371 778.304 429.743 770.303 429.667C759.483 429.515 748.586 429.057 737.765 429.134C731.593 429.21 726.869 429.286 725.192 435.994C722.678 445.981 724.964 459.474 724.888 469.841C724.735 512.836 725.421 555.754 725.497 598.749C725.497 610.336 725.497 621.923 725.421 633.51C725.345 640.6 721.535 657.142 730.145 660.115C734.489 661.64 741.728 659.277 746.148 658.743C751.634 658.133 757.12 657.6 762.607 657.218C775.028 656.304 787.448 656.151 799.793 656.609Z" fill="#F0F0F5"/>
<path d="M688.083 920.979C682.215 922.199 676.272 924.486 670.938 927.23C651.354 937.217 628.113 953.683 647.315 976.019C656.917 987.148 666.823 997.973 676.5 1008.95C682.444 1015.74 690.521 1027.32 700.503 1019.93C713 1010.63 717.115 988.673 720.925 974.494C724.278 961.992 727.479 947.508 721.611 935.235C714.677 920.674 701.418 918.159 688.083 920.979Z" fill="#F0F0F5"/>
<path d="M1197.71 783.61C1205.1 778.426 1202.44 768.211 1197.86 762.037C1193.06 755.557 1182.93 748.391 1174.62 752.203C1165.71 756.319 1167.08 768.974 1171.96 775.835C1177.14 783.077 1189.33 789.404 1197.71 783.61Z" fill="#F0F0F5"/>
<path d="M1284.43 762.57C1284.05 756.548 1285.5 734.67 1278.94 733.984C1273.76 733.45 1269.65 740.463 1267.74 744.275C1265.15 749.611 1262.86 757.387 1265.07 763.18C1268.88 772.938 1279.55 769.431 1284.43 762.57Z" fill="#F0F0F5"/>
<path d="M1234.29 818.982C1244.42 820.735 1263.17 807.852 1246.71 802.134C1241.53 800.305 1234.14 802.211 1230.4 806.251C1226.44 810.672 1226.36 818.829 1234.29 818.982Z" fill="#F0F0F5"/>
<path d="M1081.66 950.024C1069.85 937.522 1043.94 952.616 1032.59 958.714C1015.82 967.786 1000.05 978.687 985.951 991.494C971.701 1004.45 959.128 1019.39 948.765 1035.63C944.269 1042.64 926.895 1064.75 942.212 1067.88C956.233 1070.77 976.426 1063.68 989.608 1058.88C1005.76 1053.01 1020.93 1044.47 1034.34 1033.73C1047.06 1023.59 1058.34 1011.47 1067.33 997.973C1073.66 988.368 1092.4 961.306 1081.66 950.024Z" fill="#F0F0F5"/>
<path d="M1394.77 964.736C1424.71 979.83 1458.85 986.691 1492.3 984.023C1530.1 981.05 1491.16 940.952 1477.37 930.28C1455.12 913.204 1430.12 905.657 1402.46 905.352C1388.67 905.2 1374.88 905.962 1361.16 907.639C1355.22 908.325 1344.7 908.173 1339.83 912.365C1325.73 924.258 1386.99 960.772 1394.77 964.736Z" fill="#F0F0F5"/>
<path d="M1103.83 1042.19C1111.76 1046.23 1126.16 1038.76 1134.01 1037C1145.67 1034.34 1166.32 1026.86 1154.05 1045.01C1149.17 1052.25 1109.93 1083.2 1133.7 1087.24C1157.48 1091.36 1180.03 1101.42 1201.14 1113.77C1212.88 1120.63 1242.14 1146.62 1255.85 1133.74C1270.87 1119.64 1247.55 1090.21 1240.46 1077.56C1221.03 1043.1 1201.37 1008.87 1182.09 974.341C1174.32 960.391 1164.41 927.84 1142.77 941.181C1124.86 952.234 1119.15 975.332 1110.69 993.247C1105.66 1004.07 1086.99 1033.65 1103.83 1042.19ZM1161.67 1033.27C1161.59 1033.57 1161.44 1033.5 1161.36 1033.27C1161.52 1033.34 1161.67 1033.34 1161.67 1033.27Z" fill="#F0F0F5"/>
<path d="M1323.82 1017.95C1335.33 1005.44 1348.13 990.884 1346.53 973.579C1345.24 959.171 1322.07 949.719 1311.71 943.773C1305.54 940.266 1297.08 933.176 1290.07 932.033C1282.98 930.89 1279.78 939.58 1278.94 945.678C1276.28 964.279 1275.67 983.489 1273.99 1002.24C1270.71 1039.9 1267.36 1077.64 1264.08 1115.29C1263.63 1120.71 1260.5 1130.16 1266.06 1133.59C1271.93 1137.17 1277.11 1129.93 1280.77 1126.27C1292.51 1114.53 1303.17 1101.65 1312.78 1088C1319.86 1077.86 1328.24 1064.22 1314.83 1055.68C1308.81 1051.87 1303.55 1052.25 1305.16 1043.18C1306.3 1036.55 1311.94 1031.21 1316.05 1026.41C1318.49 1023.74 1321.16 1020.92 1323.82 1017.95Z" fill="#F0F0F5"/>
<path d="M857.325 1200.29C848.562 1177.35 839.417 1154.48 829.74 1131.91C826.082 1123.37 821.053 1114.84 810.766 1114.76C802.994 1114.68 792.021 1119.03 785.01 1122.23C777.238 1125.81 777.619 1130.77 780.21 1138.7C792.249 1175.67 804.365 1212.64 816.405 1249.54C831.264 1295.12 842.846 1345.28 867.383 1386.91C875.689 1401.01 903.197 1431.65 921.485 1413.28C937.107 1397.58 917.828 1362.97 911.808 1347.11C893.139 1298.4 875.994 1249.08 857.325 1200.29Z" fill="#F0F0F5"/>
<path d="M1013.99 1175.9C993.8 1169.49 984.427 1195.87 981.912 1210.81C977.493 1237.19 982.369 1265.39 985.189 1291.77C988.923 1326.76 991.818 1368.38 1013.92 1397.35C1017.65 1402.31 1024.05 1411.61 1031.14 1409.93C1037.61 1408.4 1041.58 1399.79 1043.33 1394.07C1047.6 1380.2 1047.44 1363.73 1048.21 1349.4C1050.11 1312.28 1047.37 1274.85 1039.98 1238.33C1036.55 1220.95 1034.95 1182.61 1013.99 1175.9Z" fill="#F0F0F5"/>
<path d="M1316.81 1248.32C1291.36 1248.47 1266.9 1256.32 1242.59 1263.26C1218.59 1270.04 1194.36 1275.84 1169.52 1278.66C1146.2 1281.33 1122.81 1279.95 1099.49 1282.39C1085.24 1283.92 1062.08 1290.78 1072.13 1310.29C1074.34 1314.56 1078.15 1318.07 1081.96 1320.89C1083.26 1321.88 1085.32 1323.56 1086.76 1324.09C1089.89 1325.24 1090.73 1323.79 1093.01 1324.4C1098.12 1325.85 1103.22 1329.66 1108.48 1331.41C1113.82 1333.16 1119.38 1334.46 1124.94 1335.22C1146.66 1338.27 1168.91 1334.69 1189.94 1329.05C1214.32 1322.49 1238.1 1313.8 1262.94 1309.07C1286.71 1304.5 1310.34 1303.97 1334.42 1302.67C1352.93 1301.68 1387.45 1291.46 1369.47 1266.54C1358.19 1250.76 1334.72 1248.17 1316.81 1248.32Z" fill="#F0F0F5"/>
<path d="M1447.35 1076.11C1443.84 1068.41 1438.13 1065.21 1428.98 1073.67C1422.2 1079.92 1418.31 1088.61 1415.95 1097.38C1410.16 1118.42 1409.93 1141.44 1410.01 1163.09C1410.16 1189.09 1412.06 1215.08 1411.23 1241.15C1410.46 1266.54 1405.05 1290.4 1399.34 1315.02C1395.22 1332.78 1391.41 1351.61 1394.16 1369.91C1395.22 1376.84 1397.13 1384.01 1401.32 1389.8C1404.9 1394.83 1414.35 1403.6 1421.21 1399.94C1428.6 1395.98 1425.48 1375.85 1425.86 1368.69C1426.54 1354.74 1427.53 1340.79 1428.9 1326.84C1431.5 1300.46 1435.53 1274.39 1440.33 1248.32C1445.59 1219.96 1451.23 1191.53 1453.52 1162.79C1454.74 1147.92 1455.04 1132.9 1453.82 1118.04C1453.21 1110.8 1452.83 1088 1447.35 1076.11Z" fill="#F0F0F5"/>
<path d="M1717.4 813.264C1717.78 801.525 1713.97 789.709 1706.27 780.79C1698.35 771.566 1682.65 766.229 1682.65 784.449C1682.65 797.103 1689.89 810.063 1698.81 818.753C1708.18 827.825 1716.94 828.129 1717.4 813.264ZM1697.28 781.399C1697.36 781.247 1697.51 781.323 1697.59 781.628C1697.44 781.552 1697.36 781.476 1697.28 781.399Z" fill="#F0F0F5"/>
<path d="M1751.46 764.095C1747.8 777.588 1739.5 801.372 1747.04 814.941C1755.96 830.95 1770.51 814.103 1775.08 804.269C1781.56 790.319 1783.69 769.279 1777.75 754.795C1775.24 748.696 1769.98 744.885 1763.35 747.095C1755.88 749.535 1753.29 757.31 1751.46 764.095Z" fill="#F0F0F5"/>
<path d="M1718.09 628.327C1734.39 623.829 1720.75 589.372 1707.88 588.229C1692.18 586.857 1699.95 633.282 1718.09 628.327Z" fill="#F0F0F5"/>
<path d="M1731.57 738.405C1733.71 738.405 1738.28 736.042 1740.26 736.957C1740.95 737.261 1741.94 739.853 1742.47 740.311C1750.62 747.248 1754.13 745.19 1758.24 736.118C1764.26 723.082 1754.05 720.414 1743.61 718.051C1731.34 715.231 1724.49 717.06 1724.49 730.553C1724.49 736.042 1725.93 738.405 1731.57 738.405Z" fill="#F0F0F5"/>
<path d="M1710.69 1281.25C1651.18 1241.38 1592.43 1200.22 1534.67 1157.83C1520.88 1147.69 1507.16 1137.55 1493.52 1127.26C1486.44 1121.93 1470.05 1102.49 1461.37 1112.7C1451.46 1124.29 1472.8 1133.51 1479.27 1140.91C1496.88 1161.11 1651.41 1267.22 1673.89 1280.33C1683.11 1285.67 1693.09 1292.3 1703.91 1293.68C1710.92 1294.59 1719.08 1286.89 1710.69 1281.25Z" fill="#F0F0F5"/>
<path d="M1785.83 958.333C1752.68 963.898 1718.77 964.508 1685.4 960.62C1680.06 960.01 1670.77 959.4 1672.67 968.09C1674.19 974.875 1683.87 974.189 1689.13 974.799C1705.59 976.552 1722.2 977.162 1738.74 976.628C1731.04 977.543 1723.27 978.153 1715.49 978.382C1708.26 978.61 1699.11 976.781 1692.18 978.229C1684.25 979.83 1683.26 988.825 1691.19 991.798C1696.98 993.933 1706.5 992.408 1712.52 992.256C1720.68 992.027 1728.75 991.494 1736.83 990.655C1741.56 990.121 1778.21 986.538 1763.43 975.104C1770.59 974.418 1785.6 975.18 1791.47 970.911C1797.72 966.185 1793.22 957.113 1785.83 958.333Z" fill="#F0F0F5"/>
<path d="M1614.61 358.772C1633.35 357.857 1652.25 357.4 1670.92 355.951C1675.41 355.57 1680.14 355.57 1681.36 350.234C1682.58 345.127 1679.22 342.687 1674.96 342.001C1666.96 340.629 1656.9 342.916 1648.82 343.297C1640.13 343.754 1631.37 344.136 1622.68 344.593C1617.35 344.898 1609.8 343.754 1608.2 350.463C1607.21 354.808 1610.03 359.001 1614.61 358.772Z" fill="#F0F0F5"/>
<path d="M1911.41 328.203C1911.41 319.894 1911.41 311.508 1911.41 303.199C1911.41 298.168 1914.76 264.397 1900.21 274.994C1895.4 272.707 1887.63 274.307 1882.45 274.307C1876.81 274.307 1871.25 274.307 1865.61 274.307C1852.96 274.307 1840.39 274.307 1827.74 274.307C1815.85 274.307 1803.89 274.307 1792 274.307C1785.9 274.307 1772.8 271.563 1772.8 281.168C1772.8 290.087 1784.08 288.029 1789.94 288.029C1801.83 288.029 1813.79 288.029 1825.68 288.029C1849.53 288.029 1873.84 289.477 1897.69 288.029C1897.69 304.876 1897.69 321.647 1897.69 338.494C1897.69 343.221 1896.17 350.082 1901.27 352.826C1904.85 354.732 1908.89 353.055 1910.8 349.777C1913.46 345.203 1911.41 333.387 1911.41 328.203Z" fill="#F0F0F5"/>
<path d="M1346.76 790.09C1346.68 790.09 1346.76 790.09 1346.76 790.09C1336.78 780.942 1333.65 778.198 1336.17 764.019C1341.27 734.593 1321.16 726.894 1302.26 710.352C1287.93 697.85 1284.96 682.832 1277.11 666.366C1268.65 648.757 1269.42 628.784 1250.9 617.426C1232.31 605.991 1208.23 608.354 1187.65 611.403C1163.35 614.986 1138.5 622.533 1119.3 638.389C1099.57 654.627 1091.79 674.98 1089.05 699.756C1087.75 711.419 1086 722.244 1079.3 732.23C1072.9 741.683 1063.68 748.925 1055.6 756.929C1040.66 771.718 1025.65 793.749 1037.92 815.018C1040.05 818.753 1045.54 822.031 1046.91 825.995C1049.2 832.475 1041.35 841.622 1038.83 847.34C1035.18 855.878 1031.82 866.779 1032.81 876.079C1033.73 884.465 1048.82 885.913 1060.09 883.321C1077.09 879.357 1092.94 873.106 1110.23 880.805C1124.64 887.209 1137.67 900.931 1153.97 896.28C1177.6 889.648 1180.87 855.649 1175.92 835.371C1172.95 823.251 1164.64 811.968 1163.35 799.543C1161.97 786.431 1170.74 774.691 1170.58 761.579C1170.43 748.696 1163.27 737.643 1161.67 725.064C1159.99 712.181 1164.64 698.841 1169.82 687.33C1178.97 666.9 1197.48 640.829 1219.12 632.062C1229.18 627.945 1263.24 665.375 1268.43 677.725C1273.84 690.608 1280.77 705.625 1282.22 719.652C1285.19 749.306 1287.48 793.063 1284.5 806.403C1281.53 819.82 1271.55 830.569 1272.77 845.053C1273.15 849.855 1275.59 859.461 1280.62 861.824C1288.77 865.635 1304.01 855.878 1312.85 855.42C1319.63 855.039 1326.8 858.393 1333.5 856.792C1340.82 855.115 1352.32 827.367 1354.76 820.354C1358.5 808.919 1355.37 798.094 1346.76 790.09Z" fill="#FFD37D"/>
<path d="M1609.35 460.694C1607.29 451.851 1605.16 443.008 1603.33 434.165C1602.26 428.981 1601.5 421.129 1596.01 418.461C1589.46 415.336 1571.78 423.721 1565.91 427.075C1552.96 434.47 1557.15 447.505 1562.26 458.711C1569.04 473.424 1574.3 488.899 1580.09 504.069C1585.34 517.867 1589.08 536.468 1597.46 548.665C1603.25 556.974 1614.91 555.449 1622.91 550.57C1634.57 543.405 1624.28 523.737 1621.77 513.141C1617.58 495.684 1613.46 478.151 1609.35 460.694Z" fill="#FFD37D"/>
<path d="M1964.82 373.79C1958.73 369.139 1949.89 368.758 1942.65 367.157C1932.44 364.947 1922.23 362.507 1912.02 359.992C1900.28 357.171 1879.78 347.642 1885.65 367.31C1896.09 402.376 1904.7 438.053 1914.45 473.424C1916.89 482.343 1919.94 491.11 1922.07 500.029C1922.91 503.764 1925.58 510.168 1924.89 513.903C1923.75 520.078 1920.78 511.769 1917.43 509.71C1910.57 505.594 1898.76 504.222 1890.98 502.697C1880.77 500.715 1870.33 499.648 1859.97 501.02C1842.6 503.307 1829.41 514.437 1813.03 519.315C1796.8 524.194 1782.25 514.513 1766.02 516.342C1749.79 518.172 1740.72 533.495 1725.02 537.077C1710.24 540.432 1695.53 535.553 1680.82 534.409C1667.03 533.342 1651.03 534.943 1640.89 545.387C1635.03 551.409 1634.11 556.974 1635.18 565.207C1636.17 573.211 1636.63 586.018 1646.99 585.713C1655.83 585.408 1666.57 580.377 1675.11 578.09C1685.85 575.193 1696.6 572.373 1707.34 569.628C1727.53 564.445 1747.73 559.49 1768 554.687C1788.95 549.732 1809.91 545.006 1830.94 540.432C1841.15 538.221 1851.36 536.086 1861.57 533.952C1866.37 532.961 1871.25 531.97 1876.05 530.979C1880.7 530.064 1888.01 526.862 1892.58 527.701C1895.56 528.235 1898.83 531.665 1903.1 532.885C1908.21 534.409 1913.54 535.553 1918.8 536.468C1925.73 537.764 1934.65 540.432 1940.36 534.791C1948.44 526.786 1946.53 510.32 1948.06 499.953C1951.49 477.693 1955.07 455.052 1960.25 433.174C1963.38 419.757 1979.15 384.691 1964.82 373.79Z" fill="#FFD37D"/>
<path fill-rule="evenodd" clip-rule="evenodd" d="M1216.34 628.576C1216.96 626.745 1218.95 625.764 1220.78 626.384C1246.14 634.974 1264.43 657.532 1274.11 681.761L1274.12 681.772C1280.84 698.738 1284.01 716.705 1285.85 734.616L1285.85 734.626C1286.6 742.133 1287.13 749.705 1287.65 757.147L1287.69 757.676C1287.69 757.699 1287.69 757.722 1287.7 757.745C1287.73 758.46 1287.79 759.201 1287.84 759.99L1287.84 760.008C1287.9 760.771 1287.96 761.58 1288 762.377C1288.84 776.27 1289.25 790.722 1286.09 804.807C1282.6 820.433 1273.96 836.064 1259.62 844.558L1259.62 844.559C1241.06 855.532 1217.71 852.038 1199.12 843.833C1197.35 843.053 1196.55 840.987 1197.33 839.218C1198.11 837.45 1200.18 836.649 1201.94 837.429C1219.63 845.233 1240.32 847.837 1256.05 838.533C1268.23 831.324 1276.04 817.685 1279.26 803.278L1279.26 803.273C1282.19 790.226 1281.85 776.631 1281.01 762.781L1281.01 762.745C1280.97 762.03 1280.92 761.289 1280.86 760.501L1280.86 760.482C1280.8 759.725 1280.75 758.922 1280.71 758.13L1280.67 757.678C1280.15 750.207 1279.63 742.727 1278.89 735.327C1277.08 717.718 1274 700.47 1267.61 684.354C1258.4 661.322 1241.33 640.736 1218.54 633.014C1216.7 632.393 1215.72 630.407 1216.34 628.576Z" fill="#191A35"/>
<path fill-rule="evenodd" clip-rule="evenodd" d="M1213.86 708.317C1213.89 710.25 1212.35 711.84 1210.41 711.869C1200.77 712.013 1191.19 714.535 1182.78 719.139C1181.08 720.067 1178.96 719.445 1178.03 717.749C1177.1 716.054 1177.72 713.927 1179.42 712.999C1188.84 707.845 1199.53 705.031 1210.31 704.87C1212.24 704.841 1213.83 706.385 1213.86 708.317Z" fill="#191A35"/>
<path fill-rule="evenodd" clip-rule="evenodd" d="M1198.36 729.898C1199.84 729.717 1201.33 730.509 1201.97 731.946C1203.89 736.237 1204.35 741.243 1203.16 745.841C1202.78 747.291 1201.52 748.341 1200.03 748.451C1198.53 748.562 1197.14 747.709 1196.55 746.331C1194.81 742.239 1194.02 737.614 1194.46 733.039C1194.64 731.115 1196.35 729.705 1198.28 729.89C1198.3 729.892 1198.33 729.895 1198.36 729.898Z" fill="#191A35"/>
<path fill-rule="evenodd" clip-rule="evenodd" d="M1263.16 697.01C1263.28 698.938 1261.82 700.605 1259.89 700.732C1253.6 701.147 1247.5 703.294 1242.28 706.837C1241.19 707.59 1240.62 708.147 1240.34 708.662C1240.22 708.958 1240.15 709.425 1240.07 710.604C1239.87 716.689 1241.06 722.742 1243.62 728.139L1243.63 728.147C1244.29 729.558 1245.06 730.975 1245.88 732.5C1245.96 732.654 1246.04 732.809 1246.13 732.965C1247.02 734.63 1247.97 736.418 1248.79 738.256C1250.41 741.926 1251.67 746.176 1250.84 750.831L1250.84 750.852C1249.81 756.463 1245.96 760.789 1243.06 764.062L1242.92 764.209C1241.64 765.654 1239.43 765.785 1237.98 764.501C1236.54 763.217 1236.41 761.004 1237.69 759.559C1240.86 755.993 1243.31 753.048 1243.95 749.6C1244.42 746.94 1243.77 744.218 1242.38 741.088C1241.69 739.525 1240.86 737.954 1239.96 736.281C1239.88 736.123 1239.79 735.964 1239.7 735.804C1238.9 734.309 1238.05 732.724 1237.3 731.134C1234.23 724.656 1232.83 717.466 1233.08 710.307C1233.08 710.27 1233.08 710.233 1233.08 710.195C1233.09 710.142 1233.09 710.086 1233.09 710.027C1233.16 708.998 1233.27 707.278 1234.01 705.684C1234.02 705.651 1234.04 705.618 1234.05 705.585C1235.16 703.372 1237.02 701.961 1238.32 701.064L1238.34 701.054C1244.56 696.825 1251.86 694.247 1259.43 693.747C1261.36 693.62 1263.03 695.081 1263.16 697.01Z" fill="#191A35"/>
<path fill-rule="evenodd" clip-rule="evenodd" d="M1256.45 721.311C1258.15 720.38 1260.28 720.998 1261.21 722.692C1263.34 726.566 1263.83 731.302 1262.46 735.524C1261.99 736.97 1260.64 737.947 1259.12 737.941C1257.6 737.935 1256.25 736.948 1255.79 735.498C1254.7 732.049 1254.11 728.415 1254.11 724.759C1254.11 723.468 1254.81 722.34 1255.85 721.734C1256.03 721.575 1256.23 721.433 1256.45 721.311Z" fill="#191A35"/>
<path fill-rule="evenodd" clip-rule="evenodd" d="M1253.78 775.669C1254.88 777.257 1254.48 779.437 1252.9 780.54C1243.48 787.07 1230.84 788.587 1220.16 784.518C1218.36 783.829 1217.45 781.807 1218.14 780.001C1218.83 778.194 1220.85 777.288 1222.66 777.977C1231.18 781.226 1241.4 779.998 1248.9 774.789C1250.49 773.687 1252.67 774.081 1253.78 775.669Z" fill="#191A35"/>
<path fill-rule="evenodd" clip-rule="evenodd" d="M1272.61 824.252C1274.54 824.163 1276.18 825.657 1276.27 827.588C1278.01 865.654 1280.13 886.874 1285.98 924.559C1286.28 926.469 1284.97 928.258 1283.06 928.555C1281.15 928.851 1279.36 927.543 1279.06 925.633C1273.18 887.697 1271.03 866.226 1269.27 827.909C1269.18 825.978 1270.68 824.341 1272.61 824.252Z" fill="#191A35"/>
<path d="M1200.99 841.47C1208.84 850.694 1218.82 858.47 1230.55 861.595C1242.21 864.721 1255.7 862.662 1264.69 854.582C1266.52 852.905 1268.2 850.923 1269.04 848.636C1270.71 843.986 1268.81 838.65 1270.03 833.847C1262.56 842.69 1251.36 847.95 1239.93 849.322C1228.42 850.694 1216.76 848.331 1206.17 843.757" fill="#191A35"/>
<path fill-rule="evenodd" clip-rule="evenodd" d="M1271.63 830.734C1273.08 831.48 1273.82 833.128 1273.42 834.708C1272.98 836.424 1273.07 838.285 1273.18 840.815C1273.19 840.922 1273.19 841.03 1273.2 841.14C1273.31 843.6 1273.43 846.76 1272.33 849.823L1272.32 849.84C1271.21 852.888 1269.06 855.322 1267.06 857.161L1267.03 857.185C1256.98 866.215 1242.2 868.34 1229.65 864.976C1217.01 861.608 1206.46 853.297 1198.32 843.738C1197.07 842.266 1197.25 840.057 1198.72 838.804C1200.19 837.552 1202.4 837.73 1203.65 839.202C1204.04 839.649 1204.42 840.093 1204.81 840.532C1205.66 840.174 1206.65 840.15 1207.56 840.544C1217.71 844.93 1228.75 847.13 1239.51 845.847C1250.21 844.562 1260.55 839.647 1267.35 831.589C1268.4 830.343 1270.18 829.989 1271.63 830.734ZM1216.34 850.962C1220.99 854.242 1226.04 856.772 1231.46 858.213L1231.46 858.214C1242.22 861.099 1254.41 859.111 1262.34 851.99C1263.98 850.481 1265.19 848.959 1265.75 847.439C1266.25 846.039 1266.31 844.446 1266.24 842.323C1258.79 848.177 1249.59 851.687 1240.34 852.797L1240.34 852.797C1232.23 853.765 1224.1 852.983 1216.34 850.962Z" fill="#191A35"/>
<path fill-rule="evenodd" clip-rule="evenodd" d="M1230.58 879.412C1232.49 879.092 1234.3 880.377 1234.62 882.283C1236.12 891.242 1236.28 900.424 1235.17 909.438C1234.94 911.356 1233.19 912.72 1231.27 912.485C1229.35 912.249 1227.99 910.503 1228.22 908.585C1229.25 900.217 1229.1 891.713 1227.71 883.444C1227.39 881.537 1228.68 879.732 1230.58 879.412Z" fill="#191A35"/>
<path fill-rule="evenodd" clip-rule="evenodd" d="M1155.62 929.211C1155.83 931.132 1154.45 932.861 1152.53 933.073C1113.65 937.352 1074.73 941.74 1039.73 957.337L1039.72 957.338C1006.45 972.149 977.799 996.994 958.355 1027.82C935.666 1063.85 925.919 1106.63 918.92 1149.4C912.691 1187.62 908.437 1226.15 906.158 1264.84C906.044 1266.77 904.387 1268.24 902.458 1268.13C900.528 1268.01 899.056 1266.35 899.17 1264.43C901.463 1225.5 905.743 1186.74 912.011 1148.27L912.011 1148.27C919.033 1105.36 928.946 1061.39 952.433 1024.09L952.434 1024.08C972.614 992.092 1002.33 966.319 1036.88 950.943C1073.04 934.828 1113.07 930.373 1151.76 926.115C1153.68 925.903 1155.41 927.289 1155.62 929.211Z" fill="#191A35"/>
<path fill-rule="evenodd" clip-rule="evenodd" d="M1150.59 925.837C1152.21 924.77 1154.38 925.212 1155.44 926.824C1162.41 937.35 1169.21 947.493 1175.86 957.403C1208.52 1006.09 1237.38 1049.12 1263.15 1104.05C1263.77 1084.51 1265.6 1056.86 1268 1029.41C1271.15 993.388 1275.32 957.302 1279.1 940.049C1279.52 938.161 1281.39 936.967 1283.27 937.381C1285.16 937.796 1286.36 939.663 1285.94 941.551C1282.26 958.297 1278.13 993.945 1274.97 1030.02C1271.82 1066.06 1269.68 1102.14 1269.94 1119.66C1269.97 1121.33 1268.82 1122.78 1267.19 1123.13C1265.57 1123.49 1263.92 1122.65 1263.24 1121.13C1236.11 1059.82 1205.52 1014.21 1170.11 961.399C1163.45 951.467 1156.62 941.28 1149.61 930.687C1148.54 929.075 1148.98 926.903 1150.59 925.837Z" fill="#191A35"/>
<path fill-rule="evenodd" clip-rule="evenodd" d="M1146.44 942.872C1147.86 944.18 1147.95 946.394 1146.64 947.818C1125.39 970.958 1109.8 999.279 1101.42 1029.63C1100.84 1031.71 1100.46 1033.81 1100.54 1035.59C1100.62 1037.34 1101.11 1038.34 1101.84 1038.93C1103.08 1039.92 1105.31 1040 1108.7 1039.23L1108.73 1039.22C1114.65 1037.95 1120.36 1036.05 1126.26 1034.09C1128.99 1033.18 1131.76 1032.26 1134.62 1031.38C1143.41 1028.67 1152.66 1026.48 1162.33 1027.26C1163.65 1027.37 1164.8 1028.22 1165.3 1029.45C1165.79 1030.68 1165.55 1032.09 1164.67 1033.08L1164.66 1033.09C1153.61 1045.51 1142.57 1057.93 1131.52 1070.28C1130.17 1071.82 1128.99 1073.28 1128.25 1074.72C1127.51 1076.12 1127.36 1077.19 1127.58 1078.1L1127.58 1078.12C1127.84 1079.18 1128.62 1080.14 1130.32 1081.04C1132.06 1081.96 1134.32 1082.57 1136.69 1083.05L1136.69 1083.05C1154.11 1086.63 1171.14 1094.81 1187.51 1103.83C1193.5 1107.14 1199.37 1110.54 1205.15 1113.88C1215.34 1119.77 1225.24 1125.5 1235.06 1130.29C1236.8 1131.14 1237.52 1133.23 1236.67 1134.97C1235.82 1136.71 1233.73 1137.43 1231.99 1136.58C1221.98 1131.7 1211.67 1125.73 1201.31 1119.75C1195.58 1116.43 1189.84 1113.11 1184.13 1109.96C1167.9 1101.01 1151.63 1093.27 1135.29 1089.91C1132.78 1089.4 1129.71 1088.63 1127.05 1087.23C1124.36 1085.81 1121.67 1083.49 1120.78 1079.75C1120.01 1076.62 1120.85 1073.77 1122.04 1071.48C1123.21 1069.23 1124.89 1067.22 1126.27 1065.64L1126.29 1065.62C1135.61 1055.21 1144.92 1044.75 1154.23 1034.28C1148.45 1034.77 1142.65 1036.23 1136.68 1038.07C1134.14 1038.85 1131.54 1039.72 1128.9 1040.59C1122.82 1042.61 1116.51 1044.71 1110.23 1046.06C1106.92 1046.81 1101.54 1047.65 1097.46 1044.39L1097.44 1044.38C1094.59 1042.07 1093.68 1038.8 1093.55 1035.9C1093.42 1033.04 1094.02 1030.11 1094.67 1027.76L1094.67 1027.76C1103.35 996.362 1119.47 967.053 1141.49 943.082C1142.8 941.658 1145.01 941.565 1146.44 942.872Z" fill="#191A35"/>
<path fill-rule="evenodd" clip-rule="evenodd" d="M1305.7 939.203C1306.58 937.483 1308.69 936.803 1310.41 937.685C1326.36 945.86 1340.98 956.598 1353.66 969.275C1354.7 970.316 1355.95 971.658 1356.9 973.222C1357.87 974.802 1358.68 976.843 1358.48 979.206C1358.23 982.223 1356.39 984.501 1355.28 985.836C1349.75 992.945 1343.55 999.8 1337.46 1006.53C1334.1 1010.24 1330.78 1013.92 1327.62 1017.57C1319.7 1026.74 1312.56 1036.07 1307.47 1046.52C1313.84 1047.2 1320.03 1049.1 1325.67 1052.04C1327.77 1053.14 1330.1 1054.75 1331.82 1056.85C1333.56 1058.95 1334.95 1061.92 1334.18 1065.36C1333.61 1067.96 1331.97 1069.91 1330.93 1071.16C1330.88 1071.22 1330.83 1071.28 1330.78 1071.34L1330.76 1071.36C1322.07 1081.61 1313.37 1091.89 1304.66 1102.16L1304.66 1102.16C1295.95 1112.43 1287.25 1122.7 1278.56 1132.95C1277.32 1134.43 1275.11 1134.61 1273.63 1133.36C1272.16 1132.11 1271.97 1129.9 1273.22 1128.43C1281.91 1118.18 1290.62 1107.9 1299.32 1097.63C1308.03 1087.36 1316.73 1077.1 1325.41 1066.85C1326.65 1065.36 1327.17 1064.63 1327.34 1063.86L1327.34 1063.83C1327.48 1063.23 1327.35 1062.43 1326.42 1061.3C1325.48 1060.15 1324 1059.07 1322.44 1058.25L1322.43 1058.25C1316.21 1055 1309.22 1053.23 1302.18 1053.23C1301.01 1053.23 1299.92 1052.65 1299.27 1051.68C1298.62 1050.7 1298.5 1049.47 1298.95 1048.39C1304.5 1035.03 1313.12 1023.66 1322.32 1013C1325.71 1009.07 1329.14 1005.28 1332.54 1001.52C1338.51 994.932 1344.38 988.444 1349.79 981.493C1349.81 981.462 1349.84 981.432 1349.86 981.402C1351.04 979.986 1351.45 979.232 1351.5 978.625C1351.53 978.243 1351.43 977.692 1350.93 976.871C1350.42 976.034 1349.65 975.165 1348.7 974.224C1336.54 962.05 1322.5 951.748 1307.22 943.914C1305.5 943.033 1304.82 940.924 1305.7 939.203Z" fill="#191A35"/>
<path fill-rule="evenodd" clip-rule="evenodd" d="M1691.72 896.921C1693.59 897.382 1694.74 899.277 1694.28 901.154C1679.07 963.188 1663.94 1025.22 1648.81 1087.26C1649.03 1087.48 1649.26 1087.7 1649.49 1087.91C1661.35 1099.26 1674.39 1112.03 1679.81 1128.78L1679.82 1128.8C1681.64 1134.58 1682.78 1142.58 1678.42 1148.73L1678.4 1148.75C1675.53 1152.73 1671.15 1154.72 1666.74 1155.25C1662.35 1155.77 1657.68 1154.89 1653.76 1152.86L1653.76 1152.85C1642.99 1147.25 1637.4 1135.27 1636.42 1124C1635.37 1112.8 1638.05 1101.79 1640.54 1091.59C1640.71 1090.9 1640.88 1090.21 1641.05 1089.52C1594.7 1045.01 1548.42 1000.57 1502.07 956.133L1502.07 956.131C1483.16 937.982 1464.16 920.085 1440.5 911.383C1436.67 909.98 1430.14 908.735 1421.31 907.952C1412.55 907.176 1401.73 906.872 1389.46 907.249C1364.92 908.005 1334.69 911.482 1303.57 919.267C1301.69 919.736 1299.79 918.596 1299.32 916.721C1298.85 914.846 1299.99 912.945 1301.87 912.476C1333.53 904.558 1364.26 901.022 1389.25 900.253C1401.75 899.868 1412.84 900.174 1421.93 900.979C1430.94 901.778 1438.21 903.087 1442.91 904.81L1442.91 904.811C1468.17 914.1 1488.19 933.098 1506.92 951.082C1552.29 994.584 1597.6 1038.09 1642.97 1081.65C1657.78 1020.93 1672.6 960.21 1687.48 899.487C1687.94 897.61 1689.84 896.461 1691.72 896.921ZM1646.89 1095.12C1644.54 1104.83 1642.52 1114.1 1643.39 1123.35L1643.39 1123.38C1644.24 1133.14 1649.01 1142.49 1656.99 1146.64C1659.69 1148.04 1662.95 1148.65 1665.91 1148.3C1668.85 1147.94 1671.25 1146.7 1672.72 1144.67C1675.05 1141.36 1674.83 1136.26 1673.15 1130.92C1668.65 1117.03 1658.12 1105.95 1646.89 1095.12Z" fill="#191A35"/>
<path fill-rule="evenodd" clip-rule="evenodd" d="M1459.08 1128.6C1460.28 1127.08 1462.48 1126.82 1463.99 1128.02C1525.02 1176.28 1588.47 1221.5 1653.91 1263.59L1653.92 1263.6C1667.65 1272.45 1681.36 1281 1696.31 1286.26C1698.13 1286.9 1699.09 1288.9 1698.45 1290.72C1697.81 1292.54 1695.81 1293.5 1693.99 1292.86C1678.16 1287.29 1663.82 1278.31 1650.13 1269.48C1650.12 1269.48 1650.12 1269.48 1650.12 1269.48L1652.02 1266.54L1650.13 1269.48C1650.13 1269.48 1650.13 1269.48 1650.13 1269.48C1584.5 1227.26 1520.86 1181.92 1459.65 1133.51C1458.14 1132.31 1457.88 1130.11 1459.08 1128.6Z" fill="#191A35"/>
<path fill-rule="evenodd" clip-rule="evenodd" d="M1792.9 695.977C1788.92 691.223 1782.32 689.352 1777.95 691.823C1776.27 692.776 1774.13 692.185 1773.18 690.503C1772.23 688.821 1772.82 686.686 1774.5 685.733C1782.79 681.039 1792.94 685.114 1798.27 691.49C1803.58 697.843 1805.43 706.086 1806.58 713.225L1806.58 713.227C1810.46 737.369 1809.55 761.593 1807.15 785.645C1806 797.134 1804.51 808.628 1803.02 820.059C1802.95 820.592 1802.88 821.126 1802.81 821.659C1801.26 833.637 1799.73 845.546 1798.61 857.425L1798.61 857.427C1794.51 900.709 1795.86 944.365 1797.22 988.232C1797.41 994.659 1797.61 1001.09 1797.79 1007.53C1799.21 1057.78 1799.59 1108.21 1790.57 1157.92C1790.22 1159.82 1788.4 1161.09 1786.5 1160.74C1784.6 1160.4 1783.33 1158.57 1783.68 1156.67C1792.56 1107.74 1792.22 1057.96 1790.8 1007.72C1790.62 1001.32 1790.42 994.903 1790.22 988.481C1788.86 944.654 1787.5 900.522 1791.64 856.77M1792.9 695.977C1796.88 700.753 1798.54 707.299 1799.67 714.339L1792.9 695.977ZM1799.67 714.339C1803.41 737.613 1802.56 761.147 1800.19 784.949C1799.05 796.332 1797.57 807.731 1796.08 819.189C1796.01 819.712 1795.94 820.234 1795.87 820.757C1794.32 832.723 1792.77 844.749 1791.64 856.769" fill="#191A35"/>
<path fill-rule="evenodd" clip-rule="evenodd" d="M1669.44 695.473C1668.17 705.739 1664.62 715.851 1661.25 725.46C1660.32 728.119 1659.4 730.739 1658.54 733.313C1654.51 745.467 1651.81 756.864 1654.3 768.304M1669.44 695.473C1669.69 693.591 1670.13 691.703 1670.81 690.426C1671.44 689.227 1671.77 689.351 1671.81 689.365C1671.81 689.366 1671.81 689.366 1671.81 689.366C1671.85 689.37 1671.88 689.372 1671.92 689.375C1671.93 689.375 1672.03 689.383 1672.24 689.494C1672.47 689.61 1672.74 689.801 1673.1 690.094C1673.12 690.113 1673.14 690.131 1673.16 690.149C1677.78 693.805 1679.62 700.594 1679.92 707.826L1679.92 707.826L1679.92 707.837C1680.43 719.38 1678.03 731.009 1673.09 741.4C1672.69 742.245 1672.64 743.216 1672.96 744.095C1673.28 744.975 1673.94 745.69 1674.79 746.082C1694.05 754.954 1709.13 772.589 1714.87 792.946C1715.39 794.806 1717.33 795.889 1719.19 795.364C1721.05 794.84 1722.13 792.906 1721.61 791.046C1715.62 769.822 1700.45 751.373 1680.83 741.244C1685.29 730.663 1687.42 719.072 1686.91 707.536C1686.6 699.84 1684.64 690.337 1677.55 684.69C1676.49 683.818 1674.73 682.555 1672.41 682.392C1668.34 682.039 1665.87 684.775 1664.61 687.168C1663.36 689.548 1662.78 692.418 1662.49 694.571L1662.49 694.6C1661.32 704.047 1658.12 713.208 1654.79 722.708C1653.82 725.475 1652.84 728.27 1651.9 731.109C1647.81 743.425 1644.54 756.383 1647.46 769.794L1647.46 769.796C1650.66 784.493 1660.74 796.36 1670.05 807.325C1670.69 808.08 1671.33 808.831 1671.96 809.577C1682.06 821.527 1690.68 832.605 1691.58 846.275C1691.71 848.204 1693.38 849.664 1695.3 849.536C1697.23 849.409 1698.69 847.742 1698.57 845.813C1697.49 829.524 1687.21 816.78 1677.31 805.059C1676.77 804.424 1676.23 803.791 1675.7 803.161C1666.09 791.817 1657.12 781.227 1654.3 768.305" fill="#191A35"/>
<path fill-rule="evenodd" clip-rule="evenodd" d="M1710.19 589.864C1709.23 589.338 1708.52 589.272 1707.98 589.409C1707.95 589.416 1707.92 589.424 1707.89 589.43C1707.17 589.596 1706.43 590.139 1705.74 591.619C1705.04 593.128 1704.64 595.134 1704.42 597.197C1703.11 610.351 1703.16 623.607 1703.44 637.04C1703.49 639.529 1703.55 642.027 1703.61 644.53C1703.87 655.483 1704.13 666.562 1703.75 677.615L1703.75 677.618C1702.98 699.649 1699.75 721.568 1696.55 743.111C1696.27 745.023 1694.49 746.344 1692.58 746.06C1690.67 745.776 1689.35 743.996 1689.63 742.084C1692.83 720.481 1696 698.948 1696.76 677.375C1697.13 666.544 1696.87 655.714 1696.61 644.774C1696.55 642.251 1696.49 639.721 1696.44 637.184C1696.16 623.71 1696.1 610.097 1697.46 596.496L1697.46 596.483L1697.46 596.483C1697.7 594.126 1698.21 591.218 1699.4 588.669C1700.59 586.1 1702.7 583.453 1706.29 582.616C1709.01 581.933 1711.56 582.628 1713.57 583.735C1715.57 584.839 1717.25 586.457 1718.5 588.074L1718.5 588.077C1722.88 593.771 1724.43 600.879 1725.56 607.024C1728.87 624.497 1730.87 642.195 1731.64 659.964C1731.72 661.895 1730.23 663.528 1728.3 663.612C1726.36 663.695 1724.73 662.198 1724.65 660.266C1723.89 642.818 1721.93 625.452 1718.69 608.319L1718.68 608.305C1717.54 602.103 1716.19 596.56 1712.95 592.346C1712.14 591.295 1711.15 590.399 1710.19 589.864Z" fill="#191A35"/>
<path fill-rule="evenodd" clip-rule="evenodd" d="M1751.28 647.585C1754.73 649.294 1757.89 652.724 1757.7 657.505C1757.63 659.437 1756 660.942 1754.07 660.868C1752.14 660.794 1750.63 659.168 1750.71 657.236C1750.75 656.072 1750.03 654.775 1748.17 653.854C1746.3 652.926 1744.06 652.828 1742.46 653.548L1742.44 653.556C1738.42 655.345 1735.85 659.889 1733.98 665.428L1733.97 665.441L1733.97 665.441C1729.29 679.119 1728.75 693.983 1728.21 709.099C1727.9 718.458 1727.76 727.235 1731.11 734.764C1731.43 735.469 1731.68 735.94 1731.93 736.267C1732.04 736.418 1732.12 736.502 1732.18 736.548C1732.23 736.589 1732.25 736.6 1732.26 736.604C1732.3 736.618 1732.33 736.632 1732.37 736.647C1732.4 736.66 1732.43 736.673 1732.53 736.665C1732.65 736.655 1732.86 736.609 1733.17 736.46C1733.82 736.149 1734.57 735.538 1735.23 734.764C1735.24 734.75 1735.26 734.737 1735.27 734.723C1739.59 729.8 1741.58 723.199 1743.33 715.94C1747.09 700.074 1749.35 683.756 1750.02 667.441C1750.1 665.509 1751.73 664.009 1753.66 664.089C1755.6 664.169 1757.1 665.799 1757.02 667.731C1756.32 684.497 1754 701.26 1750.14 717.562L1750.14 717.578C1748.39 724.793 1746.11 732.968 1740.55 739.323C1739.45 740.6 1737.97 741.923 1736.2 742.77C1734.42 743.626 1732.04 744.124 1729.61 743.082C1726.68 741.881 1725.37 739.076 1724.72 737.63L1724.72 737.618L1724.72 737.618C1720.6 728.378 1720.92 717.949 1721.22 708.864L1721.22 708.855L1721.23 708.473C1721.76 693.668 1722.32 677.884 1727.35 663.181C1729.28 657.441 1732.65 650.253 1739.59 647.163C1743.4 645.448 1747.86 645.884 1751.28 647.585Z" fill="#191A35"/>
<path fill-rule="evenodd" clip-rule="evenodd" d="M1763.14 658.109C1762.18 657.871 1761.51 658.046 1761.08 658.359C1759.53 659.505 1757.34 659.174 1756.19 657.618C1755.04 656.062 1755.37 653.871 1756.93 652.724C1759.4 650.902 1762.34 650.696 1764.83 651.316C1767.3 651.93 1769.62 653.407 1771.21 655.441C1774.13 659.167 1774.69 663.888 1774.99 667.437C1776.79 687.926 1773.97 708.719 1766.86 728.026M1763.14 658.109C1764.12 658.352 1765.08 658.971 1765.7 659.758L1763.14 658.109ZM1765.7 659.758C1767.2 661.671 1767.71 664.419 1768.01 668.035L1765.7 659.758ZM1760.29 725.608C1767.05 707.259 1769.72 687.498 1768.02 668.044L1768.01 668.035M1760.29 725.608L1760.29 725.61L1760.29 725.608ZM1760.29 725.61C1757.9 732.107 1755 738.117 1750.42 742.504L1760.29 725.61ZM1750.42 742.504C1749.92 742.972 1749.45 743.305 1749.08 743.482C1749.02 743.372 1748.95 743.246 1748.88 743.091C1747.63 740.595 1746.66 737.883 1746.03 735.179C1745.6 733.295 1743.72 732.121 1741.84 732.555C1739.95 732.99 1738.78 734.869 1739.21 736.752C1739.96 739.994 1741.12 743.228 1742.62 746.221C1742.63 746.241 1742.64 746.263 1742.65 746.286C1743 746.999 1743.84 748.687 1745.53 749.706C1747.65 750.993 1749.86 750.692 1751.44 750.084C1752.98 749.489 1754.29 748.478 1755.24 747.574L1755.25 747.567C1761.03 742.044 1764.37 734.792 1766.86 728.027" fill="#191A35"/>
<path fill-rule="evenodd" clip-rule="evenodd" d="M1787.17 699.616C1789.1 699.728 1790.58 701.383 1790.47 703.313C1789.64 717.519 1788.6 733.873 1779.26 746.439C1779.25 746.459 1779.23 746.479 1779.22 746.499C1779.19 746.533 1779.16 746.572 1779.13 746.615C1778.68 747.209 1777.61 748.605 1775.93 749.278C1774.13 749.995 1772.2 749.777 1770.67 749.032C1768.05 747.802 1766.68 745.536 1765.96 743.458C1765.26 741.412 1765.07 739.213 1765.03 737.45C1764.72 729.824 1764.96 722.143 1765.58 714.491C1765.73 712.565 1767.42 711.129 1769.35 711.285C1771.27 711.44 1772.71 713.128 1772.55 715.055C1771.95 722.487 1771.73 729.89 1772.03 737.195C1772.03 737.215 1772.03 737.236 1772.03 737.256C1772.06 738.766 1772.22 740.136 1772.58 741.184C1772.85 741.961 1773.15 742.348 1773.42 742.553C1773.49 742.462 1773.57 742.36 1773.67 742.233C1781.53 731.628 1782.63 717.502 1783.48 702.906C1783.59 700.977 1785.24 699.503 1787.17 699.616ZM1773.11 742.897C1773.11 742.897 1773.11 742.896 1773.11 742.895C1773.11 742.896 1773.11 742.897 1773.11 742.897Z" fill="#191A35"/>
<path fill-rule="evenodd" clip-rule="evenodd" d="M1762.37 755.124C1764.21 755.718 1765.22 757.692 1764.62 759.531C1760.55 772.126 1758.55 785.477 1758.62 798.684C1758.63 800.617 1757.07 802.193 1755.14 802.204C1753.21 802.215 1751.63 800.657 1751.62 798.724C1751.54 784.793 1753.65 770.701 1757.96 757.377C1758.56 755.538 1760.53 754.529 1762.37 755.124Z" fill="#191A35"/>
<path fill-rule="evenodd" clip-rule="evenodd" d="M1788.97 933.925C1789.1 931.996 1790.77 930.542 1792.7 930.676C1801.81 931.31 1810.75 933.29 1819.21 936.454C1819.24 936.466 1819.27 936.479 1819.31 936.491C1820.41 936.942 1821.93 937.633 1823.23 938.688C1824.55 939.772 1825.97 941.524 1826.05 944.037C1826.06 944.076 1826.06 944.115 1826.06 944.154C1826.06 946.593 1824.76 948.378 1823.51 949.517C1822.28 950.638 1820.8 951.409 1819.64 951.926L1819.61 951.935C1802.75 959.303 1784.12 960.989 1766.33 961.829C1739.14 963.149 1711.95 962.853 1684.89 962.558C1683.7 962.545 1682.51 962.532 1681.32 962.519C1679.39 962.498 1677.84 960.914 1677.86 958.981C1677.88 957.048 1679.46 955.498 1681.39 955.519C1682.56 955.532 1683.73 955.545 1684.9 955.557C1712.02 955.853 1739.01 956.147 1766 954.837L1766 954.837C1783.72 954 1801.21 952.332 1816.8 945.525C1817.69 945.129 1818.38 944.72 1818.8 944.336C1818.85 944.293 1818.89 944.253 1818.92 944.219C1818.89 944.187 1818.85 944.152 1818.8 944.112C1818.35 943.744 1817.64 943.374 1816.71 942.992C1808.88 940.069 1800.62 938.244 1792.21 937.659C1790.29 937.525 1788.83 935.853 1788.97 933.925ZM1819.09 944.412C1819.09 944.412 1819.09 944.404 1819.08 944.386C1819.09 944.404 1819.1 944.413 1819.09 944.412ZM1819.07 944.038C1819.08 944.022 1819.08 944.014 1819.08 944.014C1819.08 944.014 1819.08 944.022 1819.07 944.038Z" fill="#191A35"/>
<path fill-rule="evenodd" clip-rule="evenodd" d="M1768.39 968.813C1768.75 970.712 1767.5 972.543 1765.6 972.902C1741.89 977.384 1717.47 978.544 1693.44 976.225C1691.52 976.039 1690.11 974.329 1690.29 972.405C1690.48 970.48 1692.19 969.071 1694.11 969.257C1717.48 971.512 1741.23 970.385 1764.3 966.024C1766.2 965.665 1768.03 966.913 1768.39 968.813Z" fill="#191A35"/>
<path fill-rule="evenodd" clip-rule="evenodd" d="M1747.81 978.382C1747.81 976.449 1749.38 974.882 1751.31 974.882H1762.28C1764.22 974.882 1765.78 976.449 1765.78 978.382C1765.78 980.315 1764.22 981.882 1762.28 981.882H1751.31C1749.38 981.882 1747.81 980.315 1747.81 978.382Z" fill="#191A35"/>
<path fill-rule="evenodd" clip-rule="evenodd" d="M1439.07 1065.91C1440.91 1065.33 1442.88 1066.37 1443.45 1068.21C1457.14 1112.33 1456.95 1159.62 1451.12 1205.01C1447.32 1234.59 1441.12 1263.96 1434.95 1293.14C1431.69 1308.58 1428.44 1323.96 1425.56 1339.29C1421.87 1359.06 1419.62 1379.54 1430.16 1394.49C1431.28 1396.07 1430.9 1398.26 1429.32 1399.37C1427.74 1400.49 1425.56 1400.11 1424.44 1398.53C1411.98 1380.85 1415.06 1357.42 1418.68 1338.01L1418.68 1338.01C1421.62 1322.33 1424.91 1306.79 1428.19 1291.28C1434.32 1262.3 1440.41 1233.45 1444.18 1204.12C1449.94 1159.24 1450.04 1113.07 1436.76 1070.29C1436.19 1068.44 1437.22 1066.48 1439.07 1065.91Z" fill="#191A35"/>
<path fill-rule="evenodd" clip-rule="evenodd" d="M1003.36 1180.03C1005.29 1179.88 1006.97 1181.33 1007.12 1183.26C1009.87 1219.48 1012.64 1255.72 1015.41 1291.96C1018.39 1330.98 1021.38 1370.02 1024.34 1409.05C1024.49 1410.98 1023.04 1412.66 1021.12 1412.81C1019.19 1412.95 1017.51 1411.51 1017.36 1409.58C1014.4 1370.53 1011.41 1331.51 1008.43 1292.5C1005.66 1256.26 1002.89 1220.03 1000.14 1183.79C999.993 1181.86 1001.44 1180.18 1003.36 1180.03Z" fill="#191A35"/>
<path fill-rule="evenodd" clip-rule="evenodd" d="M976.806 1183.67C978.702 1183.29 980.546 1184.52 980.924 1186.42C983.424 1198.92 988.429 1210.93 995.432 1221.62C996.491 1223.24 996.039 1225.41 994.421 1226.47C992.804 1227.53 990.635 1227.08 989.576 1225.46C982.1 1214.05 976.742 1201.2 974.06 1187.79C973.681 1185.89 974.911 1184.05 976.806 1183.67Z" fill="#191A35"/>
<path fill-rule="evenodd" clip-rule="evenodd" d="M1333.87 1270.34C1291.09 1269.27 1247.88 1268.49 1208.6 1283.01L1208.59 1283.01C1200.94 1285.82 1193.54 1289.18 1186 1292.6C1183.85 1293.57 1181.69 1294.55 1179.51 1295.53C1169.77 1299.88 1159.74 1304.04 1149.1 1306.68C1123.84 1312.96 1097.44 1309.87 1072.41 1306.91C1070.49 1306.68 1069.12 1304.94 1069.34 1303.02C1069.57 1301.1 1071.31 1299.73 1073.23 1299.96C1098.49 1302.94 1123.6 1305.8 1147.41 1299.88L1147.42 1299.88C1157.43 1297.41 1166.98 1293.46 1176.65 1289.14C1178.75 1288.2 1180.85 1287.25 1182.97 1286.29C1190.54 1282.85 1198.26 1279.34 1206.18 1276.44C1246.92 1261.38 1291.49 1262.28 1334.05 1263.34C1335.98 1263.39 1337.51 1265 1337.46 1266.93C1337.41 1268.86 1335.8 1270.39 1333.87 1270.34Z" fill="#191A35"/>
<path fill-rule="evenodd" clip-rule="evenodd" d="M1283.16 1283.38C1283.67 1285.24 1282.57 1287.17 1280.7 1287.68C1257.52 1294 1235.15 1303.27 1214.3 1315.09C1212.62 1316.05 1210.48 1315.45 1209.53 1313.77C1208.57 1312.09 1209.16 1309.96 1210.85 1309C1232.2 1296.89 1255.1 1287.4 1278.86 1280.92C1280.72 1280.41 1282.65 1281.51 1283.16 1283.38Z" fill="#191A35"/>
<path fill-rule="evenodd" clip-rule="evenodd" d="M1038.4 1329.72C1039.75 1328.34 1041.97 1328.32 1043.35 1329.68C1057.32 1343.42 1068.47 1359.89 1076.12 1377.92C1076.87 1379.7 1076.04 1381.75 1074.26 1382.51C1072.48 1383.26 1070.43 1382.43 1069.67 1380.65C1062.38 1363.46 1051.75 1347.76 1038.44 1334.67C1037.06 1333.31 1037.04 1331.1 1038.4 1329.72Z" fill="#191A35"/>
<path fill-rule="evenodd" clip-rule="evenodd" d="M1048.85 1363.5C1050.58 1362.63 1052.68 1363.34 1053.55 1365.06C1056.68 1371.33 1058.84 1378.07 1059.97 1384.97C1060.28 1386.88 1058.98 1388.68 1057.07 1388.99C1055.17 1389.3 1053.37 1388 1053.06 1386.1C1052.05 1379.89 1050.1 1373.82 1047.29 1368.19C1046.42 1366.46 1047.12 1364.36 1048.85 1363.5Z" fill="#191A35"/>
<path fill-rule="evenodd" clip-rule="evenodd" d="M1344.25 1267.53C1344.25 1265.59 1345.82 1264.03 1347.75 1264.03H1354C1355.93 1264.03 1357.5 1265.59 1357.5 1267.53C1357.5 1269.46 1355.93 1271.03 1354 1271.03H1347.75C1345.82 1271.03 1344.25 1269.46 1344.25 1267.53Z" fill="#191A35"/>
<path fill-rule="evenodd" clip-rule="evenodd" d="M974.505 1222.92C975.441 1221.22 977.57 1220.61 979.262 1221.55C982.602 1223.39 985.495 1225.94 987.77 1229C988.922 1230.55 988.598 1232.75 987.047 1233.9C985.495 1235.05 983.302 1234.73 982.15 1233.18C980.462 1230.9 978.327 1229.03 975.875 1227.67C974.183 1226.74 973.57 1224.61 974.505 1222.92Z" fill="#191A35"/>
<path fill-rule="evenodd" clip-rule="evenodd" d="M833.297 1085.5C835.484 1086.95 837.37 1089.57 837.504 1092.65C837.505 1092.68 837.506 1092.7 837.506 1092.73C837.618 1097.89 834.073 1101.81 831.457 1104.27C821.35 1113.82 808.466 1119.74 796.286 1124.92C752.27 1143.68 706.492 1158.31 659.791 1168.42C657.902 1168.83 656.039 1167.63 655.63 1165.74C655.221 1163.85 656.421 1161.98 658.31 1161.58C704.573 1151.56 749.929 1137.07 793.544 1118.48L793.547 1118.48C805.75 1113.29 817.554 1107.77 826.65 1099.18L826.655 1099.18C829.198 1096.78 830.526 1094.77 830.509 1092.93C830.495 1092.75 830.421 1092.48 830.225 1092.16C830.017 1091.83 829.727 1091.53 829.421 1091.33C829.174 1091.16 828.989 1091.1 828.895 1091.09C827.393 1092.24 825.237 1091.99 824.043 1090.5C822.83 1089 823.067 1086.8 824.572 1085.58C827.556 1083.18 831.097 1084.04 833.297 1085.5Z" fill="#191A35"/>
<path fill-rule="evenodd" clip-rule="evenodd" d="M834.175 1121.64C835.762 1122.75 836.155 1124.93 835.052 1126.51C828.248 1136.31 817.593 1142.28 807.839 1147.16C769.937 1166.23 728.966 1179.15 686.996 1185.38C685.084 1185.67 683.304 1184.35 683.02 1182.43C682.737 1180.52 684.057 1178.74 685.969 1178.46C727.208 1172.34 767.465 1159.64 804.696 1140.91L804.704 1140.9C814.456 1136.02 823.612 1130.71 829.303 1122.52C830.406 1120.93 832.587 1120.54 834.175 1121.64Z" fill="#191A35"/>
<path fill-rule="evenodd" clip-rule="evenodd" d="M696.837 1196.23C698.701 1195.72 700.626 1196.82 701.136 1198.68C718.478 1262.07 739.09 1324.54 762.897 1385.79C763.598 1387.59 762.705 1389.62 760.903 1390.32C759.101 1391.02 757.073 1390.13 756.373 1388.33C732.478 1326.85 711.79 1264.15 694.384 1200.53C693.874 1198.66 694.972 1196.74 696.837 1196.23Z" fill="#191A35"/>
<path fill-rule="evenodd" clip-rule="evenodd" d="M831.46 1140.84C833.265 1140.15 835.289 1141.05 835.98 1142.86L930.392 1389.39C931.084 1391.2 930.181 1393.22 928.376 1393.91C926.57 1394.6 924.547 1393.7 923.855 1391.89L829.443 1145.36C828.752 1143.56 829.655 1141.53 831.46 1140.84Z" fill="#191A35"/>
<path fill-rule="evenodd" clip-rule="evenodd" d="M899.215 1288.29C900.801 1287.18 902.983 1287.57 904.088 1289.16C920.257 1312.36 938.847 1333.91 959.328 1353.34C960.73 1354.67 960.788 1356.89 959.458 1358.29C958.127 1359.69 955.912 1359.75 954.51 1358.42C933.69 1338.67 914.789 1316.76 898.344 1293.16C897.239 1291.57 897.629 1289.39 899.215 1288.29Z" fill="#191A35"/>
<path fill-rule="evenodd" clip-rule="evenodd" d="M934.324 1312.25C935.309 1310.58 937.456 1310.03 939.119 1311.02L939.129 1311.02C944.914 1314.45 950.717 1317.89 956.522 1321.4C958.175 1322.4 958.704 1324.56 957.703 1326.21C956.701 1327.86 954.549 1328.39 952.896 1327.39C947.122 1323.89 941.345 1320.47 935.551 1317.04C933.888 1316.06 933.339 1313.91 934.324 1312.25Z" fill="#191A35"/>
<path fill-rule="evenodd" clip-rule="evenodd" d="M752.792 878.532C751.853 878.04 751.126 878.06 750.618 878.286L750.606 878.291L750.606 878.291C749.838 878.63 749.116 879.486 747.997 881.325C741.972 891.275 738.411 902.759 737.756 914.378C737.704 915.457 737.673 916.593 737.641 917.768C737.546 921.323 737.44 925.23 736.704 928.973L736.702 928.984C735.872 933.137 734.222 937.18 732.731 940.837C732.304 941.884 731.889 942.899 731.511 943.877C725.948 958.678 724.488 975.016 727.486 990.524C727.853 992.422 726.612 994.258 724.714 994.625C722.816 994.992 720.98 993.751 720.613 991.853C717.364 975.045 718.95 957.389 724.965 941.397L724.977 941.366C725.46 940.118 725.945 938.926 726.415 937.769C727.851 934.242 729.15 931.051 729.837 927.617C730.449 924.5 730.532 921.455 730.624 918.081C730.66 916.785 730.696 915.441 730.765 914.026L730.766 913.998C731.484 901.229 735.39 888.629 742.011 877.696L742.015 877.69C743.027 876.027 744.742 873.227 747.78 871.887C750.699 870.592 753.703 871.107 756.039 872.33C758.353 873.542 760.299 875.571 761.423 877.926C763.425 882.123 763.135 886.819 762.918 890.334C762.912 890.431 762.906 890.528 762.9 890.624L762.9 890.627C760.772 924.915 760.093 959.285 762.441 993.464C762.574 995.393 761.118 997.064 759.189 997.196C757.261 997.329 755.59 995.873 755.458 993.944C753.082 959.362 753.774 924.667 755.913 890.194C756.154 886.268 756.247 883.335 755.105 880.94C754.628 879.941 753.755 879.036 752.792 878.532Z" fill="#191A35"/>
<path fill-rule="evenodd" clip-rule="evenodd" d="M758.099 989.97C759.951 989.416 761.901 990.468 762.455 992.32C768.462 1012.4 774.85 1032.09 781.253 1051.82L781.259 1051.84C787.656 1071.55 794.067 1091.31 800.098 1111.47C800.652 1113.32 799.6 1115.27 797.748 1115.83C795.896 1116.38 793.946 1115.33 793.392 1113.48C787.386 1093.4 780.997 1073.71 774.594 1053.98L774.588 1053.96C768.192 1034.25 761.78 1014.49 755.749 994.326C755.195 992.474 756.247 990.524 758.099 989.97Z" fill="#191A35"/>
<path fill-rule="evenodd" clip-rule="evenodd" d="M605.55 875.412C607.308 874.608 609.384 875.381 610.188 877.139C618.908 896.206 625.467 916.2 629.712 936.737L629.714 936.75C630.675 941.486 631.509 946.175 632.334 950.815C634.326 962.015 636.267 972.929 639.813 983.518C643.963 995.862 650.262 1007.37 656.805 1019.16C657.014 1019.54 657.223 1019.92 657.433 1020.29C663.729 1031.64 670.19 1043.28 674.689 1055.79C679.065 1067.91 681.47 1080.53 683.751 1092.85C687.256 1111.37 690.759 1129.89 694.338 1148.4C694.705 1150.3 693.464 1152.13 691.566 1152.5C689.669 1152.87 687.833 1151.63 687.466 1149.73C683.883 1131.2 680.378 1112.67 676.873 1094.15L676.871 1094.14L676.869 1094.13C674.578 1081.75 672.259 1069.67 668.103 1058.17L668.101 1058.16C663.798 1046.19 657.582 1034.99 651.207 1023.5C651.033 1023.19 650.859 1022.87 650.684 1022.56C644.178 1010.83 637.562 998.789 633.177 985.748L633.176 985.744C629.456 974.635 627.372 962.921 625.342 951.513C624.537 946.991 623.741 942.516 622.855 938.147C618.718 918.131 612.323 898.64 603.822 880.05C603.018 878.292 603.792 876.216 605.55 875.412Z" fill="#191A35"/>
<path fill-rule="evenodd" clip-rule="evenodd" d="M614.977 840.637C616.826 840.074 618.782 841.117 619.345 842.966C628.229 872.135 638.48 900.926 650.023 929.264C650.753 931.054 649.893 933.097 648.102 933.826C646.312 934.555 644.27 933.695 643.541 931.905C631.919 903.374 621.596 874.382 612.649 845.005C612.086 843.156 613.128 841.201 614.977 840.637Z" fill="#191A35"/>
<path fill-rule="evenodd" clip-rule="evenodd" d="M703.442 907.827C704.349 909.534 703.7 911.653 701.993 912.56C692.737 917.475 683.462 922.391 674.189 927.306L674.177 927.312C664.899 932.229 655.623 937.145 646.366 942.061C644.659 942.968 642.54 942.319 641.634 940.612C640.727 938.905 641.376 936.786 643.083 935.879C652.343 930.961 661.622 926.044 670.899 921.127C680.177 916.21 689.453 911.293 698.71 906.377C700.417 905.471 702.536 906.12 703.442 907.827Z" fill="#191A35"/>
<path fill-rule="evenodd" clip-rule="evenodd" d="M630.341 793.315L630.34 793.316L630.311 793.326C630.31 793.326 630.308 793.327 630.306 793.327C630.248 793.346 629.945 793.443 629.682 794.415C629.404 795.442 629.368 796.858 629.533 798.309L629.534 798.321L629.534 798.321C631.536 816.494 637.997 834.005 644.575 851.681C653.415 875.315 662.178 898.948 670.94 922.576L670.943 922.583C671.615 924.396 670.69 926.41 668.878 927.082C667.065 927.754 665.051 926.829 664.379 925.017L664.379 925.015C655.616 901.383 646.854 877.757 638.017 854.131L638.015 854.125C631.488 836.586 624.691 818.27 622.577 799.093C622.362 797.191 622.327 794.798 622.924 792.587C623.529 790.354 624.963 787.762 628.034 786.707C630.773 785.75 633.272 786.571 635.068 787.657C636.832 788.724 638.287 790.249 639.337 791.509L639.345 791.519L639.345 791.519C648.066 802.067 653.873 814.525 659.268 826.459L659.269 826.461C671.719 854.047 683.33 882.093 694.025 910.444C694.707 912.253 693.794 914.272 691.985 914.954C690.176 915.636 688.157 914.723 687.475 912.914C676.833 884.703 665.279 856.794 652.889 829.342C647.464 817.342 641.995 805.712 633.954 795.984C633.1 794.959 632.232 794.123 631.445 793.647C630.692 793.192 630.416 793.289 630.341 793.315Z" fill="#191A35"/>
<path fill-rule="evenodd" clip-rule="evenodd" d="M668.394 806.912C671.437 831.945 675.142 856.539 682.438 880.392C683.004 882.24 681.963 884.197 680.115 884.762C678.267 885.328 676.31 884.288 675.744 882.439C668.259 857.966 664.497 832.862 661.444 807.741L661.44 807.71C661.094 804.637 661.278 800.797 662.463 797.587C663.062 795.966 663.995 794.292 665.458 793.017C666.997 791.675 668.968 790.919 671.238 791.014L671.249 791.015L671.249 791.015C674.076 791.144 676.336 792.644 677.878 794.001C683.753 799.014 686.605 806.359 688.987 812.539L688.995 812.56C702.728 848.893 715.7 885.535 727.758 922.486C728.358 924.323 727.354 926.299 725.516 926.899C723.679 927.498 721.703 926.495 721.103 924.657C709.083 887.82 696.148 851.283 682.451 815.046C679.96 808.585 677.636 802.986 673.318 799.311C673.302 799.298 673.286 799.284 673.27 799.27C672.226 798.348 671.448 798.033 670.936 798.008C670.506 797.991 670.277 798.101 670.058 798.293C669.76 798.552 669.375 799.079 669.03 800.012C668.331 801.906 668.133 804.576 668.394 806.912Z" fill="#191A35"/>
<path fill-rule="evenodd" clip-rule="evenodd" d="M918.818 926.369C920.638 925.797 923.497 925.865 925.349 928.154C925.387 928.201 925.424 928.249 925.459 928.298C927.003 930.421 926.777 932.938 925.971 934.694C925.167 936.446 923.461 938.181 921.008 938.545C918.73 938.882 916.704 937.974 915.335 936.724C913.973 935.481 912.96 933.639 912.882 931.553C912.811 929.628 914.307 928.01 916.228 927.927C917.024 927.141 917.991 926.628 918.818 926.369Z" fill="#191A35"/>
<path fill-rule="evenodd" clip-rule="evenodd" d="M853.362 1107.37C855.295 1107.37 856.862 1108.94 856.862 1110.87V1111.71C856.862 1113.64 855.295 1115.21 853.362 1115.21C851.429 1115.21 849.862 1113.64 849.862 1111.71V1110.87C849.862 1108.94 851.429 1107.37 853.362 1107.37Z" fill="#191A35"/>
<path fill-rule="evenodd" clip-rule="evenodd" d="M1340.43 592.437C1339.52 591.917 1338.4 591.806 1337.36 592.232C1336.52 592.573 1335.88 593.098 1335.41 593.714C1335.21 593.892 1335.03 594.091 1334.85 594.314C1334.77 594.425 1334.69 594.541 1334.61 594.662C1333.08 597.214 1334.49 599.662 1335.57 600.702C1336.3 601.401 1337.63 602.197 1339.17 602.199C1339.92 602.259 1340.72 602.14 1341.5 601.782C1341.92 601.594 1342.29 601.326 1342.6 600.995C1343.72 599.806 1344.03 598.311 1343.8 596.987C1343.77 596.528 1343.68 596.108 1343.57 595.763C1343.21 594.618 1342.19 593.034 1340.43 592.437Z" fill="#191A35"/>
<path fill-rule="evenodd" clip-rule="evenodd" d="M1567.52 928.73C1567.14 927.742 1567.09 926.713 1567.2 925.948C1567.44 924.319 1568.74 921.679 1571.83 921.524C1574.87 921.372 1576.46 923.792 1576.89 925.384C1577.25 926.715 1577.2 928.965 1575.58 930.474C1574.84 931.518 1573.73 932.085 1572.84 932.289C1571.58 932.581 1569.3 932.417 1568.08 930.303C1567.76 929.771 1567.59 929.241 1567.52 928.73Z" fill="#191A35"/>
<path fill-rule="evenodd" clip-rule="evenodd" d="M1611 621.748C1611.9 623.461 1611.24 625.576 1609.52 626.472C1589.91 636.739 1570.53 647.459 1551.46 658.708C1549.8 659.69 1547.65 659.137 1546.67 657.472C1545.69 655.807 1546.24 653.661 1547.9 652.679C1567.09 641.364 1586.57 630.587 1606.28 620.271C1607.99 619.374 1610.1 620.036 1611 621.748Z" fill="#191A35"/>
<path fill-rule="evenodd" clip-rule="evenodd" d="M1534.55 662.519C1535.92 663.885 1535.92 666.101 1534.56 667.468L1532.19 669.831C1530.83 671.199 1528.61 671.199 1527.24 669.833C1525.88 668.466 1525.88 666.25 1527.24 664.883L1529.6 662.52C1530.97 661.153 1533.19 661.152 1534.55 662.519Z" fill="#191A35"/>
<path fill-rule="evenodd" clip-rule="evenodd" d="M1629.55 636.842C1631.08 638.026 1631.36 640.224 1630.17 641.752C1621.91 652.426 1613.62 663.099 1605.33 673.771L1605.33 673.773C1597.04 684.445 1588.76 695.116 1580.49 705.787C1579.31 707.315 1577.11 707.594 1575.58 706.41C1574.05 705.226 1573.77 703.028 1574.96 701.5C1583.23 690.827 1591.51 680.154 1599.8 669.484L1599.8 669.477C1608.09 658.805 1616.37 648.135 1624.64 637.465C1625.82 635.937 1628.02 635.658 1629.55 636.842Z" fill="#191A35"/>
<path fill-rule="evenodd" clip-rule="evenodd" d="M1893.44 617.431C1895.16 616.555 1897.27 617.242 1898.14 618.965C1909.5 641.307 1919.18 664.577 1926.85 688.469C1927.45 690.31 1926.43 692.281 1924.59 692.873C1922.75 693.464 1920.78 692.452 1920.19 690.611C1912.63 667.088 1903.1 644.162 1891.9 622.137C1891.03 620.414 1891.71 618.307 1893.44 617.431Z" fill="#191A35"/>
<path fill-rule="evenodd" clip-rule="evenodd" d="M1920.99 612.334C1922.11 610.764 1924.3 610.406 1925.87 611.534C1944.63 625.016 1962.77 639.413 1980.22 654.494C1981.68 655.758 1981.84 657.969 1980.58 659.431C1979.31 660.893 1977.1 661.054 1975.64 659.79C1958.34 644.836 1940.36 630.57 1921.78 617.218C1920.22 616.09 1919.86 613.903 1920.99 612.334Z" fill="#191A35"/>
<path fill-rule="evenodd" clip-rule="evenodd" d="M1986.43 661.375C1987.8 660.008 1990.01 660.009 1991.38 661.376L1992.52 662.52C1993.89 663.887 1993.89 666.103 1992.52 667.469C1991.15 668.836 1988.94 668.835 1987.57 667.468L1986.43 666.325C1985.06 664.958 1985.06 662.742 1986.43 661.375Z" fill="#191A35"/>
<path fill-rule="evenodd" clip-rule="evenodd" d="M2076.45 242.993C2077.33 244.717 2076.64 246.823 2074.92 247.698C2053.98 258.325 2032.73 268.34 2011.26 277.742C2009.49 278.517 2007.43 277.711 2006.65 275.94C2005.88 274.169 2006.68 272.105 2008.45 271.33C2029.81 261.979 2050.93 252.021 2071.75 241.456C2073.47 240.581 2075.58 241.269 2076.45 242.993Z" fill="#191A35"/>
<path fill-rule="evenodd" clip-rule="evenodd" d="M2076.71 290.982C2077.02 292.891 2075.72 294.686 2073.81 294.992C2065.23 296.365 2056.64 297.718 2048.05 299.071L2048.05 299.071C2039.45 300.425 2030.87 301.777 2022.3 303.148C2020.39 303.454 2018.59 302.154 2018.29 300.246C2017.98 298.337 2019.28 296.542 2021.19 296.236C2029.77 294.864 2038.36 293.51 2046.95 292.157L2046.96 292.157C2055.55 290.803 2064.14 289.451 2072.7 288.08C2074.61 287.774 2076.41 289.074 2076.71 290.982Z" fill="#191A35"/>
<path fill-rule="evenodd" clip-rule="evenodd" d="M1538.76 211.664C1539.89 210.093 1542.07 209.733 1543.65 210.859C1550.23 215.584 1556.84 220.309 1563.45 225.035L1563.46 225.038C1570.07 229.763 1576.68 234.49 1583.27 239.217C1584.84 240.343 1585.2 242.53 1584.07 244.101C1582.95 245.672 1580.76 246.032 1579.19 244.906C1572.6 240.181 1565.99 235.456 1559.38 230.729C1552.77 226.003 1546.16 221.276 1539.57 216.548C1538 215.421 1537.63 213.235 1538.76 211.664Z" fill="#191A35"/>
<path fill-rule="evenodd" clip-rule="evenodd" d="M1514.75 251.307C1515.24 249.438 1517.16 248.323 1519.03 248.816C1533.05 252.515 1546.75 257.137 1560.22 262.603C1562.01 263.33 1562.87 265.371 1562.15 267.162C1561.42 268.953 1559.38 269.816 1557.59 269.089C1544.38 263.729 1530.96 259.203 1517.24 255.584C1515.37 255.091 1514.26 253.176 1514.75 251.307Z" fill="#191A35"/>
<path fill-rule="evenodd" clip-rule="evenodd" d="M1316.17 343.875C1317.57 345.2 1317.64 347.416 1316.31 348.822C1310.14 355.374 1304.27 362.228 1298.7 369.384C1297.51 370.909 1295.31 371.183 1293.78 369.995C1292.26 368.808 1291.99 366.609 1293.17 365.083C1298.88 357.755 1304.89 350.735 1311.22 344.022C1312.54 342.615 1314.76 342.549 1316.17 343.875Z" fill="#191A35"/>
<path fill-rule="evenodd" clip-rule="evenodd" d="M772.666 563.008C774.259 564.102 774.664 566.281 773.569 567.875C769.772 573.402 765.983 578.935 762.194 584.465C755.805 593.793 749.419 603.115 743.008 612.401C741.91 613.991 739.73 614.391 738.139 613.292C736.548 612.194 736.149 610.014 737.248 608.424C743.653 599.146 750.024 589.845 756.407 580.527C760.197 574.994 763.991 569.455 767.799 563.911C768.894 562.318 771.073 561.914 772.666 563.008Z" fill="#191A35"/>
<path fill-rule="evenodd" clip-rule="evenodd" d="M776.245 578.945C777.71 580.207 777.874 582.417 776.613 583.881C768.64 593.136 761.275 602.986 754.742 613.279C753.706 614.911 751.543 615.394 749.911 614.358C748.279 613.322 747.796 611.159 748.832 609.528C755.557 598.933 763.127 588.811 771.309 579.312C772.571 577.848 774.781 577.683 776.245 578.945Z" fill="#191A35"/>
<path fill-rule="evenodd" clip-rule="evenodd" d="M533.26 404.749C534.695 400.221 538.827 397.047 543.683 397.047H659.889C664.684 397.047 668.968 400.171 670.331 404.813C670.332 404.817 670.333 404.82 670.334 404.824L676.973 427.006H797.05C803.861 427.006 809.389 432.538 809.389 439.349V646.851C809.389 653.661 803.861 659.194 797.05 659.194H505.506C498.695 659.194 493.167 653.661 493.167 646.851V439.349C493.167 432.538 498.695 427.006 505.506 427.006H526.599L533.243 404.803C533.248 404.785 533.254 404.767 533.26 404.749ZM670.991 431.434L663.622 406.81L663.616 406.79C663.147 405.187 661.643 404.047 659.889 404.047H543.683C541.993 404.047 540.492 405.132 539.94 406.841L532.558 431.509C532.114 432.991 530.751 434.006 529.205 434.006H505.506C502.564 434.006 500.167 436.401 500.167 439.349V646.851C500.167 649.798 502.564 652.194 505.506 652.194H797.05C799.992 652.194 802.389 649.798 802.389 646.851V439.349C802.389 436.401 799.992 434.006 797.05 434.006H674.367C672.755 434.006 671.398 432.916 670.991 431.434Z" fill="#191A35"/>
<path d="M819.453 455.205V662.783C819.453 667.662 815.49 671.626 810.614 671.626H519.07C514.193 671.626 510.231 667.662 510.231 662.783V655.77H797.126C802.003 655.77 805.965 651.806 805.965 646.927V446.362H810.614C815.49 446.362 819.453 450.326 819.453 455.205Z" fill="#191A35"/>
<path fill-rule="evenodd" clip-rule="evenodd" d="M493.167 505.213C493.167 503.28 494.734 501.713 496.667 501.713H805.889C807.822 501.713 809.389 503.28 809.389 505.213C809.389 507.146 807.822 508.713 805.889 508.713H496.667C494.734 508.713 493.167 507.146 493.167 505.213Z" fill="#191A35"/>
<path fill-rule="evenodd" clip-rule="evenodd" d="M1313.92 362.066C1315.38 363.328 1315.55 365.538 1314.28 367.002C1306.31 376.257 1298.95 386.107 1292.41 396.4C1291.38 398.032 1289.21 398.515 1287.58 397.479C1285.95 396.443 1285.47 394.281 1286.5 392.649C1293.23 382.054 1300.8 371.932 1308.98 362.434C1310.24 360.969 1312.45 360.805 1313.92 362.066Z" fill="#191A35"/>
<path fill-rule="evenodd" clip-rule="evenodd" d="M1070.85 187.871C1072.29 183.342 1076.42 180.168 1081.28 180.168H1197.56C1202.35 180.168 1206.64 183.291 1208 187.932C1208 187.936 1208 187.941 1208.01 187.945L1214.64 210.127H1334.64C1341.46 210.127 1346.98 215.659 1346.98 222.47V429.972C1346.98 436.783 1341.46 442.315 1334.64 442.315H1043.1C1036.29 442.315 1030.76 436.783 1030.76 429.972V222.47C1030.76 215.659 1036.29 210.127 1043.1 210.127H1064.19L1070.84 187.925C1070.84 187.907 1070.85 187.889 1070.85 187.871ZM1077.54 189.963L1070.15 214.631C1069.71 216.112 1068.35 217.127 1066.8 217.127H1043.1C1040.16 217.127 1037.76 219.523 1037.76 222.47V429.972C1037.76 432.919 1040.16 435.315 1043.1 435.315H1334.64C1337.59 435.315 1339.98 432.919 1339.98 429.972V222.47C1339.98 219.523 1337.59 217.127 1334.64 217.127H1212.04C1210.49 217.127 1209.13 216.112 1208.69 214.631L1201.29 189.932L1201.29 189.911C1200.82 188.308 1199.31 187.168 1197.56 187.168H1081.28C1079.59 187.168 1078.09 188.253 1077.54 189.963Z" fill="#191A35"/>
<path d="M1357.12 238.326V445.828C1357.12 450.707 1353.16 454.671 1348.28 454.671H1056.66C1051.79 454.671 1047.83 450.707 1047.83 445.828V438.815H1334.72C1339.6 438.815 1343.56 434.851 1343.56 429.972V229.483H1348.21C1353.16 229.483 1357.12 233.447 1357.12 238.326Z" fill="#191A35"/>
<path fill-rule="evenodd" clip-rule="evenodd" d="M1030.84 288.334C1030.84 286.401 1032.4 284.834 1034.34 284.834H1343.56C1345.49 284.834 1347.06 286.401 1347.06 288.334C1347.06 290.267 1345.49 291.834 1343.56 291.834H1034.34C1032.4 291.834 1030.84 290.267 1030.84 288.334Z" fill="#191A35"/>
<path fill-rule="evenodd" clip-rule="evenodd" d="M1635.96 248.322C1637.39 243.794 1641.53 240.62 1646.38 240.62H1762.66C1767.46 240.62 1771.74 243.742 1773.1 248.383C1773.11 248.388 1773.11 248.392 1773.11 248.397L1779.75 270.579H1899.82C1906.64 270.579 1912.16 276.111 1912.16 282.922V325.001C1912.16 326.934 1910.6 328.501 1908.66 328.501C1906.73 328.501 1905.16 326.934 1905.16 325.001V282.922C1905.16 279.974 1902.77 277.579 1899.82 277.579H1777.14C1775.59 277.579 1774.23 276.564 1773.79 275.082L1766.4 250.383L1766.39 250.362C1765.92 248.76 1764.42 247.62 1762.66 247.62H1646.38C1644.69 247.62 1643.19 248.705 1642.64 250.414L1635.26 275.082C1634.81 276.564 1633.45 277.579 1631.9 277.579H1608.2C1605.26 277.579 1602.87 279.974 1602.87 282.922V367.234C1602.87 369.167 1601.3 370.734 1599.37 370.734C1597.43 370.734 1595.87 369.167 1595.87 367.234V282.922C1595.87 276.111 1601.39 270.579 1608.2 270.579H1629.3L1635.94 248.376C1635.95 248.358 1635.95 248.34 1635.96 248.322Z" fill="#191A35"/>
<path fill-rule="evenodd" clip-rule="evenodd" d="M1595.87 340.934C1595.87 339.001 1597.43 337.434 1599.37 337.434H1661.7C1663.63 337.434 1665.2 339.001 1665.2 340.934C1665.2 342.867 1663.63 344.434 1661.7 344.434H1599.37C1597.43 344.434 1595.87 342.867 1595.87 340.934Z" fill="#191A35"/>
<path fill-rule="evenodd" clip-rule="evenodd" d="M1670.31 340.934C1670.31 339.001 1671.88 337.434 1673.81 337.434H1682.5C1684.43 337.434 1686 339.001 1686 340.934C1686 342.867 1684.43 344.434 1682.5 344.434H1673.81C1671.88 344.434 1670.31 342.867 1670.31 340.934Z" fill="#191A35"/>
<path fill-rule="evenodd" clip-rule="evenodd" d="M1908.66 329.734C1910.6 329.734 1912.16 331.301 1912.16 333.234V338.571C1912.16 340.504 1910.6 342.071 1908.66 342.071C1906.73 342.071 1905.16 340.504 1905.16 338.571V333.234C1905.16 331.301 1906.73 329.734 1908.66 329.734Z" fill="#191A35"/>
<path fill-rule="evenodd" clip-rule="evenodd" d="M1158.2 893.788C1160.12 893.977 1161.53 895.689 1161.34 897.613C1160.56 905.571 1159.16 913.44 1157.22 921.218C1156.75 923.094 1154.85 924.234 1152.97 923.765C1151.1 923.297 1149.96 921.396 1150.43 919.521C1152.29 912.053 1153.63 904.523 1154.38 896.93C1154.56 895.006 1156.28 893.6 1158.2 893.788Z" fill="#191A35"/>
<path fill-rule="evenodd" clip-rule="evenodd" d="M1020.06 872.545C1021 871.182 1022.87 870.839 1024.23 871.781C1034.43 878.819 1047.31 881.849 1059.61 880.197C1063.66 879.617 1067.66 878.561 1071.81 877.401C1072.34 877.253 1072.88 877.103 1073.41 876.952C1077.03 875.936 1080.77 874.882 1084.58 874.127C1093.36 872.387 1103.81 872.473 1111.81 878.123C1113.54 879.333 1115.05 880.754 1116.41 882.043C1116.52 882.151 1116.63 882.257 1116.74 882.363C1118.01 883.566 1119.14 884.643 1120.36 885.584C1126.22 889.994 1134.68 890.729 1141.21 887.493C1142.7 886.758 1144.5 887.366 1145.23 888.851C1145.97 890.336 1145.36 892.135 1143.87 892.87C1135.32 897.104 1124.43 896.165 1116.74 890.368L1116.71 890.349C1115.22 889.201 1113.86 887.904 1112.63 886.734C1112.51 886.618 1112.39 886.504 1112.27 886.39C1110.9 885.089 1109.68 883.957 1108.36 883.034L1108.35 883.027C1102.33 878.771 1093.88 878.4 1085.75 880.013C1082.19 880.718 1078.69 881.702 1075.06 882.723C1074.52 882.875 1073.97 883.028 1073.43 883.18C1069.26 884.344 1064.92 885.498 1060.44 886.138L1060.42 886.142C1046.66 887.993 1032.27 884.619 1020.82 876.718C1019.46 875.777 1019.12 873.909 1020.06 872.545Z" fill="#191A35"/>
<path fill-rule="evenodd" clip-rule="evenodd" d="M1081.23 640.746C1112.99 607.261 1161.36 590.456 1206.98 597.076C1208.62 597.314 1209.76 598.836 1209.52 600.476C1209.28 602.115 1207.76 603.252 1206.12 603.014C1162.43 596.674 1116.01 612.801 1085.59 644.875C1069.59 661.775 1057.95 684.041 1060.33 706.447C1060.61 708.944 1061.05 711.491 1061.52 714.141C1061.55 714.313 1061.58 714.485 1061.61 714.658C1062.04 717.119 1062.5 719.672 1062.81 722.215C1063.49 727.656 1063.61 733.408 1061.53 738.993L1061.53 738.996C1059.1 745.503 1054.36 750.144 1049.19 753.905C1046.6 755.788 1043.84 757.492 1041.15 759.109C1040.47 759.516 1039.8 759.917 1039.13 760.313C1037.12 761.51 1035.17 762.669 1033.29 763.875L1033.28 763.883C1020.96 771.703 1010.66 782.992 1006.66 796.579L1006.66 796.581C1004.77 802.99 1004.97 809.631 1008.67 813.456C1010.13 814.935 1012.02 815.94 1014.4 817.2C1014.73 817.37 1015.06 817.545 1015.4 817.727C1018.02 819.13 1021.21 820.949 1023.24 824.166L1023.24 824.172C1026.48 829.335 1025.28 835.753 1022.89 840.279C1021.15 843.579 1018.63 846.522 1016.37 849.161C1015.63 850.026 1014.92 850.858 1014.27 851.659C1008.07 859.405 1004.36 869.231 1007.16 877.646C1007.69 879.218 1006.84 880.917 1005.26 881.441C1003.69 881.965 1001.99 881.115 1001.47 879.543C997.72 868.292 1002.85 856.317 1009.59 847.903L1009.6 847.893C1010.49 846.794 1011.36 845.782 1012.18 844.813C1014.31 842.332 1016.18 840.136 1017.59 837.477C1019.46 833.925 1019.8 829.977 1018.16 827.364C1017.06 825.627 1015.22 824.435 1012.57 823.019C1012.27 822.86 1011.96 822.698 1011.64 822.53C1009.35 821.327 1006.55 819.855 1004.38 817.653L1004.37 817.639C998.325 811.401 998.836 801.887 1000.9 794.883C1005.44 779.504 1016.92 767.163 1030.06 758.822C1032.03 757.556 1034.1 756.325 1036.13 755.116C1036.78 754.73 1037.43 754.345 1038.06 753.963C1040.73 752.364 1043.3 750.771 1045.66 749.052C1050.4 745.609 1054.07 741.826 1055.91 736.899C1057.49 732.651 1057.49 728.037 1056.86 722.959C1056.56 720.574 1056.14 718.164 1055.69 715.668C1055.66 715.508 1055.64 715.347 1055.61 715.186C1055.14 712.549 1054.67 709.818 1054.37 707.095L1054.37 707.086C1051.72 682.231 1064.62 658.303 1081.23 640.748L1081.23 640.746Z" fill="#191A35"/>
<path fill-rule="evenodd" clip-rule="evenodd" d="M1059.8 761.234C1060.96 762.419 1060.94 764.318 1059.75 765.477C1049.76 775.257 1042.9 788.183 1040.49 801.964L1040.49 801.982C1039.96 804.928 1039.79 808.031 1040.29 810.743C1040.78 813.436 1041.87 815.53 1043.68 816.887C1044.88 817.783 1046.28 818.313 1048.1 818.998C1048.65 819.206 1049.24 819.429 1049.88 819.681C1052.28 820.635 1055.36 822.063 1057.09 825.248L1057.11 825.281C1059.23 829.301 1058.08 833.887 1056.3 837.012C1055.38 838.613 1054.25 839.995 1053.18 841.209C1052.71 841.743 1052.28 842.211 1051.87 842.657C1051.27 843.311 1050.71 843.916 1050.13 844.608C1046.51 849.007 1044.07 854.305 1043.17 859.936C1042.91 861.572 1041.37 862.685 1039.73 862.423C1038.09 862.16 1036.98 860.621 1037.24 858.985C1038.32 852.27 1041.22 845.984 1045.51 840.78L1045.53 840.762C1046.17 840 1046.91 839.184 1047.6 838.432C1047.99 838.004 1048.36 837.597 1048.68 837.233C1049.67 836.122 1050.48 835.103 1051.09 834.036C1052.35 831.832 1052.57 829.566 1051.81 828.097C1051.18 826.946 1049.95 826.167 1047.66 825.258C1047.29 825.11 1046.88 824.955 1046.43 824.79C1044.51 824.074 1042.04 823.152 1040.08 821.686C1036.71 819.155 1035.06 815.494 1034.39 811.821C1033.72 808.172 1033.98 804.302 1034.58 800.924C1037.21 785.893 1044.68 771.836 1055.56 761.188C1056.74 760.03 1058.64 760.05 1059.8 761.234Z" fill="#191A35"/>
<path fill-rule="evenodd" clip-rule="evenodd" d="M1219.56 628.527C1220.54 629.86 1220.26 631.738 1218.93 632.722C1203.16 644.357 1187.56 655.981 1176.53 671.461C1165.53 686.903 1159.97 706.852 1165.95 724.081L1165.95 724.088C1167.12 727.468 1168.68 730.668 1170.34 734.05C1170.86 735.107 1171.39 736.182 1171.91 737.286C1174.06 741.798 1176.12 746.668 1176.84 752.037C1178.22 762.417 1174.36 772.571 1170.86 781.781C1170.6 782.479 1170.34 783.171 1170.08 783.858C1166.26 793.993 1163.36 802.977 1166.06 811.772L1166.06 811.774C1167.38 816.083 1169.97 819.892 1172.98 824.046C1173.23 824.392 1173.48 824.741 1173.74 825.093C1176.46 828.837 1179.43 832.927 1181.36 837.577L1181.36 837.579C1187.98 853.596 1180.66 871.461 1172.47 885.025C1171.61 886.443 1169.77 886.898 1168.35 886.041C1166.93 885.184 1166.47 883.34 1167.33 881.922C1175.44 868.5 1181.23 852.978 1175.81 839.874C1174.17 835.914 1171.62 832.389 1168.82 828.532C1168.59 828.211 1168.35 827.888 1168.12 827.562C1165.14 823.445 1161.97 818.907 1160.33 813.535C1156.94 802.511 1160.74 791.637 1164.46 781.743C1164.68 781.162 1164.9 780.584 1165.12 780.009C1168.75 770.411 1172.07 761.64 1170.89 752.829L1170.89 752.826C1170.3 748.437 1168.59 744.274 1166.5 739.866C1166.04 738.902 1165.55 737.917 1165.06 736.915C1163.37 733.468 1161.58 729.81 1160.28 726.043C1153.46 706.377 1159.94 684.4 1171.65 667.979C1183.32 651.594 1199.73 639.435 1215.36 627.895C1216.69 626.911 1218.57 627.194 1219.56 628.527ZM1190.96 629.232C1192.06 630.472 1191.95 632.368 1190.71 633.467C1170.27 651.606 1155.26 675.73 1147.87 702.016L1147.87 702.021C1144.18 715.052 1143.09 729.156 1150.24 739.172C1151.17 740.46 1152.25 741.712 1153.44 743.028C1153.72 743.341 1154.01 743.66 1154.3 743.984C1155.22 744.99 1156.18 746.048 1157.07 747.113C1159.45 749.947 1161.76 753.321 1162.42 757.608C1163.54 764.6 1159.8 771.058 1156.53 775.848L1156.52 775.858C1154.64 778.592 1152.61 781.31 1150.62 783.972C1149.56 785.389 1148.52 786.79 1147.51 788.17C1144.56 792.216 1141.83 796.238 1139.65 800.521C1135.28 809.119 1133.45 819.021 1136.99 827.163C1138.09 829.677 1139.7 832.098 1141.6 834.582C1142.55 835.821 1143.54 837.048 1144.57 838.304L1144.78 838.566C1145.73 839.728 1146.7 840.918 1147.63 842.118C1151.57 847.199 1155.39 853.153 1154.75 860.557C1154.61 862.208 1153.16 863.431 1151.51 863.288C1149.85 863.145 1148.63 861.692 1148.77 860.041C1149.2 855.095 1146.74 850.758 1142.89 845.796C1142 844.656 1141.08 843.519 1140.12 842.344L1139.92 842.095C1138.89 840.843 1137.84 839.549 1136.83 838.226C1134.81 835.587 1132.87 832.721 1131.49 829.557L1131.49 829.553C1126.94 819.094 1129.53 807.194 1134.31 797.802C1136.7 793.09 1139.65 788.764 1142.66 784.634C1143.76 783.133 1144.85 781.677 1145.92 780.237C1147.86 777.647 1149.75 775.11 1151.57 772.464C1154.86 767.652 1157.21 762.985 1156.5 758.546L1156.49 758.529C1156.09 755.883 1154.63 753.542 1152.47 750.966C1151.67 750.003 1150.82 749.075 1149.93 748.094C1149.62 747.752 1149.3 747.404 1148.98 747.046C1147.76 745.696 1146.5 744.242 1145.37 742.673L1145.36 742.664C1136.51 730.268 1138.32 713.729 1142.1 700.387C1149.79 673.008 1165.42 647.888 1186.73 628.979C1187.97 627.88 1189.87 627.993 1190.96 629.232ZM1071 827.456C1072.42 828.302 1072.89 830.143 1072.05 831.567C1066.19 841.42 1064.33 853.513 1066.9 864.656C1067.28 866.271 1066.27 867.881 1064.65 868.254C1063.04 868.626 1061.43 867.619 1061.06 866.005C1058.14 853.364 1060.24 839.69 1066.89 828.503C1067.73 827.079 1069.57 826.61 1071 827.456Z" fill="#191A35"/>
<path fill-rule="evenodd" clip-rule="evenodd" d="M1137.57 774.634C1138.82 775.718 1138.96 777.612 1137.88 778.865C1132.78 784.755 1129.11 791.875 1127.24 799.425C1126.84 801.033 1125.22 802.014 1123.61 801.616C1122 801.218 1121.02 799.592 1121.42 797.983C1123.51 789.524 1127.62 781.551 1133.34 774.939C1134.42 773.686 1136.32 773.549 1137.57 774.634Z" fill="#191A35"/>
<path fill-rule="evenodd" clip-rule="evenodd" d="M1205.91 598.957C1207.36 598.142 1209.19 598.651 1210 600.094C1213.13 605.634 1215.37 611.722 1216.65 617.883C1216.99 619.505 1215.95 621.093 1214.32 621.43C1212.7 621.767 1211.11 620.725 1210.78 619.103C1209.62 613.524 1207.59 608.024 1204.78 603.045C1203.96 601.603 1204.47 599.772 1205.91 598.957Z" fill="#191A35"/>
<path fill-rule="evenodd" clip-rule="evenodd" d="M1363.08 847.451C1364.24 848.634 1364.22 850.533 1363.03 851.693C1354.83 859.736 1342.85 863.704 1331.49 862.127L1331.46 862.123C1328.15 861.633 1324.98 860.739 1322.01 859.885C1321.86 859.841 1321.71 859.797 1321.55 859.753C1318.7 858.932 1316.04 858.166 1313.33 857.691C1302.98 855.931 1291.82 858.832 1283.66 865.517C1282.38 866.567 1280.49 866.379 1279.44 865.097C1278.39 863.816 1278.58 861.925 1279.86 860.875C1289.38 853.077 1302.3 849.727 1314.35 851.777L1314.36 851.779C1317.4 852.312 1320.35 853.163 1323.13 853.964C1323.31 854.016 1323.49 854.068 1323.67 854.119C1326.66 854.979 1329.47 855.761 1332.33 856.186C1341.84 857.501 1351.95 854.151 1358.83 847.408C1360.02 846.248 1361.92 846.267 1363.08 847.451Z" fill="#191A35"/>
<path fill-rule="evenodd" clip-rule="evenodd" d="M1318.45 727.12C1319.17 725.626 1320.96 724.997 1322.46 725.714C1327.28 728.032 1330 732.432 1331.25 737.096C1332.49 741.743 1332.36 746.918 1331.32 751.431L1331.31 751.456C1330.54 754.677 1329.4 757.885 1328.33 760.909C1327.97 761.919 1327.62 762.908 1327.29 763.87C1325.94 767.836 1324.9 771.548 1324.77 775.316C1324.7 778.085 1325.14 780.418 1326.33 782.077C1328.04 784.4 1330.92 785.249 1335.33 785.956C1335.8 786.032 1336.3 786.107 1336.81 786.185C1338.5 786.44 1340.33 786.719 1342.07 787.124C1344.38 787.664 1346.81 788.484 1348.99 789.978L1348.99 789.98C1355.44 794.41 1357.09 802.954 1355.64 809.771C1354.21 816.513 1350.28 822.229 1346.85 827.232L1346.8 827.311C1345.86 828.677 1343.99 829.025 1342.62 828.087C1341.26 827.15 1340.91 825.282 1341.85 823.916C1345.41 818.723 1348.62 813.944 1349.77 808.524C1350.91 803.145 1349.36 797.511 1345.6 794.927C1344.27 794.02 1342.65 793.421 1340.71 792.967C1339.22 792.621 1337.71 792.392 1336.09 792.144C1335.53 792.06 1334.97 791.974 1334.38 791.88C1330.11 791.197 1324.8 790.142 1321.48 785.613L1321.46 785.589C1319.15 782.373 1318.68 778.466 1318.77 775.15L1318.77 775.117C1318.94 770.429 1320.22 766.028 1321.61 761.937C1321.99 760.814 1322.38 759.725 1322.76 758.657C1323.8 755.722 1324.78 752.949 1325.48 750.065C1326.33 746.349 1326.4 742.19 1325.45 738.646C1324.51 735.116 1322.65 732.464 1319.86 731.123C1318.36 730.406 1317.74 728.613 1318.45 727.12Z" fill="#191A35"/>
<path fill-rule="evenodd" clip-rule="evenodd" d="M1333.58 808.983C1335.23 808.817 1336.7 810.018 1336.87 811.667C1337.7 819.886 1335.71 828.238 1331.41 835.259C1330.55 836.673 1328.7 837.118 1327.29 836.254C1325.87 835.389 1325.43 833.543 1326.29 832.129C1329.93 826.191 1331.59 819.144 1330.9 812.27C1330.73 810.621 1331.93 809.15 1333.58 808.983Z" fill="#191A35"/>
<path fill-rule="evenodd" clip-rule="evenodd" d="M1317.21 827.178C1318.58 828.113 1318.93 829.98 1317.99 831.348L1315.02 835.693C1314.09 837.06 1312.22 837.411 1310.85 836.476C1309.49 835.54 1309.13 833.673 1310.07 832.306L1313.04 827.961C1313.98 826.593 1315.84 826.243 1317.21 827.178Z" fill="#191A35"/>
<path fill-rule="evenodd" clip-rule="evenodd" d="M1090.76 651.044C1092.03 652.117 1092.18 654.01 1091.11 655.273C1086.14 661.126 1082.11 667.792 1079.17 674.904C1078.54 676.436 1076.79 677.166 1075.26 676.534C1073.73 675.903 1073 674.149 1073.63 672.617C1076.79 664.94 1081.15 657.732 1086.54 651.388C1087.61 650.125 1089.5 649.971 1090.76 651.044Z" fill="#191A35"/>
<path fill-rule="evenodd" clip-rule="evenodd" d="M1206.48 619.615C1206.91 621.215 1205.96 622.862 1204.36 623.294C1202.13 623.899 1200.08 625.187 1198.43 626.9C1197.28 628.094 1195.38 628.13 1194.18 626.981C1192.99 625.832 1192.95 623.933 1194.1 622.739C1196.42 620.337 1199.39 618.423 1202.8 617.502C1204.4 617.07 1206.04 618.016 1206.48 619.615Z" fill="#191A35"/>
<path fill-rule="evenodd" clip-rule="evenodd" d="M1185.25 569.365C1186.23 568.034 1188.11 567.756 1189.44 568.744C1196.95 574.315 1202.99 581.893 1206.78 590.444C1207.45 591.958 1206.77 593.731 1205.25 594.402C1203.74 595.073 1201.97 594.39 1201.29 592.875C1197.92 585.264 1192.53 578.511 1185.87 573.562C1184.54 572.574 1184.26 570.695 1185.25 569.365Z" fill="#191A35"/>
<path fill-rule="evenodd" clip-rule="evenodd" d="M1218.85 567.366C1220.27 568.223 1220.72 570.068 1219.86 571.486C1216.4 577.211 1214.48 583.807 1214.2 590.491C1214.13 592.146 1212.73 593.431 1211.07 593.361C1209.42 593.29 1208.13 591.891 1208.2 590.236C1208.53 582.588 1210.72 575.005 1214.73 568.381C1215.59 566.963 1217.43 566.509 1218.85 567.366Z" fill="#191A35"/>
<path fill-rule="evenodd" clip-rule="evenodd" d="M1587.8 380.284C1587.35 378.404 1588.51 376.515 1590.39 376.066L1873.5 308.419C1875.38 307.97 1877.27 309.13 1877.72 311.01L1927.2 518.239C1927.65 520.119 1926.49 522.008 1924.61 522.457L1641.49 590.104C1639.61 590.553 1637.73 589.393 1637.28 587.513L1587.8 380.284ZM1595.42 382.061L1643.27 582.482L1919.58 516.462L1871.73 316.041L1595.42 382.061Z" fill="#191A35"/>
<path fill-rule="evenodd" clip-rule="evenodd" d="M1596.08 405.076C1596.77 406.878 1595.88 408.905 1594.08 409.604L1541.87 429.836L1594.73 566.011L1629.26 552.569C1631.06 551.868 1633.09 552.759 1633.79 554.561C1634.49 556.362 1633.6 558.391 1631.8 559.092L1594.01 573.805C1593.14 574.142 1592.18 574.121 1591.33 573.747C1590.48 573.372 1589.81 572.676 1589.47 571.81L1534.08 429.104C1533.74 428.239 1533.76 427.275 1534.14 426.425C1534.51 425.576 1535.21 424.91 1536.07 424.574L1591.55 403.077C1593.35 402.378 1595.38 403.273 1596.08 405.076Z" fill="#191A35"/>
<path fill-rule="evenodd" clip-rule="evenodd" d="M1887.71 346.315C1888.11 344.423 1889.96 343.21 1891.86 343.607L1987.94 363.732C1989.84 364.128 1991.05 365.981 1990.65 367.873L1951.94 553.268C1951.75 554.177 1951.21 554.973 1950.43 555.482C1949.65 555.99 1948.71 556.168 1947.8 555.978L1875.79 540.884C1873.9 540.488 1872.68 538.632 1873.08 536.741C1873.48 534.849 1875.33 533.636 1877.23 534.033L1945.81 548.408L1983.09 369.866L1890.42 350.458C1888.53 350.062 1887.32 348.207 1887.71 346.315Z" fill="#191A35"/>
<path fill-rule="evenodd" clip-rule="evenodd" d="M1785.83 352.972C1772.06 352.972 1760.91 364.134 1760.91 377.906C1760.91 391.678 1772.06 402.84 1785.83 402.84C1799.59 402.84 1810.75 391.678 1810.75 377.906C1810.75 364.134 1799.59 352.972 1785.83 352.972ZM1753.91 377.906C1753.91 360.271 1768.2 345.972 1785.83 345.972C1803.46 345.972 1817.75 360.271 1817.75 377.906C1817.75 395.542 1803.46 409.84 1785.83 409.84C1768.2 409.84 1753.91 395.542 1753.91 377.906Z" fill="#191A35"/>
<path fill-rule="evenodd" clip-rule="evenodd" d="M1689.17 420.237C1690.27 419.979 1691.43 420.27 1692.28 421.019L1824.72 537.73C1826.17 539.008 1826.31 541.219 1825.03 542.669C1823.75 544.12 1821.54 544.259 1820.09 542.981L1691.35 429.524L1637.58 561.043C1636.85 562.832 1634.81 563.689 1633.02 562.958C1631.23 562.227 1630.37 560.183 1631.1 558.394L1686.73 422.321C1687.16 421.272 1688.07 420.496 1689.17 420.237Z" fill="#191A35"/>
<path fill-rule="evenodd" clip-rule="evenodd" d="M1821.69 433.178C1822.65 432.978 1823.65 433.19 1824.45 433.763L1923.13 504.734C1924.7 505.863 1925.05 508.05 1923.93 509.619C1922.8 511.189 1920.61 511.546 1919.04 510.417L1823.46 441.676L1784.95 506.467C1783.96 508.129 1781.82 508.675 1780.15 507.688C1778.49 506.7 1777.95 504.552 1778.93 502.891L1819.4 434.816C1819.9 433.972 1820.73 433.378 1821.69 433.178Z" fill="#191A35"/>
<path fill-rule="evenodd" clip-rule="evenodd" d="M1255.28 614.636C1242.85 602.917 1224.02 597.688 1208.99 604.102C1207.21 604.861 1205.16 604.035 1204.4 602.257C1203.64 600.479 1204.47 598.423 1206.24 597.664C1224.44 589.899 1246.15 596.41 1260.08 609.542C1274.02 622.681 1281.17 641.267 1284.44 659.497L1284.44 659.5C1284.74 661.175 1285.01 662.82 1285.28 664.441C1285.9 668.197 1286.49 671.824 1287.38 675.395C1288.62 680.414 1290.36 684.89 1293.22 688.626C1296.26 692.565 1300.38 695.479 1305.19 697.972C1308.9 699.895 1312.82 701.475 1316.88 703.107C1318.15 703.621 1319.44 704.141 1320.74 704.678C1331.28 709.031 1343.85 716.127 1347.39 728.772L1347.39 728.776C1349.11 734.964 1348.27 741.093 1347.07 746.685C1346.69 748.433 1346.29 750.102 1345.91 751.721C1345 755.525 1344.15 759.056 1343.85 762.696C1343.63 765.489 1343.77 767.821 1344.62 769.753C1345.91 772.582 1348.53 774.433 1352.47 776.276C1353.69 776.843 1354.85 777.338 1356.09 777.861C1356.92 778.215 1357.79 778.581 1358.72 778.992C1360.89 779.948 1363.17 781.049 1365.26 782.466C1375.4 789.32 1378.83 802.446 1377.52 813.67C1376.21 824.843 1371.09 834.918 1366.33 844.143C1365.44 845.86 1363.33 846.534 1361.61 845.647C1359.9 844.761 1359.22 842.65 1360.11 840.932C1364.95 831.556 1369.43 822.574 1370.56 812.859C1371.69 803.196 1368.57 793.149 1361.34 788.264L1361.33 788.261C1359.77 787.201 1357.94 786.301 1355.89 785.396C1355.18 785.079 1354.39 784.744 1353.57 784.398C1352.22 783.823 1350.79 783.218 1349.51 782.617C1345.26 780.631 1340.61 777.873 1338.24 772.628L1338.23 772.606C1336.65 769.053 1336.63 765.293 1336.87 762.15L1336.87 762.127C1337.22 757.919 1338.26 753.571 1339.22 749.558C1339.58 748.057 1339.93 746.602 1340.22 745.219C1341.37 739.872 1341.89 735.138 1340.65 730.653C1338.08 721.498 1328.56 715.483 1318.07 711.147C1316.9 710.665 1315.7 710.18 1314.47 709.687C1310.36 708.03 1306.01 706.279 1301.97 704.188C1296.67 701.441 1291.57 697.952 1287.68 692.897L1287.67 692.891C1283.99 688.09 1281.95 682.581 1280.58 677.081C1279.63 673.222 1278.96 669.147 1278.32 665.272C1278.07 663.717 1277.82 662.194 1277.55 660.73C1274.42 643.285 1267.71 626.349 1255.28 614.636Z" fill="#191A35"/>
</g>
<defs>
<clipPath id="clip0_2139_1138">
<rect width="1582" height="1238" fill="white" transform="translate(494 181)"/>
</clipPath>
</defs>
</svg>
