<svg width="2570" height="1600" viewBox="0 0 2570 1600" fill="none" xmlns="http://www.w3.org/2000/svg">
<rect width="2570" height="1600" fill="white"/>
<g clip-path="url(#clip0_2139_4636)">
<path d="M1123.78 399.889C1128.87 399.975 1132.93 398.335 1137.77 397.127C1139.23 396.781 1134.83 442.792 1146.4 439.943C1151.06 438.821 1155.81 378.049 1157.1 367.431C1169.7 356.036 1195.94 359.144 1211.05 353.706C1218.73 350.943 1227.45 345.419 1226.93 336.009C1226.76 332.815 1223.48 329.103 1226.24 327.636C1270.87 304.846 1325.77 298.631 1330.08 281.539C1331.9 274.115 1329.57 265.396 1323.01 261.08C1315.41 256.073 1305.22 258.318 1297.37 261.253C1282 266.95 1269.23 278.69 1253.35 283.093C1243.76 285.769 1233.58 285.078 1223.91 287.668C1214.5 290.258 1205.7 294.833 1197.24 299.667C1167.63 316.759 1134.23 336.7 1121.62 370.452C1119.29 376.495 1111.18 399.544 1123.78 399.889Z" fill="#F0F0F5"/>
<path d="M1207.77 450.043C1196.29 442.101 1178.59 438.044 1177.04 449.007C1176 456.69 1189.47 466.531 1195.51 468.948C1200.52 470.934 1207.86 473.092 1212.86 470.07C1222.01 464.718 1216.75 456.172 1207.77 450.043Z" fill="#F0F0F5"/>
<path d="M1320.76 426.476C1312.3 423.887 1303.84 436.576 1302.29 444.345C1301.08 450.302 1302.98 461.092 1311.27 456.776C1319.73 452.374 1333.36 430.275 1320.76 426.476Z" fill="#F0F0F5"/>
<path d="M1275.62 504.341C1271.04 503.909 1266.04 505.031 1262.32 507.794C1258.78 510.383 1256.11 515.304 1259.39 519.188C1263.7 524.368 1273.8 523.246 1279.41 521.519C1283.73 520.224 1288.65 515.39 1286.23 510.556C1284.16 506.671 1280.11 504.772 1275.62 504.341Z" fill="#F0F0F5"/>
<path d="M1277.77 697.447C1295.73 694.253 1314.81 688.469 1328.79 676.211C1335.95 669.91 1342 660.846 1341.74 650.918C1341.56 642.027 1336.47 633.222 1327.93 630.114C1317.83 626.489 1307.38 631.927 1297.89 634.948C1288.74 637.797 1279.5 640.042 1270.09 641.682C1251.45 644.876 1232.2 645.394 1213.47 643.149C1192.84 640.646 1172.47 634.344 1154.42 624.158C1150.11 621.741 1145.97 619.065 1141.91 616.216C1137.25 612.936 1132.93 609.224 1127.58 607.066C1119.03 603.613 1109.37 605.339 1104.1 612.418C1098.92 610.432 1092.19 615.785 1095.99 621.482C1135.09 679.578 1209.06 709.791 1277.77 697.447Z" fill="#F0F0F5"/>
<path d="M1429.52 321.938C1391.63 305.192 1342.51 350.425 1377.73 366.654C1447.05 398.68 1454.21 332.815 1429.52 321.938Z" fill="#F0F0F5"/>
<path d="M1917.83 642.2C1914.03 611.037 1865.87 548.193 1856.37 553.286C1831.77 566.494 1820.89 597.571 1815.89 624.849C1798.28 720.496 1844.46 742.163 1850.85 744.321C1859.74 747.342 1882.7 724.812 1887.1 719.028C1904.71 695.807 1921.45 672.327 1917.83 642.2Z" fill="#F0F0F5"/>
<path d="M1658.01 606.117C1652.23 611.555 1651.54 620.964 1652.57 628.302C1654.73 643.926 1658.61 659.81 1663.36 674.83C1669.66 694.857 1687.96 716.179 1710.75 703.404C1728.7 693.39 1732.76 670.082 1725.51 652.818C1705.57 605.253 1665.43 599.124 1658.01 606.117Z" fill="#F0F0F5"/>
<path d="M1508.68 332.384C1502.89 331.78 1497.97 333.592 1493.83 336.614C1492.71 336.873 1491.67 337.477 1490.64 338.685C1476.39 355.691 1462.07 372.87 1450.24 391.775C1444.8 400.493 1438.85 409.903 1435.82 419.83C1433.06 428.808 1435.31 439.943 1445.41 442.965C1454.21 445.641 1463.27 440.202 1469.66 434.591C1477.86 427.426 1485.11 419.053 1491.76 410.421C1498.23 402.133 1504.1 393.415 1509.63 384.437C1514.81 375.977 1521.63 366.654 1523.78 356.9C1526.29 345.937 1520.85 333.679 1508.68 332.384Z" fill="#F0F0F5"/>
<path d="M496.674 1044.9C498.141 1075.8 528.353 1111.71 539.747 1121.12C556.234 1134.68 570.908 1113.96 578.159 1100.67C593.524 1072.52 597.236 1038.17 598.358 1006.57C599.566 971.439 593.956 934.837 570.563 907.214C567.11 903.157 493.049 965.137 496.674 1044.9Z" fill="#F0F0F5"/>
<path d="M865.342 1154.1C833.663 1112.32 736.382 962.03 720.413 1018.74C717.564 1028.76 718.427 1040.58 720.585 1050.34C723.002 1061.04 727.232 1071.32 732.152 1081.07C750.107 1116.72 784.461 1122.42 801.725 1177.41C816.572 1224.89 851.445 1256.14 869.658 1251.04C886.663 1246.29 897.021 1226.87 895.295 1210.04C892.964 1188.2 878.031 1170.93 865.342 1154.1Z" fill="#F0F0F5"/>
<path d="M986.793 1047.58C983.082 1031.18 979.888 1014.26 971.083 999.667C963.228 986.719 947.518 975.065 934.398 988.877C921.018 1003.12 924.903 1028.76 926.37 1046.37C928.269 1068.29 932.412 1089.88 936.642 1111.46C945.101 1154.79 952.093 1198.47 958.999 1242.06C962.192 1262.26 969.012 1284.28 989.21 1293.34C1013.29 1304.13 1034.96 1284.71 1036.69 1260.97C1038.24 1241.03 990.764 1065.36 986.793 1047.58Z" fill="#F0F0F5"/>
<path d="M1417.61 1024.87C1427.62 1014.69 1440.23 993.797 1424.26 983.265C1413.81 976.359 1373.24 971.87 1293.4 1027.64C1280.02 1036.96 1266.38 1046.8 1255.25 1058.8C1245.66 1069.07 1232.72 1085.73 1243.94 1099.2C1254.99 1112.49 1272.77 1107.4 1285.8 1100.49C1302.2 1091.86 1318.34 1082.97 1334.66 1074.16C1350.8 1065.45 1366.86 1056.81 1383 1048.09C1395.17 1041.62 1407.68 1034.89 1417.61 1024.87Z" fill="#F0F0F5"/>
<path d="M1475.27 1199.07C1460.77 1196.83 1459.56 1208.66 1455.51 1217.72C1449.55 1231.01 1441.87 1243.62 1432.72 1255.01C1420.98 1269.6 1407.68 1282.72 1395.77 1297.05C1383.26 1312.25 1372.29 1335.98 1384.72 1354.54C1396.64 1372.33 1415.97 1365.77 1430.13 1354.46C1448.43 1339.87 1460.86 1319.41 1471.13 1298.69C1479.07 1282.81 1485.03 1265.8 1487.18 1248.11C1488.82 1235.07 1486.93 1200.89 1475.27 1199.07Z" fill="#F0F0F5"/>
<path d="M930.686 1283.07C926.456 1285.57 923.003 1289.2 920.673 1293.43C920.5 1293.69 920.328 1293.86 920.155 1294.12C911.955 1306.63 904.013 1320.01 902.977 1335.29C902.546 1341.77 903.323 1349.45 908.416 1354.11C914.199 1359.46 922.227 1357.31 928.01 1353.16C939.059 1345.14 947.432 1334.17 952.611 1321.57C956.84 1311.21 961.674 1293.86 952.956 1284.54C947 1278.32 937.591 1279.01 930.686 1283.07Z" fill="#F0F0F5"/>
<path d="M1118.95 993.106C1117.31 993.106 1117.31 995.696 1118.95 995.696C1120.67 995.696 1120.67 993.106 1118.95 993.106Z" fill="#F0F0F5"/>
<path d="M879.499 457.381C854.812 450.044 835.217 458.59 821.579 459.28C804.229 460.144 803.452 449.094 787.31 445.382C769.183 441.239 746.568 443.742 728.958 448.835C715.924 452.633 705.221 462.474 691.928 465.927C680.62 468.862 679.411 459.712 672.592 453.756C664.392 446.591 649.459 443.742 639.1 441.411C616.14 436.232 592.229 436.404 569.182 441.239C529.734 449.526 491.927 470.502 463.528 499.076C456.967 505.636 429.173 533.519 441.257 544.655C450.839 553.546 471.642 553.632 483.813 554.064C548.206 556.222 903.841 566.322 937.419 542.151C964.005 522.987 919.119 469.208 879.499 457.381Z" fill="#FFD37D"/>
<path d="M2090.04 434.678C2076.66 407.831 2031.77 408.176 2006.65 403.947C1959.35 396.005 1913.77 394.883 1867.59 409.73C1854.99 413.787 1817.7 420.607 1823.91 441.584C1827.45 453.842 2102.38 459.453 2090.04 434.678Z" fill="#FFD37D"/>
<path d="M2133.45 1116.29C2108.51 1045.16 2007.77 1063.81 1943.03 1076.84C1927.5 1079.95 1912.82 1072.78 1897.8 1070.11C1881.4 1067.17 1864.14 1068.55 1848.17 1072.78C1841.18 1074.68 1834.88 1077.62 1827.54 1076.41C1818.22 1074.86 1810.54 1068.73 1801.3 1066.74C1785.16 1063.29 1767.03 1063.72 1750.54 1064.15C1719.21 1064.93 1687.36 1070.02 1658.79 1083.49C1645.58 1089.7 1633.24 1097.73 1622.53 1107.66C1569.79 1156.69 1803.89 1128.89 1884.94 1130.88C1930.86 1131.92 2143.12 1143.91 2133.45 1116.29Z" fill="#FFD37D"/>
<path d="M1135.09 406.795C1130.08 404.896 1124.47 406.364 1119.81 408.953C1106.95 416.205 1099.44 433.469 1103.24 448.576C1107.04 463.683 1122.4 474.559 1136.64 471.538" stroke="#191A35" stroke-width="7" stroke-miterlimit="10" stroke-linecap="round" stroke-linejoin="round"/>
<path d="M1122.4 432.779C1127.06 435.369 1131.2 438.821 1134.74 442.792" stroke="#191A35" stroke-width="7" stroke-miterlimit="10" stroke-linecap="round" stroke-linejoin="round"/>
<path d="M1136.82 384.006C1136.47 398.163 1136.9 412.406 1138.11 426.477C1138.46 430.707 1138.97 435.196 1141.82 438.39C1142.6 439.253 1143.55 440.03 1144.67 440.202C1147.69 440.634 1149.33 436.836 1149.85 433.815C1154.86 406.45 1156.84 378.567 1155.72 350.771" stroke="#191A35" stroke-width="7" stroke-miterlimit="10" stroke-linecap="round" stroke-linejoin="round"/>
<path d="M1157.01 367.432C1170.31 361.993 1184.55 358.799 1198.88 358.022" stroke="#191A35" stroke-width="7" stroke-miterlimit="10" stroke-linecap="round" stroke-linejoin="round"/>
<path d="M1196.89 401.53C1209.06 397.386 1222.27 396.695 1234.87 399.285" stroke="#191A35" stroke-width="7" stroke-miterlimit="10" stroke-linecap="round" stroke-linejoin="round"/>
<path d="M1219.94 416.636C1219.51 419.658 1219.42 422.765 1219.77 425.787C1221.24 423.024 1221.67 419.744 1220.98 416.636" stroke="#191A35" stroke-width="7" stroke-miterlimit="10" stroke-linecap="round" stroke-linejoin="round"/>
<path d="M1306.52 390.566C1296.25 390.048 1285.89 391.257 1275.96 394.105C1272.34 395.141 1268.19 396.868 1267.24 400.58C1266.73 402.565 1267.16 404.723 1267.76 406.709C1270.44 416.636 1273.72 426.304 1277.6 435.8C1278.72 438.562 1280.02 441.497 1279.76 444.518C1279.24 451.424 1271.99 455.395 1265.6 458.071" stroke="#191A35" stroke-width="7" stroke-miterlimit="10" stroke-linecap="round" stroke-linejoin="round"/>
<path d="M1292.97 409.471C1292.28 412.406 1292.28 415.427 1292.97 418.362C1294.18 415.514 1294.43 412.32 1293.83 409.298" stroke="#191A35" stroke-width="7" stroke-miterlimit="10" stroke-linecap="round" stroke-linejoin="round"/>
<path d="M1253.69 482.069C1262.5 480.947 1271.13 479.393 1279.76 477.494" stroke="#191A35" stroke-width="7" stroke-miterlimit="10" stroke-linecap="round" stroke-linejoin="round"/>
<path d="M1108.42 397.645C1106.34 377.186 1110.92 356.123 1121.36 338.427C1131.81 320.73 1147.95 306.401 1166.85 298.286" stroke="#191A35" stroke-width="7" stroke-miterlimit="10" stroke-linecap="round" stroke-linejoin="round"/>
<path d="M1178.16 298.545C1185.41 283.266 1199.83 271.612 1216.23 267.727C1221.84 266.346 1227.88 265.915 1233.15 268.159C1238.41 270.404 1242.56 276.015 1241.69 281.626C1240.83 287.323 1233.67 291.467 1228.83 288.359C1231.33 274.461 1243.85 264.706 1256.45 258.405C1263.7 254.779 1272.08 251.844 1279.67 254.52C1287.27 257.282 1291.76 268.245 1285.8 273.77C1284.25 275.151 1282.09 276.015 1280.02 275.669C1276.48 275.065 1274.24 271.094 1274.49 267.469C1274.75 263.843 1276.83 260.649 1279.16 257.887C1288.65 246.492 1303.67 238.895 1318.34 241.226C1333.02 243.557 1345.79 257.455 1344.15 272.216C1342.51 286.805 1329.13 296.732 1316.88 304.76" stroke="#191A35" stroke-width="7" stroke-miterlimit="10" stroke-linecap="round" stroke-linejoin="round"/>
<path d="M1325.94 386.595C1327.75 420.261 1329.57 454.187 1324.21 487.421C1322.14 500.37 1318.95 513.319 1312.65 524.8C1306.35 536.281 1296.76 546.381 1284.59 551.301C1276.82 554.495 1268.28 555.445 1259.91 555.186C1232.89 554.409 1206.56 540.597 1190.42 518.93" stroke="#191A35" stroke-width="7" stroke-miterlimit="10" stroke-linecap="round" stroke-linejoin="round"/>
<path d="M1137.42 472.833C1142.08 518.844 1143.38 565.286 1141.13 611.469" stroke="#191A35" stroke-width="7" stroke-miterlimit="10" stroke-linecap="round" stroke-linejoin="round"/>
<path d="M1311.18 527.39C1309.71 557.776 1309.71 591.615 1311.27 622.001" stroke="#191A35" stroke-width="7" stroke-miterlimit="10" stroke-linecap="round" stroke-linejoin="round"/>
<path d="M1196.29 527.044C1203.8 546.122 1215.8 563.3 1234.27 572.192C1252.74 581.083 1276.13 580.652 1292.79 568.739C1302.38 561.833 1309.71 550.093 1307.38 538.526C1293.48 553.287 1272.08 559.934 1251.88 557.776C1231.68 555.618 1212.86 545.431 1198.27 531.361" fill="#191A35"/>
<path d="M1196.29 527.044C1203.8 546.122 1215.8 563.3 1234.27 572.192C1252.74 581.083 1276.13 580.652 1292.79 568.739C1302.38 561.833 1309.71 550.093 1307.38 538.526C1293.48 553.287 1272.08 559.934 1251.88 557.776C1231.68 555.618 1212.86 545.431 1198.27 531.361" stroke="#191A35" stroke-width="7" stroke-miterlimit="10" stroke-linecap="round" stroke-linejoin="round"/>
<path d="M1142.43 624.849C1190.07 651.696 1249.03 657.48 1300.91 640.474" stroke="#191A35" stroke-width="7" stroke-miterlimit="10" stroke-linecap="round" stroke-linejoin="round"/>
<path d="M1192.66 666.889C1224.08 677.507 1259.39 676.298 1289.95 663.436" stroke="#191A35" stroke-width="7" stroke-miterlimit="10" stroke-linecap="round" stroke-linejoin="round"/>
<path d="M1294.87 674.399C1283.47 682.168 1270.7 687.952 1257.4 691.405" stroke="#191A35" stroke-width="7" stroke-miterlimit="10" stroke-linecap="round" stroke-linejoin="round"/>
<path d="M1121.02 607.498C1049.37 603.959 974.795 600.937 909.02 629.424C882.52 640.905 858.351 657.134 834.699 673.881C743.633 738.365 658.522 811.222 579.54 890.036C553.558 915.933 527.835 943.039 511.78 975.928C495.725 1008.82 490.286 1048.87 505.824 1082.02C516.614 1104.9 536.036 1122.33 555.026 1139.08C641.776 1215.82 728.441 1292.65 815.191 1369.39" stroke="#191A35" stroke-width="7" stroke-miterlimit="10" stroke-linecap="round" stroke-linejoin="round"/>
<path d="M922.745 1201.41C875.787 1260.71 835.476 1325.37 802.934 1393.74" stroke="#191A35" stroke-width="7" stroke-miterlimit="10" stroke-linecap="round" stroke-linejoin="round"/>
<path d="M900.906 1206.15C878.808 1174.65 856.797 1143.14 834.699 1111.63C808.199 1073.73 780.75 1034.97 742.338 1009.25C736.641 1005.45 727.491 1002.69 724.211 1008.64C722.916 1011.06 723.261 1014.08 724.125 1016.67C728.441 1029.19 743.546 1035.41 756.667 1033.68C769.787 1031.87 781.268 1024.01 791.712 1015.9C822.96 991.466 850.237 961.943 872.248 928.968" stroke="#191A35" stroke-width="7" stroke-miterlimit="10" stroke-linecap="round" stroke-linejoin="round"/>
<path d="M927.492 1016.93C932.844 1107.57 946.482 1197.69 968.148 1285.83" stroke="#191A35" stroke-width="7" stroke-miterlimit="10" stroke-linecap="round" stroke-linejoin="round"/>
<path d="M958.912 1049.74C963.66 1099.03 973.673 1147.89 988.606 1195.19" stroke="#191A35" stroke-width="7" stroke-miterlimit="10" stroke-linecap="round" stroke-linejoin="round"/>
<path d="M1805.1 763.312C1711.53 797.669 1612.86 818.473 1513.43 824.861C1504.19 825.466 1494.61 825.897 1485.98 822.444C1477.34 819.078 1470.01 810.704 1470.7 801.468C1471.39 792.231 1482.95 784.807 1490.55 789.987C1496.59 794.13 1497.02 802.762 1496.85 810.1C1492.1 991.121 1487.36 1172.23 1482.61 1353.25" stroke="#191A35" stroke-width="7" stroke-miterlimit="10" stroke-linecap="round" stroke-linejoin="round"/>
<path d="M1377.39 626.489C1423.05 618.893 1469.14 613.972 1515.41 611.728" stroke="#191A35" stroke-width="7" stroke-miterlimit="10" stroke-linecap="round" stroke-linejoin="round"/>
<path d="M1409.41 450.303C1437.29 397.559 1473.03 348.958 1515.15 306.746" stroke="#191A35" stroke-width="7" stroke-miterlimit="10" stroke-linecap="round" stroke-linejoin="round"/>
<path d="M1525.34 342.657C1621.84 390.998 1714.89 446.245 1803.54 507.881C1828.49 525.232 1853.26 543.187 1874.67 564.768C1903.93 594.204 1927.41 636.244 1915.59 675.953C1907.9 701.764 1886.75 721.273 1864.83 736.984" stroke="#191A35" stroke-width="7" stroke-miterlimit="10" stroke-linecap="round" stroke-linejoin="round"/>
<path d="M1438.59 436.75C1501.86 507.708 1573.16 571.415 1650.84 626.144" stroke="#191A35" stroke-width="7" stroke-miterlimit="10" stroke-linecap="round" stroke-linejoin="round"/>
<path d="M1667.85 644.531C1674.84 660.155 1681.75 675.78 1688.74 691.318" stroke="#191A35" stroke-width="7" stroke-miterlimit="10" stroke-linecap="round" stroke-linejoin="round"/>
<path d="M1677.69 629.079C1687.88 639.438 1701.34 646.516 1715.58 649.192C1718.09 644.272 1713.94 638.661 1709.89 634.949C1699.7 625.712 1687.79 618.461 1675.01 613.454" stroke="#191A35" stroke-width="7" stroke-miterlimit="10" stroke-linecap="round" stroke-linejoin="round"/>
<path d="M1266.12 1060.87C1306.35 1032.47 1349.59 1008.56 1395 989.567" stroke="#191A35" stroke-width="7" stroke-miterlimit="10" stroke-linecap="round" stroke-linejoin="round"/>
<path d="M1465.26 1226.79C1452.31 1263.13 1432.54 1297.05 1407.43 1326.4" stroke="#191A35" stroke-width="7" stroke-miterlimit="10" stroke-linecap="round" stroke-linejoin="round"/>
<path d="M1460.34 1285.49C1451.62 1308.79 1440.31 1331.15 1426.76 1352.04" stroke="#191A35" stroke-width="7" stroke-miterlimit="10" stroke-linecap="round" stroke-linejoin="round"/>
<path d="M924.644 647.207C965.904 634.949 1009.06 628.993 1052.05 629.424" stroke="#191A35" stroke-width="7" stroke-miterlimit="10" stroke-linecap="round" stroke-linejoin="round"/>
<path d="M1069.57 629.338C1070.09 629.338 1070.61 629.338 1071.13 629.338" stroke="#191A35" stroke-width="7" stroke-miterlimit="10" stroke-linecap="round" stroke-linejoin="round"/>
<path d="M877.254 888.223C875.701 890.381 874.061 892.453 872.507 894.611" stroke="#191A35" stroke-width="7" stroke-miterlimit="10" stroke-linecap="round" stroke-linejoin="round"/>
<path d="M536.553 986.546C528.871 1011.93 532.842 1040.58 547.084 1062.94" stroke="#191A35" stroke-width="7" stroke-miterlimit="10" stroke-linecap="round" stroke-linejoin="round"/>
<path d="M955.028 1024.96C955.546 1026.51 956.15 1028.15 956.668 1029.71" stroke="#191A35" stroke-width="7" stroke-miterlimit="10" stroke-linecap="round" stroke-linejoin="round"/>
<path d="M1236.43 696.239C1234.27 697.793 1232.2 699.433 1230.04 700.987" stroke="#191A35" stroke-width="7" stroke-miterlimit="10" stroke-linecap="round" stroke-linejoin="round"/>
<path d="M1367.72 226.983C1380.32 215.329 1392.92 203.675 1405.61 192.021" stroke="#191A35" stroke-width="7" stroke-miterlimit="10" stroke-linecap="round" stroke-linejoin="round"/>
<path d="M1382.13 247.096C1395.69 238.809 1409.67 231.212 1424 224.479" stroke="#191A35" stroke-width="7" stroke-miterlimit="10" stroke-linecap="round" stroke-linejoin="round"/>
<path d="M1389.13 269.627C1401.81 268.591 1414.5 266.605 1426.85 263.67" stroke="#191A35" stroke-width="7" stroke-miterlimit="10" stroke-linecap="round" stroke-linejoin="round"/>
<path d="M1228.14 326.6C1263.88 321.766 1299.61 316.846 1335.26 312.011C1351.92 309.767 1368.67 307.436 1385.41 308.213C1420.55 309.681 1453.61 324.097 1485.8 338.168" stroke="#191A35" stroke-width="7" stroke-miterlimit="10" stroke-linecap="round" stroke-linejoin="round"/>
<path d="M1235.74 337.477C1275.53 332.557 1315.58 329.449 1355.72 328.068" stroke="#191A35" stroke-width="7" stroke-miterlimit="10" stroke-linecap="round" stroke-linejoin="round"/>
<path d="M1362.45 342.916C1329.65 345.764 1296.76 348.613 1263.96 351.462C1260.42 351.807 1255.85 353.188 1255.94 356.727C1256.02 359.403 1258.87 361.044 1261.37 361.907C1270.09 364.928 1279.5 365.101 1288.65 365.36C1305.66 365.791 1322.66 366.137 1339.67 366.568C1345.02 366.655 1350.54 366.827 1355.63 368.64C1363.06 371.316 1368.67 377.272 1374.54 382.538C1390.16 396.695 1408.98 407.227 1429.18 413.183" stroke="#191A35" stroke-width="7" stroke-miterlimit="10" stroke-linecap="round" stroke-linejoin="round"/>
<path d="M1383.34 347.491C1385.85 348.44 1388.44 349.39 1390.94 350.339" stroke="#191A35" stroke-width="7" stroke-miterlimit="10" stroke-linecap="round" stroke-linejoin="round"/>
<path d="M943.288 1284.02C957.099 1287.99 971.515 1290.23 985.93 1290.58" stroke="#191A35" stroke-width="7" stroke-miterlimit="10" stroke-linecap="round" stroke-linejoin="round"/>
<path d="M911.955 1226.7C925.161 1234.64 938.973 1241.46 953.301 1247.16" stroke="#191A35" stroke-width="7" stroke-miterlimit="10" stroke-linecap="round" stroke-linejoin="round"/>
<path d="M835.994 1342.8C862.753 1355.84 889.425 1368.87 916.184 1381.91C926.974 1387.18 937.85 1392.53 949.417 1395.81C984.981 1406.08 1021.75 1407.98 1059.91 1407.98" stroke="#191A35" stroke-width="7" stroke-miterlimit="10" stroke-linecap="round" stroke-linejoin="round"/>
<path d="M965.645 1375.18C1002.93 1380.36 1040.4 1384.93 1077.86 1388.81" stroke="#191A35" stroke-width="7" stroke-miterlimit="10" stroke-linecap="round" stroke-linejoin="round"/>
<path d="M982.564 1351C1024.34 1355.15 1066.21 1358 1108.07 1359.46" stroke="#191A35" stroke-width="7" stroke-miterlimit="10" stroke-linecap="round" stroke-linejoin="round"/>
<path d="M981.441 1322.78C1019.85 1326.4 1058.35 1329.17 1096.85 1331.15" stroke="#191A35" stroke-width="7" stroke-miterlimit="10" stroke-linecap="round" stroke-linejoin="round"/>
<path d="M531.202 736.897C529.389 737.243 529.216 740.35 530.943 740.955C532.669 741.559 534.395 739.056 533.273 737.674" stroke="#191A35" stroke-width="7" stroke-miterlimit="10" stroke-linecap="round" stroke-linejoin="round"/>
<path d="M1041.35 559.243C1042.21 560.106 1043.07 561.056 1043.94 561.919" stroke="#191A35" stroke-width="7" stroke-miterlimit="10" stroke-linecap="round" stroke-linejoin="round"/>
<path d="M1737.34 951.844C1734.75 950.29 1731.12 954.088 1732.85 956.591C1736.47 956.591 1738.98 951.498 1736.65 948.736C1734.75 949.426 1736.73 952.879 1738.46 951.844C1740.19 950.808 1739.06 947.614 1736.99 947.614C1735.01 947.527 1733.45 949.858 1733.8 951.844" stroke="#191A35" stroke-width="7" stroke-miterlimit="10" stroke-linecap="round" stroke-linejoin="round"/>
<path d="M1145.62 266.778C1144.07 265.569 1141.39 267.641 1142.17 269.454C1142.94 271.267 1146.31 270.662 1146.48 268.677" stroke="#191A35" stroke-width="7" stroke-miterlimit="10" stroke-linecap="round" stroke-linejoin="round"/>
<path d="M963.746 857.492C963.746 855.766 960.725 855.766 960.034 857.406C959.344 859.046 960.293 860.773 961.156 862.326C963.314 861.722 965.645 859.737 964.955 857.579C964.264 855.42 959.862 856.802 961.243 858.614C963.919 860.168 965.904 854.039 962.797 853.78" stroke="#191A35" stroke-width="7" stroke-miterlimit="10" stroke-linecap="round" stroke-linejoin="round"/>
<path d="M1449.2 414.219C1466.73 392.034 1486.75 371.748 1508.68 353.965" stroke="#191A35" stroke-width="7" stroke-miterlimit="10" stroke-linecap="round" stroke-linejoin="round"/>
<path d="M807.077 1330.46C825.118 1294.46 846.352 1260.11 870.435 1227.82" stroke="#191A35" stroke-width="7" stroke-miterlimit="10" stroke-linecap="round" stroke-linejoin="round"/>
<path d="M926.456 502.873C927.06 470.675 901.251 440.03 869.399 435.195C837.548 430.361 803.797 452.029 794.906 483.019C811.566 486.299 827.189 468.516 825.463 451.683C823.737 434.85 808.717 421.556 792.317 417.413C775.916 413.269 758.48 416.636 742.424 421.988C710.486 432.692 681.224 451.511 658.177 476.113C654.12 480.515 650.667 488.544 655.846 491.392C657.227 492.169 658.954 492.256 660.594 492.169C680.188 490.961 693.309 467.826 688.475 448.835C683.641 429.843 665.428 416.463 646.265 412.233C627.102 408.003 607.162 411.37 588.086 416.032C535.259 428.894 483.295 452.633 447.127 493.205C436.682 504.859 427.36 521.519 434.611 535.331C441.171 547.762 457.399 550.697 471.383 552.078C602.415 565.199 769.269 549.661 900.906 552.596" stroke="#191A35" stroke-width="7" stroke-miterlimit="10" stroke-linecap="round" stroke-linejoin="round"/>
<path d="M1830.65 410.766C1871.3 383.66 1920.76 365.359 1968.84 374.251C1977.82 375.891 1988.09 379.948 1989.99 388.926C1992.32 399.889 1980.15 408.435 1969.19 410.938C1966.6 411.543 1963.58 411.888 1961.59 410.162C1956.76 406.104 1963.75 399.112 1969.62 397.04C1991.03 389.616 2013.9 384.869 2036.26 388.322C2058.62 391.775 2080.37 404.723 2090.21 425.096C2092.71 430.361 2093.83 437.785 2088.91 440.893C2087.1 442.015 2084.94 442.274 2082.78 442.447C2010.1 449.094 1936.91 449.439 1864.23 443.396" stroke="#191A35" stroke-width="7" stroke-miterlimit="10" stroke-linecap="round" stroke-linejoin="round"/>
<path d="M1634.01 1071.75C1682.09 1039.72 1739.67 1022.2 1797.41 1021.94C1811.48 1021.85 1826.16 1022.97 1838.33 1030.05C1850.5 1037.13 1859.31 1051.81 1855.51 1065.36C1851.71 1078.91 1832.29 1086.51 1822.36 1076.49C1848.86 1058.63 1881.4 1049.99 1913.25 1052.41C1920.51 1052.93 1928.1 1054.22 1933.97 1058.54C1939.84 1062.86 1943.38 1071.14 1940.27 1077.79C1937.17 1084.44 1926.2 1086.16 1922.58 1079.77C1928.53 1066.31 1944.33 1060.7 1958.57 1057.24C1981.27 1051.72 2004.49 1048.18 2027.8 1046.63C2054.56 1044.9 2082.79 1046.11 2105.92 1059.58C2129.14 1073.04 2145.19 1101.79 2136.56 1127.17" stroke="#191A35" stroke-width="7" stroke-miterlimit="10" stroke-linecap="round" stroke-linejoin="round"/>
<path d="M1606.56 1131.66C1779.11 1131.66 1951.67 1131.66 2124.22 1131.66" stroke="#191A35" stroke-width="7" stroke-miterlimit="10" stroke-linecap="round" stroke-linejoin="round"/>
</g>
<defs>
<clipPath id="clip0_2139_4636">
<rect width="1713" height="1222" fill="white" transform="translate(429 189)"/>
</clipPath>
</defs>
</svg>
