<svg xmlns="http://www.w3.org/2000/svg" width="380" height="280" viewBox="0 0 380 280" fill="none">
<g clip-path="url(#clip0_231_3702)">
<path d="M138.329 61.9345C144.204 67.7079 153.458 64.7157 145.414 56.7749C140.902 52.325 131.687 55.4131 138.329 61.9345Z" fill="#F0F0F5"/>
<path d="M173.637 61.7619C176.708 63.1046 179.588 54.7801 175.748 54.0896C171.544 53.3224 169.336 59.8822 173.637 61.7619Z" fill="#F0F0F5"/>
<path d="M161.138 79.1012C161.791 79.082 162.328 79.0245 162.616 78.9478C165.016 78.2573 165.957 75.4569 162.751 75.3226C161.311 75.2651 157.759 75.3418 157.068 77.0681C156.396 78.756 159.218 79.1396 161.138 79.1012Z" fill="#F0F0F5"/>
<path d="M143.379 124.406C154.841 128.089 171.371 122.392 176.862 111.191C181.777 101.159 174.693 105.11 169.394 107.7C163.211 110.73 156.434 112.744 149.523 112.898C142.572 113.051 135.603 111.286 129.882 107.239C127.405 105.475 123.988 99.4328 120.82 103C115.924 108.563 137.984 122.661 143.379 124.406Z" fill="#F0F0F5"/>
<path d="M56.6373 156.649C71.4014 159.564 85.5703 152.487 95.1507 141.496C98.7601 137.353 116.481 112.495 108.513 107.968C107.169 107.201 87.0487 116.427 74.1853 126.593C71.267 128.894 50.916 155.517 56.6373 156.649Z" fill="#F0F0F5"/>
<path d="M78.3131 171.782C72.707 175.523 80.1946 198.309 86.4919 194.128C92.6164 190.062 85.1672 167.217 78.3131 171.782Z" fill="#F0F0F5"/>
<path d="M80.6362 232.528C79.3306 222.132 67.0816 237.937 64.5857 240.181C59.0564 245.168 46.3466 256.312 49.9368 265.154C53.815 274.725 61.8019 265.269 64.7585 260.627C69.4815 253.262 81.8265 241.85 80.6362 232.528Z" fill="#F0F0F5"/>
<path d="M95.3619 193.131C95.7458 190.349 100.622 169.308 95.765 169.366C91.5028 169.423 91.2916 189.199 90.8693 192.21C88.3542 210.125 85.1863 227.963 81.3849 245.647C80.3482 250.462 74.4349 265.519 77.6411 268.607C81.5385 272.347 84.284 253.914 84.8984 251.133C89.1606 231.933 92.6356 212.58 95.3619 193.131Z" fill="#F0F0F5"/>
<path d="M117.633 261.567C111.931 259.956 92.6356 253.166 88.8342 259.879C84.8407 266.919 97.6465 273.996 102.293 276.432C108.091 279.463 116.404 281.803 122.548 278.082C132.051 272.366 125.658 263.811 117.633 261.567Z" fill="#F0F0F5"/>
<path d="M170.891 224.242C163.653 224.242 156.281 225.623 149.196 226.275C143.091 226.831 136.506 227.406 130.803 229.823C128.02 231.012 124.909 233.257 126.906 236.556C130.016 241.658 144.339 241.178 149.503 241.639C159.506 242.502 178.993 244.65 187.498 237.649C195.562 231.012 185.386 226.141 179.108 224.951C176.382 224.433 173.656 224.242 170.891 224.242Z" fill="#F0F0F5"/>
<path d="M232.424 244.324C211.363 232.988 219.254 208.744 220.041 189.448C220.271 183.751 220.118 165.088 212.918 162.729C205.526 160.293 211.056 180.279 211.152 183.732C211.497 194.934 209.539 206.058 208.099 217.106C206.985 225.719 203.683 238.627 208.541 246.645C212.438 253.07 226.741 259.457 234.21 260.052C247.687 261.145 238.741 247.719 232.424 244.324Z" fill="#F0F0F5"/>
<path d="M249.07 199.384C242.216 189.525 232.789 215.227 234.862 221.115C239.585 234.446 254.945 207.823 249.07 199.384Z" fill="#F0F0F5"/>
<path d="M311.121 181.162C301.618 173.087 292.844 164.129 285.03 154.405C282.111 150.78 276.448 138.887 272.589 136.989C268.365 134.917 268.595 137.449 269.67 140.959C272.608 150.549 284.607 161.444 291.327 168.656C295.493 173.106 299.794 177.786 304.574 181.565C305.534 182.313 307.953 185.439 309.509 185.075C310.948 184.729 312.964 182.735 311.121 181.162Z" fill="#F0F0F5"/>
<path d="M334.698 106.242C329.514 101.485 323.677 93.7553 315.979 98.4738C311.87 100.986 302.443 114.087 303.518 119.055C305.765 129.374 314.98 117.827 319.799 116.12C323.159 114.912 344.72 115.449 334.698 106.242Z" fill="#F0F0F5"/>
<path d="M364.36 88.1162C362.863 82.5538 351.612 77.5668 346.601 80.3096C338.883 84.5102 348.291 89.5931 349.923 94.2732C351.151 97.8216 346.966 110.404 354.089 109.56C358.466 109.042 365.416 92.0674 364.36 88.1162Z" fill="#F0F0F5"/>
<path d="M0.268826 205.042C-0.0959564 205.042 -0.0959564 205.617 0.268826 205.617C0.652808 205.617 0.652808 205.042 0.268826 205.042Z" fill="#F0F0F5"/>
<path d="M217.564 124.924C214.185 120.877 198.346 104.151 192.221 106.971C190.359 106.626 189.994 108.122 190.474 110.481C190.666 116.139 197.29 126.267 199.363 128.894C205.565 136.758 214.396 147.174 224.188 144.853C233.346 142.705 218.889 126.516 217.564 124.924Z" fill="#F0F0F5"/>
<path d="M309.509 45.0555C307.704 45.4583 307.377 42.6004 309.182 42.1976C313.732 41.181 318.321 40.337 322.909 39.589C338.922 36.9421 370.792 30.037 370.85 29.9603C367.989 29.6342 300.37 18.2217 293.976 17.3202C295.762 20.1014 304.766 32.2428 301.963 36.9229C299.794 42.7922 298.584 45.9762 297.029 50.6371C295.167 56.2187 308.76 50.733 312.753 51.7304C312.772 51.7304 312.772 51.7304 312.792 51.7304C316.036 56.8516 319.338 61.9153 323.274 66.5571C323.908 67.2859 325.041 67.1133 325.713 66.5571C338.941 55.6432 369.851 34.7938 372.674 33.0484C372.309 33.1059 325.77 41.4303 309.509 45.0555Z" fill="#FFD37D"/>
<path d="M135.622 35.868C149.062 31.6482 190.532 35.1007 179.492 12.0263C177.822 8.51627 167.378 -0.517848 164.786 2.58943C164.959 2.39762 165.4 6.38721 165.247 6.92427C163.711 11.8345 160.37 13.3306 155.359 14.2513C145.951 15.9967 135.334 13.2731 127.175 19.5835C122.778 22.9785 113.851 38.63 117.575 45.0555C119.399 48.2012 123.412 44.7678 125.543 46.1296C128.346 47.9326 126.714 50.1768 128.231 51.7112C130.093 53.6101 130.381 55.1829 131.917 51.2509C135.296 42.5812 131.859 37.0572 135.622 35.868Z" fill="#FFD37D"/>
<path fill-rule="evenodd" clip-rule="evenodd" d="M117.804 46.9685C120.687 44.8783 124.804 44.7278 127.82 46.6295C128.233 46.8899 128.356 47.4354 128.095 47.8479C127.835 48.2604 127.288 48.3837 126.876 48.1233C124.477 46.6108 121.145 46.7288 118.844 48.398C116.548 50.0631 115.431 53.2004 116.146 55.9382L116.147 55.9398C116.642 57.8497 117.937 59.5345 119.587 60.789C121.393 62.1462 123.594 62.9856 125.843 63.1639C126.33 63.2025 126.693 63.628 126.655 64.1143C126.616 64.6006 126.19 64.9635 125.703 64.9249C123.115 64.7197 120.594 63.7566 118.522 62.1991L118.518 62.1963C116.636 60.7658 115.053 58.7687 114.435 56.3833C113.537 52.9451 114.917 49.0627 117.804 46.9685Z" fill="#191A35"/>
<path fill-rule="evenodd" clip-rule="evenodd" d="M119.684 52.3341C119.923 51.9086 120.462 51.7571 120.888 51.9957C121.52 52.3497 122.157 52.7039 122.795 53.0588L122.796 53.0591C123.434 53.4138 124.073 53.7692 124.708 54.1248C125.134 54.3633 125.286 54.9017 125.047 55.3272C124.808 55.7527 124.269 55.9042 123.843 55.6656C123.211 55.3116 122.574 54.9574 121.935 54.6025L121.935 54.6021C121.297 54.2475 120.657 53.8921 120.023 53.5366C119.597 53.298 119.445 52.7596 119.684 52.3341Z" fill="#191A35"/>
<path fill-rule="evenodd" clip-rule="evenodd" d="M150.394 50.5759C150.831 50.3578 151.362 50.5347 151.581 50.971C152.297 52.402 152.319 54.1601 151.651 55.6097C151.492 55.9542 151.131 56.159 150.753 56.1187C150.376 56.0785 150.066 55.8022 149.984 55.432C149.695 54.1333 149.613 52.7941 149.736 51.4753C149.759 51.2325 149.878 51.0219 150.053 50.8777C150.135 50.753 150.251 50.6476 150.394 50.5759Z" fill="#191A35"/>
<path fill-rule="evenodd" clip-rule="evenodd" d="M155.399 42.8831C155.401 43.3709 155.008 43.7686 154.519 43.7713C151.232 43.7898 147.946 44.5465 144.995 45.9837C144.556 46.1975 144.027 46.0153 143.813 45.5768C143.599 45.1384 143.781 44.6096 144.22 44.3958C147.413 42.8408 150.961 42.0247 154.509 42.0048C154.998 42.002 155.396 42.3953 155.399 42.8831Z" fill="#191A35"/>
<path fill-rule="evenodd" clip-rule="evenodd" d="M163.422 41.9615C165.817 40.452 168.674 39.6794 171.512 39.761C172 39.775 172.384 40.1817 172.37 40.6693C172.356 41.1569 171.949 41.5408 171.461 41.5268C168.966 41.4551 166.452 42.1376 164.356 43.4619C164.348 43.467 164.34 43.4719 164.332 43.4767C164.052 43.6414 163.901 43.7768 163.823 43.9066C163.721 44.0886 163.694 44.3382 163.673 44.8356C163.634 46.3854 163.603 47.8344 163.886 49.2128L163.888 49.2233C164.163 50.65 164.753 52.0054 165.418 53.4432C165.484 53.5852 165.55 53.7283 165.617 53.8723C166.215 55.156 166.849 56.5181 167.25 57.9573L167.252 57.9647C167.381 58.4409 167.589 59.2629 167.282 60.0437C167.042 60.6912 166.513 61.1298 166.2 61.3892C166.188 61.3993 166.176 61.4092 166.164 61.4188C165.6 61.9059 165.031 62.3979 164.462 62.89L164.461 62.891C163.89 63.3845 163.319 63.8783 162.753 64.3673C162.384 64.6863 161.825 64.6458 161.506 64.2768C161.186 63.9078 161.227 63.35 161.596 63.0309C162.162 62.542 162.733 62.0483 163.305 61.5544L163.306 61.5534C163.877 61.0599 164.448 60.5661 165.014 60.0771C165.018 60.0736 165.022 60.0702 165.026 60.0668C165.41 59.7471 165.567 59.5863 165.625 59.4269C165.628 59.4181 165.632 59.4094 165.635 59.4007C165.705 59.2268 165.684 58.9437 165.546 58.4274C165.186 57.1378 164.615 55.9109 164.009 54.6081C163.944 54.4678 163.879 54.3267 163.813 54.1845C163.149 52.7515 162.473 51.2219 162.152 49.5625C161.825 47.967 161.866 46.3283 161.904 44.8248L161.905 44.784C161.905 44.7791 161.905 44.7742 161.906 44.7694C161.906 44.7494 161.907 44.7288 161.908 44.7075C161.925 44.2875 161.951 43.6176 162.29 43.0253C162.292 43.0221 162.294 43.0189 162.296 43.0157C162.599 42.5006 163.055 42.1784 163.422 41.9615Z" fill="#191A35"/>
<path fill-rule="evenodd" clip-rule="evenodd" d="M168.651 49.0841C169.117 48.939 169.613 49.199 169.758 49.6648C170.176 51.0057 170.175 52.4693 169.781 53.8025C169.665 54.1949 169.295 54.4565 168.885 54.4346C168.476 54.4127 168.136 54.1131 168.063 53.7105C167.856 52.5717 167.816 51.4031 167.897 50.2673C167.908 50.1164 167.956 49.9771 168.032 49.8578C168.06 49.5085 168.295 49.1946 168.651 49.0841Z" fill="#191A35"/>
<path fill-rule="evenodd" clip-rule="evenodd" d="M154.322 68.7708C154.466 68.3047 154.961 68.0435 155.428 68.1874C158.398 69.1031 161.624 69.2671 164.661 68.6274C165.139 68.5267 165.608 68.8321 165.709 69.3094C165.809 69.7867 165.504 70.2553 165.026 70.3559C161.688 71.0589 158.157 70.8777 154.906 69.8753C154.44 69.7314 154.178 69.2369 154.322 68.7708Z" fill="#191A35"/>
<path fill-rule="evenodd" clip-rule="evenodd" d="M175.751 30.4204C176.239 30.4005 176.651 30.7795 176.67 31.267C176.862 35.9737 177.059 40.6804 177.256 45.3877L177.256 45.3976C177.453 50.1047 177.65 54.8124 177.842 59.5202L177.842 59.5388C178.033 64.1933 178.233 69.0578 177.208 73.7649C176.18 78.4862 173.767 83.2127 169.62 86.0092C165.143 89.032 159.331 89.3199 154.255 88.0124C149.186 86.7068 144.646 83.9667 140.413 81.1606C140.006 80.8908 139.895 80.3427 140.165 79.9362C140.435 79.5298 140.984 79.419 141.391 79.6888C145.606 82.4834 149.936 85.0756 154.697 86.3018C159.451 87.5263 164.698 87.2003 168.63 84.5456L168.63 84.5453C172.277 82.0863 174.511 77.8364 175.48 73.3894C176.45 68.9345 176.267 64.2923 176.074 59.5923C175.883 54.8856 175.686 50.1787 175.489 45.4714L175.489 45.4612C175.292 40.7541 175.095 36.0465 174.903 31.3389C174.883 30.8514 175.263 30.4402 175.751 30.4204Z" fill="#191A35"/>
<path fill-rule="evenodd" clip-rule="evenodd" d="M171.974 82.6691C172.462 82.6945 172.836 83.1101 172.811 83.5972C172.468 90.1602 172.735 96.7602 173.629 103.264C173.696 103.747 173.358 104.193 172.874 104.259C172.39 104.326 171.944 103.988 171.877 103.504C170.967 96.8883 170.696 90.1769 171.045 83.5052C171.07 83.018 171.486 82.6437 171.974 82.6691Z" fill="#191A35"/>
<path fill-rule="evenodd" clip-rule="evenodd" d="M125.09 65.3329C125.576 65.2845 126.009 65.6387 126.058 66.1241C127.233 77.879 127.695 89.7107 127.444 101.523C127.434 102.011 127.03 102.398 126.542 102.387C126.053 102.377 125.666 101.973 125.676 101.486C125.925 89.7441 125.466 77.9835 124.298 66.2996C124.25 65.8142 124.604 65.3814 125.09 65.3329Z" fill="#191A35"/>
<path d="M141.901 81.6906C144.281 85.5843 147.161 89.3054 151.058 91.703C154.937 94.1005 159.986 94.9829 164.133 93.0648C165.496 92.4318 166.725 91.5303 167.934 90.6096C168.99 89.8232 170.046 88.9793 170.738 87.8668C171.429 86.7543 171.678 85.2582 171.026 84.1266C167.397 87.8093 161.829 89.1903 156.703 88.4806C151.577 87.7709 146.854 85.2582 142.745 82.0934" fill="#191A35"/>
<path fill-rule="evenodd" clip-rule="evenodd" d="M142.646 81.2157C142.388 80.8109 141.851 80.6856 141.44 80.9368C141.023 81.1911 140.891 81.7347 141.146 82.151C143.553 86.0878 146.521 89.9487 150.594 92.4546C154.649 94.9611 160.016 95.9424 164.505 93.8664L164.506 93.8658C165.964 93.1886 167.26 92.2336 168.467 91.315C169.519 90.531 170.701 89.601 171.489 88.3326C172.285 87.0508 172.662 85.1938 171.792 83.6856C171.654 83.4465 171.412 83.2855 171.138 83.2505C170.864 83.2154 170.589 83.3103 170.395 83.507C167.004 86.9488 161.738 88.2859 156.824 87.6057C151.903 86.9244 147.322 84.5036 143.285 81.394C143.096 81.2482 142.866 81.1909 142.646 81.2157ZM145.077 84.8257C146.9 87.2492 148.997 89.3975 151.522 90.9509L151.524 90.9519C155.225 93.2401 159.956 94.0232 163.761 92.2635C165.027 91.6754 166.188 90.8289 167.398 89.9071L167.406 89.9016C168.464 89.1134 169.393 88.3562 169.986 87.4011C170.304 86.8887 170.486 86.3197 170.516 85.7857C166.692 88.9183 161.419 90.0253 156.582 89.3555C152.43 88.7807 148.56 87.0738 145.077 84.8257Z" fill="#191A35"/>
<path fill-rule="evenodd" clip-rule="evenodd" d="M124.713 101.286C124.919 101.728 124.726 102.253 124.283 102.459C119.565 104.648 114.644 106.521 109.7 108.402C108.975 108.678 108.249 108.954 107.524 109.232C101.838 111.406 96.1423 113.659 90.6217 116.502C75.6205 124.242 64.0797 137.684 56.0537 152.654C48.0249 167.63 43.2269 184.113 38.9861 200.676L38.9858 200.677C32.5822 225.571 27.3243 250.745 22.0644 275.929L21.7734 277.323C21.6737 277.8 21.2052 278.106 20.7272 278.007C20.2491 277.907 19.9424 277.439 20.0421 276.962L20.3367 275.551C25.594 250.38 30.8589 225.172 37.2727 200.239C41.5178 183.658 46.3578 166.997 54.4946 151.82C62.6342 136.638 74.4008 122.883 89.8107 114.932L89.8112 114.932C95.4261 112.04 101.202 109.757 106.892 107.582C107.621 107.303 108.349 107.026 109.075 106.75C114.024 104.866 118.881 103.017 123.538 100.857C123.981 100.651 124.507 100.843 124.713 101.286Z" fill="#191A35"/>
<path fill-rule="evenodd" clip-rule="evenodd" d="M78.9171 173.525C79.3431 173.286 79.8821 173.437 80.121 173.863C83.1532 179.261 85.4853 185.047 87.0593 191.046C87.1831 191.518 86.9005 192.001 86.4281 192.124C85.9557 192.248 85.4723 191.966 85.3485 191.494C83.8123 185.639 81.5365 179.993 78.5786 174.727C78.3397 174.302 78.4912 173.763 78.9171 173.525Z" fill="#191A35"/>
<path fill-rule="evenodd" clip-rule="evenodd" d="M93.9464 171.642C94.4268 171.73 94.7452 172.19 94.6575 172.67C88.9355 203.976 83.0409 235.243 77.0119 266.491C76.9195 266.97 76.4558 267.284 75.9763 267.191C75.4967 267.099 75.1829 266.636 75.2753 266.157C81.3033 234.914 87.1969 203.652 92.9177 172.353C93.0054 171.873 93.4659 171.555 93.9464 171.642Z" fill="#191A35"/>
<path fill-rule="evenodd" clip-rule="evenodd" d="M76.3728 232.671C76.8131 232.883 76.9985 233.41 76.7871 233.85C74.1262 239.385 69.7795 243.884 65.5672 248.244C65.2081 248.616 64.85 248.987 64.4939 249.357C59.9154 254.118 55.6665 258.819 53.6544 264.766C53.4981 265.228 52.9963 265.476 52.5336 265.32C52.0709 265.163 51.8226 264.662 51.979 264.2C54.1331 257.833 58.6582 252.876 63.2184 248.133C63.5655 247.772 63.9128 247.412 64.2594 247.053C68.5121 242.648 72.6616 238.35 75.1929 233.085C75.4043 232.645 75.9326 232.46 76.3728 232.671Z" fill="#191A35"/>
<path fill-rule="evenodd" clip-rule="evenodd" d="M65.0902 253.24C65.5052 253.497 65.633 254.042 65.3756 254.456C63.5293 257.43 62.0221 260.611 60.8917 263.924C60.7342 264.386 60.2317 264.632 59.7695 264.475C59.3072 264.318 59.0602 263.816 59.2178 263.354C60.3913 259.915 61.956 256.613 63.8726 253.525C64.13 253.111 64.6751 252.983 65.0902 253.24Z" fill="#191A35"/>
<path fill-rule="evenodd" clip-rule="evenodd" d="M125.842 103.925C126.094 103.507 126.638 103.373 127.056 103.625C133.913 107.762 141.5 110.843 149.406 111.519C157.312 112.194 165.542 110.293 171.666 105.435C172.048 105.132 172.605 105.196 172.908 105.578C173.212 105.96 173.148 106.515 172.766 106.819C166.219 112.012 157.515 113.985 149.255 113.279C140.996 112.573 133.147 109.364 126.142 105.137C125.724 104.885 125.589 104.342 125.842 103.925Z" fill="#191A35"/>
<path fill-rule="evenodd" clip-rule="evenodd" d="M132.98 111.763C133.289 111.385 133.846 111.33 134.224 111.638C141.786 117.817 152.588 119.847 161.861 116.815C162.325 116.663 162.825 116.916 162.977 117.38C163.129 117.843 162.876 118.342 162.411 118.494C152.562 121.715 141.132 119.564 133.104 113.006C132.726 112.697 132.67 112.141 132.98 111.763Z" fill="#191A35"/>
<path fill-rule="evenodd" clip-rule="evenodd" d="M210.85 162.294C211.334 162.233 211.776 162.577 211.837 163.061C214.204 181.952 212.394 200.773 209.404 219.525C208.197 227.097 206.802 234.634 205.409 242.16C203.341 253.336 201.277 264.489 199.837 275.701C199.775 276.185 199.332 276.527 198.848 276.465C198.363 276.402 198.021 275.96 198.083 275.476C199.526 264.242 201.61 252.977 203.687 241.744C205.078 234.224 206.466 226.719 207.658 219.248C210.638 200.554 212.419 181.926 210.082 163.28C210.022 162.796 210.365 162.354 210.85 162.294Z" fill="#191A35"/>
<path fill-rule="evenodd" clip-rule="evenodd" d="M181.001 229.324C164.517 228.466 147.917 229.973 131.853 233.79C131.378 233.903 130.901 233.61 130.788 233.135C130.675 232.66 130.968 232.184 131.444 232.071C147.672 228.216 164.44 226.693 181.093 227.56C181.581 227.586 181.956 228.001 181.93 228.488C181.905 228.975 181.489 229.35 181.001 229.324Z" fill="#191A35"/>
<path fill-rule="evenodd" clip-rule="evenodd" d="M164.238 239.458C157.998 237.693 151.344 237.43 144.993 238.707C144.514 238.803 144.048 238.493 143.952 238.015C143.856 237.537 144.166 237.071 144.644 236.975C151.272 235.643 158.211 235.917 164.72 237.758C165.189 237.891 165.463 238.379 165.329 238.849C165.196 239.318 164.708 239.591 164.238 239.458Z" fill="#191A35"/>
<path fill-rule="evenodd" clip-rule="evenodd" d="M91.138 260.451C91.161 259.964 91.5752 259.588 92.063 259.611C102.99 260.127 114.554 260.756 124.468 265.96C124.664 266.058 124.932 266.208 125.164 266.424C125.403 266.646 125.666 267 125.696 267.493C125.738 268.065 125.458 268.492 125.191 268.759C124.932 269.018 124.618 269.197 124.398 269.312L124.393 269.315C119.111 272.038 113.222 273.196 107.441 274.086C109.746 275.113 112.142 275.918 114.608 276.493C115.084 276.604 115.38 277.079 115.269 277.554C115.158 278.029 114.682 278.324 114.206 278.213C110.676 277.39 107.282 276.116 104.084 274.411C103.747 274.232 103.564 273.856 103.63 273.48C103.695 273.105 103.995 272.813 104.372 272.758C111.076 271.777 117.742 270.755 123.58 267.746C123.664 267.702 123.739 267.659 123.804 267.616C123.806 267.615 123.808 267.613 123.81 267.612C123.768 267.587 123.721 267.562 123.669 267.536C123.664 267.533 123.658 267.531 123.653 267.528C114.14 262.532 102.975 261.895 91.9795 261.375C91.4917 261.352 91.1149 260.939 91.138 260.451Z" fill="#191A35"/>
<path fill-rule="evenodd" clip-rule="evenodd" d="M175.096 103.559C175.127 103.072 175.546 102.702 176.034 102.733C195.788 103.962 213.444 116.672 224.515 132.865L224.516 132.866C235.567 149.078 240.815 168.486 243.895 187.716C243.972 188.198 243.644 188.651 243.162 188.728C242.68 188.805 242.226 188.477 242.149 187.995C239.085 168.865 233.89 149.758 223.054 133.862C212.2 117.985 194.99 105.683 175.924 104.496C175.436 104.465 175.066 104.046 175.096 103.559Z" fill="#191A35"/>
<path fill-rule="evenodd" clip-rule="evenodd" d="M272.396 147.985C272.806 148.249 272.925 148.796 272.66 149.206C257.608 172.529 242.575 195.834 227.542 219.157C227.278 219.568 226.731 219.686 226.32 219.422C225.91 219.158 225.791 218.611 226.055 218.201C241.088 194.877 256.121 171.573 271.173 148.249C271.438 147.839 271.985 147.721 272.396 147.985Z" fill="#191A35"/>
<path fill-rule="evenodd" clip-rule="evenodd" d="M272.828 136.127C273.22 135.835 273.774 135.916 274.066 136.307C285.045 151.028 296.943 165.059 309.703 178.266C310.042 178.617 310.032 179.176 309.681 179.515C309.33 179.854 308.77 179.844 308.431 179.493C295.618 166.23 283.671 152.142 272.648 137.363C272.356 136.972 272.437 136.418 272.828 136.127Z" fill="#191A35"/>
<path fill-rule="evenodd" clip-rule="evenodd" d="M269.645 144.295C270.06 144.037 270.605 144.164 270.863 144.578C279.96 159.184 291.025 172.549 303.677 184.234C304.036 184.566 304.058 185.124 303.726 185.483C303.395 185.841 302.835 185.863 302.477 185.531C289.709 173.739 278.542 160.252 269.361 145.511C269.103 145.097 269.23 144.552 269.645 144.295Z" fill="#191A35"/>
<path fill-rule="evenodd" clip-rule="evenodd" d="M298.228 181.495C298.68 181.68 298.896 182.196 298.711 182.648C290.384 202.948 281.967 223.446 270.306 242.163C266.194 248.767 261.262 255.605 254.006 259.121L254.005 259.121C246.351 262.825 237.239 262.2 229.38 259.387C221.534 256.58 214.606 251.79 207.902 247.14C207.501 246.862 207.401 246.311 207.68 245.911C207.958 245.51 208.509 245.411 208.91 245.689C215.646 250.361 222.387 255.008 229.977 257.724C237.554 260.436 246.144 260.962 253.234 257.531C259.993 254.256 264.699 247.822 268.804 241.23L268.804 241.229C280.374 222.659 288.738 202.302 297.075 181.978C297.26 181.526 297.776 181.31 298.228 181.495Z" fill="#191A35"/>
<path fill-rule="evenodd" clip-rule="evenodd" d="M242.271 201.21C242.682 201.473 242.801 202.02 242.538 202.43C238.577 208.6 236.418 215.897 236.38 223.23C236.378 223.717 235.98 224.111 235.492 224.108C235.003 224.106 234.609 223.708 234.612 223.221C234.651 215.554 236.907 207.929 241.049 201.477C241.313 201.066 241.86 200.947 242.271 201.21Z" fill="#191A35"/>
<path fill-rule="evenodd" clip-rule="evenodd" d="M88.5173 120.288C88.7686 120.706 88.6328 121.249 88.2141 121.5C85.7061 123.003 83.4374 124.935 81.5404 127.165C81.2241 127.536 80.6661 127.582 80.294 127.266C79.9218 126.95 79.8765 126.392 80.1928 126.021C82.2124 123.647 84.6283 121.589 87.3041 119.985C87.7228 119.734 88.266 119.87 88.5173 120.288Z" fill="#191A35"/>
<path fill-rule="evenodd" clip-rule="evenodd" d="M289.136 129.388C289.478 129.736 289.473 130.295 289.124 130.637C286.034 133.668 283.076 136.851 280.272 140.167C279.957 140.54 279.399 140.587 279.026 140.272C278.653 139.957 278.606 139.4 278.921 139.027C281.761 135.669 284.755 132.445 287.885 129.376C288.234 129.035 288.794 129.04 289.136 129.388Z" fill="#191A35"/>
<path fill-rule="evenodd" clip-rule="evenodd" d="M320.385 82.5973C319.787 82.7555 319.127 83.1207 318.537 83.5286C316.042 85.2643 313.546 86.9951 311.051 88.7255L311.05 88.7267C308.554 90.4578 306.058 92.1885 303.563 93.924L303.559 93.9266C301.211 95.5415 298.924 97.136 296.907 99.039M320.385 82.5973C320.978 82.4407 321.351 82.5202 321.608 82.7505L320.385 82.5973ZM322.79 81.4364C321.914 80.6501 320.828 80.653 319.933 80.8895C319.044 81.1244 318.187 81.622 317.53 82.077L317.528 82.0783C315.032 83.8137 312.537 85.5445 310.041 87.2756L310.039 87.2772C307.544 89.0072 305.049 90.7376 302.554 92.4729C300.218 94.0799 297.822 95.7457 295.692 97.755L295.692 97.7552C287.032 105.932 284.206 119.639 288.901 130.585C289.094 131.033 289.614 131.241 290.063 131.049C290.511 130.857 290.719 130.338 290.527 129.889C286.122 119.622 288.787 106.706 296.907 99.0392M322.044 84.165C322.044 83.4956 321.88 82.9942 321.609 82.7511L321.608 82.7505M322.79 81.4364C323.632 82.1907 323.813 83.3384 323.813 84.165C323.813 86.1979 322.897 88.044 322.031 89.6L322.029 89.604C318.937 95.098 314.711 99.9653 309.701 103.798C309.313 104.094 308.758 104.021 308.461 103.633C308.164 103.246 308.238 102.692 308.625 102.395C313.444 98.709 317.512 94.0251 320.486 88.7403C321.349 87.1898 322.044 85.699 322.044 84.165" fill="#191A35"/>
<path fill-rule="evenodd" clip-rule="evenodd" d="M309.717 101.911C310.203 101.963 310.555 102.398 310.503 102.883C310.261 105.164 309.574 107.382 308.504 109.398C308.276 109.829 307.741 109.994 307.309 109.765C306.878 109.537 306.713 109.002 306.942 108.571C307.907 106.751 308.526 104.75 308.744 102.696C308.796 102.211 309.231 101.86 309.717 101.911Z" fill="#191A35"/>
<path fill-rule="evenodd" clip-rule="evenodd" d="M353.56 81.7978C353.131 81.0799 352.147 80.6639 351.076 80.7125C349.997 80.7615 348.927 81.1897 347.77 81.7097L347.765 81.7122C337.465 86.2558 327.566 91.735 318.24 98.0354C317.836 98.3087 317.286 98.2027 317.012 97.7986C316.739 97.3945 316.845 96.8454 317.25 96.5721C326.661 90.2138 336.652 84.6837 347.048 80.0975C348.194 79.5821 349.543 79.0138 350.996 78.9478C352.458 78.8814 354.198 79.4233 355.076 80.8886C355.708 81.9229 355.708 83.0762 355.435 84.0999C355.163 85.1194 354.605 86.0838 353.998 86.858L353.997 86.8594C352.048 89.3332 349.366 91.0761 346.872 92.6928L346.871 92.6933M352.606 85.7682C353.112 85.1231 353.533 84.3709 353.726 83.6451C353.918 82.9248 353.871 82.3057 353.565 81.8067L353.56 81.7978M352.606 85.7682C350.868 87.9737 348.444 89.5678 345.909 91.2114L329.608 101.8C329.198 102.066 329.082 102.613 329.349 103.022C329.615 103.431 330.163 103.547 330.572 103.281L346.871 92.6933" fill="#191A35"/>
<path fill-rule="evenodd" clip-rule="evenodd" d="M363.084 86.2417C362.746 85.3077 361.829 84.7276 361.08 84.8618C360.599 84.9478 360.139 84.6282 360.053 84.1481C359.967 83.6679 360.287 83.2089 360.768 83.1229C362.589 82.797 364.205 84.1323 364.751 85.6501C364.752 85.6523 364.753 85.6545 364.753 85.6567C364.754 85.6584 364.754 85.66 364.755 85.6617C365.284 87.1982 364.905 88.8449 364.191 90.1201C363.502 91.3508 362.533 92.3599 361.654 93.2756L361.619 93.3117C361.615 93.3162 361.611 93.3205 361.607 93.3249C361.51 93.4218 361.448 93.4947 361.411 93.5514C361.428 93.5726 361.448 93.5979 361.474 93.6291C361.495 93.6537 361.516 93.6787 361.541 93.7082L361.542 93.7088C361.566 93.7372 361.594 93.77 361.622 93.8037C361.627 93.8097 361.632 93.8157 361.637 93.8218C362.756 95.2373 362.725 97.2076 362.129 98.6867C361.534 100.181 360.431 101.347 359.399 102.319C359.044 102.654 358.485 102.638 358.149 102.283C357.814 101.928 357.831 101.369 358.186 101.034C359.189 100.089 360.044 99.1455 360.486 98.0328L360.487 98.0286C360.926 96.9421 360.858 95.6968 360.256 94.9257C360.246 94.9134 360.233 94.8987 360.219 94.8819C360.144 94.7946 360.021 94.6513 359.928 94.5164C359.8 94.3302 359.643 94.0466 359.619 93.6798C359.619 93.6757 359.618 93.6716 359.618 93.6675C359.577 92.8845 360.103 92.3294 360.349 92.0825C361.263 91.1307 362.08 90.272 362.648 89.2579C363.2 88.2719 363.398 87.1592 363.084 86.2417ZM361.367 93.4847C361.367 93.4847 361.367 93.4851 361.367 93.4858C361.367 93.4851 361.367 93.4847 361.367 93.4847ZM361.382 93.6055C361.382 93.6063 361.382 93.6067 361.382 93.6067C361.382 93.6067 361.382 93.6063 361.382 93.6055Z" fill="#191A35"/>
<path fill-rule="evenodd" clip-rule="evenodd" d="M358.12 93.3572C358.425 93.7382 358.363 94.294 357.982 94.5986C350.879 100.271 343.546 105.674 336.041 110.789C335.637 111.063 335.087 110.96 334.812 110.557C334.537 110.154 334.641 109.604 335.044 109.329C342.514 104.239 349.811 98.8629 356.877 93.2189C357.259 92.9143 357.815 92.9762 358.12 93.3572Z" fill="#191A35"/>
<path fill-rule="evenodd" clip-rule="evenodd" d="M354.137 105.174C354.388 105.593 354.252 106.135 353.833 106.386C349.007 109.275 344.26 112.277 339.59 115.432C339.185 115.706 338.635 115.6 338.362 115.195C338.088 114.791 338.194 114.242 338.599 113.969C343.298 110.794 348.073 107.774 352.924 104.871C353.343 104.62 353.886 104.756 354.137 105.174Z" fill="#191A35"/>
<path fill-rule="evenodd" clip-rule="evenodd" d="M356.654 105.224C357.132 105.124 357.601 105.431 357.7 105.909C358.196 108.291 356.773 110.501 355.396 112.014C353.633 113.956 351.545 115.496 349.42 116.902C348.617 117.433 347.82 117.939 347.032 118.439C345.696 119.287 344.383 120.12 343.105 121.038L343.102 121.039C340.506 122.891 338.133 125.038 335.793 127.287C334.996 128.053 334.198 128.837 333.395 129.623C331.863 131.127 330.316 132.645 328.728 134.093C323.869 138.521 318.125 142.575 311.437 143.672C310.955 143.751 310.501 143.425 310.421 142.943C310.342 142.462 310.669 142.008 311.151 141.929C317.326 140.916 322.756 137.144 327.536 132.788C329.102 131.36 330.605 129.885 332.122 128.397C332.929 127.604 333.741 126.808 334.567 126.014C336.926 123.746 339.372 121.529 342.074 119.602C343.385 118.662 344.782 117.774 346.153 116.904C346.931 116.409 347.702 115.92 348.443 115.429C350.528 114.05 352.471 112.606 354.087 110.827L354.087 110.827C355.398 109.386 356.279 107.76 355.969 106.268C355.869 105.791 356.176 105.323 356.654 105.224Z" fill="#191A35"/>
<path fill-rule="evenodd" clip-rule="evenodd" d="M317.317 144.246C317.758 144.455 317.947 144.981 317.738 145.422C313.62 154.112 309.194 162.629 304.421 170.974C304.178 171.397 303.638 171.545 303.214 171.303C302.79 171.061 302.643 170.521 302.885 170.097C307.635 161.794 312.04 153.317 316.139 144.667C316.348 144.226 316.875 144.037 317.317 144.246Z" fill="#191A35"/>
<path fill-rule="evenodd" clip-rule="evenodd" d="M324.462 116.169C324.509 116.654 324.153 117.086 323.667 117.133C317.933 117.691 312.383 120.036 308.01 123.773C307.639 124.09 307.081 124.047 306.763 123.676C306.446 123.305 306.489 122.748 306.86 122.431C311.511 118.456 317.403 115.968 323.496 115.375C323.982 115.328 324.414 115.683 324.462 116.169Z" fill="#191A35"/>
<path fill-rule="evenodd" clip-rule="evenodd" d="M326.44 99.7583C326.791 99.4184 327.35 99.4264 327.691 99.7763C332.371 104.588 336.43 110.02 339.731 115.879C339.97 116.304 339.819 116.842 339.394 117.082C338.968 117.321 338.429 117.17 338.189 116.745C334.963 111.018 330.996 105.709 326.422 101.007C326.082 100.657 326.09 100.098 326.44 99.7583Z" fill="#191A35"/>
<path fill-rule="evenodd" clip-rule="evenodd" d="M74.7949 99.9285C74.7857 99.9207 74.7762 99.913 74.7665 99.9055C74.381 99.6061 73.8255 99.6755 73.5257 100.061C73.1278 100.572 73.1986 101.188 73.3873 101.59C73.5748 101.988 73.9961 102.427 74.6269 102.462C75.2518 102.509 75.7255 102.139 75.9649 101.76C76.2056 101.379 76.3338 100.796 76.0353 100.254C75.8 99.8265 75.2623 99.6705 74.8344 99.9056C74.8209 99.9129 74.8078 99.9206 74.7949 99.9285Z" fill="#191A35"/>
<path fill-rule="evenodd" clip-rule="evenodd" d="M187.498 94.0101C187.274 93.9551 187.029 93.9871 186.818 94.1188C186.215 94.4954 186.183 95.1703 186.286 95.5582C186.388 95.9471 186.761 96.5375 187.498 96.5375C188.236 96.5375 188.608 95.9471 188.711 95.5583C188.813 95.1703 188.781 94.4954 188.178 94.1188C187.967 93.9871 187.722 93.9551 187.498 94.0101Z" fill="#191A35"/>
<path fill-rule="evenodd" clip-rule="evenodd" d="M254.196 119.29C254.607 118.971 255.32 118.738 255.984 119.146C256.333 119.361 256.48 119.777 256.368 120.151C256.663 120.406 256.763 120.835 256.586 121.202C256.256 121.889 255.545 122.09 255.029 122.055C254.511 122.02 253.83 121.721 253.601 120.985C253.598 120.976 253.596 120.967 253.593 120.958C253.391 120.228 253.787 119.607 254.196 119.29Z" fill="#191A35"/>
<path fill-rule="evenodd" clip-rule="evenodd" d="M218.609 266.033C219.045 265.815 219.577 265.992 219.795 266.428C219.928 266.694 220.103 267.079 220.172 267.492C220.242 267.915 220.217 268.506 219.76 268.986C219.408 269.354 218.946 269.416 218.581 269.329C218.255 269.252 217.995 269.063 217.82 268.877C217.663 268.708 217.446 268.402 217.436 268.003C217.43 267.775 217.495 267.508 217.692 267.28C217.824 267.126 217.982 267.031 218.132 266.974C218.067 266.599 218.251 266.211 218.609 266.033Z" fill="#191A35"/>
<path fill-rule="evenodd" clip-rule="evenodd" d="M328.492 165.621C328.276 165.249 327.812 165.082 327.4 165.246C327.205 165.324 326.968 165.473 326.816 165.744C326.657 166.026 326.66 166.318 326.718 166.54C326.819 166.925 327.097 167.181 327.283 167.314C327.471 167.447 327.802 167.623 328.195 167.595C328.42 167.579 328.695 167.491 328.913 167.255C329.124 167.027 329.193 166.756 329.206 166.544C329.234 166.095 328.922 165.704 328.492 165.621Z" fill="#191A35"/>
<path fill-rule="evenodd" clip-rule="evenodd" d="M209.774 156.392C210.245 156.522 210.521 157.008 210.391 157.478C210.315 157.753 210.384 158.06 210.571 158.275C210.891 158.643 210.852 159.201 210.484 159.521C210.115 159.841 209.557 159.802 209.236 159.434C208.655 158.767 208.455 157.846 208.686 157.009C208.816 156.538 209.303 156.262 209.774 156.392Z" fill="#191A35"/>
<path fill-rule="evenodd" clip-rule="evenodd" d="M167.422 115.534C167.693 115.94 167.583 116.488 167.177 116.759L165.968 117.565C165.561 117.835 165.012 117.726 164.741 117.32C164.47 116.914 164.58 116.365 164.986 116.095L166.196 115.289C166.602 115.019 167.151 115.128 167.422 115.534Z" fill="#191A35"/>
<path fill-rule="evenodd" clip-rule="evenodd" d="M183.811 228.423C183.811 227.935 184.207 227.54 184.695 227.54H185.502C185.99 227.54 186.386 227.935 186.386 228.423C186.386 228.911 185.99 229.306 185.502 229.306H184.695C184.207 229.306 183.811 228.911 183.811 228.423Z" fill="#191A35"/>
<path fill-rule="evenodd" clip-rule="evenodd" d="M77.4108 169.825C77.8991 169.825 78.295 170.221 78.295 170.708V171.149C78.295 171.637 77.8991 172.033 77.4108 172.033C76.9224 172.033 76.5265 171.637 76.5265 171.149V170.708C76.5265 170.221 76.9224 169.825 77.4108 169.825Z" fill="#191A35"/>
<path fill-rule="evenodd" clip-rule="evenodd" d="M35.5144 239.389C35.9731 239.557 36.2093 240.064 36.0418 240.522C35.8218 241.124 35.6065 241.722 35.3904 242.321L35.3901 242.322C35.1743 242.921 34.9578 243.522 34.7363 244.128C34.5688 244.586 34.0612 244.822 33.6024 244.655C33.1437 244.488 32.9075 243.981 33.075 243.522C33.295 242.92 33.5103 242.323 33.7264 241.723L33.7267 241.722C33.9425 241.123 34.159 240.522 34.3805 239.916C34.548 239.458 35.0556 239.222 35.5144 239.389Z" fill="#191A35"/>
<path fill-rule="evenodd" clip-rule="evenodd" d="M132.14 35.6584C132.627 35.6224 133.051 35.9875 133.087 36.474C133.359 40.1419 133.359 43.8323 133.048 47.5063C132.855 49.9079 132.464 52.6751 130.836 54.8158C130.831 54.8217 130.827 54.8274 130.822 54.8332C130.722 54.9581 130.559 55.1421 130.339 55.2815C130.119 55.4207 129.737 55.576 129.294 55.4324C128.928 55.3243 128.724 55.0628 128.628 54.9122C128.531 54.758 128.47 54.5954 128.442 54.5219L128.439 54.5148C128.437 54.508 128.434 54.5012 128.432 54.4944C127.921 53.0231 127.652 51.4827 127.673 49.9158C127.679 49.428 128.08 49.0378 128.569 49.0442C129.057 49.0506 129.448 49.4512 129.441 49.939C129.427 51.0096 129.57 52.0728 129.854 53.1115C130.804 51.4996 131.116 49.4693 131.285 47.3635L131.285 47.3594C131.588 43.7838 131.589 40.1863 131.323 36.6045C131.287 36.118 131.653 35.6944 132.14 35.6584Z" fill="#191A35"/>
<path fill-rule="evenodd" clip-rule="evenodd" d="M164.817 7.2133C165.113 7.60116 165.038 8.15543 164.65 8.45128C161.994 10.4754 158.855 11.2315 155.663 11.4803C153.319 11.6631 150.868 11.5743 148.521 11.4893C147.7 11.4596 146.892 11.4303 146.105 11.4133C141.705 11.3185 137.29 11.7012 133.3 13.2881L133.299 13.2884C127.399 15.6277 122.66 20.603 120.033 26.4475C117.407 32.2895 116.8 38.962 117.74 45.3685C117.811 45.8512 117.476 46.2998 116.993 46.3706C116.51 46.4413 116.061 46.1074 115.99 45.6247C115.01 38.95 115.631 31.9275 118.42 25.724C121.207 19.5231 126.259 14.1794 132.646 11.6467C136.951 9.93462 141.636 9.55006 146.143 9.64712L146.143 9.64712C146.988 9.6654 147.832 9.69594 148.674 9.7264C150.991 9.81019 153.291 9.89337 155.525 9.71912C158.545 9.48367 161.3 8.78204 163.578 7.04669C163.966 6.75084 164.521 6.82543 164.817 7.2133Z" fill="#191A35"/>
<path fill-rule="evenodd" clip-rule="evenodd" d="M164.285 0.367434C164.506 -0.0675667 165.038 -0.241223 165.474 -0.0204397C169.311 1.92507 173.358 3.97752 176.545 7.14168C179.736 10.3099 182.072 14.8692 181.404 19.5164C180.799 23.8064 177.739 27.386 174.123 29.4944C170.509 31.6199 166.371 32.4817 162.362 32.9849C159.615 33.3322 156.801 33.5371 154.016 33.7397C152.261 33.8675 150.518 33.9943 148.811 34.1555C144.343 34.5773 139.997 35.2399 135.87 36.7545C135.411 36.9228 134.903 36.6879 134.735 36.23C134.566 35.7722 134.801 35.2646 135.26 35.0963C139.6 33.5037 144.123 32.8236 148.645 32.3967C150.438 32.2275 152.212 32.0988 153.975 31.971C156.711 31.7726 159.422 31.576 162.14 31.2322L162.141 31.2321C166.08 30.7379 169.928 29.9119 173.226 27.9716L173.229 27.9697C176.523 26.0503 179.145 22.8795 179.653 19.2686L179.654 19.2662C180.215 15.3591 178.25 11.3257 175.298 8.39463C172.341 5.45933 168.554 3.5222 164.674 1.55484C164.238 1.33405 164.064 0.802434 164.285 0.367434Z" fill="#191A35"/>
<path fill-rule="evenodd" clip-rule="evenodd" d="M164.041 0.228119C164.413 -0.0875831 164.971 -0.0420333 165.287 0.329858C166.338 1.56636 166.73 3.2994 166.334 4.85892C166.214 5.33177 165.733 5.61784 165.26 5.49788C164.786 5.37793 164.5 4.89737 164.62 4.42453C164.877 3.41384 164.616 2.26977 163.939 1.47312C163.623 1.10123 163.668 0.543822 164.041 0.228119Z" fill="#191A35"/>
<path fill-rule="evenodd" clip-rule="evenodd" d="M158.974 13.3057C159.455 13.3936 159.773 13.8539 159.685 14.3337C159.171 17.1362 157.286 19.4119 155.283 21.135C151.974 23.9829 148.067 25.7691 144.006 27.1181C141.27 28.0269 138.411 28.7527 135.606 29.4645C134.275 29.8023 132.956 30.137 131.669 30.4866C131.198 30.6146 130.712 30.3367 130.584 29.866C130.456 29.3953 130.734 28.9099 131.205 28.7819C132.554 28.4155 133.905 28.0727 135.252 27.731C138.021 27.0286 140.772 26.3307 143.448 25.4419C147.398 24.1296 151.064 22.4344 154.129 19.7967L154.129 19.7967C156.005 18.1823 157.537 16.2383 157.945 14.0154C158.033 13.5356 158.494 13.2179 158.974 13.3057Z" fill="#191A35"/>
<path fill-rule="evenodd" clip-rule="evenodd" d="M165.412 11.7331C165.893 11.6445 166.354 11.9616 166.443 12.4414C166.747 14.0874 165.827 15.5765 165.106 16.6009L165.105 16.6018C161.642 21.5044 156.678 25.318 151.038 27.3941C150.58 27.5627 150.071 27.3284 149.902 26.8707C149.733 26.4129 149.968 25.9051 150.426 25.7365C155.729 23.7846 160.403 20.1945 163.66 15.5837C164.397 14.5367 164.86 13.6093 164.703 12.762C164.615 12.2823 164.932 11.8216 165.412 11.7331Z" fill="#191A35"/>
<path fill-rule="evenodd" clip-rule="evenodd" d="M170.59 14.5425C171.033 14.7469 171.227 15.2717 171.022 15.7146C169.801 18.3574 167.831 20.6495 165.414 22.2729C165.008 22.5451 164.459 22.4376 164.186 22.0328C163.914 21.628 164.022 21.0791 164.427 20.8069C166.579 19.3614 168.333 17.3187 169.416 14.9745C169.621 14.5315 170.146 14.3381 170.59 14.5425Z" fill="#191A35"/>
<path fill-rule="evenodd" clip-rule="evenodd" d="M126.775 35.648C127.226 35.4593 127.744 35.6711 127.933 36.121C128.753 38.0751 128.944 40.2823 128.437 42.3501C128.321 42.8239 127.842 43.114 127.368 42.998C126.893 42.882 126.603 42.4038 126.719 41.93C127.134 40.2384 126.979 38.4176 126.302 36.8041C126.113 36.3542 126.325 35.8366 126.775 35.648Z" fill="#191A35"/>
<path fill-rule="evenodd" clip-rule="evenodd" d="M278.357 58.2265C279.692 58.8619 280.866 59.9343 281.175 61.5779C281.539 63.4917 280.491 65.2648 279.583 66.5183L279.582 66.52C279.39 66.7848 279.192 67.0449 278.991 67.3005C283.499 66.1079 287.766 63.4019 291.438 60.213C291.807 59.8929 292.365 59.9319 292.686 60.3C293.006 60.6682 292.967 61.2261 292.598 61.5461C288.226 65.3429 282.838 68.652 277.035 69.5058C271.711 74.8684 264.239 77.869 256.946 79.5213C248.592 81.4233 239.929 81.8889 231.44 80.9186C230.955 80.8632 230.607 80.4253 230.662 79.9407C230.718 79.456 231.156 79.1081 231.642 79.1635C239.933 80.1113 248.395 79.6563 256.553 77.7989L256.554 77.7987C262.985 76.3417 269.363 73.853 274.206 69.719C273.63 69.7203 273.052 69.6954 272.47 69.6425C270.973 69.5083 269.353 69.0594 268.021 68.2456C266.684 67.4286 265.57 66.1958 265.285 64.4974L265.284 64.4936C264.905 62.1716 266.318 59.961 268.119 58.8117C269.92 57.6631 272.076 57.3692 274.039 57.3494L274.041 57.3494C275.443 57.3391 277.028 57.5938 278.357 58.2265ZM276.194 67.8339C276.893 67.0952 277.547 66.3122 278.151 65.4824C279.048 64.2427 279.65 63.0239 279.438 61.9074L279.438 61.9058C279.267 60.9993 278.618 60.3076 277.596 59.8212C276.568 59.3319 275.264 59.1071 274.056 59.1159C272.217 59.1345 270.458 59.4161 269.071 60.3005C267.686 61.1839 266.796 62.7699 267.029 64.2069C267.205 65.2506 267.896 66.0983 268.944 66.7386C269.997 67.3824 271.343 67.7678 272.629 67.8831L272.631 67.8832C273.825 67.992 275.015 67.9697 276.194 67.8339ZM256.946 79.5213C256.945 79.5214 256.945 79.5214 256.945 79.5215L256.749 78.6601L256.946 79.5213C256.946 79.5213 256.946 79.5213 256.946 79.5213Z" fill="#191A35"/>
<path fill-rule="evenodd" clip-rule="evenodd" d="M251.048 82.3541C251.222 82.81 250.993 83.3204 250.537 83.4942C241.614 86.8928 232.011 88.4856 222.483 88.1165C221.995 88.0976 221.615 87.6871 221.634 87.1996C221.653 86.7122 222.064 86.3323 222.552 86.3512C231.839 86.711 241.205 85.1582 249.907 81.8435C250.363 81.6697 250.874 81.8983 251.048 82.3541Z" fill="#191A35"/>
<path fill-rule="evenodd" clip-rule="evenodd" d="M379.401 28.3885C379.564 28.7716 379.436 29.2158 379.096 29.4551L323.418 68.5838C323.216 68.7257 322.964 68.7768 322.723 68.7248C322.482 68.6727 322.273 68.5223 322.148 68.3099L312.374 51.745L296.558 54.3474C296.18 54.4097 295.804 54.2206 295.628 53.8793C295.453 53.538 295.518 53.1226 295.789 52.8513L307.117 41.5347C307.242 41.4093 307.403 41.3245 307.577 41.2914L378.422 27.8649C378.831 27.7874 379.239 28.0055 379.401 28.3885ZM311.41 50.1131L307.56 43.5902L298.985 52.1578L311.41 50.1131ZM309.143 42.7928L313.553 50.2652L313.553 50.2653L323.185 66.588L374.731 30.3625L309.143 42.7928Z" fill="#191A35"/>
<path fill-rule="evenodd" clip-rule="evenodd" d="M290.506 12.3074C290.704 12.0238 291.049 11.8817 291.39 11.9438L378.746 27.8638C379.186 27.9441 379.497 28.341 379.469 28.7876C379.442 29.2343 379.084 29.5896 378.636 29.6146L303.787 33.8006L297.255 53.7504C297.103 54.214 296.604 54.467 296.14 54.3153C295.676 54.1637 295.423 53.6649 295.574 53.2012L302.17 33.0575L290.47 13.2617C290.294 12.964 290.308 12.591 290.506 12.3074ZM303.622 32.0405L292.977 14.0287L371.103 28.2666L303.622 32.0405Z" fill="#191A35"/>
</g>
<defs>
<clipPath id="clip0_231_3702">
<rect width="379.355" height="280" fill="white"/>
</clipPath>
</defs>
</svg>
