<svg width="380" height="280" viewBox="0 0 380 280" fill="none" xmlns="http://www.w3.org/2000/svg">
<g clip-path="url(#clip0_1_1957)">
<g clip-path="url(#clip1_1_1957)">
<path d="M209.573 60.3906C207.004 60.8517 204.114 62.9165 203.312 65.4625C202.489 68.0486 203.914 70.4343 206.744 70.2739C209.493 70.1135 212.363 67.8482 213.347 65.3022C214.41 62.5958 212.664 59.8493 209.573 60.3906Z" fill="#F0F0F5"/>
<path d="M181.616 66.9663C183.904 62.7364 177.1 53.9156 174.932 59.7894C174.069 62.1349 174.411 64.8413 176.036 66.9262C177.481 68.8107 180.291 69.4121 181.616 66.9663ZM177.321 64.8413C177.301 64.8213 177.301 64.8012 177.321 64.7812C177.321 64.8213 177.321 64.8413 177.321 64.8413Z" fill="#F0F0F5"/>
<path d="M192.434 82.2624C190.989 82.2624 189.584 81.4003 188.6 83.1244C187.235 85.5301 190.005 86.8933 191.952 87.0537C193.879 87.2141 197.291 86.4924 196.508 83.7659C195.866 81.5808 194.019 82.3025 192.434 82.2624Z" fill="#F0F0F5"/>
<path d="M86.3425 191.64C80.3014 190.518 71.5709 190.558 66.2322 194.066C61.5759 197.113 66.0315 203.809 68.3396 206.996C72.3938 212.59 77.4916 216.559 84.4961 217.541C91.3801 218.524 103.824 215.717 104.847 207.217C105.931 198.256 93.327 192.923 86.3425 191.64Z" fill="#F0F0F5"/>
<path d="M266.774 216.258C265.83 208.7 265.429 201.082 264.867 193.484C264.646 190.477 264.385 187.41 263.482 184.523C262.98 182.899 261.033 177.727 258.786 177.907C256.839 178.068 257.441 183.06 257.421 184.262C257.32 188.773 257.2 193.284 257.08 197.794C256.799 209.502 256.859 221.21 256.538 232.917C256.317 240.776 255.474 248.734 256.317 256.573C256.658 259.7 257.1 263.529 258.665 266.336C260.672 269.964 263.863 266.837 265.77 264.752C271.149 258.898 272.172 250.719 271.37 243.101C270.406 234.08 267.877 225.279 266.774 216.258Z" fill="#F0F0F5"/>
<path d="M281.365 134.526C275.364 124.883 267.075 116.262 256.538 111.331C254.31 110.288 251.962 109.426 249.573 108.765C245.599 108.003 241.545 107.702 237.531 107.722C236.106 107.722 234.36 107.622 232.614 107.602C230.105 107.602 227.536 107.823 225.73 109.045C225.489 109.206 225.288 109.386 225.128 109.567C222.88 112.173 228.52 116.704 230.206 118.287C237.009 124.662 245.419 128.612 253.989 132.06C259.508 134.265 265.128 136.29 270.868 137.893C273.878 138.735 276.969 139.938 280.14 139.878C282.268 139.838 283.111 138.916 283.251 137.673C282.629 136.61 282.007 135.568 281.365 134.526Z" fill="#F0F0F5"/>
<path d="M118.354 121.294C133.969 129.694 152.514 128.431 167.587 119.47C169.694 118.227 175.253 115.581 172.102 112.654C170.758 111.411 168.028 110.689 166.322 110.048C164.275 109.286 162.188 108.645 160.08 108.143C151.31 106.058 142.88 106.78 134.511 110.088C129.995 111.872 126.001 113.576 121.566 116.603C120.522 117.325 119.137 117.726 118.094 118.688C116.93 119.751 116.909 120.513 118.354 121.294Z" fill="#F0F0F5"/>
<path d="M52.5443 83.7455C47.9081 83.4247 43.3722 85.1087 39.2779 87.1134C36.3476 88.5367 30.8886 90.5415 30.9086 94.4908C30.9287 99.1818 35.1033 103.953 37.2508 107.902C38.8163 110.789 40.6226 113.736 43.4525 115.52C46.3827 117.385 49.9151 117.244 52.5242 114.899C55.3943 112.333 56.0766 108.604 55.9763 104.955C55.8759 101.327 55.8759 98.1594 57.1805 94.6913C58.766 90.4212 58.3646 84.1464 52.5443 83.7455Z" fill="#F0F0F5"/>
<path d="M55.9964 61.473C56.759 58.2053 56.1971 55.1581 54.9728 52.1109C53.9492 49.5649 50.9587 49.1038 50.2161 52.1911C49.5338 55.0178 50.0556 59.0272 51.4003 61.5933C52.3235 63.3775 55.3942 64.039 55.9964 61.473Z" fill="#F0F0F5"/>
<path d="M33.0562 65.4225C32.434 63.3376 32.434 61.3328 32.0727 59.2279C32.8756 61.6336 35.4847 64.8812 38.0336 62.235C39.9001 60.3104 39.5188 56.2809 39.0371 53.9555C38.3748 50.8682 37.01 47.8009 33.297 49.0038C30.2062 50.0262 31.2298 56.321 31.8921 58.6265C31.29 57.3434 29.4837 56.9024 28.3196 57.6642C26.433 58.8871 27.4767 62.4755 27.8179 64.2197C28.1591 65.9437 28.44 68.3895 30.6879 68.4095C32.2534 68.3895 33.5178 66.9862 33.0562 65.4225Z" fill="#F0F0F5"/>
<path d="M21.4556 73.5417C20.5324 71.9579 18.2042 72.0983 17.3011 73.6218C16.1169 75.6266 18.8063 78.7539 19.6091 80.5782C20.0908 81.7009 20.4722 82.9238 21.8169 83.2245C22.9408 83.4651 24.1651 82.8436 24.5665 81.741C25.4094 79.5157 22.5394 75.386 21.4556 73.5417Z" fill="#F0F0F5"/>
<path d="M170.958 221.35C163.673 216.258 154.822 214.113 146.593 211.066C143.442 209.903 140.251 206.976 136.939 207.317C135.454 207.477 134.13 208.239 134.371 210.003C134.591 211.647 136.799 212.87 138.003 213.812C144.546 218.884 151.892 222.894 159.699 225.62C162.77 226.683 168.108 229.108 171.36 228.166C175.655 226.903 173.367 223.014 170.958 221.35ZM170.035 223.535C170.055 223.535 170.055 223.515 170.075 223.515C170.236 223.595 170.176 223.575 170.035 223.535ZM169.012 225.841C169.132 225.921 169.232 226.001 169.353 226.081C169.192 226.041 169.072 225.961 169.012 225.841Z" fill="#F0F0F5"/>
<path d="M232.735 214.835C226.934 217.421 221.515 220.829 216.658 224.919C214.691 226.562 211.119 228.968 210.055 231.354C209.192 233.278 210.998 235.544 213.086 234.762C214.25 234.321 215.293 232.697 216.177 231.855C217.301 230.752 218.465 229.71 219.669 228.707C222.057 226.703 224.606 224.858 227.275 223.194C228.6 222.373 229.965 221.591 231.35 220.849C232.514 220.248 234.461 219.686 235.424 218.804C237.551 216.88 235.444 213.612 232.735 214.835Z" fill="#F0F0F5"/>
<path d="M232.273 221.19C227.476 223.956 223.161 227.505 219.528 231.674C218.224 233.178 215.253 235.884 215.253 237.989C215.273 241.097 218.605 240.555 220.01 238.851C223.522 234.621 226.734 230.692 231.289 227.505C232.795 226.462 235.845 225.48 235.845 223.315C235.845 221.51 233.858 220.268 232.273 221.19Z" fill="#F0F0F5"/>
<path d="M256.879 173.838C256.197 171.352 252.303 159.584 248.229 162.672C246.021 164.336 248.229 166.541 249.212 168.145C250.577 170.41 251.44 172.796 252.283 175.281C250.818 173.297 248.088 169.047 245.479 168.646C244.275 168.465 243.131 169.207 242.81 170.37C242.388 171.873 243.452 172.695 244.435 173.617C245.539 174.66 246.563 175.762 247.526 176.945C248.369 177.988 249.072 179.612 250.236 180.293C253.086 181.997 254.551 178.509 253.086 176.384C254.832 177.667 257.461 175.963 256.879 173.838Z" fill="#F0F0F5"/>
<path d="M217.321 125.524C216.337 121.936 210.075 125.444 207.968 126.025C202.89 127.429 197.451 128.15 192.213 127.248C189.242 126.747 186.392 125.704 183.864 124.061C182.017 122.858 179.207 118.929 176.979 121.655C172.986 126.546 189.523 131.298 192.393 131.719C197.03 132.38 201.746 132.039 206.322 131.117C208.791 130.596 218.404 129.413 217.321 125.524Z" fill="#F0F0F5"/>
<path d="M148.44 255.089C146.653 252.764 141.014 246.028 137.542 247.492C132.424 249.677 141.776 254.729 143.101 256.132C141.455 255.27 138.886 253.466 137.501 255.791C136.317 257.796 138.244 259.019 139.749 259.821C141.475 260.723 144.285 262.988 146.312 262.788C148.42 262.567 149.303 259.66 147.456 258.437C148.56 257.876 149.263 256.172 148.44 255.089Z" fill="#F0F0F5"/>
<path d="M125.479 147.997C120.482 145.07 116.789 164.797 116.327 167.904C115.665 172.194 115.424 176.545 115.625 180.895C115.745 183.742 115.324 190.097 118.635 191.4C126.362 194.467 123.994 175.282 123.894 172.174C123.773 167.624 123.693 163.033 124.275 158.502C124.516 156.578 124.797 154.813 125.56 153.049C126.222 151.466 127.567 149.22 125.479 147.997ZM121.064 187.511C121.064 187.49 121.064 187.47 121.084 187.45C121.084 187.49 121.064 187.511 121.064 187.511Z" fill="#F0F0F5"/>
<path d="M180.612 38.7595C187.837 39.0803 194.782 36.2336 202.027 36.5543C207.326 36.7949 214.952 38.118 218.244 42.8291C220.05 45.4152 220.472 49.0638 219.789 52.0909C219.287 54.3162 217.662 56.7219 218.284 59.0874C219.107 62.275 222.338 60.8716 223.863 59.1676C225.891 56.9223 226.954 53.9353 228.259 51.269C233.778 40.1027 231.069 27.072 219.528 21.0377C213.788 18.0307 207.426 17.7299 201.104 18.5719C197.812 19.013 194.541 19.7146 191.249 20.1958C187.958 20.6769 185.549 21.0578 183.603 18.0707C181.977 15.5448 179.368 14.0813 176.779 16.4469C174.752 18.3113 173.808 21.7995 173.146 24.3656C171.561 30.6404 172.825 38.4187 180.612 38.7595Z" fill="#F0F0F5"/>
<path d="M85.4193 36.9954C85.0179 36.7548 84.5563 36.6546 84.0946 36.835C83.1112 37.2359 82.4288 37.8574 82.0274 38.8798C81.7665 39.5614 81.7264 40.3834 81.9471 41.085C82.489 42.8492 84.476 43.7313 86.1819 43.0897C88.0886 42.3881 88.9918 40.2029 87.9281 38.3987C87.3862 37.4565 86.4027 36.9954 85.4193 36.9954ZM85.2587 40.243C85.2186 40.243 85.1584 40.2831 85.058 40.3232C85.1383 40.2831 85.2186 40.243 85.2989 40.2029C85.2788 40.2029 85.2587 40.223 85.2587 40.243Z" fill="#FFD37D"/>
<path d="M120.944 53.9956C121.686 53.3541 121.586 52.0911 120.944 51.4496C120.201 50.7078 119.137 50.8081 118.395 51.4496C115.986 53.4944 116.247 56.9826 117.431 59.6088C118.415 61.794 121.365 64.9213 119.759 67.4272C118.495 69.3919 121.626 71.1961 122.87 69.2515C124.697 66.4048 123.512 63.077 121.987 60.4307C120.984 58.7067 118.936 55.7196 120.944 53.9956Z" fill="#FFD37D"/>
<path d="M106.654 94.9522C106.613 93.9699 105.851 93.1479 104.847 93.1479C102.278 93.168 100.934 96.4557 102.72 98.28C103.382 98.9616 104.626 99.0017 105.269 98.28C105.73 97.7789 105.891 97.1173 105.73 96.5159C106.272 96.1951 106.674 95.6138 106.654 94.9522Z" fill="#FFD37D"/>
<path d="M152.394 60.9117C152.253 60.4707 151.972 60.0697 151.571 59.8292C151.189 59.6087 150.607 59.5084 150.186 59.6487C149.744 59.7891 149.323 60.0697 149.102 60.4707C148.881 60.8917 148.761 61.3929 148.921 61.854C149.022 62.1346 149.122 62.4353 149.202 62.716C149.343 63.157 149.624 63.558 150.025 63.7985C150.407 64.0191 150.989 64.1193 151.41 63.979C151.852 63.8386 152.273 63.558 152.494 63.157C152.715 62.736 152.835 62.2349 152.675 61.7738C152.574 61.4931 152.494 61.2124 152.394 60.9117Z" fill="#FFD37D"/>
<path d="M151.852 30.8812C152.614 27.814 151.029 25.1276 149.102 22.8823C147.757 21.3187 145.088 18.8528 146.493 16.5675C147.717 14.5828 144.606 12.7785 143.382 14.7432C141.736 17.4094 142.7 20.617 144.466 22.9425C145.891 24.8269 149.042 27.1925 148.379 29.8989C147.818 32.1642 151.31 33.1265 151.852 30.8812Z" fill="#FFD37D"/>
<path d="M266.352 17.2087C265.489 17.7099 265.329 18.6722 265.65 19.5342C265.65 19.5743 265.63 19.6344 265.589 19.7347C265.509 19.875 265.449 20.0153 265.369 20.1557C265.128 20.5767 264.847 20.9976 264.566 21.3585C264.024 22.0401 263.382 22.6816 262.699 23.2029C261.355 24.2253 259.829 25.0272 258.645 26.25C255.574 29.4776 256.738 33.6274 258.284 37.256C258.665 38.1581 259.99 38.3586 260.752 37.8975C261.676 37.3562 261.776 36.3338 261.395 35.4317C260.752 33.9081 259.93 31.9835 260.331 30.2996C260.692 28.8161 262.117 27.9541 263.301 27.1522C266.091 25.2677 270.487 21.6592 268.821 17.8502C268.419 16.9682 267.135 16.7677 266.352 17.2087ZM265.65 19.5142C265.65 19.4741 265.65 19.4741 265.65 19.5142V19.5142Z" fill="#FFD37D"/>
<path d="M240.361 80.3777C238.776 78.6737 236.227 81.2398 237.812 82.9237C239.518 84.748 240.562 86.9532 241.003 89.399C241.184 90.3613 242.348 90.9025 243.231 90.662C244.235 90.3813 244.676 89.399 244.496 88.4367C243.934 85.3895 242.469 82.623 240.361 80.3777Z" fill="#FFD37D"/>
<path d="M316.588 46.9592C315.384 46.0972 313.999 45.5559 312.634 44.9545C311.711 44.5335 310.446 44.0524 310.165 42.9899C309.563 40.7446 306.071 41.7068 306.673 43.9521C307.416 46.7186 310.045 47.6809 312.393 48.7635C314.38 49.6656 317.23 51.3696 316.146 53.9557C315.765 54.8578 316.548 55.9404 317.411 56.181C318.454 56.4616 319.257 55.8201 319.638 54.918C320.923 51.8708 319.036 48.7033 316.588 46.9592Z" fill="#FFD37D"/>
<path d="M291.921 103.071C290.998 103.412 290.376 104.294 290.657 105.296C290.898 106.178 291.962 106.9 292.885 106.559C296.939 105.076 301.676 106.8 303.723 110.609C304.827 112.654 307.937 110.829 306.834 108.785C304.084 103.632 297.421 101.046 291.921 103.071Z" fill="#FFD37D"/>
<path d="M348.379 101.227C347.556 100.806 346.352 100.966 345.91 101.868C345.629 102.45 345.328 103.031 345.047 103.613C344.626 104.455 344.786 105.597 345.69 106.078C346.512 106.499 347.717 106.339 348.158 105.437C348.439 104.855 348.74 104.274 349.021 103.693C349.443 102.851 349.282 101.708 348.379 101.227Z" fill="#FFD37D"/>
<path d="M341.595 149.26C340.05 147.336 339.408 144.89 339.608 142.464C339.648 142.043 339.468 141.622 339.187 141.322C339.247 141.261 339.327 141.181 339.388 141.121C340.13 140.48 340.05 139.217 339.388 138.575C338.645 137.833 337.581 137.934 336.839 138.575C334.852 140.279 333.808 142.885 333.808 145.471C333.808 148.258 335.052 150.383 336.919 152.348C337.22 152.668 337.661 153.049 337.802 153.49C337.882 153.751 337.802 153.791 337.521 154.032C336.738 154.693 335.634 155.114 334.832 155.876C334.27 156.397 333.848 157.099 333.647 157.82C333.166 158.161 332.825 158.682 332.885 159.264C333.206 161.85 334.872 164.035 337.441 164.717C337.822 164.817 338.143 164.797 338.444 164.717C338.605 166.12 337.942 167.624 336.457 168.225C335.554 168.586 334.912 169.428 335.193 170.45C335.434 171.312 336.497 172.074 337.421 171.713C339.127 171.012 340.572 169.749 341.395 168.145C341.535 168.024 341.655 167.864 341.756 167.664C343.02 165.378 342.639 162.572 340.772 160.707C340.712 160.647 340.21 160.126 339.929 159.865C340.11 159.705 340.411 159.304 340.511 159.204C341.535 158.141 342.679 157.139 343.522 155.936C344.345 154.753 344.546 153.29 343.883 151.987C343.361 150.904 342.338 150.202 341.595 149.26Z" fill="#FFD37D"/>
<path d="M358.374 197.734C356.648 200.441 355.404 203.448 354.741 206.575C354.26 208.841 357.752 209.803 358.233 207.538C358.836 204.671 359.919 202.025 361.505 199.559C362.749 197.594 359.618 195.77 358.374 197.734Z" fill="#FFD37D"/>
<path d="M315.765 212.83C315.303 212.73 314.781 212.75 314.38 213.01C313.959 213.271 313.738 213.632 313.557 214.093C313.356 214.574 313.176 215.055 312.975 215.536C312.815 215.937 312.955 216.559 313.156 216.919C313.377 217.3 313.798 217.641 314.24 217.741C314.701 217.842 315.223 217.822 315.624 217.561C316.046 217.3 316.267 216.94 316.447 216.478C316.648 215.997 316.829 215.516 317.029 215.035C317.19 214.634 317.049 214.013 316.849 213.652C316.628 213.291 316.206 212.93 315.765 212.83Z" fill="#FFD37D"/>
<path d="M330.717 240.315C328.61 240.936 326.743 242.159 325.679 244.144C324.696 245.948 324.435 248.053 324.435 250.098C324.435 253.446 325.74 258.097 322.89 260.663C321.164 262.227 323.713 264.773 325.439 263.209C328.469 260.482 328.429 256.192 328.148 252.464C328.028 250.739 327.907 248.935 328.329 247.231C328.79 245.447 329.894 244.324 331.68 243.803C333.908 243.122 332.965 239.653 330.717 240.315Z" fill="#FFD37D"/>
<path d="M108.921 260.903C108.6 260.582 108.099 260.382 107.637 260.382C107.195 260.382 106.674 260.582 106.352 260.903C106.031 261.244 105.811 261.705 105.831 262.186C105.851 262.667 106.011 263.108 106.352 263.469C106.593 263.71 106.814 263.93 107.055 264.171C107.376 264.492 107.878 264.692 108.339 264.692C108.781 264.692 109.303 264.492 109.624 264.171C109.945 263.83 110.166 263.369 110.146 262.888C110.126 262.407 109.965 261.966 109.624 261.605C109.383 261.364 109.162 261.124 108.921 260.903Z" fill="#FFD37D"/>
<path d="M82.4087 245.667C81.1443 244.244 79.2577 243.422 78.1338 241.858C77.1303 240.475 76.8694 238.711 77.331 237.067C77.9532 234.822 74.461 233.859 73.8388 236.105C73.337 237.949 73.3772 239.954 74.0395 241.738C74.8022 243.783 76.187 245.186 77.893 246.489C79.3982 247.632 80.6827 248.815 81.1243 250.719C81.5859 252.744 80.763 254.849 80.1007 256.733C79.3179 258.918 82.8102 259.861 83.5929 257.696C84.3154 255.691 85.0179 253.546 84.8573 251.381C84.6968 249.276 83.8538 247.271 82.4087 245.667Z" fill="#FFD37D"/>
<path d="M176.859 39.8824C176.056 47.0794 175.233 54.2763 174.451 61.4733C173.808 67.3271 173.287 73.3814 174.631 79.175C175.856 84.5076 178.866 89.1987 183.583 92.0855C187.858 94.6916 193.116 95.694 198.053 94.7116C204.636 93.3885 209.614 88.3968 213.728 83.425C214.471 82.543 213.186 81.2599 212.444 82.142C208.891 86.4321 204.777 90.8024 199.318 92.5064C194.762 93.9298 189.664 93.3083 185.449 91.063C180.773 88.5571 177.762 84.247 176.478 79.155C175.113 73.7021 175.555 67.9686 176.137 62.4356C176.939 54.9179 177.822 47.4001 178.645 39.8824C178.806 38.7397 177 38.7397 176.859 39.8824Z" fill="#191A35"/>
<path d="M182.258 45.8967C183.703 45.8366 185.148 45.8165 186.613 45.8967C187.396 45.9368 188.199 45.9969 188.981 46.0771C189.403 46.1172 190.547 46.0571 190.888 46.3578C191.33 46.7387 191.169 47.8212 191.169 48.3625C191.149 49.0241 191.109 49.6856 190.988 50.3271C190.748 51.7305 190.246 53.0536 189.584 54.3166C188.46 56.4416 186.653 58.4463 185.971 60.7718C185.69 61.734 185.851 62.6562 186.352 63.5182C186.854 64.3803 187.697 65.0619 188.078 65.9841C188.52 67.0466 190.266 66.5855 189.824 65.5029C189.383 64.4605 188.64 63.7388 188.038 62.8166C187.235 61.5737 187.998 60.5312 188.66 59.4086C190.085 56.9828 191.751 54.6574 192.494 51.8908C192.855 50.5076 193.036 49.0642 192.975 47.6408C192.935 46.4981 192.795 45.2752 191.631 44.754C190.427 44.1927 188.721 44.2528 187.416 44.1726C185.71 44.0524 183.984 44.0524 182.278 44.1325C181.094 44.1325 181.094 45.9368 182.258 45.8967Z" fill="#191A35"/>
<path d="M184.345 50.6676C184.225 51.7902 184.084 52.9329 183.964 54.0555C183.844 55.1982 185.65 55.1982 185.77 54.0555C185.891 52.9329 186.031 51.7902 186.152 50.6676C186.292 49.5249 184.486 49.5249 184.345 50.6676Z" fill="#191A35"/>
<path d="M200.883 46.7988C204.235 46.2175 207.687 46.6585 210.778 48.1019C211.821 48.583 212.745 47.0394 211.681 46.5382C208.128 44.8943 204.255 44.3731 200.401 45.0547C199.277 45.2552 199.759 46.9993 200.883 46.7988Z" fill="#191A35"/>
<path d="M203.171 52.9933C203.091 54.0558 202.99 55.0982 202.91 56.1607C202.81 57.3235 204.616 57.3034 204.716 56.1607C204.797 55.0982 204.897 54.0558 204.977 52.9933C205.058 51.8506 203.251 51.8506 203.171 52.9933Z" fill="#191A35"/>
<path d="M186.633 73.2808C189.082 73.1004 191.53 72.94 193.979 72.7596C194.621 72.7195 195.263 72.6594 195.906 72.6193C196.267 72.5992 197.411 72.3185 197.732 72.499C198.394 72.8598 197.15 74.3433 196.849 74.6641C195.564 76.0072 193.497 76.8091 191.671 76.2077C189.844 75.6063 188.179 73.9223 187.496 72.1381C187.075 71.0756 185.329 71.5367 185.75 72.6193C186.693 75.045 188.801 77.2301 191.33 77.9919C193.798 78.7337 196.668 77.6311 198.314 75.7266C199.057 74.8645 199.739 73.7619 199.699 72.5792C199.639 71.2761 198.655 70.6747 197.451 70.7148C193.859 70.815 190.226 71.236 186.633 71.4766C185.469 71.5568 185.469 73.361 186.633 73.2808Z" fill="#191A35"/>
<path d="M177.742 16.5675C172.845 20.2963 170.376 26.7916 171.821 32.8259C172.524 35.7127 174.25 38.6396 177.04 39.9226C180.472 41.4662 184.265 40.2233 187.737 39.5016C195.705 37.8778 204.074 37.3365 212.022 39.2811C215.013 40.0228 218.505 41.2257 219.348 44.5735C220.171 47.8613 218.625 51.3495 218.003 54.537C217.662 56.221 217.26 58.2057 217.722 59.8896C218.083 61.2128 219.167 62.8165 220.733 62.2953C221.997 61.8743 222.74 60.3507 223.362 59.2682C224.486 57.2835 225.549 55.2587 226.734 53.3141C227.336 52.3318 225.79 51.4097 225.168 52.412C224.205 53.9757 223.322 55.5995 222.438 57.2033C222.097 57.8248 221.756 58.4462 221.395 59.0477C221.134 59.4887 220.793 60.2104 220.331 60.471C219.247 61.0724 219.388 57.4439 219.448 56.8625C219.629 55.359 219.97 53.9156 220.331 52.4321C221.034 49.6255 221.856 46.5181 220.953 43.6514C220.09 40.9249 217.762 39.3212 215.193 38.3389C211.982 37.136 208.409 36.6148 204.998 36.3742C201.345 36.0936 197.672 36.2339 194.039 36.6549C190.467 37.0759 186.995 37.8978 183.462 38.5594C181.736 38.8801 179.87 39.0606 178.164 38.4391C176.739 37.9179 175.615 36.8153 174.832 35.5523C171.36 29.9391 173.527 22.0003 178.605 18.1312C179.569 17.4296 178.665 15.8458 177.742 16.5675Z" fill="#191A35"/>
<path d="M184.867 10.7335C184.004 10.092 182.8 10.3526 182.077 11.0944C181.254 11.9564 181.335 13.2194 181.997 14.1616C182.76 15.2041 184.024 15.605 185.268 15.605C186.954 15.605 188.7 15.2442 190.366 15.0437C197.23 14.1817 204.195 13.1993 211.119 13.5802C216.959 13.901 222.398 15.8255 226.733 19.835C230.707 23.5036 233.337 28.4152 234.059 33.7879C235.063 41.2254 232.734 48.703 229.844 55.479C229.403 56.5415 230.948 57.4637 231.41 56.3811C235.886 45.8964 238.756 33.4671 231.992 23.2631C229.282 19.1935 225.429 15.8656 220.933 13.921C215.253 11.4552 208.891 11.5154 202.83 11.9163C199.117 12.1769 195.424 12.618 191.731 13.0791C189.925 13.2996 188.139 13.5602 186.332 13.7406C185.489 13.8208 184.446 13.9611 183.743 13.3798C183.502 13.1793 183.161 12.7984 183.302 12.4576C183.422 12.1368 183.743 12.1168 183.964 12.2772C184.887 12.9788 185.77 11.4151 184.867 10.7335Z" fill="#191A35"/>
<path d="M179.689 23.744C178.083 25.8691 179.267 28.8962 181.315 30.2394C183.984 31.9835 187.717 31.6026 190.708 31.3821C197.672 30.8809 205.198 29.257 211.781 32.4847C212.825 32.9858 213.728 31.4422 212.684 30.921C207.005 28.1344 200.662 28.6155 194.561 29.2169C191.45 29.5177 188.199 29.9988 185.088 29.6179C183.723 29.4575 182.198 29.0165 181.375 27.8537C180.672 26.8714 180.512 25.6485 181.254 24.6462C181.957 23.724 180.391 22.8419 179.689 23.744Z" fill="#191A35"/>
<path d="M215.755 33.5476C216.136 33.748 216.538 33.9285 216.919 34.1289C217.341 34.3294 217.923 34.2492 218.164 33.8082C218.384 33.4072 218.284 32.8058 217.842 32.5653C217.461 32.3648 217.06 32.1844 216.678 31.9839C216.257 31.7834 215.675 31.8636 215.434 32.3046C215.213 32.7256 215.294 33.327 215.755 33.5476Z" fill="#191A35"/>
<path d="M201.144 25.4484C203.011 25.308 204.797 25.4884 206.563 26.0297C207.687 26.3705 208.149 24.6264 207.045 24.2856C205.118 23.7042 203.131 23.4837 201.144 23.6441C200 23.7443 199.98 25.5486 201.144 25.4484Z" fill="#191A35"/>
<path d="M224.124 42.8896C224.004 43.5311 223.863 44.1926 223.743 44.8342C223.643 45.3153 223.884 45.8165 224.365 45.9368C224.807 46.057 225.389 45.7964 225.469 45.3153C225.59 44.6738 225.73 44.0122 225.85 43.3707C225.951 42.8896 225.71 42.3884 225.228 42.2681C224.787 42.1278 224.225 42.4084 224.124 42.8896Z" fill="#191A35"/>
<path d="M224.124 58.5465C225.951 58.3259 228.199 58.0854 229.303 59.9097C230.406 61.734 229.724 64.0996 228.741 65.8036C226.974 68.8708 223.643 70.8755 220.11 70.9557C218.946 70.9958 218.946 72.8001 220.11 72.76C224.646 72.6397 228.981 69.8531 230.828 65.6632C231.811 63.438 232.132 60.7116 230.647 58.6267C229.122 56.4816 226.533 56.4415 224.144 56.7222C222.98 56.8825 222.96 58.6868 224.124 58.5465Z" fill="#191A35"/>
<path d="M225.168 61.453C224.004 62.0344 222.94 62.8163 221.997 63.7184C221.154 64.5203 222.438 65.8033 223.281 65.0014C224.104 64.1995 225.048 63.538 226.091 63.0167C227.115 62.4755 226.192 60.9118 225.168 61.453Z" fill="#191A35"/>
<path d="M221.455 74.1629C219.147 85.9106 218.083 97.8989 218.304 109.867C218.324 111.03 220.13 111.03 220.11 109.867C219.89 98.0592 220.913 86.2313 223.181 74.644C223.422 73.5214 221.676 73.0402 221.455 74.1629Z" fill="#191A35"/>
<path d="M179.709 88.6573C179.227 96.4156 178.344 104.134 177.08 111.812C176.899 112.955 178.625 113.436 178.826 112.293C180.131 104.455 181.034 96.576 181.535 88.6573C181.596 87.5146 179.789 87.5146 179.709 88.6573Z" fill="#191A35"/>
<path d="M180.713 98.3799C186.693 101.688 194.28 101.668 200.421 98.7007C206.563 95.7337 211.219 90.0002 213.266 83.5049C210.015 88.7573 204.556 92.5863 198.515 93.8693C192.474 95.1523 185.931 93.8894 180.793 90.4412C180.532 92.9471 180.291 95.453 180.03 97.959" fill="#191A35"/>
<path d="M180.251 99.1623C185.329 101.909 191.39 102.49 196.949 100.967C202.228 99.5231 206.764 96.1752 210.015 91.825C211.841 89.3993 213.206 86.6528 214.129 83.766C214.451 82.7636 213.006 82.2223 212.484 83.0643C209.413 87.9358 204.476 91.5243 198.856 92.8875C192.835 94.3509 186.372 93.088 181.234 89.6799C180.612 89.2589 179.93 89.8403 179.87 90.4618C179.609 92.9677 179.368 95.4736 179.107 97.9795C178.987 99.1422 180.793 99.1222 180.913 97.9795C181.174 95.4736 181.415 92.9677 181.676 90.4618C181.214 90.7224 180.773 90.983 180.311 91.2436C185.851 94.9122 192.855 96.1953 199.318 94.6316C205.379 93.1481 210.697 89.2389 214.009 83.9865C213.467 83.7459 212.905 83.5254 212.363 83.2848C210.457 89.279 206.342 94.5514 200.763 97.5384C194.742 100.746 187.175 100.886 181.154 97.6387C180.131 97.0573 179.227 98.621 180.251 99.1623Z" fill="#191A35"/>
<path d="M177.722 114.258C170.898 111.311 163.793 108.644 156.548 106.94C149.564 105.316 142.559 105.276 135.755 107.682C129.353 109.947 123.673 113.756 118.395 117.966C112.755 122.457 107.577 127.509 102.599 132.741C96.6586 138.976 90.9185 145.391 85.339 151.946C84.5964 152.828 85.8608 154.111 86.6235 153.229C91.4604 147.556 96.4177 142.003 101.516 136.55C106.252 131.478 111.129 126.486 116.408 121.956C121.505 117.585 127.005 113.476 133.146 110.689C139.609 107.762 146.473 106.88 153.457 108.163C157.451 108.885 161.345 110.088 165.198 111.391C169.132 112.714 173.006 114.197 176.819 115.841C177.863 116.262 178.786 114.719 177.722 114.258Z" fill="#191A35"/>
<path d="M179.267 117.425C184.225 121.615 190.868 122.757 197.19 122.737C204.415 122.717 211.56 121.134 218.143 118.167C219.207 117.685 218.284 116.142 217.24 116.603C211.059 119.369 204.335 120.853 197.551 120.933C191.631 120.993 185.208 120.091 180.532 116.142C179.669 115.4 178.384 116.663 179.267 117.425Z" fill="#191A35"/>
<path d="M180.432 123.56C184.526 127.269 189.804 129.414 195.284 129.915C201.365 130.456 207.446 128.912 212.845 126.186C213.889 125.665 212.965 124.101 211.942 124.622C202.348 129.494 190.045 129.855 181.696 122.297C180.853 121.515 179.569 122.778 180.432 123.56Z" fill="#191A35"/>
<path d="M299.347 261.344C299.729 247.071 300.09 232.797 299.869 218.503C299.649 204.831 298.926 191.099 296.899 177.567C294.992 164.957 291.761 152.427 286.021 140.981C280.783 130.516 273.397 120.873 263.623 114.278C253.005 107.141 239.197 104.033 226.794 108.003C225.208 108.504 223.683 109.125 222.198 109.847C221.154 110.348 222.057 111.912 223.101 111.411C234.982 105.697 249.333 107.762 260.391 114.358C270.286 120.272 277.812 129.453 283.231 139.497C289.172 150.523 292.604 162.712 294.671 175.021C296.859 188.051 297.641 201.323 297.983 214.514C298.324 228.387 298.043 242.279 297.682 256.152C297.641 257.876 297.601 259.58 297.541 261.304C297.501 262.507 299.307 262.507 299.347 261.344Z" fill="#191A35"/>
<path d="M256.598 179.812C255.253 202.445 254.912 225.159 255.574 247.812C255.755 254.167 256.036 260.542 256.377 266.897C256.437 268.06 258.244 268.06 258.183 266.897C256.959 244.244 256.718 221.55 257.501 198.877C257.722 192.522 258.023 186.147 258.404 179.792C258.465 178.649 256.658 178.649 256.598 179.812Z" fill="#191A35"/>
<path d="M261.435 211.847C274.059 204.39 288.269 199.719 302.86 198.175C304.004 198.055 304.024 196.251 302.86 196.371C287.948 197.935 273.437 202.646 260.532 210.284C259.528 210.865 260.431 212.429 261.435 211.847Z" fill="#191A35"/>
<path d="M281.625 245.306C280 247.792 278.755 250.479 277.933 253.325C277.611 254.448 279.358 254.909 279.679 253.806C280.461 251.1 281.646 248.574 283.191 246.209C283.813 245.226 282.248 244.324 281.625 245.306Z" fill="#191A35"/>
<path d="M247.506 165.238C250.617 168.205 253.025 171.793 254.531 175.823C254.932 176.905 256.678 176.444 256.277 175.342C254.671 171.011 252.142 167.142 248.791 163.955C247.928 163.173 246.663 164.436 247.506 165.238Z" fill="#191A35"/>
<path d="M246.623 173.096C248.349 174.459 249.794 176.103 250.898 178.008C251.48 179.01 253.046 178.108 252.463 177.106C251.279 175.081 249.754 173.297 247.908 171.833C247.004 171.111 245.72 172.374 246.623 173.096Z" fill="#191A35"/>
<path d="M233.939 216.719C226.272 219.927 219.267 224.478 213.226 230.191C212.383 230.993 213.668 232.276 214.511 231.474C220.291 225.981 227.055 221.551 234.42 218.463C235.484 218.022 235.022 216.278 233.939 216.719Z" fill="#191A35"/>
<path d="M231.671 223.295C226.733 226.462 222.278 230.351 218.505 234.822C217.762 235.704 219.027 236.987 219.789 236.105C223.482 231.734 227.777 227.946 232.594 224.858C233.557 224.217 232.654 222.653 231.671 223.295Z" fill="#191A35"/>
<path d="M137.602 210.685C148.701 216.258 160.161 221.089 171.902 225.139C173.006 225.52 173.467 223.776 172.383 223.395C160.783 219.385 149.483 214.634 138.525 209.121C137.481 208.62 136.558 210.164 137.602 210.685Z" fill="#191A35"/>
<path d="M35.4846 85.5699C33.7586 80.7386 31.9724 75.9072 30.3266 71.0557C28.8615 66.7055 27.6974 61.7538 30.0256 57.4637C30.5875 56.4413 29.022 55.5392 28.4601 56.5616C26.0918 60.9319 26.7943 65.9437 28.2393 70.4944C29.9051 75.7267 31.8921 80.8789 33.7385 86.0711C34.1399 87.1336 35.8861 86.6725 35.4846 85.5699Z" fill="#191A35"/>
<path d="M40.442 83.9662C38.6357 79.3152 36.9698 74.6041 35.4646 69.8529C34.722 67.5074 34.0195 65.1418 33.3773 62.7762C32.8354 60.7915 32.3136 58.7668 32.2132 56.7019C32.1129 54.7172 32.3738 52.6724 33.5178 50.9884C33.9995 50.2868 34.8424 49.4247 35.7456 49.9059C36.4882 50.3068 36.9096 51.3092 37.1705 52.071C37.9533 54.3163 38.455 56.7019 39.0772 59.0073C39.7395 61.4531 40.4018 63.8988 41.0842 66.3446C42.5895 71.8777 44.0948 77.4107 45.6 82.9437C45.9011 84.0664 47.6472 83.5853 47.3461 82.4626C45.8409 76.9296 44.3356 71.3965 42.8303 65.8635C42.0677 63.097 41.3251 60.3304 40.5624 57.5639C39.9202 55.1983 39.4987 52.5922 38.4149 50.387C37.6322 48.8233 36.1269 47.5403 34.2804 48.1217C32.3136 48.7231 31.1696 51.1087 30.7079 52.9531C29.6041 57.4837 31.31 62.3151 32.5745 66.6453C34.3607 72.6795 36.3878 78.6135 38.6758 84.4874C39.1174 85.5098 40.8635 85.0487 40.442 83.9662Z" fill="#191A35"/>
<path d="M37.1304 118.066C32.2533 110.689 31.29 101.548 27.2759 93.7491C25.3492 89.9803 23.001 86.4519 21.2147 82.6229C20.3116 80.6984 19.569 78.6936 19.1475 76.6087C19.0271 75.9873 18.445 74.0627 19.2478 73.7019C20.1109 73.321 21.2749 74.6641 21.7566 75.1854C23.5027 77.15 24.5865 79.676 25.7707 81.9814C27.0953 84.5675 28.3999 87.1335 29.7245 89.7196C30.2463 90.7621 31.8118 89.8399 31.29 88.8175C29.9653 86.2314 28.6608 83.6654 27.3361 81.0793C26.1721 78.8139 25.0883 76.4484 23.4827 74.4236C22.3788 73.0403 20.4119 71.1759 18.4651 72.078C16.3778 73.0403 17.1605 75.9873 17.5619 77.7113C18.6457 82.3022 21.1144 86.4118 23.4224 90.4614C24.6066 92.5062 25.7707 94.5711 26.734 96.7161C27.7777 99.0216 28.5805 101.427 29.3432 103.813C31.009 109.025 32.5343 114.358 35.585 118.969C36.2072 119.951 37.7726 119.049 37.1304 118.066Z" fill="#191A35"/>
<path d="M34.16 88.0359C38.7561 85.7304 43.6532 84.1066 48.7109 83.2045C49.8549 83.004 49.3732 81.2599 48.2292 81.4604C43.011 82.3825 37.9733 84.0865 33.2368 86.4722C32.2132 86.9934 33.1164 88.5571 34.16 88.0359Z" fill="#191A35"/>
<path d="M52.5243 79.676C52.0827 75.0451 51.6612 70.3941 51.2197 65.7632C50.9989 63.4177 50.7581 61.0722 50.5574 58.7467C50.3968 56.8422 50.2563 54.8776 50.738 53.0132C50.9387 52.2113 51.2799 51.0485 51.9824 50.5073C53.026 49.6853 53.9091 51.229 54.2102 52.0308C54.9327 53.9754 55.3542 56.0804 55.7756 58.1252C56.739 62.6559 57.6422 67.1866 58.5855 71.7173C59.6692 76.9496 60.733 82.1819 61.8168 87.4143C62.0576 88.557 63.7836 88.0758 63.5629 86.9331C61.4555 76.689 59.5488 66.3847 57.2006 56.1806C56.739 54.1358 56.3777 51.5698 55.0732 49.8657C53.9693 48.4223 51.9222 47.9613 50.5775 49.3445C49.1725 50.7879 48.731 53.1134 48.6306 55.058C48.5102 57.3634 48.8313 59.7089 49.0521 61.9943C49.6141 67.8882 50.156 73.7821 50.7179 79.676C50.8183 80.8187 52.6246 80.8388 52.5243 79.676Z" fill="#191A35"/>
<path d="M55.6752 101.267C58.6055 93.6087 63.8237 86.7927 70.5071 82.0014C71.3701 81.3799 72.2532 80.6983 73.2367 80.2773C74.0796 79.9164 75.5849 79.6759 76.0063 80.7985C76.3676 81.7608 75.5849 83.2643 75.2035 84.1464C74.7419 85.249 74.1599 86.3115 73.618 87.3941C71.5307 91.4837 69.905 95.7538 68.6807 100.184C67.2357 105.376 66.2723 110.689 65.329 115.981C65.1283 117.124 66.8543 117.605 67.0751 116.463C68.0184 111.23 68.9818 105.978 70.3867 100.846C71.0892 98.3198 71.892 95.834 72.8553 93.3882C73.8588 90.8623 75.1634 88.4967 76.3275 86.0509C77.1503 84.3068 78.6155 81.6405 77.5317 79.7561C76.4078 77.8115 73.8789 77.9719 72.1328 78.8339C70.1258 79.8363 68.2593 81.3999 66.5533 82.8433C64.8272 84.3268 63.2216 85.9306 61.7364 87.6547C58.4048 91.5639 55.7756 95.9943 53.9291 100.786C53.5077 101.868 55.2538 102.329 55.6752 101.267Z" fill="#191A35"/>
<path d="M36.4079 93.268C39.0572 95.6737 41.1445 98.6207 42.4691 101.949C42.8906 103.011 44.6367 102.55 44.2152 101.467C42.7702 97.8388 40.5825 94.6112 37.6924 91.985C36.8294 91.2232 35.5449 92.4862 36.4079 93.268Z" fill="#191A35"/>
<path d="M38.5956 123.058C43.0512 137.292 47.5268 151.505 51.9824 165.739C54.2102 172.856 56.438 179.972 58.6658 187.069C60.3918 192.602 62.0576 198.195 64.6266 203.428C67.2558 208.76 71.0089 213.672 76.3878 216.438C77.4113 216.96 78.3346 215.416 77.2909 214.875C67.296 209.763 63.9041 197.855 60.7932 187.931C56.438 174.018 52.0627 160.106 47.7075 146.213C45.2388 138.334 42.7702 130.456 40.3016 122.597C39.9804 121.475 38.2343 121.936 38.5956 123.058Z" fill="#191A35"/>
<path d="M86.483 219.165C90.0555 219.907 93.4674 218.543 96.5984 216.94C99.4885 215.456 102.238 213.752 104.847 211.808C110.025 207.979 114.561 203.348 118.314 198.115C120.442 195.148 122.288 191.961 123.854 188.653C124.335 187.611 122.79 186.688 122.288 187.751C117.11 198.817 108.52 208.159 97.9029 214.193C94.6716 216.017 90.8182 218.243 86.9647 217.441C85.8407 217.18 85.339 218.924 86.483 219.165Z" fill="#191A35"/>
<path d="M65.8308 116.102C72.3937 131.598 79.5387 146.834 87.2457 161.79C89.4333 166.02 91.641 170.209 93.909 174.399C94.4709 175.422 96.0163 174.52 95.4744 173.497C87.4464 158.702 79.9802 143.627 73.0761 128.271C71.1293 123.94 69.2226 119.57 67.3762 115.2C66.9346 114.137 65.3892 115.039 65.8308 116.102Z" fill="#191A35"/>
<path d="M124.295 150.082C122.047 164.476 122.87 179.05 124.657 193.444C126.463 207.978 129.192 222.392 130.698 236.967C131.541 245.166 131.962 253.426 131.601 261.665C131.541 262.828 133.347 262.828 133.407 261.665C134.029 247.151 132.223 232.697 130.096 218.383C127.948 203.969 125.459 189.575 124.857 175.001C124.516 166.841 124.797 158.642 126.041 150.583C126.202 149.44 124.476 148.939 124.295 150.082Z" fill="#191A35"/>
<path d="M90.8583 142.264C99.629 154.553 107.216 167.684 113.437 181.456C115.224 185.426 116.909 189.435 118.455 193.485C118.876 194.567 120.622 194.086 120.201 193.003C114.722 178.79 107.878 165.098 99.7293 152.207C97.4012 148.519 94.9526 144.89 92.4238 141.342C91.7414 140.42 90.1759 141.322 90.8583 142.264Z" fill="#191A35"/>
<path d="M102.037 150.824C108.299 157.84 112.815 166.26 115.264 175.322C115.565 176.444 117.311 175.963 117.01 174.84C114.481 165.478 109.784 156.798 103.322 149.561C102.539 148.679 101.255 149.962 102.037 150.824Z" fill="#191A35"/>
<path d="M126.844 139.657C126.443 139.778 126.102 140.038 125.921 140.419C125.821 140.64 125.74 140.86 125.74 141.121C125.74 141.381 125.821 141.582 125.921 141.822C126.001 142.023 126.262 142.183 126.463 142.243C126.684 142.304 126.965 142.283 127.165 142.143C127.366 142.023 127.527 141.842 127.587 141.602C127.647 141.341 127.607 141.141 127.486 140.9C127.486 140.92 127.567 141.121 127.527 141C127.587 141.241 127.547 141.181 127.547 141.101C127.567 141 127.527 141.321 127.527 141.221C127.547 141.121 127.607 141.161 127.486 141.301L127.527 141.221C127.527 141.221 127.386 141.401 127.466 141.301C127.567 141.201 127.306 141.401 127.406 141.361C127.486 141.321 127.165 141.441 127.326 141.401C127.787 141.281 128.109 140.76 127.948 140.299C127.808 139.838 127.326 139.517 126.844 139.657Z" fill="#191A35"/>
<path d="M118.435 126.847C119.559 125.865 120.683 124.882 121.807 123.9C122.69 123.138 121.405 121.855 120.522 122.617C119.398 123.599 118.274 124.582 117.15 125.564C116.287 126.346 117.572 127.609 118.435 126.847Z" fill="#191A35"/>
<path d="M138.866 250.579C140.472 252.844 142.459 254.749 144.807 256.232C145.79 256.854 146.694 255.29 145.71 254.668C143.623 253.345 141.837 251.661 140.412 249.657C139.749 248.734 138.184 249.637 138.866 250.579Z" fill="#191A35"/>
<path d="M139.95 257.435C140.652 258.137 141.355 258.839 142.057 259.54C142.88 260.362 144.165 259.079 143.342 258.257C142.639 257.556 141.937 256.854 141.234 256.152C140.392 255.35 139.127 256.613 139.95 257.435Z" fill="#191A35"/>
<path d="M53.2267 205.833C52.6246 206.836 53.2267 208.359 54.4309 208.56C54.8925 208.64 55.4344 208.44 55.5348 207.938C55.6351 207.517 55.3943 206.896 54.9126 206.836C54.8323 206.816 54.7119 206.756 54.8724 206.856C54.8323 206.836 54.7922 206.816 54.7721 206.796C54.8524 206.876 54.8724 206.876 54.8323 206.836C54.7922 206.796 54.7922 206.816 54.8724 206.896C54.8524 206.856 54.8122 206.796 54.7922 206.756C54.7721 206.716 54.7721 206.716 54.7922 206.776C54.8122 206.836 54.8122 206.836 54.7922 206.756C54.7922 206.736 54.7922 206.716 54.7721 206.695C54.7922 206.816 54.7922 206.836 54.7922 206.776C54.752 206.675 54.7922 206.675 54.7922 206.796C54.8122 206.635 54.7119 206.936 54.8122 206.776C55.0531 206.375 54.9126 205.773 54.4911 205.533C54.0295 205.272 53.4876 205.392 53.2267 205.833Z" fill="#191A35"/>
<path d="M299.327 162.311C299.307 162.531 299.267 162.692 299.347 162.912C299.408 163.093 299.508 163.253 299.628 163.393C299.869 163.614 300.19 163.734 300.491 163.714C300.813 163.714 301.134 163.594 301.355 163.373C301.656 163.093 301.736 162.692 301.656 162.291C301.615 162.07 301.415 161.85 301.234 161.749C301.033 161.629 300.752 161.589 300.532 161.649C300.05 161.81 299.789 162.271 299.909 162.752V162.772C299.889 162.692 299.889 162.611 299.869 162.531C299.869 162.551 299.869 162.571 299.869 162.591C299.889 162.511 299.889 162.431 299.909 162.351C299.909 162.371 299.909 162.391 299.889 162.391C299.93 162.311 299.95 162.251 299.99 162.17C299.99 162.19 299.97 162.19 299.97 162.21C300.01 162.15 300.07 162.09 300.11 162.03C300.09 162.05 300.09 162.07 300.07 162.07C300.13 162.03 300.19 161.97 300.251 161.93C300.231 161.95 300.21 161.95 300.19 161.97C300.271 161.93 300.331 161.91 300.411 161.87C300.371 161.89 300.351 161.89 300.311 161.89C300.391 161.87 300.471 161.87 300.552 161.85C300.512 161.85 300.471 161.85 300.431 161.85C300.512 161.87 300.592 161.87 300.672 161.89C300.652 161.89 300.612 161.87 300.592 161.87C300.672 161.91 300.732 161.93 300.813 161.97C300.793 161.97 300.772 161.95 300.752 161.93C300.813 161.97 300.873 162.03 300.933 162.07C300.913 162.05 300.893 162.05 300.893 162.03C300.933 162.09 300.993 162.15 301.033 162.21L301.013 162.19C301.053 162.271 301.074 162.331 301.114 162.411C301.114 162.391 301.094 162.391 301.094 162.371C301.114 162.451 301.114 162.531 301.134 162.611C301.134 162.591 301.134 162.571 301.134 162.551C301.114 162.631 301.114 162.712 301.094 162.792V162.772C301.134 162.652 301.134 162.531 301.114 162.411C301.114 162.291 301.074 162.17 301.013 162.07C300.913 161.89 300.692 161.709 300.471 161.649C300.231 161.589 299.99 161.609 299.769 161.749C299.548 161.89 299.347 162.09 299.327 162.311Z" fill="#191A35"/>
<path d="M159.639 94.1102C159.639 94.0701 159.619 94.0301 159.619 93.99C159.478 94.3308 159.338 94.6716 159.197 95.0124C159.197 95.0124 159.217 95.0124 159.217 94.9923C158.856 94.9522 158.495 94.8921 158.114 94.852C158.073 94.7918 158.033 94.7317 157.993 94.6515C158.134 94.3107 158.274 93.9699 158.415 93.6291C158.415 93.6291 158.395 93.6291 158.395 93.6492C158.756 93.6893 159.117 93.7494 159.498 93.7895C159.478 93.7694 159.438 93.7293 159.418 93.7093C158.595 92.8874 157.311 94.1704 158.134 94.9923C158.154 95.0124 158.194 95.0525 158.214 95.0725C158.495 95.3532 158.957 95.4133 159.318 95.2128C159.318 95.2128 159.338 95.2128 159.338 95.1928C159.659 95.0124 159.9 94.5312 159.759 94.1704C159.659 93.9298 159.559 93.7694 159.418 93.569C159.177 93.2482 158.635 93.2482 158.314 93.4286C158.314 93.4286 158.294 93.4286 158.294 93.4487C157.933 93.6492 157.792 94.0902 157.873 94.4711C157.873 94.5112 157.893 94.5513 157.893 94.5914C158.174 95.714 159.92 95.2329 159.639 94.1102Z" fill="#191A35"/>
<path d="M236.287 9.93174C236.046 10.1723 235.805 10.4129 235.564 10.6534C235.223 10.9942 235.203 11.5957 235.564 11.9365C235.926 12.2572 236.488 12.2973 236.849 11.9365C237.09 11.6959 237.331 11.4553 237.571 11.2148C237.913 10.874 237.933 10.2725 237.571 9.93174C237.21 9.61098 236.648 9.59093 236.287 9.93174Z" fill="#191A35"/>
<path d="M71.611 236.245C71.3702 238.35 71.3902 240.595 72.1128 242.62C72.8554 244.665 74.2402 246.028 76.0666 247.171C78.0134 248.374 79.6591 249.537 80.0405 251.962C80.3817 254.147 79.7194 256.413 78.9166 258.397C78.475 259.48 80.2211 259.941 80.6627 258.879C82.2281 255.05 82.8704 249.978 79.2377 247.091C77.4715 245.687 75.2838 244.946 74.2001 242.841C73.1564 240.836 73.1965 238.43 73.4374 236.245C73.5578 235.103 71.7515 235.103 71.611 236.245Z" fill="#191A35"/>
<path d="M77.7725 236.807C77.0099 240.155 78.9165 243.061 80.9838 245.507C82.9707 247.873 86.0415 251.181 84.2151 254.488C83.6531 255.511 85.2186 256.413 85.7806 255.391C87.4464 252.343 86.0816 248.995 84.1348 246.469C82.1077 243.863 78.6958 240.977 79.5187 237.288C79.7595 236.145 78.0134 235.664 77.7725 236.807Z" fill="#191A35"/>
<path d="M328.59 239.954C325.158 241.899 323.171 245.627 323.432 249.557C323.652 252.884 325.9 258.798 321.726 260.683C320.662 261.164 321.585 262.708 322.629 262.247C326.342 260.563 326.221 255.932 325.66 252.564C325.298 250.379 324.917 248.213 325.66 246.068C326.342 244.124 327.727 242.54 329.493 241.538C330.516 240.936 329.613 239.373 328.59 239.954Z" fill="#191A35"/>
<path d="M330.557 244.445C328.188 246.489 327.988 249.777 328.228 252.684C328.469 255.591 329.132 259.7 326.141 261.525C325.158 262.126 326.061 263.69 327.044 263.088C329.694 261.485 330.376 258.317 330.235 255.43C330.095 252.243 329.011 248.153 331.801 245.748C332.724 244.966 331.44 243.683 330.557 244.445Z" fill="#191A35"/>
<path d="M358.093 196.992C355.705 200.441 354.32 204.41 353.958 208.58C353.858 209.743 355.664 209.722 355.765 208.58C356.106 204.731 357.471 201.082 359.658 197.895C360.321 196.932 358.755 196.03 358.093 196.992Z" fill="#191A35"/>
<path d="M361.445 198.356C359.397 201.383 357.932 204.751 357.13 208.319C356.869 209.442 358.615 209.943 358.876 208.8C359.638 205.372 361.023 202.165 363.01 199.258C363.672 198.316 362.107 197.414 361.445 198.356Z" fill="#191A35"/>
<path d="M336.457 136.811C331.62 140.119 330.496 146.854 334.27 151.425C334.992 152.307 336.658 153.57 335.494 154.713C334.571 155.635 333.366 156.076 332.584 157.179C331.058 159.364 331.66 161.87 333.808 163.313C334.771 163.975 336.176 164.416 336.778 165.458C337.822 167.283 335.715 169.087 334.41 170.029C333.487 170.711 334.37 172.274 335.313 171.593C337.421 170.049 339.909 167.463 338.384 164.656C337.862 163.694 336.919 163.073 335.996 162.531C335.032 161.97 333.688 161.389 333.507 160.166C333.065 157.219 337.28 156.898 337.702 154.272C337.902 152.989 337.14 151.946 336.337 151.044C335.293 149.861 334.45 148.699 334.049 147.155C333.166 143.827 334.531 140.299 337.36 138.374C338.324 137.713 337.421 136.149 336.457 136.811Z" fill="#191A35"/>
<path d="M340.511 140.138C338.846 142.524 337.621 145.531 338.585 148.438C338.986 149.661 339.729 150.784 340.792 151.505C341.716 152.147 343.803 152.508 343.361 154.031C342.699 156.277 337.862 157.76 340.09 160.667C340.792 161.589 342.237 161.99 342.619 163.153C343.06 164.476 342.258 166.04 341.655 167.182C341.114 168.205 342.679 169.127 343.221 168.084C344.365 165.899 345.429 162.892 343.241 160.968C342.799 160.567 342.278 160.286 341.836 159.905C341.134 159.284 341.435 158.762 342.057 158.121C343.06 157.098 344.285 156.397 344.907 155.034C345.429 153.891 345.388 152.568 344.485 151.626C343.562 150.663 342.157 150.483 341.254 149.521C338.906 147.035 340.431 143.406 342.097 141.041C342.739 140.098 341.174 139.196 340.511 140.138Z" fill="#191A35"/>
<path d="M291.6 108.103C296.297 106.399 301.796 108.684 303.923 113.195C304.425 114.237 305.971 113.335 305.489 112.293C303.04 107.101 296.518 104.434 291.139 106.379C290.035 106.76 290.497 108.504 291.6 108.103Z" fill="#191A35"/>
<path d="M292.162 106.519C291.48 104.815 293.146 103.653 294.631 103.372C296.116 103.091 297.782 103.252 299.267 103.492C302.238 103.973 305.027 105.176 306.934 107.582C307.656 108.484 308.921 107.201 308.218 106.299C305.77 103.192 301.836 101.868 298.023 101.528C296.096 101.367 293.868 101.307 292.182 102.39C290.677 103.332 289.754 105.277 290.436 107.001C290.838 108.063 292.584 107.602 292.162 106.519Z" fill="#191A35"/>
<path d="M306.372 42.9695C305.629 44.032 305.81 45.3953 306.533 46.4377C307.436 47.7408 309.001 48.1618 310.406 48.6229C313.256 49.5651 315.825 52.071 315.504 55.2585C315.384 56.4212 317.19 56.4012 317.31 55.2585C317.571 52.5321 316.066 50.0462 313.939 48.4424C312.815 47.5804 311.57 47.0993 310.246 46.6783C309.222 46.3375 306.854 45.3552 307.917 43.8717C308.6 42.9294 307.034 42.0273 306.372 42.9695Z" fill="#191A35"/>
<path d="M312.453 43.6111C312.172 46.2373 314.842 47.5605 316.929 48.2421C318.173 48.643 319.438 49.1041 320.08 50.347C320.682 51.5499 320.702 52.9732 320.682 54.2963C320.662 55.4591 322.468 55.4591 322.488 54.2963C322.508 51.8706 322.207 49.2043 320.08 47.6807C318.474 46.538 313.959 46.2975 314.26 43.6111C314.4 42.4484 312.574 42.4684 312.453 43.6111Z" fill="#191A35"/>
<path d="M236.247 83.0439C237.792 84.8281 239.057 86.8328 239.98 88.9979C240.421 90.0604 242.167 89.5993 241.726 88.5168C240.682 86.0309 239.297 83.7856 237.531 81.7608C236.749 80.8788 235.484 82.1618 236.247 83.0439Z" fill="#191A35"/>
<path d="M240.803 82.3624C241.666 84.0864 242.529 85.8305 243.412 87.5546C243.934 88.5971 245.499 87.6749 244.977 86.6525C244.114 84.9284 243.251 83.1843 242.368 81.4602C241.826 80.4178 240.281 81.3199 240.803 82.3624Z" fill="#191A35"/>
<path d="M264.847 18.5321C264.646 22.1808 259.99 23.6642 257.742 25.8694C256.538 27.0723 255.755 28.5357 255.615 30.2397C255.434 32.3247 256.197 34.3695 256.959 36.274C257.381 37.3365 259.127 36.8754 258.705 35.7928C257.963 33.9284 257.1 31.8235 257.501 29.7787C257.862 27.9744 259.307 26.7515 260.753 25.7492C263.362 23.9249 266.473 22.0605 266.653 18.5121C266.713 17.3694 264.907 17.3895 264.847 18.5321Z" fill="#191A35"/>
<path d="M262.117 34.4697C261.234 33.4072 261.555 31.8235 262.218 30.7409C262.98 29.498 264.265 28.6359 265.429 27.794C267.616 26.2102 269.804 24.3258 269.925 21.4189C269.965 20.2562 268.158 20.2562 268.118 21.4189C267.978 24.7869 263.924 26.2904 261.836 28.3553C259.889 30.2999 258.886 33.4272 260.813 35.7327C261.575 36.6348 262.86 35.3518 262.117 34.4697Z" fill="#191A35"/>
<path d="M143.864 22.6616C146.633 24.3857 148.5 27.3126 148.841 30.5602C148.962 31.7029 150.768 31.723 150.647 30.5602C150.226 26.651 148.119 23.2029 144.767 21.118C143.783 20.4965 142.88 22.0602 143.864 22.6616Z" fill="#191A35"/>
<path d="M144.747 15.0239C143.643 17.6902 145.73 20.0758 147.677 21.6194C148.821 22.5215 149.945 23.3836 150.748 24.6065C151.551 25.8093 152.012 27.1324 152.233 28.5357C152.414 29.6784 154.14 29.1973 153.979 28.0546C153.598 25.5687 152.373 23.2633 150.487 21.5793C148.801 20.0758 145.329 18.2715 146.473 15.505C146.914 14.4225 145.168 13.9614 144.747 15.0239Z" fill="#191A35"/>
<path d="M116.869 51.8104C114.641 53.6347 115.023 56.8222 116.167 59.1076C117.411 61.6135 120.602 64.8812 118.495 67.768C117.813 68.7102 119.378 69.6124 120.06 68.6701C121.847 66.2244 120.703 63.1371 119.278 60.8116C117.993 58.7067 115.525 55.1984 118.134 53.0533C119.057 52.3517 117.772 51.0887 116.869 51.8104Z" fill="#191A35"/>
<path d="M121.004 52.3516C119.217 54.5769 119.579 57.4035 120.622 59.8694C121.706 62.4555 123.914 65.663 122.067 68.4095C121.405 69.3718 122.971 70.2739 123.633 69.3116C125.218 66.9661 124.536 64.1194 123.472 61.7137C122.449 59.3882 120.341 56.0403 122.288 53.6146C122.991 52.7325 121.726 51.4495 121.004 52.3516Z" fill="#191A35"/>
<path d="M83.9943 36.3538C82.4088 36.9152 81.2648 38.4187 81.3651 40.1428C81.4655 41.8869 82.9707 43.2702 84.6767 43.4706C86.5232 43.6711 88.2291 42.3079 88.9115 40.644C89.4936 39.2206 89.2728 37.4164 87.6672 36.855C86.5633 36.4741 86.1017 38.2182 87.1855 38.5991C87.7274 38.7796 87.2858 39.9423 87.1052 40.243C86.6034 41.1051 85.7003 41.8668 84.6566 41.6463C82.8102 41.2454 82.6898 38.7194 84.4559 38.098C85.5799 37.7171 85.0982 35.9729 83.9943 36.3538Z" fill="#191A35"/>
<path d="M102.198 94.7114C101.194 96.8565 103.101 99.643 105.55 98.7409C106.674 98.3199 107.517 97.2374 107.517 96.0145C107.517 94.6914 106.312 93.5086 104.988 93.8694C103.864 94.1701 104.345 95.9142 105.469 95.6135C105.851 95.5133 105.67 96.3553 105.57 96.4956C105.369 96.8364 104.948 97.1371 104.526 97.097C103.904 97.0169 103.482 96.1548 103.743 95.6135C104.245 94.5711 102.68 93.6689 102.198 94.7114Z" fill="#191A35"/>
<path d="M149.905 60.3908C149.423 61.2929 149.865 62.3354 150.768 62.7764C151.751 63.2575 152.996 62.7964 153.156 61.6337C153.277 60.7115 152.554 59.7894 151.651 59.6089C151.049 59.4887 150.226 59.7092 150.045 60.3707C149.845 61.0523 150.206 61.7339 150.768 62.0948C151.029 62.2552 151.43 62.2752 151.671 62.0948C152.012 61.8743 152.333 61.5936 152.454 61.1726C152.594 60.7115 152.414 60.1502 151.972 59.9097C151.189 59.4686 150.005 60.07 150.326 61.0523C150.467 61.4934 150.969 61.8342 151.43 61.6738C151.872 61.5335 152.213 61.0523 152.052 60.5712C152.052 60.6314 152.072 60.6714 152.072 60.7316C152.032 60.892 151.992 61.0323 151.952 61.1927C151.591 61.9745 150.366 61.2929 150.748 60.5913C150.828 60.471 150.828 60.4509 150.748 60.5311C150.828 60.471 150.828 60.471 150.748 60.5311C151.049 60.5311 151.35 60.5311 151.651 60.5311C151.731 60.5913 151.751 60.7115 151.711 60.5913C151.731 60.6915 151.771 60.7316 151.751 60.8519C151.611 61.0323 151.47 61.2127 151.33 61.3931C151.37 61.3731 151.39 61.353 151.43 61.333C151.29 61.3731 151.29 61.3931 151.37 61.3731C151.209 61.3931 151.189 61.3931 151.29 61.3931C151.149 61.3731 151.109 61.3731 151.209 61.3931C151.35 61.4332 151.029 61.2929 151.25 61.4132C151.39 61.4733 151.109 61.2929 151.29 61.4533C151.41 61.5535 151.189 61.2929 151.33 61.5134C151.43 61.6538 151.27 61.333 151.33 61.5134C151.35 61.6137 151.35 61.5936 151.33 61.4332C151.33 61.5335 151.33 61.5134 151.35 61.353C151.33 61.4533 151.33 61.4332 151.39 61.2929C151.35 61.3731 151.35 61.353 151.43 61.2528C151.35 61.313 151.37 61.313 151.49 61.2328C151.41 61.2729 151.43 61.2729 151.551 61.2127C151.45 61.2328 151.49 61.2328 151.631 61.2127C151.591 61.2127 151.551 61.2127 151.531 61.2127C151.791 61.2528 151.611 61.2127 151.551 61.1927C151.41 61.1526 151.731 61.2729 151.51 61.1526C151.37 61.0724 151.651 61.2729 151.47 61.1125C151.41 61.0323 151.41 61.0523 151.51 61.1526C151.49 61.1125 151.47 61.0924 151.45 61.0523C151.51 61.1927 151.51 61.2127 151.49 61.1125C151.51 61.2729 151.51 61.2929 151.51 61.1927C151.51 61.0924 151.51 61.1125 151.49 61.2729C151.51 61.1726 151.51 61.1927 151.47 61.333C151.691 60.912 151.591 60.3306 151.149 60.0901C150.728 59.8495 150.126 59.9497 149.905 60.3908Z" fill="#191A35"/>
<path d="M273.136 55.9802C272.373 56.0403 271.791 56.4813 271.51 57.183C271.269 57.8045 271.35 58.5663 271.791 59.0674C272.835 60.2302 274.862 59.3882 274.982 57.9047C275.103 56.4212 273.116 55.4589 272.052 56.5615C270.908 57.7644 272.614 59.709 273.959 58.867C274.039 58.8269 274.119 58.7667 274.159 58.7066C274.22 58.6464 274.42 58.4059 274.3 58.5663C274.48 58.3457 274.621 58.0851 274.641 57.7844C274.661 57.3634 274.501 56.9625 274.139 56.7019C273.196 56.0002 271.952 57.0026 272.253 58.0851C272.353 58.466 272.734 58.7467 273.116 58.7467C273.437 58.7467 273.738 58.7467 274.059 58.7667C274.561 58.7667 274.942 58.3457 274.962 57.8646C275.063 56.2809 272.855 55.5792 271.952 56.8422C271.109 58.045 272.112 59.8092 273.597 59.6087C274.922 59.4283 275.805 57.8245 274.962 56.7019C274.22 55.7196 272.594 55.7196 271.831 56.6818C270.928 57.8245 271.771 59.5285 273.116 59.8092C274.46 60.0899 275.604 58.8469 275.484 57.5438C275.364 56.1606 273.959 55.3587 272.654 55.7797C271.329 56.2207 270.747 57.7644 271.43 58.9672C272.273 60.4307 274.521 60.2302 275.083 58.6264C275.645 57.0427 273.778 55.6193 272.353 56.4212C271.35 57.0026 272.253 58.5663 273.256 57.9849C273.216 58.0049 273.357 58.0049 273.236 57.9849C273.236 57.9849 273.296 58.0049 273.316 58.025C273.336 58.045 273.397 58.1052 273.377 58.0851C273.336 58.025 273.397 58.045 273.377 58.0851C273.316 58.2054 273.397 58.045 273.377 58.0651C273.437 58.025 273.296 58.1252 273.296 58.1252C273.256 58.1453 273.035 58.2054 273.136 58.1653C273.156 58.1653 272.995 58.1252 273.096 58.1653C272.995 58.1052 272.935 58.0049 272.915 57.8646C272.895 57.7243 272.935 57.624 272.995 57.5639C273.116 57.4436 273.417 57.4035 273.577 57.5038C273.617 57.5238 273.638 57.604 273.658 57.6441C273.658 57.7644 273.678 57.8245 273.577 57.9648C273.577 57.9648 273.497 58.045 273.537 58.025C273.457 58.0651 273.437 58.0651 273.517 58.045C273.377 58.0651 273.497 58.0651 273.417 58.025C273.357 58.0049 273.296 57.9648 273.236 57.8646C273.256 57.8847 273.216 57.7644 273.196 57.7644C273.136 57.624 273.236 57.8045 273.176 57.8045C273.216 57.8045 273.216 57.7042 273.136 57.8245C273.136 57.8245 273.256 57.7644 273.176 57.7844C273.096 57.8045 273.256 57.7644 273.276 57.7443C273.417 57.7243 273.156 57.7644 273.296 57.7443C273.336 57.7443 273.397 57.7443 273.437 57.7443C273.276 57.7443 273.537 57.7844 273.397 57.7243C273.517 57.7644 273.417 57.7644 273.417 57.7243C273.437 57.6842 273.477 57.8646 273.457 57.7644C273.457 57.7644 273.417 57.5839 273.437 57.5839C273.457 57.624 273.377 57.7243 273.417 57.6842C273.377 57.7243 273.316 57.7844 273.336 57.7644C273.336 57.7644 273.216 57.8245 273.276 57.7844C273.316 57.7644 273.196 57.7644 273.236 57.7844C273.256 57.8045 273.357 57.8446 273.377 57.8446C273.437 57.8646 273.276 57.7243 273.357 57.8446C273.316 57.7844 273.457 57.7243 273.377 57.7844C273.336 57.8245 273.276 57.8847 273.216 57.9047C273.156 57.9247 273.055 57.8646 273.136 57.9047C273.236 57.9648 273.136 57.9247 273.136 57.9047C273.136 57.8646 273.076 57.5639 273.076 57.8045C273.377 57.5038 273.678 57.203 273.979 56.9023C273.658 56.9023 273.357 56.9023 273.035 56.8823C273.316 57.1028 273.617 57.3233 273.898 57.5438C273.738 57.7644 273.577 58.0049 273.417 58.2255C273.256 58.1854 273.116 58.1453 272.955 58.1052C272.694 57.8847 272.654 57.604 272.855 57.2832C272.614 57.5439 272.674 57.5438 273.015 57.2231C273.116 57.203 273.176 57.203 273.276 57.2231C273.336 57.2832 273.336 57.2832 273.256 57.203C273.276 57.2231 273.296 57.2632 273.316 57.2832C273.296 57.4837 273.357 57.6441 273.136 57.7844C273.076 57.8245 272.915 57.8245 273.076 57.8045C272.975 57.8245 273.076 57.8446 273.116 57.8446C273.055 57.8446 273.035 57.7443 273.035 57.7042C273.055 57.9448 273.035 57.6641 273.056 57.6441C273.076 57.5839 273.076 57.604 273.015 57.7042C273.055 57.6441 273.035 57.6441 272.975 57.7243C273.055 57.6641 272.855 57.7243 272.955 57.7243C272.855 57.7443 272.835 57.7644 272.915 57.7443C272.795 57.7443 272.795 57.7443 272.895 57.7443C272.915 57.7644 272.995 57.8245 273.015 57.8245C273.035 57.9047 273.035 57.9047 273.015 57.8045C273.015 57.8245 273.015 57.8446 273.015 57.8646C273.015 57.7644 273.015 57.7443 273.015 57.8446C273.035 57.7844 273.035 57.7243 273.076 57.6641C273.035 57.8045 273.176 57.5639 273.076 57.6842C272.995 57.7243 273.015 57.7243 273.096 57.6641C273.055 57.6842 273.015 57.7042 272.975 57.7042C273.457 57.6641 273.878 57.3233 273.878 56.8021C274.039 56.4212 273.617 55.9401 273.136 55.9802Z" fill="#191A35"/>
<path d="M314.842 213.752C313.356 213.812 312.574 215.296 312.895 216.659C313.256 218.263 315.022 218.804 316.387 218.082C317.932 217.261 318.575 215.236 317.672 213.712C316.808 212.249 314.5 212.008 313.678 213.652C313.156 214.695 314.701 215.597 315.243 214.554C315.564 213.933 316.166 214.554 316.267 215.015C316.387 215.617 316.046 216.258 315.504 216.519C314.46 217.02 314.541 215.597 314.862 215.577C316.006 215.516 316.006 213.712 314.842 213.752Z" fill="#191A35"/>
<path d="M111.39 220.688C109.724 221.19 109.263 223.635 110.848 224.537C112.434 225.42 114.561 223.876 113.899 222.092C113.578 221.23 112.735 220.588 111.812 220.628C110.989 220.668 110.326 221.27 110.126 222.052C109.945 222.773 110.126 223.595 110.688 224.096C111.39 224.718 112.414 224.618 113.096 224.036C113.799 223.435 114.16 222.252 113.538 221.47C112.795 220.528 111.029 221.25 111.189 222.453C111.25 222.934 111.551 223.355 112.093 223.355C112.534 223.355 113.056 222.934 112.996 222.453C112.956 222.192 112.935 222.693 112.775 222.773C112.695 222.813 112.474 222.874 112.374 222.813C112.273 222.713 112.153 222.593 112.052 222.493C112.012 222.412 112.032 222.593 112.052 222.473C112.093 222.312 112.012 222.593 112.012 222.593C112.052 222.473 111.912 222.673 111.992 222.593C111.972 222.613 111.791 222.753 111.892 222.693C111.832 222.733 111.832 222.773 111.771 222.733C111.812 222.753 111.852 222.713 111.912 222.733C111.872 222.713 111.912 222.753 111.892 222.733C111.852 222.673 111.912 222.833 111.872 222.693C111.912 222.894 111.852 222.653 111.852 222.613C111.852 222.813 111.852 222.553 111.852 222.533C111.852 222.713 111.852 222.513 111.872 222.453C111.912 222.372 111.912 222.352 111.892 222.412C111.872 222.473 111.872 222.453 111.912 222.372C111.892 222.392 111.872 222.412 111.872 222.432C111.952 222.352 111.952 222.352 111.872 222.432C111.972 222.392 111.952 222.412 111.872 222.432C111.771 222.453 111.932 222.432 111.932 222.432C111.932 222.432 112.032 222.473 112.052 222.493C112.173 222.593 112.213 222.653 112.233 222.773C112.213 222.673 112.213 222.934 112.213 222.813C112.213 222.713 112.153 222.874 112.213 222.813C112.133 222.894 112.093 222.934 111.992 222.954C111.832 222.994 112.012 222.954 111.912 222.974C111.872 222.974 111.812 222.974 111.771 222.974C111.852 222.994 111.852 222.994 111.791 222.974C111.691 222.954 111.852 223.014 111.711 222.954C111.832 222.994 111.631 222.874 111.711 222.974C111.611 222.833 111.691 223.014 111.651 222.853C111.691 222.994 111.651 222.773 111.651 222.733C111.651 222.874 111.671 222.633 111.691 222.613C111.651 222.753 111.751 222.513 111.751 222.493C111.691 222.613 111.791 222.412 111.751 222.473C111.771 222.453 111.751 222.453 111.852 222.432C112.976 222.092 112.494 220.348 111.39 220.688Z" fill="#191A35"/>
<path d="M106.714 259.44C104.988 259.961 103.964 261.745 104.225 263.509C104.486 265.294 106.152 266.376 107.898 266.196C109.664 266.015 111.169 264.612 111.049 262.768C110.929 260.883 109.283 259.3 107.396 259.34C106.232 259.36 106.232 261.164 107.396 261.144C108.319 261.124 109.122 261.866 109.243 262.768C109.363 263.71 108.56 264.331 107.697 264.412C105.67 264.592 105.429 261.725 107.195 261.184C108.299 260.843 107.818 259.099 106.714 259.44Z" fill="#191A35"/>
<path d="M346.492 101.588C348.439 100.585 350.366 103.352 348.359 104.655C346.492 105.878 344.766 103.292 346.151 101.828C346.954 100.986 345.669 99.7034 344.867 100.545C343.622 101.869 343.522 103.933 344.586 105.397C345.73 107.001 347.897 107.181 349.463 106.058C351.028 104.936 351.59 102.811 350.426 101.187C349.322 99.6633 347.235 99.1421 345.569 100.004C344.546 100.565 345.449 102.109 346.492 101.588Z" fill="#191A35"/>
</g>
</g>
<defs>
<clipPath id="clip0_1_1957">
<rect width="379.355" height="280" fill="white"/>
</clipPath>
<clipPath id="clip1_1_1957">
<rect width="346.171" height="280" fill="white" transform="translate(17 -12)"/>
</clipPath>
</defs>
</svg>
