<svg width="540" height="451" viewBox="0 0 540 451" fill="none" xmlns="http://www.w3.org/2000/svg">
<g filter="url(#filter0_d)">
<g clip-path="url(#clip0)">
<rect x="24" y="60.6777" width="230" height="150" rx="5" fill="#FAFAFB"/>
<g opacity="0.5">
<rect x="36.0527" y="83.0282" width="27.0276" height="6.72219" rx="3.3611" fill="#DCDCE0"/>
<rect x="36.0527" y="111.219" width="102.947" height="8.71414" rx="4.35707" fill="#DCDCE0"/>
<rect x="36.0527" y="144.771" width="102.947" height="3.56588" rx="1.78294" fill="#DCDCE0"/>
<rect x="36.0527" y="125.834" width="62.6006" height="8.71414" rx="4.35707" fill="#DCDCE0"/>
<rect x="160.521" y="111.219" width="80.3992" height="56.1139" rx="5" fill="#DCDCE0"/>
<rect x="36.0527" y="154.269" width="102.947" height="3.56588" rx="1.78294" fill="#DCDCE0"/>
<rect x="36.0527" y="186.261" width="102.947" height="3.56588" rx="1.78294" fill="#DCDCE0"/>
<rect x="36.0527" y="163.767" width="102.947" height="3.56588" rx="1.78294" fill="#DCDCE0"/>
<rect x="160.521" y="179.197" width="80.3992" height="3.56588" rx="1.78294" fill="#DCDCE0"/>
<rect x="36.0527" y="195.759" width="82.4015" height="3.56588" rx="1.78294" fill="#DCDCE0"/>
<rect x="36.0527" y="173.265" width="52.0972" height="3.56588" rx="1.78294" fill="#DCDCE0"/>
<rect x="160.521" y="188.695" width="40.6866" height="3.56588" rx="1.78294" fill="#DCDCE0"/>
<rect x="94.8193" y="173.265" width="11.3968" height="3.56588" rx="1.78294" fill="#DCDCE0"/>
<rect x="206.417" y="188.695" width="8.90061" height="3.56588" rx="1.78294" fill="#DCDCE0"/>
<rect x="139" y="83.0282" width="15.8333" height="6.72219" rx="3.3611" fill="#DCDCE0"/>
<rect x="160.521" y="83.0282" width="15.8333" height="6.72219" rx="3.3611" fill="#DCDCE0"/>
<rect x="182.044" y="83.0282" width="15.8333" height="6.72219" rx="3.3611" fill="#DCDCE0"/>
<rect x="203.565" y="83.0282" width="15.8333" height="6.72219" rx="3.3611" fill="#DCDCE0"/>
<rect x="225.088" y="83.0282" width="15.8333" height="6.72219" rx="3.3611" fill="#DCDCE0"/>
</g>
<g filter="url(#filter1_d)">
<path d="M165.532 130.958C165.532 133.719 163.293 135.958 160.532 135.958H39.7008C36.9394 135.958 34.7008 133.719 34.7008 130.958V85.9825C34.7008 83.2211 36.9393 80.9825 39.7008 80.9825H48.5655L54.8005 75.4741L60.9862 80.9825H160.532C163.293 80.9825 165.532 83.2211 165.532 85.9825V130.958Z" fill="white"/>
<path d="M48.5655 81.9825H48.9439L49.2276 81.7319L54.7979 76.8108L60.3211 81.7293L60.6055 81.9825H60.9862H160.532C162.741 81.9825 164.532 83.7733 164.532 85.9825V130.958C164.532 133.167 162.741 134.958 160.532 134.958H39.7008C37.4916 134.958 35.7008 133.167 35.7008 130.958V85.9825C35.7008 83.7733 37.4916 81.9825 39.7008 81.9825H48.5655Z" stroke="#FFD37D" stroke-width="2"/>
</g>
<path d="M44.9146 95.4484C44.9146 94.2291 45.9065 93.2406 47.1302 93.2406H58.2085C59.4322 93.2406 60.4242 94.2291 60.4242 95.4484V106.487C60.4242 107.707 59.4322 108.695 58.2085 108.695H47.1302C45.9065 108.695 44.9146 107.707 44.9146 106.487V95.4484Z" fill="#BABAC2"/>
<rect x="70.3521" y="94.4359" width="84.4814" height="3.56588" rx="1.78294" fill="#BABAC2"/>
<rect x="70.3521" y="103.934" width="42.7525" height="3.56588" rx="1.78294" fill="#BABAC2"/>
<rect x="70.3521" y="115.92" width="24.8879" height="10.6363" rx="5.31817" fill="#E2E2E6"/>
<rect x="98.3667" y="115.92" width="24.8879" height="10.6363" rx="5.31817" fill="#3B43FF"/>
<path d="M108.471 122.037L110.096 123.548L113.493 119.311" stroke="white" stroke-width="2" stroke-miterlimit="10" stroke-linecap="round" stroke-linejoin="round"/>
<rect x="118.578" y="103.934" width="9.35253" height="3.56588" rx="1.78294" fill="#BABAC2"/>
<rect width="230" height="12" transform="translate(24 62)" fill="white"/>
<path opacity="0.5" fill-rule="evenodd" clip-rule="evenodd" d="M254 74.474H23.5869V74.0704H254V74.474Z" fill="#BABAC2"/>
<path d="M33.6254 70.0426C33.7307 69.9373 33.7202 69.7793 33.6254 69.674L32.3513 68.4631H35.3839C35.5208 68.4631 35.6366 68.3578 35.6366 68.2104V67.8735C35.6366 67.7366 35.5208 67.6208 35.3839 67.6208H32.3513L33.6254 66.4204C33.7202 66.3151 33.7307 66.1572 33.6254 66.0519L33.3938 65.8202C33.299 65.7255 33.1305 65.7255 33.0358 65.8202L30.993 67.8735C30.8877 67.9683 30.8877 68.1262 30.993 68.221L33.0358 70.2742C33.1305 70.369 33.2885 70.369 33.3938 70.2742L33.6254 70.0426Z" fill="#D9D9DF"/>
<path d="M43.7018 66.0519C43.5965 66.1572 43.607 66.3151 43.7018 66.4204L44.9759 67.6208H41.9539C41.8065 67.6208 41.7012 67.7366 41.7012 67.8735V68.2104C41.7012 68.3578 41.8065 68.4631 41.9539 68.4631H44.9759L43.7018 69.674C43.607 69.7793 43.607 69.9373 43.7018 70.0426L43.9334 70.2742C44.0387 70.369 44.1967 70.369 44.2914 70.2742L46.3447 68.221C46.4395 68.1262 46.4395 67.9683 46.3447 67.863L44.2914 65.8202C44.1967 65.7255 44.0387 65.7255 43.9334 65.8202L43.7018 66.0519Z" fill="#D9D9DF"/>
<path d="M57.7485 65.3466H57.2431C57.1799 65.3466 57.1167 65.4097 57.1167 65.4729C57.1167 65.4834 57.1167 65.4834 57.1167 65.4834L57.1588 66.3574C56.685 65.7888 55.969 65.4308 55.1793 65.4308C53.7367 65.4308 52.5574 66.6101 52.5679 68.0527C52.5679 69.4952 53.7367 70.6535 55.1793 70.6535C55.8532 70.6535 56.4639 70.4008 56.9272 69.9901C56.9482 69.9585 56.9693 69.9269 56.9693 69.8953C56.9693 69.8532 56.9482 69.8216 56.9272 69.8006L56.5692 69.4426C56.5481 69.4215 56.5165 69.411 56.4849 69.411C56.4534 69.411 56.4218 69.4215 56.4007 69.4426C56.0743 69.7269 55.6426 69.8953 55.1793 69.8953C54.1474 69.8953 53.3261 69.074 53.3261 68.0421C53.3261 67.0208 54.1474 66.1889 55.1793 66.1889C55.8111 66.1889 56.3796 66.5153 56.7166 67.0102L55.6426 66.9576C55.6426 66.9576 55.6426 66.9576 55.632 66.9576C55.5689 66.9576 55.5057 67.0208 55.5057 67.0839H55.5162V67.5894C55.5162 67.6525 55.5689 67.7157 55.6426 67.7157H57.7485C57.8117 67.7157 57.8748 67.6525 57.8748 67.5894V65.4729C57.8748 65.4097 57.8117 65.3466 57.7485 65.3466Z" fill="#D9D9DF"/>
<path d="M245.302 67.2723C244.911 67.2723 244.607 67.5908 244.607 67.9672C244.607 68.3581 244.911 68.6621 245.302 68.6621C245.678 68.6621 245.997 68.3581 245.997 67.9672C245.997 67.5908 245.678 67.2723 245.302 67.2723ZM244.607 65.7666C244.607 66.1575 244.911 66.4615 245.302 66.4615C245.678 66.4615 245.997 66.1575 245.997 65.7666C245.997 65.3902 245.678 65.0717 245.302 65.0717C244.911 65.0717 244.607 65.3902 244.607 65.7666ZM244.607 70.1678C244.607 70.5587 244.911 70.8628 245.302 70.8628C245.678 70.8628 245.997 70.5587 245.997 70.1678C245.997 69.7914 245.678 69.4729 245.302 69.4729C244.911 69.4729 244.607 69.7914 244.607 70.1678Z" fill="#D9D9DF"/>
<path fill-rule="evenodd" clip-rule="evenodd" d="M65.0962 68.0176C65.0962 66.9033 65.9108 66 66.9157 66H235.038C236.043 66 236.857 66.9033 236.857 68.0176C236.857 69.1319 236.043 70.0353 235.038 70.0353H66.9157C65.9108 70.0353 65.0962 69.1319 65.0962 68.0176Z" fill="#D9D9DF"/>
</g>
<rect x="24" y="60.6777" width="230" height="150" rx="5" stroke="#BABAC2" stroke-width="2" stroke-miterlimit="10" stroke-linecap="round" stroke-linejoin="round"/>
</g>
<g filter="url(#filter2_d)">
<g clip-path="url(#clip1)">
<rect x="24" y="240.678" width="230" height="150" rx="5" fill="#FAFAFB"/>
<g opacity="0.5">
<rect x="36.0527" y="263.028" width="27.0276" height="6.72219" rx="3.3611" fill="#DCDCE0"/>
<rect x="36.0527" y="291.219" width="102.947" height="8.71414" rx="4.35707" fill="#DCDCE0"/>
<rect x="36.0527" y="324.771" width="102.947" height="3.56588" rx="1.78294" fill="#DCDCE0"/>
<rect x="36.0527" y="305.834" width="62.6006" height="8.71414" rx="4.35707" fill="#DCDCE0"/>
<rect x="160.521" y="291.219" width="80.3992" height="56.1139" rx="5" fill="#DCDCE0"/>
<rect x="36.0527" y="334.269" width="102.947" height="3.56588" rx="1.78294" fill="#DCDCE0"/>
<rect x="36.0527" y="366.261" width="102.947" height="3.56588" rx="1.78294" fill="#DCDCE0"/>
<rect x="36.0527" y="343.767" width="102.947" height="3.56588" rx="1.78294" fill="#DCDCE0"/>
<rect x="160.521" y="359.197" width="80.3992" height="3.56588" rx="1.78294" fill="#DCDCE0"/>
<rect x="36.0527" y="375.759" width="82.4015" height="3.56588" rx="1.78294" fill="#DCDCE0"/>
<rect x="36.0527" y="353.265" width="52.0972" height="3.56588" rx="1.78294" fill="#DCDCE0"/>
<rect x="160.521" y="368.695" width="40.6866" height="3.56588" rx="1.78294" fill="#DCDCE0"/>
<rect x="94.8193" y="353.265" width="11.3968" height="3.56588" rx="1.78294" fill="#DCDCE0"/>
<rect x="206.417" y="368.695" width="8.90061" height="3.56588" rx="1.78294" fill="#DCDCE0"/>
<rect x="139" y="263.028" width="15.8333" height="6.72219" rx="3.3611" fill="#DCDCE0"/>
<rect x="167.521" y="263.028" width="15.8333" height="6.72219" rx="3.3611" fill="#DCDCE0"/>
<rect x="189.044" y="263.028" width="15.8333" height="6.72219" rx="3.3611" fill="#DCDCE0"/>
<rect x="210.565" y="263.028" width="15.8333" height="6.72219" rx="3.3611" fill="#DCDCE0"/>
<rect x="232.088" y="263.028" width="15.8333" height="6.72219" rx="3.3611" fill="#DCDCE0"/>
</g>
<g filter="url(#filter3_d)">
<rect x="25" y="254" width="228" height="23" fill="white"/>
<rect x="43.5742" y="263.509" width="76.9689" height="3.56588" rx="1.78294" fill="#BABAC2"/>
<rect x="130.396" y="263.509" width="16.8377" height="3.56588" rx="1.78294" fill="#BABAC2"/>
<rect x="175.149" y="259.92" width="24.8879" height="10.6363" rx="5.31817" fill="#E2E2E6"/>
<rect x="203.164" y="259.92" width="24.8879" height="10.6363" rx="5.31817" fill="#3B43FF"/>
<path d="M213.268 266.037L214.892 267.548L218.29 263.311" stroke="white" stroke-width="2" stroke-miterlimit="10" stroke-linecap="round" stroke-linejoin="round"/>
<path d="M242.563 265.516L244.07 264.009C244.265 263.828 244.265 263.527 244.07 263.346L243.738 263.015C243.557 262.819 243.256 262.819 243.075 263.015L241.568 264.522L240.047 263.015C239.866 262.819 239.564 262.819 239.384 263.015L239.052 263.346C238.856 263.527 238.856 263.828 239.052 264.009L240.559 265.516L239.052 267.038C238.856 267.219 238.856 267.52 239.052 267.701L239.384 268.032C239.564 268.228 239.866 268.228 240.047 268.032L241.568 266.525L243.075 268.032C243.256 268.228 243.557 268.228 243.738 268.032L244.07 267.701C244.265 267.52 244.265 267.219 244.07 267.038L242.563 265.516Z" fill="#BABAC2"/>
<rect x="26" y="255" width="226" height="21" stroke="#FFD37D" stroke-width="2"/>
</g>
<rect width="230" height="12" transform="translate(24 242)" fill="white"/>
<path opacity="0.5" fill-rule="evenodd" clip-rule="evenodd" d="M254 254.474H23.5869V254.07H254V254.474Z" fill="#BABAC2"/>
<path d="M33.6254 250.043C33.7307 249.937 33.7202 249.779 33.6254 249.674L32.3513 248.463H35.3839C35.5208 248.463 35.6366 248.358 35.6366 248.21V247.873C35.6366 247.737 35.5208 247.621 35.3839 247.621H32.3513L33.6254 246.42C33.7202 246.315 33.7307 246.157 33.6254 246.052L33.3938 245.82C33.299 245.725 33.1305 245.725 33.0358 245.82L30.993 247.873C30.8877 247.968 30.8877 248.126 30.993 248.221L33.0358 250.274C33.1305 250.369 33.2885 250.369 33.3938 250.274L33.6254 250.043Z" fill="#D9D9DF"/>
<path d="M43.7018 246.052C43.5965 246.157 43.607 246.315 43.7018 246.42L44.9759 247.621H41.9539C41.8065 247.621 41.7012 247.737 41.7012 247.873V248.21C41.7012 248.358 41.8065 248.463 41.9539 248.463H44.9759L43.7018 249.674C43.607 249.779 43.607 249.937 43.7018 250.043L43.9334 250.274C44.0387 250.369 44.1967 250.369 44.2914 250.274L46.3447 248.221C46.4395 248.126 46.4395 247.968 46.3447 247.863L44.2914 245.82C44.1967 245.725 44.0387 245.725 43.9334 245.82L43.7018 246.052Z" fill="#D9D9DF"/>
<path d="M57.7485 245.347H57.2431C57.1799 245.347 57.1167 245.41 57.1167 245.473C57.1167 245.483 57.1167 245.483 57.1167 245.483L57.1588 246.357C56.685 245.789 55.969 245.431 55.1793 245.431C53.7367 245.431 52.5574 246.61 52.5679 248.053C52.5679 249.495 53.7367 250.653 55.1793 250.653C55.8532 250.653 56.4639 250.401 56.9272 249.99C56.9482 249.959 56.9693 249.927 56.9693 249.895C56.9693 249.853 56.9482 249.822 56.9272 249.801L56.5692 249.443C56.5481 249.422 56.5165 249.411 56.4849 249.411C56.4534 249.411 56.4218 249.422 56.4007 249.443C56.0743 249.727 55.6426 249.895 55.1793 249.895C54.1474 249.895 53.3261 249.074 53.3261 248.042C53.3261 247.021 54.1474 246.189 55.1793 246.189C55.8111 246.189 56.3796 246.515 56.7166 247.01L55.6426 246.958C55.6426 246.958 55.6426 246.958 55.632 246.958C55.5689 246.958 55.5057 247.021 55.5057 247.084H55.5162V247.589C55.5162 247.653 55.5689 247.716 55.6426 247.716H57.7485C57.8117 247.716 57.8748 247.653 57.8748 247.589V245.473C57.8748 245.41 57.8117 245.347 57.7485 245.347Z" fill="#D9D9DF"/>
<path d="M245.302 247.272C244.911 247.272 244.607 247.591 244.607 247.967C244.607 248.358 244.911 248.662 245.302 248.662C245.678 248.662 245.997 248.358 245.997 247.967C245.997 247.591 245.678 247.272 245.302 247.272ZM244.607 245.767C244.607 246.157 244.911 246.462 245.302 246.462C245.678 246.462 245.997 246.157 245.997 245.767C245.997 245.39 245.678 245.072 245.302 245.072C244.911 245.072 244.607 245.39 244.607 245.767ZM244.607 250.168C244.607 250.559 244.911 250.863 245.302 250.863C245.678 250.863 245.997 250.559 245.997 250.168C245.997 249.791 245.678 249.473 245.302 249.473C244.911 249.473 244.607 249.791 244.607 250.168Z" fill="#D9D9DF"/>
<path fill-rule="evenodd" clip-rule="evenodd" d="M65.0962 248.018C65.0962 246.903 65.9108 246 66.9157 246H235.038C236.043 246 236.857 246.903 236.857 248.018C236.857 249.132 236.043 250.035 235.038 250.035H66.9157C65.9108 250.035 65.0962 249.132 65.0962 248.018Z" fill="#D9D9DF"/>
</g>
<rect x="24" y="240.678" width="230" height="150" rx="5" stroke="#BABAC2" stroke-width="2" stroke-miterlimit="10" stroke-linecap="round" stroke-linejoin="round"/>
</g>
<g filter="url(#filter4_d)">
<g clip-path="url(#clip2)">
<rect x="286" y="60.6777" width="230" height="150" rx="5" fill="#FAFAFB"/>
<g opacity="0.5">
<rect x="298.053" y="83.0282" width="27.0276" height="6.72219" rx="3.3611" fill="#DCDCE0"/>
<rect x="298.053" y="111.219" width="102.947" height="8.71414" rx="4.35707" fill="#DCDCE0"/>
<rect x="298.053" y="144.771" width="102.947" height="3.56588" rx="1.78294" fill="#DCDCE0"/>
<rect x="298.053" y="125.834" width="62.6006" height="8.71414" rx="4.35707" fill="#DCDCE0"/>
<rect x="422.521" y="111.219" width="80.3992" height="56.1139" rx="5" fill="#DCDCE0"/>
<rect x="298.053" y="154.269" width="102.947" height="3.56588" rx="1.78294" fill="#DCDCE0"/>
<rect x="298.053" y="186.261" width="102.947" height="3.56588" rx="1.78294" fill="#DCDCE0"/>
<rect x="298.053" y="163.767" width="102.947" height="3.56588" rx="1.78294" fill="#DCDCE0"/>
<rect x="422.521" y="179.197" width="80.3992" height="3.56588" rx="1.78294" fill="#DCDCE0"/>
<rect x="298.053" y="195.759" width="82.4015" height="3.56588" rx="1.78294" fill="#DCDCE0"/>
<rect x="298.053" y="173.265" width="52.0972" height="3.56588" rx="1.78294" fill="#DCDCE0"/>
<rect x="422.521" y="188.695" width="40.6866" height="3.56588" rx="1.78294" fill="#DCDCE0"/>
<rect x="356.819" y="173.265" width="11.3968" height="3.56588" rx="1.78294" fill="#DCDCE0"/>
<rect x="468.417" y="188.695" width="8.90061" height="3.56588" rx="1.78294" fill="#DCDCE0"/>
<rect x="401" y="83.0282" width="15.8333" height="6.72219" rx="3.3611" fill="#DCDCE0"/>
<rect x="422.521" y="83.0282" width="15.8333" height="6.72219" rx="3.3611" fill="#DCDCE0"/>
<rect x="444.044" y="83.0282" width="15.8333" height="6.72219" rx="3.3611" fill="#DCDCE0"/>
<rect x="465.565" y="83.0282" width="15.8333" height="6.72219" rx="3.3611" fill="#DCDCE0"/>
<rect x="487.088" y="83.0282" width="15.8333" height="6.72219" rx="3.3611" fill="#DCDCE0"/>
</g>
<g filter="url(#filter5_d)">
<rect x="334" y="94" width="134" height="83" rx="5" fill="white"/>
<path d="M457.904 105.516L459.411 104.009C459.607 103.828 459.607 103.527 459.411 103.346L459.079 103.015C458.899 102.819 458.597 102.819 458.416 103.015L456.91 104.522L455.388 103.015C455.207 102.819 454.906 102.819 454.725 103.015L454.393 103.346C454.198 103.527 454.198 103.828 454.393 104.009L455.9 105.516L454.393 107.038C454.198 107.219 454.198 107.52 454.393 107.701L454.725 108.032C454.906 108.228 455.207 108.228 455.388 108.032L456.91 106.525L458.416 108.032C458.597 108.228 458.899 108.228 459.079 108.032L459.411 107.701C459.607 107.52 459.607 107.219 459.411 107.038L457.904 105.516Z" fill="#BABAC2"/>
<rect x="358.759" y="118.801" width="84.4814" height="3.56588" rx="1.78294" fill="#BABAC2"/>
<rect x="372.211" y="128.299" width="42.7525" height="3.56588" rx="1.78294" fill="#BABAC2"/>
<rect x="420.437" y="128.299" width="9.35253" height="3.56588" rx="1.78294" fill="#BABAC2"/>
<rect x="374.549" y="143.738" width="24.8879" height="10.6363" rx="5.31817" fill="#E2E2E6"/>
<rect x="402.563" y="143.738" width="24.8879" height="10.6363" rx="5.31817" fill="#3B43FF"/>
<path d="M412.668 149.855L414.292 151.365L417.69 147.128" stroke="white" stroke-width="2" stroke-miterlimit="10" stroke-linecap="round" stroke-linejoin="round"/>
<rect x="335" y="95" width="132" height="81" rx="4" stroke="#FFD37D" stroke-width="2"/>
</g>
<rect width="230" height="12" transform="translate(286 62)" fill="white"/>
<path opacity="0.5" fill-rule="evenodd" clip-rule="evenodd" d="M516 74.474H285.587V74.0704H516V74.474Z" fill="#BABAC2"/>
<path d="M295.625 70.0426C295.731 69.9373 295.72 69.7793 295.625 69.674L294.351 68.4631H297.384C297.521 68.4631 297.637 68.3578 297.637 68.2104V67.8735C297.637 67.7366 297.521 67.6208 297.384 67.6208H294.351L295.625 66.4204C295.72 66.3151 295.731 66.1572 295.625 66.0519L295.394 65.8202C295.299 65.7255 295.131 65.7255 295.036 65.8202L292.993 67.8735C292.888 67.9683 292.888 68.1262 292.993 68.221L295.036 70.2742C295.131 70.369 295.288 70.369 295.394 70.2742L295.625 70.0426Z" fill="#D9D9DF"/>
<path d="M305.702 66.0519C305.596 66.1572 305.607 66.3151 305.702 66.4204L306.976 67.6208H303.954C303.806 67.6208 303.701 67.7366 303.701 67.8735V68.2104C303.701 68.3578 303.806 68.4631 303.954 68.4631H306.976L305.702 69.674C305.607 69.7793 305.607 69.9373 305.702 70.0426L305.933 70.2742C306.039 70.369 306.197 70.369 306.291 70.2742L308.345 68.221C308.439 68.1262 308.439 67.9683 308.345 67.863L306.291 65.8202C306.197 65.7255 306.039 65.7255 305.933 65.8202L305.702 66.0519Z" fill="#D9D9DF"/>
<path d="M319.748 65.3466H319.243C319.18 65.3466 319.117 65.4097 319.117 65.4729C319.117 65.4834 319.117 65.4834 319.117 65.4834L319.159 66.3574C318.685 65.7888 317.969 65.4308 317.179 65.4308C315.737 65.4308 314.557 66.6101 314.568 68.0527C314.568 69.4952 315.737 70.6535 317.179 70.6535C317.853 70.6535 318.464 70.4008 318.927 69.9901C318.948 69.9585 318.969 69.9269 318.969 69.8953C318.969 69.8532 318.948 69.8216 318.927 69.8006L318.569 69.4426C318.548 69.4215 318.517 69.411 318.485 69.411C318.453 69.411 318.422 69.4215 318.401 69.4426C318.074 69.7269 317.643 69.8953 317.179 69.8953C316.147 69.8953 315.326 69.074 315.326 68.0421C315.326 67.0208 316.147 66.1889 317.179 66.1889C317.811 66.1889 318.38 66.5153 318.717 67.0102L317.643 66.9576C317.643 66.9576 317.643 66.9576 317.632 66.9576C317.569 66.9576 317.506 67.0208 317.506 67.0839H317.516V67.5894C317.516 67.6525 317.569 67.7157 317.643 67.7157H319.748C319.812 67.7157 319.875 67.6525 319.875 67.5894V65.4729C319.875 65.4097 319.812 65.3466 319.748 65.3466Z" fill="#D9D9DF"/>
<path d="M507.302 67.2723C506.911 67.2723 506.607 67.5908 506.607 67.9672C506.607 68.3581 506.911 68.6621 507.302 68.6621C507.678 68.6621 507.997 68.3581 507.997 67.9672C507.997 67.5908 507.678 67.2723 507.302 67.2723ZM506.607 65.7666C506.607 66.1575 506.911 66.4615 507.302 66.4615C507.678 66.4615 507.997 66.1575 507.997 65.7666C507.997 65.3902 507.678 65.0717 507.302 65.0717C506.911 65.0717 506.607 65.3902 506.607 65.7666ZM506.607 70.1678C506.607 70.5587 506.911 70.8628 507.302 70.8628C507.678 70.8628 507.997 70.5587 507.997 70.1678C507.997 69.7914 507.678 69.4729 507.302 69.4729C506.911 69.4729 506.607 69.7914 506.607 70.1678Z" fill="#D9D9DF"/>
<path fill-rule="evenodd" clip-rule="evenodd" d="M327.096 68.0176C327.096 66.9033 327.911 66 328.916 66H497.038C498.043 66 498.857 66.9033 498.857 68.0176C498.857 69.1319 498.043 70.0353 497.038 70.0353H328.916C327.911 70.0353 327.096 69.1319 327.096 68.0176Z" fill="#D9D9DF"/>
</g>
<rect x="286" y="60.6777" width="230" height="150" rx="5" stroke="#BABAC2" stroke-width="2" stroke-miterlimit="10" stroke-linecap="round" stroke-linejoin="round"/>
</g>
<g filter="url(#filter6_d)">
<g clip-path="url(#clip3)">
<rect x="286" y="240.678" width="230" height="150" rx="5" fill="#FAFAFB"/>
<g opacity="0.5">
<rect x="298.053" y="263.028" width="27.0276" height="6.72219" rx="3.3611" fill="#DCDCE0"/>
<rect x="298.053" y="291.219" width="102.947" height="8.71414" rx="4.35707" fill="#DCDCE0"/>
<rect x="298.053" y="324.771" width="102.947" height="3.56588" rx="1.78294" fill="#DCDCE0"/>
<rect x="298.053" y="305.834" width="62.6006" height="8.71414" rx="4.35707" fill="#DCDCE0"/>
<rect x="422.521" y="291.219" width="80.3992" height="56.1139" rx="5" fill="#DCDCE0"/>
<rect x="298.053" y="334.269" width="102.947" height="3.56588" rx="1.78294" fill="#DCDCE0"/>
<rect x="298.053" y="366.261" width="102.947" height="3.56588" rx="1.78294" fill="#DCDCE0"/>
<rect x="298.053" y="343.767" width="102.947" height="3.56588" rx="1.78294" fill="#DCDCE0"/>
<rect x="422.521" y="359.197" width="80.3992" height="3.56588" rx="1.78294" fill="#DCDCE0"/>
<rect x="298.053" y="375.759" width="82.4015" height="3.56588" rx="1.78294" fill="#DCDCE0"/>
<rect x="298.053" y="353.265" width="52.0972" height="3.56588" rx="1.78294" fill="#DCDCE0"/>
<rect x="422.521" y="368.695" width="40.6866" height="3.56588" rx="1.78294" fill="#DCDCE0"/>
<rect x="356.819" y="353.265" width="11.3968" height="3.56588" rx="1.78294" fill="#DCDCE0"/>
<rect x="468.417" y="368.695" width="8.90061" height="3.56588" rx="1.78294" fill="#DCDCE0"/>
<rect x="401" y="263.028" width="15.8333" height="6.72219" rx="3.3611" fill="#DCDCE0"/>
<rect x="422.521" y="263.028" width="15.8333" height="6.72219" rx="3.3611" fill="#DCDCE0"/>
<rect x="444.044" y="263.028" width="15.8333" height="6.72219" rx="3.3611" fill="#DCDCE0"/>
<rect x="465.565" y="263.028" width="15.8333" height="6.72219" rx="3.3611" fill="#DCDCE0"/>
<rect x="487.088" y="263.028" width="15.8333" height="6.72219" rx="3.3611" fill="#DCDCE0"/>
</g>
<g filter="url(#filter7_d)">
<rect x="427" y="299" width="80" height="55" rx="10" fill="white"/>
</g>
<g filter="url(#filter8_d)">
<path d="M426.857 304.191C426.857 301.43 429.096 299.191 431.857 299.191H502.256C505.018 299.191 507.256 301.43 507.256 304.191V349.166C507.256 351.928 505.018 354.166 502.256 354.166H493.392L487.156 359.675L480.971 354.166H431.857C429.096 354.166 426.857 351.928 426.857 349.166V304.191Z" fill="white"/>
<path d="M493.392 353.166H493.013L492.729 353.417L487.159 358.338L481.636 353.419L481.352 353.166H480.971H431.857C429.648 353.166 427.857 351.375 427.857 349.166V304.191C427.857 301.982 429.648 300.191 431.857 300.191H502.256C504.465 300.191 506.256 301.982 506.256 304.191V349.166C506.256 351.375 504.465 353.166 502.256 353.166H493.392Z" stroke="#FFD37D" stroke-width="2"/>
</g>
<rect x="438.354" y="312.65" width="57.6502" height="3.56588" rx="1.78294" fill="#BABAC2"/>
<rect x="438.354" y="322.148" width="29.6683" height="3.56588" rx="1.78294" fill="#BABAC2"/>
<rect x="438.164" y="332.92" width="24.8879" height="10.6363" rx="5.31817" fill="#3B43FF"/>
<path d="M448.268 339.037L449.892 340.548L453.29 336.311" stroke="white" stroke-width="2" stroke-miterlimit="10" stroke-linecap="round" stroke-linejoin="round"/>
<rect x="470.693" y="322.148" width="13.8024" height="3.56588" rx="1.78294" fill="#BABAC2"/>
<g filter="url(#filter9_d)">
<circle cx="486.581" cy="373.25" r="8.42326" fill="white"/>
<circle cx="486.581" cy="373.25" r="7.42326" stroke="#FFD37D" stroke-width="2"/>
</g>
<rect width="230" height="12" transform="translate(286 242)" fill="white"/>
<path opacity="0.5" fill-rule="evenodd" clip-rule="evenodd" d="M516 254.474H285.587V254.07H516V254.474Z" fill="#BABAC2"/>
<path d="M295.625 250.043C295.731 249.937 295.72 249.779 295.625 249.674L294.351 248.463H297.384C297.521 248.463 297.637 248.358 297.637 248.21V247.873C297.637 247.737 297.521 247.621 297.384 247.621H294.351L295.625 246.42C295.72 246.315 295.731 246.157 295.625 246.052L295.394 245.82C295.299 245.725 295.131 245.725 295.036 245.82L292.993 247.873C292.888 247.968 292.888 248.126 292.993 248.221L295.036 250.274C295.131 250.369 295.288 250.369 295.394 250.274L295.625 250.043Z" fill="#D9D9DF"/>
<path d="M305.702 246.052C305.596 246.157 305.607 246.315 305.702 246.42L306.976 247.621H303.954C303.806 247.621 303.701 247.737 303.701 247.873V248.21C303.701 248.358 303.806 248.463 303.954 248.463H306.976L305.702 249.674C305.607 249.779 305.607 249.937 305.702 250.043L305.933 250.274C306.039 250.369 306.197 250.369 306.291 250.274L308.345 248.221C308.439 248.126 308.439 247.968 308.345 247.863L306.291 245.82C306.197 245.725 306.039 245.725 305.933 245.82L305.702 246.052Z" fill="#D9D9DF"/>
<path d="M319.748 245.347H319.243C319.18 245.347 319.117 245.41 319.117 245.473C319.117 245.483 319.117 245.483 319.117 245.483L319.159 246.357C318.685 245.789 317.969 245.431 317.179 245.431C315.737 245.431 314.557 246.61 314.568 248.053C314.568 249.495 315.737 250.653 317.179 250.653C317.853 250.653 318.464 250.401 318.927 249.99C318.948 249.959 318.969 249.927 318.969 249.895C318.969 249.853 318.948 249.822 318.927 249.801L318.569 249.443C318.548 249.422 318.517 249.411 318.485 249.411C318.453 249.411 318.422 249.422 318.401 249.443C318.074 249.727 317.643 249.895 317.179 249.895C316.147 249.895 315.326 249.074 315.326 248.042C315.326 247.021 316.147 246.189 317.179 246.189C317.811 246.189 318.38 246.515 318.717 247.01L317.643 246.958C317.643 246.958 317.643 246.958 317.632 246.958C317.569 246.958 317.506 247.021 317.506 247.084H317.516V247.589C317.516 247.653 317.569 247.716 317.643 247.716H319.748C319.812 247.716 319.875 247.653 319.875 247.589V245.473C319.875 245.41 319.812 245.347 319.748 245.347Z" fill="#D9D9DF"/>
<path d="M507.302 247.272C506.911 247.272 506.607 247.591 506.607 247.967C506.607 248.358 506.911 248.662 507.302 248.662C507.678 248.662 507.997 248.358 507.997 247.967C507.997 247.591 507.678 247.272 507.302 247.272ZM506.607 245.767C506.607 246.157 506.911 246.462 507.302 246.462C507.678 246.462 507.997 246.157 507.997 245.767C507.997 245.39 507.678 245.072 507.302 245.072C506.911 245.072 506.607 245.39 506.607 245.767ZM506.607 250.168C506.607 250.559 506.911 250.863 507.302 250.863C507.678 250.863 507.997 250.559 507.997 250.168C507.997 249.791 507.678 249.473 507.302 249.473C506.911 249.473 506.607 249.791 506.607 250.168Z" fill="#D9D9DF"/>
<path fill-rule="evenodd" clip-rule="evenodd" d="M327.096 248.018C327.096 246.903 327.911 246 328.916 246H497.038C498.043 246 498.857 246.903 498.857 248.018C498.857 249.132 498.043 250.035 497.038 250.035H328.916C327.911 250.035 327.096 249.132 327.096 248.018Z" fill="#D9D9DF"/>
</g>
<rect x="286" y="240.678" width="230" height="150" rx="5" stroke="#BABAC2" stroke-width="2" stroke-miterlimit="10" stroke-linecap="round" stroke-linejoin="round"/>
</g>
<defs>
<filter id="filter0_d" x="23" y="59.6777" width="232" height="155" filterUnits="userSpaceOnUse" color-interpolation-filters="sRGB">
<feFlood flood-opacity="0" result="BackgroundImageFix"/>
<feColorMatrix in="SourceAlpha" type="matrix" values="0 0 0 0 0 0 0 0 0 0 0 0 0 0 0 0 0 0 127 0"/>
<feOffset dy="3"/>
<feColorMatrix type="matrix" values="0 0 0 0 0.188235 0 0 0 0 0.192157 0 0 0 0 0.286275 0 0 0 0.05 0"/>
<feBlend mode="normal" in2="BackgroundImageFix" result="effect1_dropShadow"/>
<feBlend mode="normal" in="SourceGraphic" in2="effect1_dropShadow" result="shape"/>
</filter>
<filter id="filter1_d" x="34.7007" y="75.4741" width="130.831" height="60.4834" filterUnits="userSpaceOnUse" color-interpolation-filters="sRGB">
<feFlood flood-opacity="0" result="BackgroundImageFix"/>
<feColorMatrix in="SourceAlpha" type="matrix" values="0 0 0 0 0 0 0 0 0 0 0 0 0 0 0 0 0 0 127 0"/>
<feOffset/>
<feColorMatrix type="matrix" values="0 0 0 0 1 0 0 0 0 0.827451 0 0 0 0 0.490196 0 0 0 0.1 0"/>
<feBlend mode="normal" in2="BackgroundImageFix" result="effect1_dropShadow"/>
<feBlend mode="normal" in="SourceGraphic" in2="effect1_dropShadow" result="shape"/>
</filter>
<filter id="filter2_d" x="23" y="239.678" width="232" height="155" filterUnits="userSpaceOnUse" color-interpolation-filters="sRGB">
<feFlood flood-opacity="0" result="BackgroundImageFix"/>
<feColorMatrix in="SourceAlpha" type="matrix" values="0 0 0 0 0 0 0 0 0 0 0 0 0 0 0 0 0 0 127 0"/>
<feOffset dy="3"/>
<feColorMatrix type="matrix" values="0 0 0 0 0.188235 0 0 0 0 0.192157 0 0 0 0 0.286275 0 0 0 0.05 0"/>
<feBlend mode="normal" in2="BackgroundImageFix" result="effect1_dropShadow"/>
<feBlend mode="normal" in="SourceGraphic" in2="effect1_dropShadow" result="shape"/>
</filter>
<filter id="filter3_d" x="19" y="248" width="240" height="35" filterUnits="userSpaceOnUse" color-interpolation-filters="sRGB">
<feFlood flood-opacity="0" result="BackgroundImageFix"/>
<feColorMatrix in="SourceAlpha" type="matrix" values="0 0 0 0 0 0 0 0 0 0 0 0 0 0 0 0 0 0 127 0"/>
<feMorphology radius="6" operator="dilate" in="SourceAlpha" result="effect1_dropShadow"/>
<feOffset/>
<feColorMatrix type="matrix" values="0 0 0 0 1 0 0 0 0 0.827451 0 0 0 0 0.490196 0 0 0 0.1 0"/>
<feBlend mode="normal" in2="BackgroundImageFix" result="effect1_dropShadow"/>
<feBlend mode="normal" in="SourceGraphic" in2="effect1_dropShadow" result="shape"/>
</filter>
<filter id="filter4_d" x="285" y="59.6777" width="232" height="155" filterUnits="userSpaceOnUse" color-interpolation-filters="sRGB">
<feFlood flood-opacity="0" result="BackgroundImageFix"/>
<feColorMatrix in="SourceAlpha" type="matrix" values="0 0 0 0 0 0 0 0 0 0 0 0 0 0 0 0 0 0 127 0"/>
<feOffset dy="3"/>
<feColorMatrix type="matrix" values="0 0 0 0 0.188235 0 0 0 0 0.192157 0 0 0 0 0.286275 0 0 0 0.05 0"/>
<feBlend mode="normal" in2="BackgroundImageFix" result="effect1_dropShadow"/>
<feBlend mode="normal" in="SourceGraphic" in2="effect1_dropShadow" result="shape"/>
</filter>
<filter id="filter5_d" x="328" y="88" width="146" height="95" filterUnits="userSpaceOnUse" color-interpolation-filters="sRGB">
<feFlood flood-opacity="0" result="BackgroundImageFix"/>
<feColorMatrix in="SourceAlpha" type="matrix" values="0 0 0 0 0 0 0 0 0 0 0 0 0 0 0 0 0 0 127 0"/>
<feMorphology radius="6" operator="dilate" in="SourceAlpha" result="effect1_dropShadow"/>
<feOffset/>
<feColorMatrix type="matrix" values="0 0 0 0 1 0 0 0 0 0.827451 0 0 0 0 0.490196 0 0 0 0.1 0"/>
<feBlend mode="normal" in2="BackgroundImageFix" result="effect1_dropShadow"/>
<feBlend mode="normal" in="SourceGraphic" in2="effect1_dropShadow" result="shape"/>
</filter>
<filter id="filter6_d" x="285" y="239.678" width="232" height="155" filterUnits="userSpaceOnUse" color-interpolation-filters="sRGB">
<feFlood flood-opacity="0" result="BackgroundImageFix"/>
<feColorMatrix in="SourceAlpha" type="matrix" values="0 0 0 0 0 0 0 0 0 0 0 0 0 0 0 0 0 0 127 0"/>
<feOffset dy="3"/>
<feColorMatrix type="matrix" values="0 0 0 0 0.188235 0 0 0 0 0.192157 0 0 0 0 0.286275 0 0 0 0.05 0"/>
<feBlend mode="normal" in2="BackgroundImageFix" result="effect1_dropShadow"/>
<feBlend mode="normal" in="SourceGraphic" in2="effect1_dropShadow" result="shape"/>
</filter>
<filter id="filter7_d" x="421" y="293" width="92" height="67" filterUnits="userSpaceOnUse" color-interpolation-filters="sRGB">
<feFlood flood-opacity="0" result="BackgroundImageFix"/>
<feColorMatrix in="SourceAlpha" type="matrix" values="0 0 0 0 0 0 0 0 0 0 0 0 0 0 0 0 0 0 127 0"/>
<feMorphology radius="6" operator="dilate" in="SourceAlpha" result="effect1_dropShadow"/>
<feOffset/>
<feColorMatrix type="matrix" values="0 0 0 0 1 0 0 0 0 0.827451 0 0 0 0 0.490196 0 0 0 0.1 0"/>
<feBlend mode="normal" in2="BackgroundImageFix" result="effect1_dropShadow"/>
<feBlend mode="normal" in="SourceGraphic" in2="effect1_dropShadow" result="shape"/>
</filter>
<filter id="filter8_d" x="426.857" y="299.191" width="80.3994" height="60.4834" filterUnits="userSpaceOnUse" color-interpolation-filters="sRGB">
<feFlood flood-opacity="0" result="BackgroundImageFix"/>
<feColorMatrix in="SourceAlpha" type="matrix" values="0 0 0 0 0 0 0 0 0 0 0 0 0 0 0 0 0 0 127 0"/>
<feOffset/>
<feColorMatrix type="matrix" values="0 0 0 0 1 0 0 0 0 0.827451 0 0 0 0 0.490196 0 0 0 0.1 0"/>
<feBlend mode="normal" in2="BackgroundImageFix" result="effect1_dropShadow"/>
<feBlend mode="normal" in="SourceGraphic" in2="effect1_dropShadow" result="shape"/>
</filter>
<filter id="filter9_d" x="472.158" y="358.827" width="28.8465" height="28.8465" filterUnits="userSpaceOnUse" color-interpolation-filters="sRGB">
<feFlood flood-opacity="0" result="BackgroundImageFix"/>
<feColorMatrix in="SourceAlpha" type="matrix" values="0 0 0 0 0 0 0 0 0 0 0 0 0 0 0 0 0 0 127 0"/>
<feMorphology radius="6" operator="dilate" in="SourceAlpha" result="effect1_dropShadow"/>
<feOffset/>
<feColorMatrix type="matrix" values="0 0 0 0 1 0 0 0 0 0.827451 0 0 0 0 0.490196 0 0 0 0.1 0"/>
<feBlend mode="normal" in2="BackgroundImageFix" result="effect1_dropShadow"/>
<feBlend mode="normal" in="SourceGraphic" in2="effect1_dropShadow" result="shape"/>
</filter>
<clipPath id="clip0">
<rect x="24" y="60.6777" width="230" height="150" rx="5" fill="white"/>
</clipPath>
<clipPath id="clip1">
<rect x="24" y="240.678" width="230" height="150" rx="5" fill="white"/>
</clipPath>
<clipPath id="clip2">
<rect x="286" y="60.6777" width="230" height="150" rx="5" fill="white"/>
</clipPath>
<clipPath id="clip3">
<rect x="286" y="240.678" width="230" height="150" rx="5" fill="white"/>
</clipPath>
</defs>
</svg>
