<svg viewBox="0 0 350 51" fill="none" xmlns="http://www.w3.org/2000/svg">
<path d="M51.5539 19.6985C51.4781 26.8145 49.3586 32.4922 45.1191 37.3372C44.362 38.2456 43.4535 39.0783 42.5453 39.8355C41.7123 40.5926 40.5012 40.5926 39.8199 39.8355C39.1385 39.0028 39.2898 37.8672 40.1983 37.1101C42.091 35.5205 43.6051 33.7035 44.8162 31.5839C46.6331 28.4801 47.6929 25.1491 47.8443 21.5152C48.1472 15.232 46.1789 9.8571 42.0152 5.23923C41.4097 4.63362 40.7283 4.02798 40.1228 3.42237C39.2898 2.66533 39.1385 1.45407 39.8199 0.697058C40.5012 -0.135673 41.6368 -0.135673 42.5453 0.697058C47.39 4.86071 50.2668 10.1599 51.3268 16.4434C51.4781 17.7303 51.4781 19.0172 51.5539 19.6985Z" fill="#3B43FF"/>
<path d="M0 20.3041C0.151403 12.431 3.10383 5.84486 9.08435 0.621359C9.91708 -0.135657 11.1283 -0.0599695 11.7339 0.697073C12.4153 1.45409 12.2639 2.66534 11.4311 3.34667C7.34317 6.90471 4.76929 11.2955 3.93656 16.6705C2.801 23.7106 4.69358 29.9183 9.46287 35.2176C10.0685 35.8989 10.8255 36.5803 11.5069 37.1859C12.3396 37.943 12.4153 39.0783 11.7339 39.8355C11.0526 40.5926 9.91708 40.5926 9.08435 39.9113C3.78516 35.3689 0.757043 29.5399 0.151404 22.5753C0.151404 22.1966 0.0757147 21.8182 0.0757147 21.4397C2.62313e-07 21.0613 0 20.6826 0 20.3041Z" fill="#3B43FF"/>
<path d="M7.34305 20.2283C7.49448 14.6264 9.53843 9.93283 13.8535 6.22338C14.7619 5.46637 15.7461 5.54205 16.5031 6.37478C17.1844 7.13183 17.1087 8.11596 16.2003 8.94869C14.1563 10.8413 12.4909 13.0366 11.6581 15.762C10.0684 21.2884 11.2039 26.2089 15.1405 30.4484C15.519 30.9026 15.9732 31.2811 16.3517 31.7353C17.033 32.4166 17.1087 33.4764 16.5031 34.1578C15.8975 34.9147 14.6862 35.0663 14.0049 34.3849C12.8694 33.3251 11.8095 32.2651 10.8254 31.0539C8.78142 28.3285 7.64588 25.2249 7.41876 21.7424C7.41876 21.5152 7.34305 21.2884 7.34305 20.9855C7.34305 20.7584 7.34305 20.5312 7.34305 20.2283Z" fill="#3B43FF"/>
<path d="M44.2104 20.3041C44.0591 25.7547 42.0151 30.3726 37.9272 34.082C37.3214 34.6876 36.5645 34.9905 35.7318 34.6876C34.5204 34.1578 34.2178 32.7951 35.126 31.7353C36.186 30.5239 37.3972 29.3886 38.3056 28.0259C41.9393 22.4237 41.1066 14.7778 36.3374 10.0085C35.9589 9.63003 35.5802 9.25151 35.2018 8.87299C34.5204 8.19166 34.4449 7.13184 35.0504 6.45051C35.7318 5.69347 36.7916 5.54206 37.6243 6.14768C39.1383 7.35893 40.4252 8.7973 41.4095 10.4628C42.9993 13.0366 43.9833 15.8376 44.1346 18.8659C44.1346 19.3199 44.1346 19.7741 44.2104 20.3041Z" fill="#3B43FF"/>
<path d="M36.7157 19.8499C36.7157 23.6351 35.4288 26.2847 33.0063 28.5557C32.1736 29.3886 30.9622 29.3886 30.2809 28.5557C29.5998 27.7988 29.5998 26.6632 30.508 25.906C32.0223 24.4678 33.0063 22.7266 33.0821 20.607C33.1576 18.563 32.552 16.8218 31.1893 15.3078C30.9622 15.0049 30.6596 14.7778 30.4324 14.5507C29.6753 13.7938 29.5998 12.7338 30.2809 11.9768C30.9622 11.2198 32.0978 11.1441 32.9305 11.9011C34.2177 13.0366 35.2017 14.3993 35.883 15.9892C36.4886 17.3516 36.7915 18.7901 36.7157 19.8499Z" fill="#3B43FF"/>
<path d="M19.607 11.3712C20.6667 11.3712 21.1968 11.7497 21.5752 12.5067C21.9536 13.2637 21.7265 14.0209 21.121 14.5507C20.137 15.5349 19.3041 16.5189 18.8499 17.8816C17.9415 20.7584 18.5471 23.2567 20.5154 25.4521C20.6667 25.6792 20.8938 25.8305 21.121 26.0576C21.8781 26.8903 21.9536 27.9501 21.1968 28.7072C20.5154 29.3886 19.3799 29.4641 18.6228 28.7828C16.7303 27.1174 15.4433 25.1491 15.0648 22.6508C14.3078 18.563 15.4433 15.0049 18.4714 12.2039C18.8499 11.674 19.3799 11.5226 19.607 11.3712Z" fill="#3B43FF"/>
<path d="M25.6633 23.8623C23.6193 23.8623 22.0294 22.2724 22.0294 20.2284C22.0294 18.1846 23.695 16.5948 25.7389 16.5948C27.7829 16.5948 29.3727 18.1846 29.3727 20.2284C29.3727 22.3482 27.7829 23.8623 25.6633 23.8623Z" fill="#3B43FF"/>
<path d="M64.1604 38.6994H72.3907V25.5634C73.1537 25.6725 74.1349 25.7268 75.2252 25.7268C80.1306 25.7268 84.3276 24.5277 87.1618 21.8571C89.3421 19.7856 90.5414 16.7335 90.5414 13.136C90.5414 9.5386 88.9606 6.48627 86.6169 4.63304C84.1642 2.67084 80.5121 1.68973 75.3886 1.68973C70.3195 1.68973 66.7222 2.01676 64.1604 2.45281V38.6994ZM72.3907 8.28495C72.9904 8.12144 74.1349 7.95792 75.8246 7.95792C79.967 7.95792 82.3109 9.97464 82.3109 13.3541C82.3109 17.115 79.5855 19.3496 75.1707 19.3496C73.9716 19.3496 73.0994 19.2953 72.3907 19.1317V8.28495Z" fill="#191A35"/>
<path d="M119.064 12.0459H110.724V27.9071C110.724 28.5613 110.67 29.2152 110.452 29.7058C109.907 31.014 108.599 32.5946 106.309 32.5946C103.421 32.5946 102.167 30.251 102.167 26.381V12.0459H93.8273V27.6892C93.8273 35.9194 97.8064 39.2988 103.202 39.2988C107.999 39.2988 110.506 36.5736 111.542 34.9385H111.705L112.087 38.6994H119.282C119.173 36.4646 119.064 33.6303 119.064 30.1419V12.0459Z" fill="#191A35"/>
<path d="M123.098 37.3913C125.114 38.4813 128.221 39.2446 131.71 39.2446C139.34 39.2446 143.265 35.5925 143.265 30.6326C143.21 26.7081 141.085 24.1463 136.016 22.402C132.745 21.2575 131.71 20.6033 131.71 19.3496C131.71 17.9872 132.854 17.1696 134.871 17.1696C137.16 17.1696 139.45 18.0417 140.649 18.6957L142.12 12.9725C140.485 12.155 137.705 11.4464 134.598 11.4464C128.003 11.4464 123.752 15.2072 123.752 20.1675C123.697 23.3287 125.823 26.3265 131.328 28.1798C134.435 29.2153 135.252 29.8695 135.252 31.232C135.252 32.5947 134.217 33.4668 131.71 33.4668C129.257 33.4668 126.095 32.3768 124.569 31.4501L123.098 37.3913Z" fill="#191A35"/>
<path d="M147.167 38.6994H155.452V22.8925C155.452 22.2931 155.506 21.5844 155.725 21.0392C156.324 19.5677 157.687 18.1505 159.867 18.1505C162.974 18.1505 164.173 20.5489 164.173 24.0371V38.6994H172.458V23.1107C172.458 15.0981 168.425 11.4463 163.137 11.4463C161.611 11.4463 160.03 11.8278 158.831 12.4819C157.523 13.1905 156.433 14.0626 155.561 15.2072H155.452V0H147.167V38.6994Z" fill="#191A35"/>
<path d="M200.144 16.4063H186.626V8.77556H200.961V1.96228H178.287V38.6994H201.725V31.8862H186.626V23.165H200.144V16.4063Z" fill="#191A35"/>
<path d="M206.04 38.6995H214.325V23.3287C214.325 22.5657 214.434 21.7481 214.652 21.2575C215.197 19.7314 216.56 18.1506 218.849 18.1506C221.847 18.1506 223.046 20.4944 223.046 23.9284V38.6995H231.331V22.8926C231.331 15.0439 227.243 11.4464 221.793 11.4464C217.377 11.4464 214.652 14.0082 213.562 15.6978H213.399L213.017 12.0459H205.822C205.931 14.3897 206.04 17.2239 206.04 20.549V38.6995Z" fill="#191A35"/>
<path d="M255.145 12.0459L254.874 15.2072H254.764C253.402 13.027 251.113 11.4464 247.461 11.4464C240.921 11.4464 235.361 16.8969 235.361 25.4544C235.361 33.1398 240.049 38.4813 246.644 38.4813C249.696 38.4813 252.257 37.2277 253.84 34.9931H253.947V36.7371C253.947 41.6428 250.949 43.7685 247.025 43.7685C243.918 43.7685 240.975 42.7328 239.285 41.7519L237.65 48.02C240.049 49.3827 243.755 50.0912 247.243 50.0912C251.169 50.0912 255.146 49.3282 258.09 46.8209C261.088 44.15 262.123 39.9531 262.123 34.8295V19.9493C262.123 15.9703 262.233 13.7357 262.341 12.0459H255.145ZM253.84 26.8171C253.84 27.5256 253.783 28.3977 253.566 28.9974C253.02 30.9595 251.33 32.3768 249.206 32.3768C245.717 32.3768 243.755 29.2698 243.755 25.2908C243.755 20.4399 246.208 17.7145 249.206 17.7145C251.494 17.7145 253.077 19.1863 253.676 21.3666C253.783 21.8026 253.84 22.3475 253.84 22.8926V26.8171Z" fill="#191A35"/>
<path d="M290.301 38.6995C290.027 37.2277 289.92 34.775 289.92 32.2132V22.9472C289.92 16.679 287.085 11.4464 278.2 11.4464C273.351 11.4464 269.697 12.7545 267.846 13.7903L269.372 19.1317C271.115 18.0417 274.004 17.1151 276.728 17.1151C280.817 17.1151 281.58 19.1317 281.58 20.549V20.9305C272.15 20.876 265.938 24.2008 265.938 31.1232C265.938 35.3746 269.151 39.2989 274.549 39.2989C277.711 39.2989 280.436 38.1543 282.179 36.0286H282.343L282.835 38.6995H290.301ZM281.852 28.9974C281.852 29.488 281.798 29.9783 281.69 30.4144C281.145 32.1041 279.455 33.4668 277.383 33.4668C275.53 33.4668 274.114 32.4313 274.114 30.3056C274.114 27.0896 277.491 26.0541 281.852 26.1086V28.9974Z" fill="#191A35"/>
<path d="M313.648 12.0459L313.374 15.2072H313.267C311.902 13.027 309.613 11.4464 305.961 11.4464C299.422 11.4464 293.86 16.8969 293.86 25.4544C293.86 33.1398 298.549 38.4813 305.145 38.4813C308.197 38.4813 310.757 37.2277 312.34 34.9931H312.447V36.7371C312.447 41.6428 309.449 43.7685 305.526 43.7685C302.418 43.7685 299.476 42.7328 297.786 41.7519L296.15 48.02C298.549 49.3827 302.256 50.0912 305.744 50.0912C309.669 50.0912 313.648 49.3282 316.59 46.8209C319.589 44.15 320.623 39.9531 320.623 34.8295V19.9493C320.623 15.9703 320.733 13.7357 320.843 12.0459H313.648ZM312.34 26.8171C312.34 27.5256 312.283 28.3977 312.066 28.9974C311.52 30.9595 309.83 32.3768 307.705 32.3768C304.218 32.3768 302.256 29.2698 302.256 25.2908C302.256 20.4399 304.709 17.7145 307.705 17.7145C309.994 17.7145 311.577 19.1863 312.176 21.3666C312.283 21.8026 312.34 22.3475 312.34 22.8926V26.8171Z" fill="#191A35"/>
<path d="M349.729 28.0162C349.836 27.4165 350 26.1629 350 24.7459C350 18.1506 346.73 11.4464 338.119 11.4464C328.853 11.4464 324.656 18.9136 324.656 25.6726C324.656 34.0119 329.833 39.2446 338.882 39.2446C342.48 39.2446 345.803 38.6995 348.53 37.6092L347.439 31.9953C345.204 32.7038 342.915 33.0853 340.081 33.0853C336.212 33.0853 332.832 31.4501 332.558 28.0162H349.729ZM332.504 22.3475C332.722 20.1129 334.14 16.9515 337.628 16.9515C341.443 16.9515 342.316 20.3308 342.316 22.3475H332.504Z" fill="#191A35"/>
</svg>
