<svg width="1242" height="1186" viewBox="0 0 1242 1186" fill="none" xmlns="http://www.w3.org/2000/svg">
<g clip-path="url(#clip0)">
<path d="M521.283 152.353C521.957 160.971 529 169.664 537.016 172.062C549.453 175.734 552.075 161.046 549.378 152.578C547.28 145.833 542.036 137.515 534.469 136.316C525.254 134.817 520.684 144.484 521.283 152.353Z" fill="#F0F0F5"/>
<path d="M605.866 173.261C614.107 178.657 624.671 159.997 622.573 156.7C620.475 153.402 616.13 152.053 612.684 154.077C608.863 156.4 605.642 159.547 603.319 163.294C601.296 166.592 602.72 171.163 605.866 173.261Z" fill="#F0F0F5"/>
<path d="M560.091 208.258C565.036 212.605 576.873 214.403 576.648 204.586C576.423 196.718 561.59 190.722 557.394 198.591C555.521 202.113 557.169 205.71 560.091 208.258Z" fill="#F0F0F5"/>
<path d="M261.616 409.622C307.84 395.383 347.547 362.035 370.173 319.319C376.541 307.329 398.567 271.882 385.082 273.98C346.948 279.751 304.544 306.055 295.329 317.97C286.189 329.736 253.3 387.365 252.401 402.727C252.176 407.224 257.27 410.971 261.616 409.622Z" fill="#F0F0F5"/>
<path d="M677.938 408.648C690.15 413.818 703.185 416.516 716.446 416.216C720.492 416.142 723.488 412.919 723.713 408.947C725.212 381.894 695.019 325.839 609.313 286.196C606.091 284.697 601.596 289.493 602.045 293.465C608.264 341.277 631.414 389.013 677.938 408.648Z" fill="#F0F0F5"/>
<path d="M490.866 296.612C513.791 308.303 539.039 312.949 564.661 310.326C568.557 309.952 570.954 305.23 570.205 301.708C569.306 297.512 565.485 295.788 561.589 296.163C540.163 298.411 517.912 294.214 498.658 284.397C495.212 282.599 490.941 283.048 488.694 286.57C486.746 289.718 487.345 294.889 490.866 296.612Z" fill="#F0F0F5"/>
<path d="M292.033 618.629C295.704 620.802 299.6 619.154 301.922 616.006C315.932 597.046 326.271 575.614 332.714 552.982C335.261 543.989 321.326 540.167 318.779 549.16C313.235 568.869 304.394 587.304 292.782 604.016C296.003 598.171 298.251 591.876 299.375 585.131C299.974 581.309 298.401 577.337 294.355 576.213C290.909 575.239 286.114 577.412 285.44 581.234C284.091 589.777 280.795 597.721 275.251 604.391C272.704 607.388 272.329 611.66 275.251 614.657C277.798 617.205 282.968 617.655 285.515 614.657C286.639 613.383 287.613 612.035 288.587 610.686C287.912 613.683 289.56 617.205 292.033 618.629Z" fill="#F0F0F5"/>
<path d="M604.218 561.375C569.531 571.867 533.495 576.438 497.235 574.94C487.945 574.565 487.945 589.028 497.235 589.403C500.531 589.553 503.827 589.628 507.124 589.628C502.853 591.501 498.733 593.525 494.687 595.773C486.521 600.269 493.788 612.784 502.029 608.288C510.495 603.567 519.335 599.895 528.7 597.197C532.896 595.998 534.244 592.251 533.645 588.953C558.892 587.23 583.915 582.733 608.189 575.389C616.954 572.691 613.133 558.678 604.218 561.375Z" fill="#F0F0F5"/>
<path d="M914.306 373.801C919.7 375.374 924.57 372.452 927.042 367.656C934.684 352.593 936.482 319.919 915.805 313.774C894.378 307.404 902.319 355.815 904.941 363.309C906.59 367.805 909.511 372.452 914.306 373.801Z" fill="#F0F0F5"/>
<path d="M921.498 417.041C915.355 427.757 910.56 439.223 907.264 451.139C904.792 460.131 918.726 463.953 921.199 454.961C924.195 444.169 928.391 433.977 933.935 424.31C938.655 416.217 926.143 408.947 921.498 417.041Z" fill="#F0F0F5"/>
<path d="M953.788 322.317C963.752 305.155 972.368 287.32 979.86 268.884C981.358 265.287 978.286 260.941 974.84 259.967C970.72 258.842 967.423 261.39 965.925 264.988C958.882 282.224 950.641 298.86 941.277 314.973C936.632 323.141 949.143 330.41 953.788 322.317Z" fill="#F0F0F5"/>
<path d="M970.944 298.411C963.378 310.476 955.811 322.542 948.169 334.532C943.899 341.351 952.664 347.721 958.283 344.199C957.309 345.623 956.335 347.122 955.286 348.546C950.042 356.264 962.554 363.534 967.798 355.89C968.023 355.515 968.247 355.14 968.547 354.841C970.72 359.262 977.987 361.285 981.658 355.815C986.378 348.845 991.098 341.876 995.743 334.907C999.414 329.436 994.319 324.265 989.15 324.34C989.375 324.04 989.524 323.741 989.749 323.441C994.993 315.722 982.482 308.453 977.238 316.097C974.84 319.694 972.368 323.216 969.971 326.813C974.391 319.769 978.886 312.649 983.306 305.605C988.401 297.811 975.889 290.542 970.944 298.411Z" fill="#F0F0F5"/>
<path d="M246.557 720.473C250.677 724.969 258.843 732.463 264.837 727.967C270.081 723.995 266.71 686.375 255.098 667.79C244.984 651.603 218.762 623.426 209.098 626.048C202.729 627.772 194.039 663.294 246.557 720.473Z" fill="#F0F0F5"/>
<path d="M419.768 771.807C441.42 779.451 464.345 774.804 486.371 771.732C492.215 770.907 498.283 770.233 504.352 770.083L521.133 771.132C528.101 772.331 534.843 774.729 540.987 778.851C548.703 784.097 555.97 771.507 548.329 766.336C531.097 754.72 509.521 754.421 489.593 756.819C467.791 759.442 445.091 765.437 423.664 757.868C414.824 754.72 411.078 768.734 419.768 771.807Z" fill="#F0F0F5"/>
<path d="M40.9805 853.042C-3.14658 872.901 -11.6124 949.04 23.0749 988.983C33.1889 1000.67 74.544 1038.89 78.7394 1032.07C89.0782 1015.14 100.166 986.36 100.166 950.988C100.166 923.185 77.0163 836.855 40.9805 853.042Z" fill="#F0F0F5"/>
<path d="M185.648 973.62C167.443 989.358 147.29 1002.47 125.714 1013.04C117.323 1017.16 124.665 1029.6 133.056 1025.55C155.756 1014.46 176.808 1000.37 195.912 983.812C202.88 977.817 192.616 967.55 185.648 973.62Z" fill="#F0F0F5"/>
<path d="M206.775 990.707C193.29 997.227 179.73 1003.75 166.244 1010.27C162.723 1011.99 161.749 1017.01 163.622 1020.16C165.72 1023.76 169.99 1024.43 173.511 1022.78C186.997 1016.26 200.557 1009.74 214.042 1003.22C217.564 1001.5 218.537 996.477 216.665 993.33C214.567 989.658 210.296 988.983 206.775 990.707Z" fill="#F0F0F5"/>
<path d="M1041.97 909.697C1040.92 907.823 1039.35 906.174 1037.4 905.05C1033.2 902.652 1027.96 903.252 1023.31 903.327C1013.2 903.402 1003.08 903.477 992.896 903.627C911.609 904.376 830.322 905.5 749.036 906.549C703.186 907.149 657.41 907.448 611.56 907.898C568.033 908.348 523.007 912.769 479.704 910.371C483.3 904.975 485.622 898.755 485.322 892.086C485.173 888.639 483.15 886.24 480.003 885.116C462.023 878.372 442.993 884.067 424.713 880.095C402.163 875.224 381.56 851.169 366.052 835.506C339.606 808.827 317.28 775.629 287.238 752.847C279.446 746.927 268.583 739.358 258.169 741.307C249.404 742.955 234.121 760.491 242.137 768.36C275.101 800.959 307.99 833.708 341.029 866.157C357.886 882.643 376.166 899.58 397.068 911.195C389.577 909.697 382.085 908.273 374.518 906.924C340.954 900.779 307.391 894.559 273.603 889.913C256.971 887.589 240.114 886.915 223.482 884.442C222.283 871.627 185.948 865.257 175.309 860.761C166.769 857.164 152.235 846.747 142.42 849.37C126.987 853.567 143.993 863.758 150.436 866.681C163.098 872.452 180.554 882.194 194.414 883.543C186.098 883.543 153.583 879.646 151.71 890.887C149.238 905.425 176.583 898.381 183.476 898.006C200.557 897.032 216.664 898.83 233.446 900.779C270.156 904.975 306.192 909.172 342.453 915.767C390.775 924.535 438.423 935.176 486.147 946.642C483.15 981.639 485.697 1016.94 493.339 1051.26C495.362 1060.33 509.296 1056.5 507.274 1047.44C500.156 1015.44 497.834 982.613 500.306 950.014C519.41 954.286 538.59 957.808 558.218 959.906C581.518 962.38 604.967 963.054 628.342 962.005C655.463 985.761 677.189 1015.59 690.899 1048.94C694.57 1057.78 697.642 1066.92 700.114 1076.14C702.811 1085.88 704.909 1095.85 708.58 1105.29C715.173 1122.45 726.56 1136.32 742.143 1146.13C758.85 1156.77 778.779 1161.94 798.407 1162.62C805.15 1162.84 807.323 1154.75 803.502 1150.25C779.528 1121.7 757.726 1091.43 738.248 1059.65C722.665 1034.25 708.879 1007.94 696.218 981.04C698.616 984.487 710.153 1006.22 724.013 1004.35C770.612 997.901 1033.58 959.007 1031.85 935.476C1031.55 928.432 1048.19 922.961 1041.97 909.697ZM468.091 920.488C468.84 923.186 471.088 925.359 474.759 925.209C476.108 925.134 477.381 925.134 478.73 925.059C478.879 925.134 478.954 925.134 479.104 925.209C483.599 926.933 488.094 928.507 492.664 930.005C492.365 930.08 491.99 930.155 491.691 930.305L471.388 927.982C466.668 926.783 461.948 925.584 457.228 924.46C461.049 923.635 464.72 922.362 468.091 920.488Z" fill="#F0F0F5"/>
<path d="M1028.93 890.736L1209.49 617.58H693.596L513.042 890.736H1028.93ZM893.254 726.168C908.687 726.168 921.199 738.683 921.199 754.121C921.199 769.558 908.687 782.073 893.254 782.073C877.821 782.073 865.31 769.558 865.31 754.121C865.31 738.683 877.821 726.168 893.254 726.168Z" fill="#F0F0F5"/>
<path d="M392.573 1063.17C369.873 1102.52 339.456 1154.3 321.476 1179.41C377.665 1185.55 428.384 1112.93 477.156 1087.75C493.564 1079.29 511.244 1073.67 528.775 1068.04C532.222 1066.92 534.469 1063.7 533.945 1060.1C533.495 1056.95 401.414 1062.95 392.573 1063.17Z" fill="#F0F0F5"/>
<path d="M381.111 469.574C376.391 461.555 363.805 468.824 368.6 476.918C368.824 477.368 369.049 477.742 369.349 478.192C369.124 478.866 368.899 479.616 368.899 480.44C366.502 519.559 354.889 557.329 342.378 594.274C339.231 603.566 336.085 612.784 332.938 622.077C329.792 631.294 326.495 640.512 325.147 650.179C323.798 659.771 324.772 669.064 328.593 677.982C332.039 686.075 337.284 693.195 342.753 700.014C347.847 706.384 353.316 712.454 358.336 718.899C362.531 724.295 368.6 734.936 376.99 732.613C382.385 731.114 384.557 725.269 385.606 720.398C386.955 714.553 387.479 708.557 387.929 702.637C388.453 696.192 389.052 689.673 389.052 683.228C389.052 672.886 387.929 662.619 386.805 652.277C384.632 632.044 383.583 612.409 386.205 592.176C391.45 551.633 403.587 507.418 381.111 469.574Z" fill="#F0F0F5"/>
<path d="M645.199 107.164C638.981 105.216 632.612 109.712 630.739 115.632C629.316 120.353 629.691 125.899 629.166 130.77C628.567 136.615 627.668 142.311 626.544 148.081C624.296 159.322 621.15 170.413 617.029 181.13C613.059 191.471 608.264 201.588 606.466 212.605C604.967 221.672 605.567 232.089 612.384 239.058C619.652 246.477 630.964 245.653 639.13 240.332C656.362 229.016 661.381 205.635 661.681 186.451C661.981 172.736 649.769 108.513 645.199 107.164Z" fill="#FFD37D"/>
<path d="M631.488 86.5557C639.28 77.488 640.703 64.973 636.358 53.9568C631.863 42.6409 622.498 34.6223 611.785 29.3016C588.71 17.9107 560.016 11.3909 535.443 21.5078C512.593 30.9502 494.537 50.2098 480.977 70.3687C467.566 90.3027 458.277 113.234 454.006 136.915C451.609 150.255 450.56 163.894 451.309 177.383C452.133 191.472 454.381 206.235 462.697 218C464.944 221.223 468.99 222.722 472.586 220.623C474.084 219.724 475.208 218.225 475.807 216.502C477.081 218.45 478.43 220.398 479.853 222.272C486.221 230.59 494.387 240.108 505.55 240.932C519.785 242.056 523.006 227.368 523.83 216.352C524.804 203.537 522.632 190.647 520.684 177.982C516.863 153.102 516.563 128.597 522.856 104.092C524.13 99.1456 525.628 94.3495 527.277 89.5533C537.84 95.4736 550.426 97.7967 562.563 98.696C566.459 118.705 629.391 88.9538 631.488 86.5557Z" fill="#FFD37D"/>
<path d="M962.993 192.59C986.457 169.119 986.457 131.065 962.993 107.594C939.528 84.1227 901.485 84.1228 878.021 107.594C854.557 131.065 854.557 169.119 878.021 192.59C901.485 216.061 939.528 216.061 962.993 192.59Z" fill="#FFD37D"/>
<path d="M944.723 227.068C943.375 223.546 939.779 220.698 935.808 222.047C932.362 223.171 929.29 227.143 930.788 230.965C931.912 233.888 933.036 236.735 934.16 239.658C935.508 243.18 939.104 246.028 943.075 244.679C946.521 243.555 949.593 239.583 948.094 235.761C946.971 232.913 945.847 229.991 944.723 227.068Z" fill="#FFD37D"/>
<path d="M1000.91 377.922C998.44 370.129 996.042 362.41 993.57 354.616C990.798 345.773 976.788 349.52 979.635 358.438C982.107 366.232 984.505 373.951 986.977 381.744C989.749 390.662 1003.76 386.84 1000.91 377.922Z" fill="#FFD37D"/>
<path d="M877.671 85.8063C880.668 83.3333 880.293 78.1624 877.671 75.5395C874.674 72.5419 870.479 72.9916 867.407 75.5395C854.521 86.3309 844.032 99.895 836.915 115.108C835.267 118.63 835.941 122.902 839.537 125C842.684 126.798 847.778 125.974 849.427 122.377C856.094 108.213 865.534 95.8483 877.671 85.8063Z" fill="#FFD37D"/>
<path d="M525.104 203.986C538.215 227.817 571.329 235.086 592.156 216.801C602.57 207.658 609.537 194.544 615.081 182.029C621.449 167.715 626.169 152.727 629.69 137.515C633.886 119.229 636.433 100.569 637.407 81.9091C637.557 78.9864 633.062 79.0614 632.912 81.9091C631.414 111.435 626.094 141.187 615.606 168.989C607.065 191.696 592.456 223.696 563.687 222.946C549.228 222.571 535.818 214.328 528.85 201.738C527.577 199.19 523.681 201.438 525.104 203.986Z" fill="#191A35"/>
<path d="M549.752 118.855C558.443 117.056 567.283 118.18 575.225 122.227C577.772 123.501 580.094 119.679 577.472 118.33C568.407 113.759 558.443 112.485 548.554 114.508C545.707 115.108 546.905 119.454 549.752 118.855Z" fill="#191A35"/>
<path d="M560.615 132.044C559.866 135.267 559.117 138.489 558.293 141.712C557.619 144.559 561.964 145.758 562.638 142.911C563.387 139.688 564.137 136.466 564.961 133.243C565.635 130.396 561.29 129.197 560.615 132.044Z" fill="#191A35"/>
<path d="M617.853 117.431C611.935 117.881 604.368 117.281 599.423 121.103C595.678 124.026 594.629 128.822 594.479 133.393C594.329 140.063 595.303 146.733 595.528 153.402C595.603 156.1 595.752 159.472 594.104 161.795C592.306 164.268 588.485 164.418 585.863 165.692C583.241 166.891 585.489 170.788 588.111 169.589C592.681 167.416 597.026 167.341 599.049 161.945C600.847 157.149 599.873 151.529 599.573 146.583C599.199 140.962 597.85 134.292 599.498 128.822C601.821 121.328 611.56 122.452 617.778 122.002C620.775 121.703 620.775 117.206 617.853 117.431Z" fill="#191A35"/>
<path d="M609.238 141.037C608.788 144.035 608.039 146.957 606.99 149.805C606.016 152.503 610.362 153.702 611.336 151.004C612.385 148.156 613.134 145.234 613.583 142.236C614.033 139.388 609.688 138.189 609.238 141.037Z" fill="#191A35"/>
<path d="M561.889 175.959C566.16 183.753 574.7 185.851 582.941 186.9C585.788 187.275 585.788 182.779 582.941 182.404C576.349 181.58 569.231 180.006 565.785 173.636C564.362 171.088 560.466 173.411 561.889 175.959Z" fill="#191A35"/>
<path d="M590.808 212.305C585.713 233.213 582.042 254.121 579.121 275.404C578.746 278.252 583.091 279.451 583.466 276.603C586.388 255.32 590.059 234.412 595.153 213.504C595.827 210.731 591.482 209.532 590.808 212.305Z" fill="#191A35"/>
<path d="M473.71 259.967C500.531 287.395 543.459 296.763 579.27 282.824C581.967 281.775 580.769 277.428 578.072 278.477C543.684 291.816 502.704 283.123 476.857 256.745C474.909 254.721 471.687 257.944 473.71 259.967Z" fill="#191A35"/>
<path d="M491.69 286.72C511.694 305.38 540.238 304.331 565.56 301.109C568.407 300.734 568.407 296.238 565.56 296.612C541.586 299.61 513.941 301.259 494.912 283.498C492.814 281.549 489.593 284.772 491.69 286.72Z" fill="#191A35"/>
<path d="M458.127 246.178C434.378 253.522 410.778 261.465 387.179 269.184C363.58 276.903 339.456 283.048 317.954 295.938C308.065 301.858 300.199 307.853 293.231 316.996C286.563 325.764 280.87 335.281 275.401 344.874C260.192 371.777 247.306 400.029 235.094 428.432C221.609 459.682 209.023 491.381 197.41 523.455C188.195 548.86 179.205 574.565 172.313 600.719C171.713 603.042 171.114 605.44 170.515 607.763C169.84 610.611 174.186 611.81 174.86 608.962C180.704 584.457 188.945 560.551 197.336 536.87C208.423 505.545 220.41 474.595 233.296 443.944C245.583 414.718 258.544 385.716 273.453 357.763C279.072 347.197 285.065 336.63 291.808 326.738C296.228 320.218 301.098 313.324 307.391 308.378C316.006 301.708 325.971 296.238 335.86 291.666C347.547 286.27 359.909 282.823 372.195 278.926C395.12 271.657 417.896 263.789 440.821 256.444C446.964 254.496 453.107 252.547 459.251 250.674C462.098 249.7 460.899 245.353 458.127 246.178Z" fill="#191A35"/>
<path d="M182.802 617.805C193.14 612.559 206.026 612.559 216.964 616.081C227.678 619.529 235.095 628.971 245.134 633.842C257.346 639.762 270.531 636.99 283.417 635.716C294.28 634.666 307.99 635.191 314.958 645.083C316.606 647.406 320.502 645.158 318.854 642.835C306.567 625.374 283.267 632.268 265.587 633.018C259.368 633.243 253.075 632.643 247.381 629.945C242.661 627.697 238.466 624.4 234.346 621.177C227.153 615.707 220.261 611.585 211.196 610.086C200.857 608.363 189.994 609.112 180.479 613.908C178.007 615.182 180.254 619.079 182.802 617.805Z" fill="#191A35"/>
<path d="M368.674 471.298C364.179 518.885 354.065 565.947 338.632 611.136C334.287 623.95 329.417 636.54 324.247 649.055C323.124 651.753 327.469 652.877 328.593 650.254C347.173 605.74 360.508 559.052 368.15 511.391C370.247 498.051 371.971 484.712 373.244 471.298C373.394 468.375 368.899 468.45 368.674 471.298Z" fill="#191A35"/>
<path d="M581.518 268.585C602.87 281.25 623.922 294.439 644.524 308.303C663.404 320.968 682.433 334.157 696.817 351.993C711.651 370.353 721.091 392.536 730.531 414.043C740.72 437.35 750.309 460.956 759.524 484.712C769.788 511.091 779.603 537.694 789.342 564.298C790.316 566.996 794.661 565.797 793.687 563.099C776.006 515.212 758.326 467.326 738.173 420.488C728.733 398.531 719.443 375.824 705.508 356.19C692.322 337.53 674.417 323.441 655.762 310.626C632.313 294.514 608.264 279.301 583.765 264.838C581.293 263.264 579.046 267.086 581.518 268.585Z" fill="#191A35"/>
<path d="M1007.13 69.4693C1017.09 58.3782 1027.06 52.1582 1027.06 52.1582" stroke="#191A35" stroke-width="7" stroke-miterlimit="10" stroke-linecap="round" stroke-linejoin="round"/>
<path d="M1028.48 113.234C1044.07 107.464 1059.57 107.464 1059.57 107.464" stroke="#191A35" stroke-width="7" stroke-miterlimit="10" stroke-linecap="round" stroke-linejoin="round"/>
<path d="M761.322 150.105C761.322 150.105 777.879 149.88 794.511 156.4" stroke="#191A35" stroke-width="7" stroke-miterlimit="10" stroke-linecap="round" stroke-linejoin="round"/>
<path d="M783.124 210.207C783.124 210.207 797.658 194.094 812.117 185.551" stroke="#191A35" stroke-width="7" stroke-miterlimit="10" stroke-linecap="round" stroke-linejoin="round"/>
<path d="M647.371 434.952C644.3 457.059 645.648 479.316 645.573 501.573C645.498 513.039 645.124 524.58 643.251 535.971C641.528 546.912 638.381 557.554 634.635 567.97C629.99 581.01 624.671 593.675 620.326 606.789C615.006 622.601 610.287 638.639 606.091 654.826C600.322 677.083 595.677 699.64 592.905 722.496C592.531 725.344 597.026 725.344 597.401 722.496C601.971 684.877 611.56 647.706 623.322 611.735C627.293 599.595 631.938 587.754 636.508 575.764C640.404 565.422 643.925 554.931 646.247 544.139C648.495 533.423 649.469 522.557 649.844 511.615C650.668 486.436 648.195 461.181 651.642 436.151C652.091 433.303 647.821 432.029 647.371 434.952Z" fill="#191A35"/>
<path d="M661.98 497.152C666.101 490.182 670.521 483.438 675.316 476.918C677.039 474.595 673.143 472.347 671.42 474.67C666.7 481.19 662.205 487.934 658.085 494.904C656.661 497.377 660.557 499.625 661.98 497.152Z" fill="#191A35"/>
<path d="M665.127 508.093C670.147 503.372 675.766 499.625 682.059 496.852C684.681 495.653 682.433 491.831 679.811 492.955C673.218 495.878 667.225 499.924 661.98 504.945C659.808 506.894 663.029 510.116 665.127 508.093Z" fill="#191A35"/>
<path d="M611.635 566.696C577.098 576.438 541.287 580.56 505.401 579.136C502.479 578.986 502.479 583.482 505.401 583.632C541.661 585.131 577.922 580.86 612.834 571.042C615.606 570.293 614.407 565.946 611.635 566.696Z" fill="#191A35"/>
<path d="M525.329 591.351C515.515 593.524 506 596.897 496.935 601.243C494.313 602.517 496.635 606.414 499.183 605.14C507.948 600.943 517.013 597.796 526.528 595.698C529.375 595.023 528.176 590.677 525.329 591.351Z" fill="#191A35"/>
<path d="M809.27 571.942C830.997 524.205 853.173 476.768 875.798 429.481C882.241 416.142 888.684 402.727 895.127 389.388C896.401 386.765 892.505 384.517 891.231 387.14C868.306 434.277 845.831 481.639 823.88 529.226C817.661 542.715 811.443 556.204 805.3 569.694C804.251 572.317 808.072 574.565 809.27 571.942Z" fill="#191A35"/>
<path d="M896.176 376.798C894.303 361.586 892.43 346.373 890.632 331.085C889.808 323.816 888.983 316.247 891.081 309.053C893.029 302.308 897.374 296.538 901.87 291.367C911.384 280.5 921.798 270.384 932.361 260.566C937.681 255.62 943.15 250.674 948.544 245.803C951.316 243.33 955.137 238.984 958.283 243.48C960.83 247.077 958.508 252.173 956.935 255.695C950.866 269.334 941.726 281.325 930.563 291.142C928.391 293.015 931.537 296.238 933.71 294.289C945.172 284.247 954.537 271.882 960.756 257.944C963.303 252.173 965.925 244.754 960.756 239.583C955.511 234.263 950.267 238.159 945.772 242.206C933.036 253.747 920.299 265.288 908.313 277.653C897.824 288.519 886.361 299.985 885.163 315.872C884.413 325.764 886.511 335.956 887.71 345.773C888.983 356.115 890.182 366.457 891.456 376.798C892.055 379.646 896.55 379.721 896.176 376.798Z" fill="#191A35"/>
<path d="M968.098 260.716C973.941 257.794 977.687 265.288 977.462 270.009C977.163 275.629 974.466 281.4 972.143 286.496C967.648 296.163 961.805 305.381 954.687 313.324C951.316 317.071 947.495 320.668 942.925 322.917C939.479 324.64 937.756 324.79 937.98 320.294C938.055 317.296 939.179 314.298 940.453 311.526C945.322 300.509 951.166 289.793 956.56 278.927C957.834 276.379 953.938 274.056 952.664 276.679C946.971 288.219 940.378 299.685 935.583 311.601C933.86 315.797 932.212 321.942 934.534 326.289C936.707 330.336 941.502 328.537 944.723 326.963C954.313 322.392 961.43 313.024 967.199 304.406C973.342 295.264 979.785 284.023 981.658 273.006C982.557 267.985 981.883 262.515 977.987 258.843C974.616 255.695 970.046 254.721 965.85 256.745C963.228 258.093 965.476 261.99 968.098 260.716Z" fill="#191A35"/>
<path d="M977.088 285.147C981.882 285.072 978.961 300.809 978.286 303.432C976.788 309.877 974.091 315.947 970.57 321.493C964.801 330.71 958.058 337.979 949.143 344.125C946.746 345.773 948.993 349.67 951.391 348.021C962.853 340.078 972.068 329.811 978.137 317.071C981.508 310.027 983.606 302.458 983.98 294.664C984.205 289.718 984.055 280.575 977.013 280.65C974.166 280.65 974.166 285.147 977.088 285.147Z" fill="#191A35"/>
<path d="M982.033 306.804C994.244 308.528 983.156 330.86 979.635 336.181C973.792 345.024 965.476 352.068 956.56 357.689C954.088 359.262 956.336 363.084 958.808 361.585C969.971 354.541 980.235 345.398 986.378 333.558C990.498 325.764 997.691 304.481 983.231 302.458C980.384 302.008 979.186 306.355 982.033 306.804Z" fill="#191A35"/>
<path d="M990.723 322.392C1000.24 325.24 989.899 340.602 986.902 345.099C982.108 352.218 975.964 358.438 968.997 363.534C966.674 365.258 968.922 369.154 971.244 367.431C980.459 360.686 988.326 352.143 993.945 342.176C997.99 335.057 1003.31 321.493 991.847 318.045C989.15 317.221 988.026 321.568 990.723 322.392Z" fill="#191A35"/>
<path d="M937.456 339.103C940.528 354.466 939.479 370.128 934.459 384.967C933.56 387.739 937.905 388.863 938.804 386.166C944.049 370.578 945.023 354.016 941.801 337.904C941.277 335.056 936.931 336.256 937.456 339.103Z" fill="#191A35"/>
<path d="M977.987 371.553C975.814 386.391 969.746 400.33 960.081 411.87C958.208 414.044 961.43 417.266 963.228 415.018C973.342 402.878 979.934 388.414 982.257 372.752C982.706 369.904 978.361 368.705 977.987 371.553Z" fill="#191A35"/>
<path d="M955.512 422.587C939.929 471.972 926.968 522.107 916.629 572.766C916.03 575.614 920.375 576.813 920.974 573.965C931.313 523.231 944.349 473.096 959.857 423.786C960.756 421.013 956.411 419.814 955.512 422.587Z" fill="#191A35"/>
<path d="M924.795 423.036C919.7 433.378 915.43 444.02 912.059 455.036C911.234 457.809 915.58 459.008 916.404 456.235C919.7 445.593 923.746 435.252 928.69 425.285C929.964 422.737 926.068 420.413 924.795 423.036Z" fill="#191A35"/>
<path d="M389.127 867.355C398.417 879.196 411.903 887.664 426.736 890.511C444.417 893.884 462.847 889.762 480.153 895.383C482.925 896.282 484.124 891.935 481.352 891.036C464.945 885.79 447.714 889.088 431.007 886.689C415.648 884.516 401.863 876.348 392.349 864.133C390.551 861.884 387.404 865.107 389.127 867.355Z" fill="#191A35"/>
<path d="M449.512 873.201C462.547 872.002 475.508 874.25 487.27 879.87C489.893 881.144 492.14 877.247 489.518 875.973C477.007 869.978 463.297 867.43 449.512 868.629C446.665 868.929 446.59 873.425 449.512 873.201Z" fill="#191A35"/>
<path d="M466.818 857.688C477.981 856.938 489.068 858.737 499.332 863.158C501.954 864.283 504.277 860.461 501.58 859.262C490.567 854.465 478.805 852.367 466.818 853.117C463.971 853.416 463.896 857.913 466.818 857.688Z" fill="#191A35"/>
<path d="M439.922 831.159C452.284 832.808 464.645 834.456 477.007 836.105C483.075 836.929 489.143 837.679 495.212 838.578C499.857 839.253 505.251 840.227 507.798 844.648C509.297 847.121 513.117 844.873 511.694 842.4C506.225 833.182 492.215 833.707 482.925 832.508C468.541 830.56 454.231 828.686 439.847 826.738C437.075 826.288 437.075 830.784 439.922 831.159Z" fill="#191A35"/>
<path d="M203.104 615.257C194.039 652.652 214.941 687.874 239.215 714.553C252.775 729.466 267.609 743.255 281.844 757.493C296.827 772.406 311.586 787.469 326.345 802.682C343.052 819.993 359.684 837.379 376.091 854.99C378.039 857.088 381.261 853.941 379.238 851.843C351.068 821.642 322.375 791.891 293.231 762.589C279.371 748.65 265.137 735.011 251.427 720.922C238.466 707.658 226.029 693.494 217.264 677.083C207.45 658.647 202.355 637.065 207.375 616.381C208.049 613.608 203.779 612.409 203.104 615.257Z" fill="#191A35"/>
<path d="M306.117 645.683C339.081 691.096 372.12 736.51 405.085 781.924C414.449 794.813 423.739 807.628 433.104 820.518C434.752 822.841 438.723 820.593 437 818.27C404.036 772.856 370.997 727.442 338.032 682.029C328.668 669.139 319.378 656.324 310.013 643.435C308.29 641.111 304.394 643.36 306.117 645.683Z" fill="#191A35"/>
<path d="M417.296 773.605C457.528 787.544 499.932 768.884 540.762 777.802C543.609 778.401 544.808 774.055 541.961 773.455C501.205 764.537 458.577 783.122 418.495 769.259C415.723 768.284 414.599 772.631 417.296 773.605Z" fill="#191A35"/>
<path d="M471.837 766.636C476.632 766.636 481.426 766.636 486.221 766.636C489.143 766.636 489.143 762.14 486.221 762.14C481.426 762.14 476.632 762.14 471.837 762.14C468.915 762.14 468.915 766.636 471.837 766.636Z" fill="#191A35"/>
<path d="M259.068 742.355C226.179 757.643 193.29 772.931 160.401 788.219C143.769 795.938 127.062 803.731 110.43 811.45C97.4689 817.52 84.4331 823.515 71.8468 830.335C49.0715 842.7 26.596 858.363 12.8859 880.919C-0.674384 903.327 -2.69719 930.08 5.09435 954.885C13.0357 979.99 29.5927 1002.1 50.495 1017.91C74.7686 1036.27 104.586 1046.24 134.179 1052.08C166.244 1058.45 199.059 1060.7 231.648 1062.65C267.684 1064.82 303.72 1065.8 339.831 1065.87C412.052 1066.02 484.274 1062.72 556.42 1059.05C565.335 1058.6 574.176 1058.15 583.091 1057.7C585.938 1057.55 586.013 1053.06 583.091 1053.21C512.668 1056.88 442.244 1060.48 371.746 1061.3C336.684 1061.67 301.547 1061.37 266.485 1059.95C232.697 1058.6 198.759 1056.65 165.12 1052.53C135.003 1048.78 104.661 1042.56 77.3158 1029C52.5178 1016.71 31.4657 998.201 18.0553 973.77C5.61878 950.988 0.67415 923.71 9.43962 898.83C18.28 873.725 39.0325 855.515 61.0585 841.951C86.381 826.288 114.251 814.822 141.146 802.307C173.361 787.319 205.576 772.406 237.791 757.418C245.658 753.746 253.524 750.074 261.466 746.402C263.938 745.053 261.69 741.156 259.068 742.355Z" fill="#191A35"/>
<path d="M156.28 893.285C224.681 891.261 293.306 895.608 360.958 906.249C394.371 911.57 427.56 918.389 460.375 926.708C493.189 935.101 525.704 945.518 559.342 950.389C577.847 953.087 596.651 954.136 615.306 951.963C633.886 949.789 652.766 943.419 671.57 947.466C674.417 948.066 675.616 943.719 672.769 943.12C656.586 939.672 640.554 943.419 624.521 946.117C607.59 948.965 590.433 949.19 573.427 947.541C539.114 944.244 505.925 933.977 472.736 925.134C406.883 907.673 339.381 896.282 271.43 891.186C233.147 888.338 194.713 887.439 156.28 888.563C153.433 888.863 153.433 893.359 156.28 893.285Z" fill="#191A35"/>
<path d="M594.179 1055.53C622.798 1068.87 650.218 1084.83 675.915 1103.12C689.026 1112.48 701.537 1122.68 714.124 1132.79C726.261 1142.53 738.697 1152.05 752.557 1159.25C767.915 1167.19 784.922 1172.14 802.378 1171.09C805.225 1170.94 805.3 1166.44 802.378 1166.59C769.638 1168.61 741.619 1149.13 717.27 1129.57C693.446 1110.39 669.397 1091.95 643.101 1076.29C627.967 1067.3 612.459 1059.05 596.502 1051.63C593.805 1050.43 591.557 1054.33 594.179 1055.53Z" fill="#191A35"/>
<path d="M669.548 946.267C705.059 1002.02 739.671 1058.3 773.46 1115.11C782.974 1131.07 792.414 1147.11 801.779 1163.22C803.202 1165.69 807.098 1163.44 805.675 1160.97C772.411 1103.87 738.248 1047.29 703.261 991.306C693.372 975.569 683.482 959.831 673.518 944.094C671.87 941.546 667.974 943.794 669.548 946.267Z" fill="#191A35"/>
<path d="M617.029 951.887C651.342 988.158 679.212 1030.42 698.99 1076.29C704.609 1089.4 709.554 1102.74 713.899 1116.31C714.798 1119.08 719.143 1117.88 718.244 1115.11C702.961 1066.92 679.287 1021.58 648.345 981.564C639.505 970.098 630.14 959.157 620.176 948.665C618.228 946.642 615.082 949.789 617.029 951.887Z" fill="#191A35"/>
<path d="M148.114 862.934C169.765 870.802 191.791 877.547 214.117 883.093C216.889 883.767 218.088 879.421 215.316 878.746C192.99 873.2 170.964 866.456 149.313 858.587C146.541 857.613 145.417 861.959 148.114 862.934Z" fill="#191A35"/>
<path d="M491.391 952.337C492.14 986.06 494.912 1019.71 499.407 1053.21C499.782 1056.05 504.127 1054.85 503.753 1052.01C499.258 1018.96 496.635 985.685 495.886 952.337C495.811 949.414 491.316 949.414 491.391 952.337Z" fill="#191A35"/>
<path d="M392.124 1064.52C366.052 1104.77 338.782 1144.18 310.313 1182.7C309.039 1184.43 311.137 1186.3 312.86 1186C329.267 1183 345.824 1179.86 361.632 1174.16C376.84 1168.61 390.326 1160.45 402.088 1149.35C414.674 1137.51 426.436 1125 440.221 1114.43C453.032 1104.54 466.892 1095.92 481.277 1088.58C498.133 1080.03 515.964 1073.37 534.319 1068.64C537.091 1067.89 535.967 1063.62 533.12 1064.3C501.505 1072.39 471.462 1086.33 444.941 1105.36C431.381 1115.03 419.094 1126.12 407.407 1137.89C401.189 1144.11 394.971 1150.4 387.853 1155.57C381.186 1160.45 373.844 1164.42 366.202 1167.64C348.821 1174.91 330.091 1178.36 311.661 1181.73C312.485 1182.85 313.384 1183.9 314.208 1185.03C342.677 1146.51 370.023 1107.09 396.019 1066.85C397.593 1064.3 393.697 1062.05 392.124 1064.52Z" fill="#191A35"/>
<path d="M440.221 1063.77C432.655 1073.37 426.511 1083.86 421.791 1095.17C420.668 1097.87 425.013 1098.99 426.137 1096.37C430.557 1085.81 436.401 1075.91 443.443 1067C445.166 1064.67 442.019 1061.45 440.221 1063.77Z" fill="#191A35"/>
<path d="M401.189 1070.14C382.084 1098.32 362.98 1126.5 343.951 1154.68C342.303 1157.07 346.199 1159.32 347.847 1156.92C366.951 1128.75 386.055 1100.57 405.084 1072.39C406.733 1069.99 402.837 1067.74 401.189 1070.14Z" fill="#191A35"/>
<path d="M694.57 1008.17C721.99 1051.41 748.287 1095.4 773.535 1139.99C774.958 1142.53 778.854 1140.21 777.43 1137.74C752.183 1093.15 725.886 1049.23 698.466 1005.92C696.893 1003.52 692.997 1005.77 694.57 1008.17Z" fill="#191A35"/>
<path d="M732.029 1002.47C775.332 995.353 818.71 988.159 862.013 981.039C883.664 977.442 905.316 973.92 926.967 970.323C946.296 967.175 965.775 964.477 984.879 960.131C1003.98 955.784 1022.64 948.965 1038 936.45C1040.24 934.651 1037.02 931.429 1034.85 933.302C1020.99 944.618 1003.98 950.913 986.752 955.11C968.173 959.606 949.143 962.154 930.264 965.302C887.935 972.271 845.606 979.241 803.277 986.21C779.153 990.182 755.029 994.154 730.905 998.126C727.984 998.65 729.182 1002.92 732.029 1002.47Z" fill="#191A35"/>
<path d="M130.808 1023.01C154.258 1011.91 177.033 999.399 198.984 985.536C201.456 983.962 199.209 980.14 196.736 981.639C174.785 995.428 152.01 1007.94 128.56 1019.11C125.938 1020.38 128.186 1024.2 130.808 1023.01Z" fill="#191A35"/>
<path d="M173.886 1017.61C184.225 1010.94 195.612 1006.59 207.824 1004.8C210.671 1004.35 209.472 999.999 206.625 1000.45C194.114 1002.32 182.277 1006.89 171.638 1013.79C169.166 1015.36 171.414 1019.18 173.886 1017.61Z" fill="#191A35"/>
<path d="M861.264 949.414C868.082 948.665 874.749 949.339 881.267 951.588C884.039 952.562 885.163 948.215 882.466 947.241C875.648 944.918 868.456 944.094 861.264 944.918C858.417 945.218 858.342 949.789 861.264 949.414Z" fill="#191A35"/>
<path d="M847.479 958.557C852.798 958.557 858.117 958.557 863.512 958.557C866.433 958.557 866.433 954.061 863.512 954.061C858.192 954.061 852.873 954.061 847.479 954.061C844.632 954.061 844.632 958.557 847.479 958.557Z" fill="#191A35"/>
<path d="M334.736 309.952C310.987 330.036 293.156 356.415 283.192 385.866C282.293 388.639 286.638 389.763 287.537 387.065C297.202 358.288 314.733 332.659 337.883 313.099C340.13 311.301 336.984 308.078 334.736 309.952Z" fill="#191A35"/>
<path d="M325.521 549.385C318.104 568.644 309.264 587.379 299.075 605.365C297.651 607.913 301.547 610.161 302.971 607.613C313.384 589.253 322.3 570.218 329.866 550.584C330.84 547.886 326.495 546.762 325.521 549.385Z" fill="#191A35"/>
<path d="M295.179 585.731C290.459 592.85 285.739 599.969 281.02 607.089C279.446 609.487 283.342 611.735 284.915 609.337C289.635 602.218 294.355 595.098 299.075 587.979C300.648 585.581 296.752 583.333 295.179 585.731Z" fill="#191A35"/>
<path d="M725.886 519.259C730.381 529.526 736.3 538.893 743.417 547.512C745.29 549.76 748.437 546.537 746.564 544.364C739.671 536.046 734.052 526.828 729.707 517.011C728.583 514.313 724.687 516.636 725.886 519.259Z" fill="#191A35"/>
<path d="M725.961 547.361C727.908 549.31 729.856 551.258 731.879 553.282C733.902 555.305 737.123 552.158 735.026 550.134C733.078 548.186 731.13 546.237 729.107 544.214C727.084 542.116 723.938 545.263 725.961 547.361Z" fill="#191A35"/>
<path d="M3.37118 1104.54C13.4103 1099.14 24.5731 1096 35.9608 1095.47C47.7979 1094.87 58.3614 1097.87 69.749 1100.72C79.9379 1103.34 89.7523 1102.44 100.016 1101.02C110.205 1099.67 120.993 1098.25 130.058 1104.24C132.456 1105.81 134.703 1101.92 132.306 1100.34C123.316 1094.42 112.677 1094.95 102.414 1096.22C97.1692 1096.9 91.9998 1097.72 86.7555 1098.02C80.3875 1098.32 74.394 1097.35 68.2506 1095.7C56.863 1092.55 45.9249 1090.23 34.0878 1091.13C22.5503 1091.95 11.3875 1095.25 1.19854 1100.72C-1.42361 1101.99 0.823946 1105.89 3.37118 1104.54Z" fill="#191A35"/>
<path d="M160.026 1104.32C163.473 1104.32 166.844 1104.32 170.29 1104.32C173.212 1104.32 173.212 1099.82 170.29 1099.82C166.844 1099.82 163.473 1099.82 160.026 1099.82C157.105 1099.82 157.105 1104.32 160.026 1104.32Z" fill="#191A35"/>
<path d="M235.994 1104.32C238.766 1104.32 241.463 1104.32 244.235 1104.32C247.156 1104.32 247.156 1099.82 244.235 1099.82C241.463 1099.82 238.766 1099.82 235.994 1099.82C233.072 1099.82 233.072 1104.32 235.994 1104.32Z" fill="#191A35"/>
<path d="M829.723 1070.97C848.078 1065.95 867.632 1069.39 886.212 1071.19C905.69 1073.07 925.094 1075.09 944.498 1077.56C947.345 1077.94 947.345 1073.44 944.498 1073.07C924.645 1070.59 904.641 1068.49 884.713 1066.55C866.133 1064.75 846.804 1061.6 828.524 1066.62C825.752 1067.37 826.951 1071.72 829.723 1070.97Z" fill="#191A35"/>
<path d="M868.681 1017.31C873.7 1015.59 878.87 1015.14 884.114 1016.04C886.961 1016.56 888.16 1012.21 885.313 1011.69C879.244 1010.64 873.326 1011.02 867.482 1012.96C864.71 1013.86 865.909 1018.21 868.681 1017.31Z" fill="#191A35"/>
<path d="M969.446 1048.48C973.567 1047.81 977.687 1047.06 981.733 1046.39C984.58 1045.86 983.381 1041.59 980.534 1042.04C976.414 1042.71 972.293 1043.46 968.247 1044.14C965.401 1044.66 966.599 1048.93 969.446 1048.48Z" fill="#191A35"/>
<path d="M1076.28 981.114C1078.38 980.589 1080.63 981.039 1082.35 982.463C1084.52 984.336 1087.74 981.189 1085.5 979.315C1082.57 976.842 1078.83 975.868 1075.08 976.842C1072.31 977.442 1073.51 981.788 1076.28 981.114Z" fill="#191A35"/>
<path d="M561.889 1150.03C574.701 1143.13 589.834 1150.03 603.095 1151.75C609.613 1152.58 615.681 1152.13 622.049 1150.78C628.117 1149.5 636.134 1147.11 640.704 1152.65C642.577 1154.9 645.723 1151.68 643.85 1149.5C639.655 1144.41 633.212 1144.26 627.144 1145.23C619.277 1146.43 612.235 1148.46 604.218 1147.48C589.385 1145.68 573.876 1138.56 559.567 1146.21C557.095 1147.48 559.342 1151.38 561.889 1150.03Z" fill="#191A35"/>
<path d="M24.4982 826.513C22.9249 826.588 21.7262 827.562 21.5763 829.136C21.5014 830.11 22.0259 831.01 22.6252 831.759C23.2246 832.433 23.9737 832.883 24.8728 833.033C26.2962 833.258 27.5698 832.284 27.8695 830.86C27.4949 831.309 27.1952 831.759 26.8206 832.209C28.4689 831.01 28.9184 829.061 27.9444 827.263C27.1203 825.614 25.1724 824.79 23.4493 825.464C21.7262 826.213 21.0519 828.012 21.4265 829.736C21.8011 831.459 23.1496 832.658 24.8728 832.733C26.0715 832.808 27.1952 831.684 27.1203 830.485C27.0454 829.211 26.1464 828.312 24.8728 828.237C25.2474 828.312 25.3972 828.312 25.1724 828.312C25.0226 828.237 25.0975 828.312 25.4721 828.462C25.1724 828.237 25.8467 828.836 25.622 828.537C25.7718 828.686 25.8467 828.986 25.6969 828.611C25.7718 828.761 25.8467 829.136 25.7718 828.761C25.6969 828.312 25.7718 829.136 25.7718 828.911C25.7718 828.836 25.7718 828.686 25.7718 828.611C25.9216 828.911 25.622 829.136 25.7718 828.761C25.622 829.136 25.547 829.211 25.622 829.061C25.6969 828.911 25.622 828.986 25.3972 829.286C25.6969 828.986 24.9477 829.586 25.2474 829.361C25.1724 829.436 25.0226 829.436 24.9477 829.511C24.5731 829.511 24.4982 829.586 24.7229 829.511C24.5731 829.511 24.4982 829.511 24.3483 829.436C24.4982 829.511 24.4982 829.511 24.2734 829.436C24.0487 829.361 24.0487 829.361 24.1985 829.436C23.8988 829.211 23.8239 829.136 23.9737 829.286C24.2734 829.511 23.8988 829.286 23.8988 829.136C23.9737 829.211 23.9737 829.286 24.0487 829.361C23.9737 829.286 23.9737 829.136 23.8988 829.061C23.8988 829.136 23.9737 829.211 23.9737 829.211C24.0487 829.361 23.9737 829.286 23.9737 828.911C23.9737 829.136 23.8988 829.361 24.0487 828.761C23.9737 829.136 24.3483 828.312 24.1236 828.611C24.1985 828.462 24.9477 827.862 24.3483 828.312C23.9737 828.612 23.6741 828.986 23.5242 829.511C23.4493 829.885 23.5991 829.286 23.6741 829.286C23.8988 828.911 24.2734 828.611 24.7229 828.462C24.9477 828.387 25.1724 828.387 25.4721 828.462C25.6969 828.537 25.7718 828.537 25.622 828.462C25.3223 828.387 26.2213 828.761 25.9216 828.537C25.6219 828.387 26.3711 828.986 26.1464 828.686C26.0715 828.612 25.6969 828.162 25.9965 828.537C26.2213 828.836 26.0715 828.611 25.9965 828.537C25.7718 828.162 26.0715 828.686 26.0715 828.761C26.0715 828.686 25.9965 828.611 25.9965 828.537C26.0715 828.911 26.1464 828.986 25.9965 829.436C25.9216 829.586 25.8467 829.736 25.8467 829.885C25.0975 830.485 24.8728 830.71 25.2474 830.56C25.0975 830.635 24.9477 830.71 24.8728 830.71C24.4233 830.785 24.2734 830.785 24.5731 830.785C25.7718 830.71 26.8956 829.81 26.8206 828.537C26.6708 827.562 25.7718 826.438 24.4982 826.513Z" fill="#191A35"/>
<path d="M98.443 762.964C97.9935 762.964 97.6189 762.964 97.1694 762.964C94.2476 762.964 94.2476 767.46 97.1694 767.46C97.6189 767.46 97.9935 767.46 98.443 767.46C101.29 767.46 101.29 762.964 98.443 762.964C97.9935 762.964 97.6189 762.964 97.1694 762.964C94.2476 762.964 94.2476 767.46 97.1694 767.46C97.6189 767.46 97.9935 767.46 98.443 767.46C101.29 767.46 101.29 762.964 98.443 762.964Z" fill="#191A35"/>
<path d="M336.384 228.792C335.41 226.469 333.238 225.345 330.765 225.794C328.593 226.169 326.72 227.968 326.72 230.291C326.72 232.614 328.668 234.412 330.765 234.787C333.238 235.237 335.41 234.188 336.384 231.789C336.834 230.665 335.86 229.316 334.811 229.017C333.537 228.642 332.488 229.466 332.039 230.59C332.039 230.441 332.114 230.366 332.264 230.291C332.114 230.441 332.114 230.441 332.189 230.366C332.339 230.291 332.264 230.291 332.114 230.366C332.339 230.291 332.339 230.291 332.114 230.366C331.664 230.515 332.488 230.366 331.964 230.366C331.814 230.366 331.29 230.291 331.739 230.366C331.514 230.291 331.365 230.291 331.14 230.216C331.739 230.441 330.69 229.991 331.065 230.141C331.215 230.216 331.14 230.216 330.99 230.066C331.14 230.291 331.14 230.291 330.99 230.066C330.99 230.141 331.065 230.216 331.065 230.291C330.99 230.066 330.99 230.066 331.065 230.291C330.99 230.815 331.215 229.991 330.99 230.515C331.215 230.141 330.765 230.665 331.065 230.366C330.615 230.815 331.44 230.141 331.14 230.291C330.915 230.366 331.514 230.141 331.589 230.141C331.215 230.216 331.589 230.141 331.814 230.141C332.413 230.141 331.44 229.991 331.964 230.141C332.189 230.216 332.189 230.216 331.964 230.141C332.039 230.141 332.039 230.216 332.114 230.216C331.889 230.066 331.889 230.066 332.114 230.216C332.039 230.141 331.964 229.991 331.964 229.916C332.414 231.04 333.462 231.864 334.736 231.49C335.86 231.265 336.834 229.916 336.384 228.792Z" fill="#191A35"/>
<path d="M650.518 272.407C650.518 272.482 650.518 272.482 650.518 272.557C650.518 275.479 655.013 275.479 655.013 272.557C655.013 272.482 655.013 272.332 655.013 272.257C655.013 269.334 650.518 269.334 650.518 272.257C650.518 272.257 650.518 272.332 650.518 272.407C650.518 275.329 655.013 275.329 655.013 272.407C655.013 272.332 655.013 272.332 655.013 272.257C655.013 269.334 650.518 269.334 650.518 272.257C650.518 272.332 650.518 272.482 650.518 272.557C650.518 275.479 655.013 275.479 655.013 272.557C655.013 272.482 655.013 272.482 655.013 272.407C655.013 269.484 650.518 269.484 650.518 272.407Z" fill="#191A35"/>
<path d="M781.55 373.501C781.925 371.478 781.026 369.529 779.153 368.48C777.355 367.506 775.182 367.656 773.609 369.08C773.01 369.604 772.785 370.503 773.01 371.253C773.759 373.576 776.156 374.7 778.479 374.101C779.528 373.801 780.502 373.126 781.101 372.152C782 370.653 781.476 369.08 779.977 368.18C778.029 367.056 775.407 367.656 773.984 369.304C772.335 371.253 772.785 374.176 774.958 375.524C777.055 376.873 780.277 376.349 781.476 374.026C782 372.976 781.775 371.553 780.651 370.953C779.678 370.354 778.104 370.653 777.58 371.777C777.28 372.302 777.88 371.403 777.505 371.852C777.954 371.253 777.28 372.302 777.805 371.702C777.73 371.777 777.055 371.852 777.73 371.777C777.655 371.777 777.13 371.777 777.505 371.777C777.805 371.777 777.28 371.702 777.205 371.702C776.906 371.628 777.58 371.777 777.205 371.702C777.43 371.852 777.43 371.927 777.355 371.777C777.205 371.628 777.28 371.702 777.43 371.927C777.355 371.777 777.28 371.702 777.355 371.927C777.43 372.077 777.43 372.077 777.355 371.852C777.355 371.927 777.355 372.002 777.355 372.077C777.355 371.777 777.355 371.852 777.355 372.152C777.355 372.227 777.28 372.302 777.28 372.377C777.355 372.227 777.43 372.152 777.28 372.302C777.055 372.527 777.43 372.152 777.43 372.152C776.98 372.452 777.505 372.152 777.58 372.077C777.13 372.302 777.58 372.077 777.73 372.077C777.205 372.227 777.655 372.002 777.88 372.077C777.43 371.852 777.954 372.377 777.58 372.002C777.954 372.302 777.28 371.702 777.655 372.077C777.43 371.328 777.28 370.653 777.055 369.904C776.98 370.279 777.205 369.754 777.28 369.679C777.055 369.979 777.505 369.604 777.28 369.679C777.055 369.754 777.655 369.604 777.28 369.679C776.756 369.754 777.73 369.754 777.205 369.679C777.13 369.679 776.681 369.754 776.98 369.679C777.13 369.679 777.13 369.679 776.98 369.679C777.055 369.679 777.13 369.754 777.205 369.754C777.055 369.754 776.681 369.379 777.13 369.754C777.205 369.829 777.205 369.904 777.28 369.979C777.13 369.754 777.205 369.754 777.28 370.054C777.055 370.803 776.906 371.478 776.681 372.227C776.531 372.377 776.456 372.377 776.606 372.302C776.756 372.227 776.681 372.227 776.456 372.302C776.531 372.302 776.606 372.302 776.606 372.227C776.306 372.227 776.306 372.302 776.456 372.227C776.606 372.227 776.606 372.227 776.306 372.152C776.381 372.152 776.456 372.152 776.456 372.227C776.681 372.302 776.681 372.302 776.531 372.227C776.381 372.152 776.381 372.152 776.606 372.302C776.681 372.302 777.13 372.602 776.831 372.452C776.606 372.302 776.981 372.677 776.756 372.377C776.906 372.602 776.906 372.827 776.831 372.527C776.906 372.902 776.831 372.377 776.831 372.227C776.606 373.426 777.13 374.625 778.404 375C779.902 375.375 781.326 374.7 781.55 373.501Z" fill="#191A35"/>
<path d="M1060.55 552.158C1060.17 552.008 1060.02 551.933 1060.25 552.008C1059.95 551.708 1059.8 551.633 1059.95 551.783C1059.72 551.408 1059.65 551.333 1059.72 551.558C1059.57 551.108 1059.5 551.034 1059.57 551.258C1059.65 551.558 1059.5 550.584 1059.5 551.109C1059.5 551.483 1059.65 550.434 1059.5 550.959C1059.42 551.333 1059.8 550.359 1059.57 550.809C1059.42 551.108 1059.95 550.359 1059.72 550.584C1059.57 550.734 1059.65 550.659 1059.95 550.359C1059.72 550.434 1059.87 550.434 1060.25 550.209C1060.02 550.284 1060.17 550.209 1060.62 550.134C1061.07 550.209 1061.22 550.209 1060.92 550.209C1061.3 550.359 1061.45 550.434 1061.22 550.359C1061.52 550.659 1061.67 550.734 1061.52 550.584C1061.75 550.959 1061.82 551.034 1061.75 550.809C1061.9 551.258 1061.97 551.333 1061.9 551.109C1061.82 550.734 1061.97 551.708 1061.97 551.333C1061.97 551.258 1061.97 551.183 1061.97 551.183C1061.9 551.633 1061.9 551.708 1061.97 551.483C1062.05 550.959 1061.75 551.933 1061.9 551.633C1062.12 551.183 1061.6 552.008 1061.82 551.783C1061.97 551.633 1061.9 551.708 1061.6 552.008C1061.82 551.933 1061.67 551.933 1061.3 552.158C1061.52 552.083 1061.37 552.158 1060.92 552.233C1060.47 552.158 1060.32 552.158 1060.55 552.158C1061.67 552.457 1063.02 551.783 1063.32 550.584C1063.62 549.46 1062.94 548.111 1061.75 547.811C1059.87 547.361 1058.15 548.561 1057.63 550.359C1057.1 552.083 1058 554.106 1059.8 554.631C1061.67 555.08 1063.39 553.881 1063.84 552.158C1064.37 550.284 1063.54 548.486 1061.67 547.811C1060.55 547.436 1059.2 548.261 1058.9 549.385C1058.75 550.659 1059.35 551.783 1060.55 552.158Z" fill="#191A35"/>
<path d="M1037.55 906.849H483.075L684.905 601.468H1239.38L1037.55 906.849Z" stroke="#191A35" stroke-width="7" stroke-miterlimit="10" stroke-linecap="round" stroke-linejoin="round"/>
<path d="M727.31 614.583H1110.29" stroke="#191A35" stroke-width="6" stroke-miterlimit="10" stroke-linecap="round" stroke-linejoin="round"/>
<path d="M535.593 235.986C550.352 243.255 568.033 240.782 581.368 231.04C585.713 227.892 589.834 223.471 590.733 217.625C578.296 224.52 564.212 230.365 550.801 225.719C547.13 224.445 543.684 222.422 540.238 220.398C536.567 218.225 532.821 214.478 529.15 212.305C530.424 219.949 532.671 228.941 535.593 235.986Z" fill="#191A35"/>
<path d="M534.993 236.96C545.482 241.906 557.394 242.581 568.407 238.908C578.296 235.611 589.534 228.867 591.782 217.85C592.006 216.876 591.033 216.127 590.133 216.576C580.469 221.897 569.681 226.993 558.368 226.094C552.375 225.644 547.055 223.096 541.961 220.024C537.616 217.476 534.019 213.953 529.749 211.256C528.85 210.656 527.951 211.63 528.101 212.53C529.449 220.548 531.397 228.567 534.544 236.136C535.068 237.485 537.241 236.885 536.717 235.536C533.645 227.967 531.697 219.949 530.274 211.93C529.749 212.38 529.15 212.754 528.625 213.204C533.645 216.352 537.915 220.398 543.16 223.246C547.954 225.869 552.899 227.892 558.443 228.267C570.13 229.166 581.368 223.921 591.332 218.45C590.808 218 590.208 217.626 589.684 217.176C587.586 227.742 576.274 234.112 566.759 236.96C556.645 240.033 545.782 239.358 536.192 234.862C534.844 234.337 533.72 236.286 534.993 236.96Z" fill="#191A35"/>
<path d="M914.231 211.555C951.553 211.555 981.808 181.292 981.808 143.96C981.808 106.627 951.553 76.3638 914.231 76.3638C876.91 76.3638 846.655 106.627 846.655 143.96C846.655 181.292 876.91 211.555 914.231 211.555Z" stroke="#191A35" stroke-width="7" stroke-miterlimit="10" stroke-linecap="round" stroke-linejoin="round"/>
<path d="M914.231 224.445C958.669 224.445 994.694 188.411 994.694 143.96C994.694 99.5087 958.669 63.4741 914.231 63.4741C869.793 63.4741 833.769 99.5087 833.769 143.96C833.769 188.411 869.793 224.445 914.231 224.445Z" stroke="#191A35" stroke-width="7" stroke-miterlimit="10" stroke-linecap="round" stroke-linejoin="round"/>
<path d="M935.658 248.351L926.743 225.344" stroke="#191A35" stroke-width="7" stroke-miterlimit="10" stroke-linecap="round" stroke-linejoin="round"/>
<path d="M993.944 347.796L1006.68 380.92C1008.18 384.892 1005.48 389.538 1000.69 391.411C995.892 393.21 990.723 391.561 989.225 387.59L980.759 365.557" stroke="#191A35" stroke-width="7" stroke-miterlimit="10" stroke-linecap="round" stroke-linejoin="round"/>
<path d="M944.199 218.675L950.642 235.311" stroke="#191A35" stroke-width="7" stroke-miterlimit="10" stroke-linecap="round" stroke-linejoin="round"/>
<path d="M472.137 63.5493C455.43 84.6824 441.12 108.363 434.902 134.592C428.684 160.821 431.381 189.973 446.365 212.38C447.863 214.628 450.26 217.101 452.883 216.277C454.681 215.677 455.655 213.654 456.104 211.781C457.453 206.61 457.078 201.064 454.98 196.118C457.827 208.109 462.172 219.724 467.941 230.665C468.99 232.614 470.264 234.712 472.361 235.387C475.208 236.361 478.355 234.038 479.479 231.265C480.602 228.492 480.153 225.27 479.778 222.272C481.876 229.541 484.049 236.885 488.244 243.18C492.44 249.475 499.107 254.571 506.674 254.946" stroke="#191A35" stroke-width="7" stroke-miterlimit="10" stroke-linecap="round" stroke-linejoin="round"/>
<path d="M525.554 86.7056C516.114 138.414 520.01 192.521 536.716 242.431C535.293 245.353 530.723 243.48 528.475 241.082C523.681 236.061 519.86 230.141 517.312 223.696" stroke="#191A35" stroke-width="7" stroke-miterlimit="10" stroke-linecap="round" stroke-linejoin="round"/>
<path d="M498.808 198.741C500.905 218.075 507.648 236.96 518.436 253.222" stroke="#191A35" stroke-width="7" stroke-miterlimit="10" stroke-linecap="round" stroke-linejoin="round"/>
<path d="M483.075 78.687C469.59 117.056 468.241 159.547 479.254 198.666" stroke="#191A35" stroke-width="7" stroke-miterlimit="10" stroke-linecap="round" stroke-linejoin="round"/>
<path d="M480.828 145.084C480.228 157.599 481.202 170.189 483.674 182.479" stroke="#191A35" stroke-width="7" stroke-miterlimit="10" stroke-linecap="round" stroke-linejoin="round"/>
<path d="M452.658 126.798C450.486 140.737 450.036 154.976 451.16 168.99" stroke="#191A35" stroke-width="7" stroke-miterlimit="10" stroke-linecap="round" stroke-linejoin="round"/>
<path d="M514.016 90.3027C507.199 113.609 505.101 138.189 507.798 162.32" stroke="#191A35" stroke-width="7" stroke-miterlimit="10" stroke-linecap="round" stroke-linejoin="round"/>
<path d="M514.166 72.6167C520.534 83.6329 531.322 91.9512 543.534 95.3235C555.746 98.6958 569.306 97.0471 580.394 90.9021C581.743 90.1527 583.166 89.2534 583.69 87.8295C584.964 84.5322 580.918 81.4596 577.397 81.3097C569.081 81.01 562.638 89.2534 561.215 97.4968C560.99 98.8457 560.84 100.27 561.44 101.469C562.039 102.818 563.388 103.717 564.736 104.391C570.954 107.464 578.296 106.864 585.114 105.59C605.941 101.618 625.57 91.2768 640.554 76.2138" stroke="#191A35" stroke-width="7" stroke-miterlimit="10" stroke-linecap="round" stroke-linejoin="round"/>
<path d="M526.153 66.397C530.124 72.6919 536.417 77.4131 543.609 79.5115" stroke="#191A35" stroke-width="7" stroke-miterlimit="10" stroke-linecap="round" stroke-linejoin="round"/>
<path d="M640.479 63.5491C638.681 39.3435 615.531 17.6109 593.055 8.39326C570.58 -0.899297 544.208 1.57372 522.482 12.44C500.756 23.3063 483.524 41.9664 471.837 63.3243" stroke="#191A35" stroke-width="7" stroke-miterlimit="10" stroke-linecap="round" stroke-linejoin="round"/>
<path d="M644.899 102.743C655.013 140.662 658.534 164.268 663.254 203.162C664.378 212.53 664.228 224.295 655.837 228.642C647.521 232.988 636.883 225.644 634.785 216.502C634.335 214.628 634.335 212.155 636.059 211.181C638.231 209.907 640.778 212.08 642.127 214.253C647.146 222.497 647.596 234.337 640.703 241.157C633.811 247.976 619.427 245.503 617.404 235.986" stroke="#191A35" stroke-width="7" stroke-miterlimit="10" stroke-linecap="round" stroke-linejoin="round"/>
<path d="M635.834 159.397C634.26 171.238 635.384 183.453 639.055 194.844" stroke="#191A35" stroke-width="7" stroke-miterlimit="10" stroke-linecap="round" stroke-linejoin="round"/>
<path d="M939.104 117.131L924.645 164.194" stroke="#191A35" stroke-width="7" stroke-miterlimit="10" stroke-linecap="round" stroke-linejoin="round"/>
<path d="M948.993 123.351L936.632 161.121" stroke="#191A35" stroke-width="7" stroke-miterlimit="10" stroke-linecap="round" stroke-linejoin="round"/>
<path d="M893.254 785.821C910.756 785.821 924.945 771.628 924.945 754.121C924.945 736.614 910.756 722.421 893.254 722.421C875.752 722.421 861.563 736.614 861.563 754.121C861.563 771.628 875.752 785.821 893.254 785.821Z" stroke="#191A35" stroke-width="7" stroke-miterlimit="10" stroke-linecap="round" stroke-linejoin="round"/>
</g>
<defs>
<clipPath id="clip0">
<rect width="1242" height="1186" fill="white"/>
</clipPath>
</defs>
</svg>
