<?xml version="1.0" standalone="no"?>
<!DOCTYPE svg PUBLIC "-//W3C//DTD SVG 1.1//EN" "http://www.w3.org/Graphics/SVG/1.1/DTD/svg11.dtd" >
<svg xmlns="http://www.w3.org/2000/svg">
<metadata>Generated by IcoMoon</metadata>
<defs>
<font id="icomoon" horiz-adv-x="1024">
<font-face units-per-em="1024" ascent="960" descent="-64" />
<missing-glyph horiz-adv-x="1024" />
<glyph unicode="&#x20;" horiz-adv-x="512" d="" />
<glyph unicode="&#xe900;" d="M510.623 960c-281.998 0-510.623-228.625-510.623-510.623s228.625-510.623 510.623-510.623c281.998 0 510.623 228.625 510.623 510.623s-228.625 510.623-510.623 510.623z" />
<glyph unicode="&#xe901;" d="M817.778 295.811c0-85.458-69.507-154.965-154.965-154.965h-304.378c-85.447 0-154.965 69.507-154.965 154.965v304.378c0 85.447 69.518 154.965 154.965 154.965h304.378c85.458 0 154.965-69.518 154.965-154.965v-304.378z" />
<glyph unicode="&#xe902;" d="M510.623 539.352c-50.358 0-91.364-40.983-91.364-91.341 0-50.381 41.006-91.375 91.364-91.375 50.381 0 91.352 40.994 91.352 91.375 0 50.347-40.983 91.341-91.352 91.341z" />
<glyph unicode="&#xe903;" d="M662.812 688.299h-304.378c-48.583 0-88.11-39.526-88.11-88.11v-304.378c0-48.583 39.526-88.121 88.11-88.121h304.378c48.583 0 88.121 39.526 88.121 88.121v304.378c0 48.583-39.526 88.11-88.121 88.11zM510.623 289.781c-87.233 0-158.208 70.975-158.208 158.219 0 87.233 70.975 158.208 158.208 158.208 87.245 0 158.219-70.975 158.219-158.208s-70.986-158.219-158.219-158.219zM673.929 573.497c-20.651 0-37.444 16.794-37.444 37.433s16.794 37.433 37.444 37.433c20.639 0 37.433-16.794 37.433-37.433s-16.794-37.433-37.433-37.433z" />
<glyph unicode="&#xe904;" d="M1023.853 448.073c0-282.729-229.197-511.927-511.927-511.927s-511.927 229.197-511.927 511.927c0 282.729 229.197 511.927 511.927 511.927s511.927-229.197 511.927-511.927z" />
<glyph unicode="&#xe905;" d="M873.895 810.116c199.92-199.937 199.937-524.083 0-724.020-199.92-199.92-524.083-199.928-724.020 0l724.020 724.020z" />
<glyph unicode="&#xe906;" d="M1013.561 345.544l-253.369 253.36-298.822-34.023-180.753-279.833 337.751-337.743c198.578 42.008 354.695 199.086 395.193 398.239z" />
<glyph unicode="&#xe907;" d="M779.819 546.861c0 42.915-34.766 77.699-77.658 77.699h-364.345c-42.883 0-77.643-34.792-77.643-77.699v-208.352c0-42.915 34.766-77.699 77.643-77.699h364.339c42.9 0 77.658 34.792 77.658 77.699v208.352h0.006zM468.016 354.79v195.692l148.404-97.85-148.404-97.842z" />
<glyph unicode="&#xe908;" d="M508.436 960c-280.351 0-508.436-228.086-508.436-508.436 0-280.33 228.086-508.436 508.436-508.436 280.33 0 508.436 228.106 508.436 508.436 0 280.351-228.065 508.436-508.436 508.436z" />
<glyph unicode="&#xe909;" d="M634.88 433.664h-82.719c0-132.157 0-294.83 0-294.83h-122.573c0 0 0 161.096 0 294.83h-58.266v104.202h58.266v67.4c0 48.271 22.938 123.699 123.699 123.699l90.829-0.348v-101.151c0 0-55.194 0-65.925 0s-25.989-5.366-25.989-28.385v-61.235h93.389l-10.711-104.182z" />
<glyph unicode="&#xe90a;" glyph-name="arrowleft" horiz-adv-x="614" d="M589.386 937.495c-32.204 30.006-84.407 30.006-116.611 0l-448.63-417.527c-32.194-30.016-32.194-78.671 0-108.686l448.465-417.681c20.706-19.981 51.368-27.995 80.201-20.961s51.351 28.022 58.898 54.896c7.547 26.874-1.051 55.452-22.489 74.751l-390.077 363.261 390.077 363.261c32.24 29.973 32.314 78.628 0.165 108.686z" />
<glyph unicode="&#xe90d;" d="M511.986 960c-282.757 0-511.983-229.233-511.983-511.99 0-282.75 229.226-512 511.983-512s512 229.25 512 512c0 282.757-229.243 511.99-512 511.99z" />
<glyph unicode="&#xe90e;" d="M511.997 780.165l302.978-188.928h-605.955z" />
<glyph unicode="&#xe90f;" d="M818.749 289.543h-0.031c0-30.304-24.559-54.859-54.859-54.859h-503.726c-30.304 0-54.859 24.559-54.859 54.859v289.673c0 3.205 0.328 6.321 0.86 9.383l289.478-180.507c0.355-0.222 0.734-0.372 1.099-0.577 0.382-0.212 0.771-0.416 1.161-0.611 2.045-1.055 4.151-1.905 6.304-2.461 0.222-0.061 0.444-0.089 0.666-0.14 2.362-0.556 4.755-0.905 7.144-0.905h0.017c0.017 0 0.034 0 0.034 0 2.389 0 4.782 0.338 7.144 0.905 0.222 0.055 0.444 0.079 0.666 0.14 2.15 0.556 4.25 1.406 6.304 2.461 0.389 0.195 0.778 0.399 1.161 0.611 0.362 0.205 0.744 0.355 1.099 0.577l289.478 180.507c0.532-3.062 0.86-6.171 0.86-9.383v-289.673z" />
<glyph unicode="&#xe910;" glyph-name="heart-mobile" horiz-adv-x="1119" d="M783.356 715.685c-33.857 34.695-79.144 53.803-127.523 53.803-47.633 0-92.419-18.589-126.11-52.349l-17.388-17.434-17.404 17.439c-33.688 33.756-78.466 52.345-126.085 52.345-47.634 0-92.419-18.589-126.105-52.345-33.681-33.747-52.229-78.618-52.229-126.348s18.548-92.601 52.229-126.348l222.884-223.33c12.876-12.899 29.784-19.349 46.696-19.349 16.908 0.001 33.82 6.45 46.692 19.348l221.449 221.873c69.553 69.695 70.852 183.052 2.893 252.696zM757.113 486.384l-221.448-221.876c-12.873-12.898-33.82-12.898-46.692 0.001l-222.886 223.334c-27.445 27.498-42.558 64.060-42.558 102.953s15.114 75.455 42.558 102.954c27.45 27.506 63.944 42.654 102.758 42.654 38.8 0 75.286-15.148 102.737-42.654l17.413-17.448-26.665-26.738c-6.445-6.463-6.44-16.936 0.009-23.394 3.224-3.228 7.446-4.841 11.669-4.841 4.228 0 8.454 1.618 11.678 4.85l67.384 67.572c27.451 27.506 63.944 42.654 102.758 42.654 39.419 0 76.322-15.573 103.915-43.849 55.376-56.747 54.195-149.235-2.631-206.173z" />
<glyph unicode="&#xe911;" glyph-name="heart" horiz-adv-x="1207" d="M1082.365 853.203c123.691-126.759 121.328-333.081-5.266-459.933l-403.061-403.832c-23.429-23.476-54.21-35.213-84.985-35.216-30.782 0-61.557 11.74-84.992 35.218l-405.673 406.485c-61.303 61.424-95.063 143.093-95.063 229.967s33.76 168.543 95.063 229.967c61.312 61.44 142.825 95.274 229.525 95.274 86.672 0 168.171-33.835 229.488-95.274l31.678-31.741 31.648 31.732c61.321 61.446 142.837 95.281 229.534 95.281 88.055 0 170.482-34.778 232.105-97.926zM1034.6 435.85c103.429 103.634 105.579 271.971 4.789 375.256-50.222 51.465-117.39 79.81-189.136 79.81-70.647 0-137.067-27.571-187.031-77.634l-122.647-122.989c-5.867-5.881-13.559-8.827-21.255-8.827-7.687 0-15.371 2.936-21.239 8.811-11.737 11.754-11.746 30.816-0.016 42.579l48.533 48.667-31.694 31.757c-49.963 50.064-116.373 77.634-186.992 77.634-70.647 0-137.070-27.571-187.031-77.634-49.952-50.052-77.461-116.599-77.461-187.388s27.509-137.336 77.461-187.385l405.675-406.491c23.429-23.478 61.554-23.478 84.985-0.002l403.058 403.837z" />
<glyph unicode="&#xe912;" glyph-name="heartfillred" horiz-adv-x="1132" d="M762.198 694.812c62.659-64.213 61.462-168.732-2.668-232.993l-204.182-204.573c-11.868-11.892-27.462-17.838-43.052-17.84-15.593 0-31.183 5.947-43.055 17.841l-205.505 205.917c-31.055 31.116-48.157 72.488-48.157 116.496s17.102 85.38 48.157 116.496c31.059 31.124 72.352 48.264 116.272 48.264 43.906 0 85.192-17.14 116.254-48.264l16.047-16.079 16.032 16.075c31.064 31.127 72.358 48.267 116.277 48.267 44.607 0 86.363-17.618 117.58-49.607z" />
<glyph unicode="&#xe913;" glyph-name="menu-mobile" horiz-adv-x="1164" d="M87.193 773.818h989.249c47.56 0 87.193 42.314 87.193 93.091s-39.633 93.091-87.193 93.091h-989.249c-47.56 0-87.193-42.314-87.193-93.091s38.048-93.091 87.193-93.091zM87.193 354.909h989.249c47.56 0 87.193 42.314 87.193 93.091s-39.633 93.091-87.193 93.091h-989.249c-47.56 0-87.193-42.314-87.193-93.091s38.048-93.091 87.193-93.091zM87.193-64h989.249c47.56 0 87.193 42.314 87.193 93.091s-39.633 93.091-87.193 93.091h-989.249c-47.56 0-87.193-42.314-87.193-93.091s38.048-93.091 87.193-93.091z" />
<glyph unicode="&#xe914;" glyph-name="more-mobile" horiz-adv-x="1061" d="M539.429 1014.857c297.577 0 539.429-243.217 539.429-539.986s-241.851-538.871-539.429-538.871c-297.577 0-539.429 240.986-539.429 538.871s241.851 539.986 539.429 539.986zM277.42 373.322c42.127 0 77.061 33.907 77.061 77.061s-33.907 77.061-77.061 77.061c-43.154 0-77.061-33.907-77.061-77.061s34.934-77.061 77.061-77.061zM524.016 373.322c42.127 0 77.061 33.907 77.061 77.061s-33.907 77.061-77.061 77.061c-43.154 0-77.061-33.907-77.061-77.061s34.934-77.061 77.061-77.061zM801.437 373.322c43.154 0 77.061 33.907 77.061 77.061s-33.907 77.061-77.061 77.061c-43.154 0-77.061-33.907-77.061-77.061s34.934-77.061 77.061-77.061z" />
<glyph unicode="&#xe915;" glyph-name="more" horiz-adv-x="1061" d="M539.429 1014.857c297.577 0 539.429-243.217 539.429-539.986s-241.851-538.871-539.429-538.871c-297.577 0-539.429 240.986-539.429 538.871s241.851 539.986 539.429 539.986zM277.42 373.322c42.127 0 77.061 33.907 77.061 77.061s-33.907 77.061-77.061 77.061c-43.154 0-77.061-33.907-77.061-77.061s34.934-77.061 77.061-77.061zM524.016 373.322c42.127 0 77.061 33.907 77.061 77.061s-33.907 77.061-77.061 77.061c-43.154 0-77.061-33.907-77.061-77.061s34.934-77.061 77.061-77.061zM801.437 373.322c43.154 0 77.061 33.907 77.061 77.061s-33.907 77.061-77.061 77.061c-43.154 0-77.061-33.907-77.061-77.061s34.934-77.061 77.061-77.061z" />
<glyph unicode="&#xe916;" d="M511.361 960c-282.417 0-511.361-228.945-511.361-511.361s228.939-511.36 511.361-511.36c282.415 0 511.361 228.945 511.361 511.36-0.002 282.417-228.946 511.361-511.361 511.361z" />
<glyph unicode="&#xe917;" d="M560.943 276.737c-46.462 3.609-65.96 26.622-102.377 48.747-20.035-105.048-44.508-205.763-116.993-258.366-22.377 158.768 32.852 278.016 58.496 404.608-43.729 73.615 5.262 221.757 97.499 185.242 113.484-44.891-98.277-273.665 43.877-302.239 148.434-29.83 209.026 257.538 116.995 350.988-132.993 134.936-387.114 3.076-355.865-190.119 7.605-47.232 56.401-61.561 19.498-126.744-85.113 18.867-110.511 85.995-107.242 175.493 5.262 146.491 131.62 249.053 258.364 263.237 160.281 17.941 310.719-58.834 331.49-209.615 23.385-170.176-72.355-354.488-243.743-341.234z" />
<glyph unicode="&#xe91a;" glyph-name="timeplay" horiz-adv-x="910" d="M872.74 495.696l-796.743 453.108c-46.579 26.233-75.997 4.77-75.997-47.696v-906.217c0-52.465 29.418-73.928 75.997-47.696l801.646 453.108c46.579 26.233 41.676 69.159-4.903 95.391z" />
<glyph unicode="&#xe91b;" glyph-name="envelop" d="M511.998 960c-282.771 0-512.002-229.231-512.002-512.002s229.231-512.002 512.002-512.002c282.771 0 512.002 229.231 512.002 512.002v0c0 282.771-229.231 512.002-512.002 512.002v0zM271.385 638.62h481.229c8.008-0.038 15.567-1.927 22.281-5.259l-0.295 0.133-226.317-225.185c-9.29-9.275-22.116-15.010-36.282-15.010s-26.992 5.735-36.283 15.011l0.001-0.001-226.317 225.153c6.416 3.21 13.972 5.109 21.966 5.158h0.016zM220.058 279.409v307.912c0.039 8.007 1.927 15.564 5.259 22.278l-0.133-0.295 177.072-175.932-177.072-175.932c-3.198 6.415-5.086 13.967-5.127 21.957v0.014zM752.615 228.094h-481.229c-8.007 0.038-15.564 1.927-22.277 5.259l0.295-0.133 177.072 175.932 25.054-25.058c15.487-15.451 36.863-25.005 60.471-25.005s44.983 9.554 60.472 25.007l25.056 25.056 177.072-175.932c-6.419-3.2-13.978-5.089-21.973-5.127h-0.013zM803.93 279.409c-0.038-8.008-1.927-15.567-5.259-22.281l0.133 0.295-177.072 175.932 177.072 175.932c3.2-6.418 5.088-13.975 5.127-21.969v-0.013z" />
<glyph unicode="&#xe91c;" glyph-name="pinterest-recipe" d="M511.998 960c-282.771 0-512.002-229.231-512.002-512.002s229.231-512.002 512.002-512.002c282.771 0 512.002 229.231 512.002 512.002v0c0 282.771-229.231 512.002-512.002 512.002v0zM563.049 273.284c-1.036-0.035-2.253-0.055-3.475-0.055-36.657 0-69.115 17.977-89.039 45.597l-0.222 0.324s-22.053-84.707-26.726-101.057c-16.57-46.257-39.819-86.196-69.030-120.959l0.489 0.597c-0.947-1.183-2.392-1.935-4.012-1.935-2.448 0-4.495 1.716-5.005 4.011l-0.006 0.034c-3.554 20.034-5.587 43.098-5.587 66.637 0 25.827 2.446 51.083 7.12 75.548l-0.398-2.503 48.862 200.34c-7.666 16.596-12.137 36.016-12.137 56.48 0 0.597 0.004 1.193 0.011 1.788l-0.001-0.090c0 54.494 32.606 95.165 73.219 95.165 0.488 0.017 1.062 0.027 1.637 0.027 27.548 0 49.88-22.332 49.88-49.88 0-1.888-0.105-3.751-0.309-5.584l0.020 0.226c-8.336-49.758-19.983-93.63-35.211-135.789l1.69 5.355c-1.028-4.067-1.619-8.735-1.619-13.541 0-31.73 25.722-57.452 57.452-57.452 1.433 0 2.853 0.052 4.26 0.156l-0.188-0.011c71.937 0 120.385 89.475 120.385 195.461 0 80.542-56 140.865-157.984 140.865-2.947 0.175-6.392 0.275-9.861 0.275-97.537 0-176.655-78.862-177.070-176.301v-0.040c-0.059-1.309-0.093-2.845-0.093-4.388 0-25.939 9.522-49.655 25.262-67.841l-0.111 0.131c4.135-3.222 6.769-8.202 6.769-13.797 0-2.411-0.489-4.708-1.373-6.797l0.043 0.114-7.741-29.538c-1.203-6.124-6.528-10.68-12.918-10.68-2.227 0-4.324 0.553-6.162 1.53l0.071-0.034c-46.873 23.478-78.487 71.139-78.487 126.183 0 5.025 0.263 9.988 0.777 14.877l-0.052-0.61c0 104.413 90.91 229.661 271.326 229.661 144.994 0 240.356-101.566 240.392-210.593-0.016-144.162-82.833-251.903-204.847-251.903z" />
<glyph unicode="&#xe91d;" glyph-name="printer" d="M354.462 448v-275.692h315.077v275.692zM388.726 395.488h109.592v-39.385h-109.592zM388.726 342.973h164.387v-39.385h-164.387zM607.909 198.565h-219.183v39.385h219.183zM607.909 251.077h-219.183v39.385h219.183zM512 960c-282.77 0-512-229.23-512-512s229.23-512 512-512c282.77 0 512 229.23 512 512v0c0 282.77-229.23 512-512 512v0zM306.515 719.317c-0.012 0.372-0.018 0.81-0.018 1.249 0 22.993 18.243 41.724 41.044 42.51l0.072 0.002h328.775c22.869-0.766 41.117-19.489 41.117-42.474 0-0.452-0.007-0.903-0.021-1.352l0.002 0.066v-87.52h-41.098v87.52h-328.775v-87.52h-41.098zM827.077 369.231c0-0.007 0-0.015 0-0.024 0-21.738-17.623-39.361-39.361-39.361-0.008 0-0.017 0-0.025 0h-78.768v-157.538c0-0.007 0-0.015 0-0.024 0-21.738-17.623-39.361-39.361-39.361-0.008 0-0.017 0-0.025 0h-315.076c-21.752 0-39.385 17.633-39.385 39.385v0 157.538h-78.769c-21.752 0-39.385 17.633-39.385 39.385v0 196.923c0.016 21.745 17.639 39.369 39.383 39.385h551.386c21.752 0 39.385-17.633 39.385-39.385v0zM748.308 566.154c-21.752 0-39.385-17.633-39.385-39.385s17.633-39.385 39.385-39.385c21.752 0 39.385 17.633 39.385 39.385v0c0 21.752-17.633 39.385-39.385 39.385v0z" />
<glyph unicode="&#xe91e;" glyph-name="whatsapp" d="M349.735 612.651c-41.526-41.554-67.208-98.946-67.208-162.336 0-37.984 9.221-73.814 25.547-105.374l-0.603 1.282 10.149-19.885-19.086-92.711 90.742 21.496 20.602-10.272c29.733-15.082 64.828-23.916 101.987-23.916 126.7 0 229.411 102.711 229.411 229.411s-102.711 229.411-229.411 229.411c-63.307 0-120.624-25.642-162.133-67.108l0.002 0.002zM666.23 355.111c-11.083-20.338-28.759-35.907-50.104-44.034l-0.655-0.219c-38.857-9.409-98.532-0.228-173.044 69.317-64.496 60.215-81.554 110.36-77.525 150.138 5.322 23.263 18.555 42.816 36.659 56.134l0.264 0.186c3.666 3.126 8.46 5.028 13.697 5.028 8.587 0 15.98-5.113 19.301-12.461l0.054-0.133 23.883-54.020c1.142-2.517 1.807-5.458 1.807-8.554 0-4.895-1.662-9.401-4.453-12.985l0.036 0.047-12.115-15.679c-2.711-3.464-4.348-7.882-4.348-12.683 0-3.766 1.007-7.297 2.767-10.338l-0.053 0.099c26.048-35.356 58.661-64.283 96.24-85.427l1.52-0.786c2.28-0.942 4.928-1.489 7.704-1.489 5.788 0 11.020 2.379 14.773 6.212l0.004 0.004 13.887 14.139c3.842 3.911 9.186 6.335 15.097 6.335 2.079 0 4.088-0.3 5.985-0.859l-0.15 0.038 56.769-16.297c8.917-2.629 15.315-10.742 15.315-20.349 0-4.222-1.235-8.155-3.365-11.458l0.050 0.084zM512 960c-282.77 0-512-229.23-512-512s229.23-512 512-512c282.77 0 512 229.23 512 512v0c0 282.77-229.23 512-512 512v0zM507.439 157.342c-46.003 0.668-89.233 11.885-127.586 31.331l1.662-0.764-147.992-35.052c-0.778-0.189-1.672-0.298-2.59-0.298-6.308 0-11.422 5.114-11.422 11.422 0 0.802 0.083 1.585 0.24 2.341l-0.013-0.074 31.114 151.028c-20.159 38.718-31.983 84.548-31.983 133.14 0 161.879 131.229 293.108 293.108 293.108s293.108-131.229 293.108-293.108c0-161.879-131.229-293.108-293.108-293.108-1.596 0-3.188 0.013-4.778 0.038l0.24-0.003z" />
<glyph unicode="&#xe91f;" glyph-name="big-star-rank" horiz-adv-x="1136" d="M372.259 650.722l-352.424-64.458c-11.212-1.456-19.784-10.946-19.784-22.439 0-6.254 2.538-11.915 6.641-16.009v0l244.912-248.784-44.203-336.977c-0.068-0.678-0.107-1.466-0.107-2.263 0-13.264 10.753-24.017 24.017-24.017 3.912 0 7.606 0.936 10.87 2.595l-0.137-0.063 326.152 143.613 326.149-143.613c3.054-1.489 6.645-2.36 10.439-2.36 13.406 0 24.273 10.868 24.273 24.273 0 0.645-0.025 1.285-0.075 1.918l0.005-0.084-44.185 336.983 244.909 248.784c4.103 4.095 6.642 9.756 6.642 16.010 0 11.492-8.571 20.982-19.67 22.427l-0.114 0.012-352.43 64.458-174.439 297.398c-4.324 7.163-12.065 11.878-20.908 11.878s-16.584-4.716-20.847-11.769l-0.061-0.109z" />
<glyph unicode="&#xe920;" glyph-name="show-more-arrow" horiz-adv-x="1638" d="M895.508-21.832l724.972 896.328c41.984 52.408 7.68 85.504-76.288 85.504h-1449.984c-83.968 0-118.272-33.096-76.288-85.504l724.992-901.837c17.326-22.328 44.166-36.56 74.33-36.56 32.545 0 61.22 16.568 78.052 41.729l0.214 0.34z" />
<glyph unicode="&#xe921;" glyph-name="camera" horiz-adv-x="1497" d="M0 731.14c0.52 45.716 37.701 82.575 83.49 82.575 0.168 0 0.336 0 0.504-0.001h262.039c18.68 0.967 35.626 7.674 49.296 18.375l-0.191-0.144 126.401 109.824c13.524 10.586 30.534 17.299 49.068 18.223l0.206 0.008h354.989c18.738-0.946 35.745-7.656 49.467-18.376l-0.193 0.145 126.401-109.824c13.455-10.607 30.417-17.326 48.906-18.223l0.198-0.008h262.065c0.277 0.003 0.604 0.005 0.931 0.005 45.699 0 82.777-36.916 83.037-82.554v-712.591c-0.483-45.709-37.65-82.577-83.428-82.577-0.276 0-0.551 0.001-0.826 0.004h-1328.149c-0.312-0.004-0.681-0.007-1.050-0.007-45.725 0-82.831 36.902-83.162 82.549v0.032zM56.123 731.14v-712.566c0-0.015 0-0.033 0-0.050 0-15.28 12.387-27.668 27.668-27.668 0.148 0 0.296 0.001 0.444 0.003h1328.169c0.047 0 0.103 0 0.158 0 15.35 0 27.808 12.382 27.931 27.704v712.578c0 0.052 0.001 0.113 0.001 0.175 0 15.213-12.333 27.546-27.546 27.546-0.105 0-0.211-0.001-0.316-0.002h-262.049c-32.975 0.883-62.994 12.847-86.637 32.284l0.247-0.197-126.401 109.824c-3.457 1.888-7.463 3.396-11.689 4.317l-0.3 0.055h-354.989c-4.523-0.958-8.53-2.468-12.22-4.487l0.231 0.116-126.381-109.824c-23.421-19.19-53.424-31.142-86.186-32.082l-0.204-0.005h-262.085c-15.299-0.088-27.685-12.431-27.845-27.704v-0.015zM748.308 91.427c-1.090-0.013-2.376-0.021-3.664-0.021-177.489 0-321.619 142.831-323.718 319.822l-0.002 0.198c4.215 177.588 149.176 319.939 327.385 319.939s323.17-142.351 327.377-319.548l0.007-0.391c-2.101-177.19-146.231-320.021-323.72-320.021-1.288 0-2.575 0.008-3.86 0.023l0.195-0.002zM748.308 146.286c0.9-0.011 1.963-0.017 3.027-0.017 147.064 0 266.487 118.343 268.233 264.993l0.002 0.165c-3.471 147.161-123.59 265.13-271.262 265.13s-267.791-117.97-271.256-264.809l-0.006-0.322c1.748-146.815 121.171-265.158 268.235-265.158 1.064 0 2.127 0.006 3.188 0.019l-0.161-0.001zM1197.292 658.074c0.055 5.178 4.266 9.355 9.452 9.355 0.042 0 0.083 0 0.125-0.001h93.099c0.035 0 0.077 0.001 0.119 0.001 5.186 0 9.397-4.176 9.452-9.349v-91.011c-0.055-5.178-4.266-9.355-9.452-9.355-0.042 0-0.083 0-0.125 0.001h-93.099c-0.035 0-0.077-0.001-0.119-0.001-5.186 0-9.397 4.176-9.452 9.349v0.005z" />
<glyph unicode="&#xe922;" glyph-name="side-arrow" horiz-adv-x="1536" d="M34.918-22.298c-21.735 26.179-34.924 60.132-34.924 97.165s13.189 70.985 35.127 97.416l-0.203-0.251 647.885 747.725c20.045 24.635 50.363 40.246 84.326 40.246s64.281-15.61 84.17-40.047l0.156-0.198 648.141-747.52c22.725-26.383 36.564-60.983 36.564-98.816 0-12.36-1.477-24.376-4.265-35.879l0.212 1.037c-9.055-46.075-41.533-82.868-84.263-97.898l-0.908-0.278c-9.030-2.694-19.406-4.244-30.145-4.244-34.733 0-65.677 16.218-85.675 41.494l-0.174 0.229-563.686 650.24-563.686-650.163c-20.045-24.71-50.408-40.374-84.43-40.374-33.906 0-64.178 15.557-84.068 39.922l-0.155 0.195z" />
<glyph unicode="&#xe923;" glyph-name="categories" horiz-adv-x="1216" d="M1146.566 818.758h-1077.133c-38.421 0.339-69.436 31.564-69.436 70.033 0 0.208 0.001 0.416 0.003 0.623v-0.032c-0.002 0.176-0.002 0.383-0.002 0.591 0 38.467 31.016 69.691 69.404 70.026h1077.152c38.426-0.328 69.449-31.554 69.449-70.026 0-0.208-0.001-0.416-0.003-0.623v0.032c0.002-0.176 0.002-0.383 0.002-0.591 0-38.469-31.015-69.693-69.404-70.032h-0.032zM949.843 465.658c0.997 56.758 47.242 102.387 104.145 102.387 57.526 0 104.16-46.634 104.16-104.16s-46.633-104.159-104.158-104.16v0c-28.848 0.043-54.917 11.909-73.628 31.010l-0.017 0.018c-18.862 19.257-30.502 45.652-30.502 74.765 0 0.049 0 0.099 0 0.148v-0.008zM70.362 395.034c-38.504 0.655-69.466 32.022-69.466 70.621s30.962 69.966 69.405 70.62l0.061 0.001h613.318c38.504-0.655 69.466-32.022 69.466-70.621s-30.962-69.966-69.405-70.62l-0.061-0.001zM70.362-28.691c-38.504 0.655-69.466 32.022-69.466 70.621s30.962 69.966 69.405 70.62l0.061 0.001h613.318c38.504-0.655 69.466-32.022 69.466-70.621s-30.962-69.966-69.405-70.62l-0.061-0.001zM949.843 41.933c0.997 56.758 47.242 102.387 104.145 102.387 57.526 0 104.16-46.634 104.16-104.16s-46.633-104.159-104.158-104.16v0c-28.848 0.043-54.917 11.909-73.628 31.010l-0.017 0.018c-18.862 19.257-30.502 45.652-30.502 74.765 0 0.049 0 0.099 0 0.148v-0.008z" />
<glyph unicode="&#xe924;" glyph-name="filter" d="M858.232-64c-32.617 0.303-58.942 26.814-58.942 59.474 0 0.143 0.001 0.285 0.002 0.428v-0.022 436.887h-47.821c-32.613 0.286-58.942 26.79-58.942 59.444 0 0.143 0.001 0.285 0.002 0.428v-0.022 220.118c-0.001 0.121-0.001 0.263-0.001 0.406 0 32.655 26.327 59.161 58.914 59.45h47.878v127.554c-0.004 0.251-0.006 0.547-0.006 0.843 0 32.572 26.405 58.976 58.976 58.976s58.976-26.405 58.976-58.976c0-0.296-0.002-0.592-0.007-0.888l0.001 0.045v-127.554h47.767c32.634-0.303 58.971-26.828 58.971-59.504 0-0.124 0-0.247-0.001-0.371v0.019-220.118c0.001-0.103 0.001-0.224 0.001-0.345 0-32.698-26.372-59.236-59.006-59.504h-47.793v-436.887c0.001-0.106 0.001-0.232 0.001-0.358 0-32.68-26.336-59.209-58.942-59.522h-0.030zM810.472 552.472h95.587v100.412h-95.587zM512-64c-32.634 0.303-58.972 26.828-58.972 59.504 0 0.132 0 0.264 0.001 0.396v-0.020 127.53h-47.797c-32.627 0.272-58.972 26.785-58.972 59.45 0 0.132 0 0.264 0.001 0.396v-0.020 220.148c-0.001 0.112-0.001 0.244-0.001 0.376 0 32.67 26.341 59.188 58.944 59.474h47.824v436.911c-0.004 0.251-0.006 0.547-0.006 0.843 0 32.572 26.405 58.976 58.976 58.976s58.976-26.405 58.976-58.976c0-0.296-0.002-0.592-0.007-0.888l0.001 0.045v-436.911h47.797c32.647-0.286 59.001-26.817 59.001-59.504 0-0.121 0-0.243-0.001-0.364v0.019-220.148c0.001-0.104 0.001-0.228 0.001-0.351 0-32.681-26.358-59.206-58.976-59.474h-47.823v-127.53c0.001-0.112 0.001-0.244 0.001-0.376 0-32.676-26.338-59.201-58.943-59.504h-0.029zM464.203 243.116h95.563v100.412h-95.563zM165.737-64c-32.633 0.299-58.972 26.823-58.972 59.498 0 0.134 0 0.268 0.001 0.402v-0.021 436.887h-47.797c-32.63 0.286-58.972 26.804-58.972 59.474 0 0.132 0 0.264 0.001 0.396v-0.020 220.118c-0.001 0.112-0.001 0.244-0.001 0.376 0 32.672 26.341 59.191 58.944 59.48h47.824v127.554c-0.004 0.251-0.006 0.547-0.006 0.843 0 32.572 26.405 58.976 58.976 58.976s58.976-26.405 58.976-58.976c0-0.296-0.002-0.592-0.007-0.888l0.001 0.045v-127.554h47.791c32.63-0.286 58.972-26.804 58.972-59.474 0-0.134 0-0.268-0.001-0.402v0.021-220.118c0.001-0.112 0.001-0.244 0.001-0.376 0-32.67-26.341-59.188-58.944-59.474h-47.818v-436.887c0.001-0.112 0.001-0.244 0.001-0.376 0-32.676-26.338-59.201-58.943-59.504h-0.029zM117.941 552.472h95.587v100.412h-95.587z" />
<glyph unicode="&#xe925;" glyph-name="favorite-pressed" horiz-adv-x="1186" d="M1093.239 859.411c-59.321 62.023-142.738 100.577-235.159 100.577-91.104 0-173.458-37.463-232.497-97.823l-32.12-32.655-32.094 32.606c-59.092 60.408-141.435 97.862-232.526 97.862s-173.434-37.454-232.468-97.803l-0.058-0.059c-59.562-60.857-96.316-144.244-96.316-236.215s36.754-175.359 96.375-236.275l-0.059 0.060 411.007-417.533c21.901-22.331 52.388-36.173 86.108-36.173s64.207 13.842 86.089 36.154l0.019 0.019 408.366 414.806c60.456 61.489 97.78 145.887 97.78 239.003 0 90.408-35.184 172.598-92.607 233.624l0.163-0.175z" />
<glyph unicode="&#xe926;" glyph-name="acces" horiz-adv-x="931" d="M833.592 107.152l-47.732 215.142c-11.745 47.134-53.706 81.505-103.694 81.505-0.314 0-0.628-0.001-0.941-0.004h-201.229c-0.613-0.035-1.331-0.054-2.053-0.054-19.343 0-35.379 14.155-38.315 32.672l-0.029 0.22-8.76 74.501h206.75v78.061h-215.934l-17.133 145.687c44.248 16.972 75.251 58.755 76.077 107.884l0.001 0.101c-2.017 65.137-55.304 117.174-120.745 117.174-1.122 0-2.241-0.015-3.356-0.046l0.164 0.004c-0.951 0.027-2.070 0.042-3.193 0.042-65.428 0-118.706-52.016-120.739-116.95l-0.005-0.187c1.124-54.037 38.273-99.093 88.348-112.192l0.824-0.183 35.57-302.518c9.026-58.259 58.822-102.333 118.912-102.333 1.268 0 2.531 0.020 3.789 0.059l-0.184-0.005h201.281c11.581-0.323 21.172-8.462 23.705-19.315l0.033-0.169 61.487-277.16h164.417v78.061zM356.664 803.873c-0.317-0.009-0.691-0.014-1.066-0.014-21.81 0-39.57 17.339-40.246 38.985l-0.002 0.062c1.264 21.832 19.277 39.058 41.314 39.058s40.049-17.226 41.309-38.946l0.005-0.111c-0.678-21.708-18.438-39.047-40.248-39.047-0.375 0-0.748 0.005-1.121 0.015l0.055-0.001zM326.442 17.557c-135.68 0.85-245.341 111.036-245.341 246.835 0 119.052 84.281 218.418 196.433 241.689l1.6 0.278-8.983 81.278c-156.211-27.087-273.5-161.613-273.5-323.532 0-181.209 146.899-328.108 328.108-328.108 171.219 0 311.806 131.148 326.788 298.469l0.091 1.26h-81.506c-14.507-123.066-117.974-217.694-243.64-218.168h-0.049z" />
<glyph unicode="&#xe927;" glyph-name="facebook2" d="M512 960c282.77 0 512-229.23 512-512s-229.23-512-512-512c-282.77 0-512 229.23-512 512v0c0.324 282.639 229.36 511.676 511.968 512h0.032zM639.331 429.974l10.803 104.91h-94.058v61.665c-0.155 1.048-0.243 2.259-0.243 3.489 0 13.88 11.252 25.131 25.131 25.131 0.45 0 0.897-0.012 1.342-0.035l-0.062 0.003h66.388v101.856l-91.466 0.354c-2.744 0.231-5.938 0.363-9.163 0.363-63.934 0-115.762-51.828-115.762-115.762 0-3.227 0.132-6.422 0.391-9.582l-0.027 0.415v-67.871h-58.679v-104.935h58.679v-296.881h123.432v296.881z" />
<glyph unicode="&#xe928;" glyph-name="favorite" horiz-adv-x="1186" d="M1093.239 859.411c57.254-60.85 92.434-143.036 92.434-233.438 0-93.11-37.319-177.504-97.816-239.040l0.047 0.048-408.366-414.806c-21.901-22.331-52.388-36.173-86.108-36.173s-64.207 13.842-86.089 36.154l-0.019 0.019-411.007 417.533c-59.562 60.857-96.316 144.244-96.316 236.215s36.754 175.359 96.375 236.275l-0.059-0.060c59.092 60.408 141.435 97.862 232.526 97.862s173.434-37.454 232.468-97.803l0.058-0.059 32.094-32.606 32.062 32.596c59.098 60.42 141.452 97.883 232.555 97.883 92.421 0 175.838-38.554 235.044-100.456l0.115-0.121zM1044.846 430.716c49.473 50.195 80.025 119.156 80.025 195.252 0 73.635-28.607 140.588-75.313 190.352l0.139-0.149c-48.339 50.553-116.319 81.978-191.639 81.978-74.226 0-141.325-30.519-189.431-79.694l-0.047-0.048-124.244-126.335c-5.472-5.59-13.095-9.056-21.528-9.056s-16.056 3.466-21.523 9.051l-0.005 0.005c-5.517 5.632-8.922 13.352-8.922 21.868s3.405 16.236 8.928 21.873l-0.005-0.005 49.174 49.993-32.11 32.617c-48.151 49.223-115.248 79.743-189.472 79.743s-141.322-30.52-189.425-79.695l-0.047-0.048c-48.533-49.588-78.481-117.535-78.481-192.477s29.948-142.888 78.529-192.526l-0.048 0.049 411.012-417.539c10.95-11.165 26.192-18.086 43.051-18.086s32.102 6.921 43.042 18.076l0.009 0.010z" />
<glyph unicode="&#xe929;" glyph-name="mail" d="M512.005 960c-282.772 0-512.005-229.232-512.005-512.005s229.232-512.005 512.005-512.005c282.772 0 512.005 229.232 512.005 512.005v0c0 282.772-229.232 512.005-512.005 512.005v0zM512.005 780.164l302.98-188.93h-605.97zM818.754 289.517h-0.034c0-0.001 0-0.003 0-0.005 0-30.294-24.558-54.853-54.853-54.853-0.003 0-0.007 0-0.010 0h-503.724c-30.29 0.006-54.843 24.562-54.843 54.853 0 0.002 0 0.003 0 0.005v0 289.648c0.017 3.329 0.328 6.573 0.91 9.723l-0.052-0.337 291.74-181.698c1.803-0.963 3.898-1.796 6.092-2.389l0.213-0.049 0.663-0.141c2.136-0.549 4.595-0.878 7.125-0.907h0.072c2.546 0.020 5.005 0.35 7.355 0.953l-0.211-0.046 0.668 0.141c2.408 0.647 4.504 1.479 6.473 2.519l-0.168-0.081 1.161 0.61 1.097 0.58 289.483 180.509c0.53-2.814 0.842-6.058 0.858-9.373v-0.014z" />
<glyph unicode="&#xe92a;" glyph-name="pinterest2" d="M512 960c-282.77 0-512-229.23-512-512s229.23-512 512-512c282.77 0 512 229.23 512 512v0c0 0.002 0 0.003 0 0.005 0 282.767-229.228 511.995-511.995 511.995-0.002 0-0.004 0-0.006 0h0.001zM561.643 275.885c-39.761 6.899-74.637 24.217-102.754 49.019l0.226-0.196c-20.061-105.179-44.561-206.032-117.141-258.688-22.405 158.962 32.892 278.358 58.587 405.112-43.784 73.722 5.268 222.036 97.646 185.473 113.625-44.946-98.398-274.008 43.941-302.618 148.622-29.865 209.289 257.863 117.145 351.427-133.159 135.107-387.599 3.081-356.314-190.355 7.616-47.29 56.473-61.639 19.529-126.905-85.23 18.88-110.681 86.094-107.41 175.699 10.974 139.273 119.978 249.956 257.505 263.476l1.183 0.094c160.481 17.962 311.109-58.91 331.902-209.88 23.415-170.387-72.443-354.932-244.046-341.657z" />
<glyph unicode="&#xe92b;" glyph-name="youtube2" d="M512 960c-282.77 0-512-229.23-512-512s229.23-512 512-512c282.77 0 512 229.23 512 512v0c0 282.77-229.23 512-512 512v0zM779.922 546.801v-208.38c0-0.009 0-0.019 0-0.029 0-42.891-34.761-77.662-77.648-77.679h-364.408c-42.891 0.017-77.655 34.791-77.655 77.684 0 0.009 0 0.017 0 0.026v-0.001 208.38c0 0.007 0 0.016 0 0.024 0 42.893 34.764 77.667 77.653 77.684h364.408c42.897-0.008 77.669-34.785 77.669-77.684 0-0.009 0-0.017 0-0.026v0.001zM468.084 354.681l148.404 97.879-148.404 97.879v-195.758z" />
<glyph unicode="&#xe92c;" glyph-name="instagram2" d="M511.998 960c-282.771 0-512.002-229.231-512.002-512.002s229.231-512.002 512.002-512.002c282.771 0 512.002 229.231 512.002 512.002 0 0.002 0 0.003 0 0.005v0c-0.008 282.767-229.235 511.992-512.002 511.998h-0.001zM819.982 294.017c-0.092-85.779-69.604-155.292-155.375-155.383h-305.207c-85.777 0.097-155.286 69.607-155.383 155.374v305.212c0.103 85.774 69.609 155.28 155.373 155.383h305.208c85.777-0.097 155.286-69.607 155.383-155.374v-0.009zM512.002 538.216c-0.003 0-0.006 0-0.010 0-50.593 0-91.607-41.014-91.607-91.607s41.014-91.607 91.607-91.607c50.593 0 91.607 41.014 91.607 91.607 0 0.003 0 0.007 0 0.010v-0.001c-0.069 50.56-41.037 91.527-91.59 91.597h-0.007zM664.599 687.566h-305.198c-48.768-0.058-88.287-39.577-88.346-88.34v-305.208c0.058-48.77 39.576-88.291 88.339-88.355h305.204c48.776 0.056 88.302 39.58 88.36 88.35v305.209c-0.058 48.774-39.586 88.295-88.355 88.346h-0.005zM512.002 287.974c-87.612 0.003-158.635 71.027-158.635 158.64 0 87.614 71.025 158.64 158.64 158.64 87.613 0 158.637-71.023 158.64-158.635v0c-0.097-87.578-71.067-158.547-158.635-158.645h-0.009zM675.747 572.456c-20.73 0-37.536 16.805-37.536 37.536s16.805 37.536 37.536 37.536c20.73 0 37.536-16.805 37.536-37.536 0-0.002 0-0.003 0-0.005v0c-0.028-20.718-16.817-37.506-37.533-37.531h-0.002z" />
<glyph unicode="&#xe92d;" glyph-name="Asset-1" horiz-adv-x="1282" d="M203.769-64c-0.019 0-0.041 0-0.063 0-10.084 0-19.581 2.51-27.902 6.94l0.321-0.156c-18.116 9.41-30.306 27.982-30.427 49.413v121.123h-34.695c-0.563-0.010-1.226-0.016-1.891-0.016-59.491 0-107.864 47.602-109.108 106.795l-0.002 0.116v632.891c1.238 59.307 49.608 106.911 109.096 106.911 0.67 0 1.339-0.006 2.006-0.018l-0.1 0.001h1059.606c0.566 0.011 1.233 0.017 1.902 0.017 59.488 0 107.858-47.604 109.094-106.796l0.002-0.115v-632.891c-1.246-59.309-49.619-106.911-109.11-106.911-0.664 0-1.326 0.006-1.987 0.018l0.099-0.001h-658.787l-277.087-168.594c-8.762-5.478-19.405-8.726-30.807-8.726-0.055 0-0.111 0-0.166 0h0.009zM182.268-7.68c0.137-7.484 4.464-13.925 10.728-17.090l0.112-0.051c3.080-1.65 6.738-2.619 10.623-2.619 4.406 0 8.521 1.247 12.010 3.407l-0.098-0.056 285.926 174h669.038c0.315-0.005 0.687-0.008 1.060-0.008 39.465 0 71.658 31.132 73.361 70.177l0.005 0.154v632.872c-1.702 39.198-33.893 70.331-73.356 70.331-0.376 0-0.752-0.003-1.127-0.008l0.057 0.001h-1059.606c-0.315 0.005-0.688 0.008-1.060 0.008-39.465 0-71.66-31.132-73.364-70.177l-0.005-0.154v-632.891c1.716-39.2 33.913-70.331 73.38-70.331 0.369 0 0.738 0.003 1.106 0.008l-0.056-0.001h71.267v-157.572zM855.464 555.93h-174.928v171.11c0 10.099-8.187 18.286-18.286 18.286s-18.286-8.187-18.286-18.286v0-171.125h-174.91c-10.099 0-18.286-8.187-18.286-18.286s8.187-18.286 18.286-18.286v0h174.91v-157.857c0-10.099 8.187-18.286 18.286-18.286s18.286 8.187 18.286 18.286v0 157.872h174.928c10.099 0 18.286 8.187 18.286 18.286s-8.187 18.286-18.286 18.286v0z" />
<glyph unicode="&#xe92e;" glyph-name="Backw" horiz-adv-x="1441" d="M1351.471 960c-49.899 0-90.434-28.824-90.434-64.128v-373.147l-566.568 418.587c-17.498 11.716-39.025 18.699-62.184 18.699-0.559 0-1.116-0.004-1.673-0.012l0.084 0.001c-49.538 0-90.074-28.824-90.074-64.128v-262.541l-384.436 306.189c-17.723 12.816-39.891 20.499-63.854 20.499-0.731 0-1.461-0.007-2.189-0.021l0.109 0.002c-49.538 0-90.252-28.824-90.252-64.128v-895.744c0-35.323 40.713-64.128 90.252-64.128 0.333-0.004 0.727-0.006 1.12-0.006 21.632 0 41.84 6.099 58.998 16.671l-0.487-0.279 390.739 311.181v-263.439c0-35.323 40.536-64.128 90.074-64.128 0.56-0.010 1.22-0.016 1.881-0.016 23.062 0 44.493 6.986 62.291 18.957l-0.4-0.253 566.568 418.458v-373.017c0-35.323 40.536-64.128 90.434-64.128 49.543 0 89.714 28.824 89.714 64.128v895.744c0 35.304-40.171 64.128-89.714 64.128z" />
<glyph unicode="&#xe92f;" glyph-name="Forw" horiz-adv-x="1441" d="M1350.933 960c-0.619 0.013-1.349 0.020-2.080 0.020-23.963 0-46.131-7.683-64.176-20.72l0.322 0.221-384.436-306.189v262.541c0 35.304-40.536 64.128-90.074 64.128-0.472 0.007-1.030 0.011-1.589 0.011-23.159 0-44.686-6.982-62.593-18.956l0.409 0.258-566.568-418.587v373.147c0 35.304-40.536 64.128-90.434 64.128-49.543 0-89.714-28.824-89.714-64.128v-895.744c0-35.323 40.171-64.128 89.714-64.128 49.899 0 90.434 28.824 90.434 64.128v373.017l566.568-418.458c17.398-11.717 38.829-18.703 61.891-18.703 0.662 0 1.322 0.006 1.98 0.017l-0.099-0.001c49.538 0 90.074 28.824 90.074 64.128v263.439l390.739-311.181c16.671-10.293 36.879-16.392 58.511-16.392 0.394 0 0.788 0.002 1.181 0.006h-0.060c49.538 0 90.252 28.824 90.252 64.128v895.744c0 35.304-40.713 64.128-90.252 64.128z" />
<glyph unicode="&#xe930;" glyph-name="Play-on-playlist" d="M594.321 539.75l-265.581 151.036c-15.526 8.744-25.332 1.59-25.332-15.899v-302.072c0-17.488 9.806-24.643 25.332-15.899l267.215 151.036c15.526 8.744 13.892 23.053-1.634 31.797z" />
<glyph unicode="&#xe931;" glyph-name="Playlist" horiz-adv-x="1446" d="M1420.625 565.992c-16.161 58.814-59.296 105.027-114.921 125.143l-1.279 0.404c-0.922 4.761-1.58 9.526-2.537 14.292-16.71 60.448-61.894 107.633-119.834 126.823l-1.301 0.373c-24.87 72.478-91.215 124.168-170.008 126.963l-0.323 0.009h-812.692c-82.471-2.722-151.093-58.953-172.432-134.965l-0.313-1.304c-15.886-74.176-24.984-159.397-24.984-246.742 0-87.424 9.114-172.719 26.444-254.987l-1.415 8.026c16.276-60.755 61.668-108.192 119.923-127.036l1.287-0.36c18.531-54.337 59.934-96.575 112.425-115.85l1.292-0.415c0.922-4.761 1.58-9.541 2.547-14.307 21.715-77.224 90.305-133.363 172.416-136.052l0.299-0.008h812.692c82.473 2.718 151.099 58.951 172.437 134.965l0.313 1.304c15.887 74.188 24.985 159.419 24.985 246.776 0 87.419-9.111 172.709-26.435 254.974l1.415-8.028zM143.702 705.601c-15.797-73.93-24.843-158.867-24.843-245.917 0-69.937 5.839-138.509 17.056-205.257l-1.001 7.212c-29.898 16.803-52.038 44.422-61.303 77.426l-0.216 0.903c-15.263 71.249-24.005 153.107-24.005 237.006 0 83.82 8.725 165.603 25.315 244.489l-1.356-7.702c16.35 54.995 65.426 94.826 124.14 97.115l0.255 0.008h812.712c48.501-2.261 90.261-29.123 113.304-68.312l0.353-0.65h-807.647c-82.487-2.733-151.118-58.984-172.452-135.015l-0.313-1.304zM1019.952 277.456l-256.801-146.339c-8.417-5.212-18.56-8.423-29.429-8.742l-0.087-0.002c-24.297 0-39.999 19.008-39.999 48.414v292.708c0 29.411 15.703 48.429 40.019 48.429 10.94-0.316 21.072-3.514 29.74-8.857l-0.259 0.149 256.791-146.354c15.54-7.127 26.42-22.005 27.727-39.548l0.009-0.157c-1.316-17.693-12.184-32.566-27.418-39.579l-0.294-0.121zM1247.895 702.062h-812.707c-82.473-2.73-151.096-58.965-172.437-134.98l-0.313-1.304c-15.793-73.919-24.838-158.844-24.838-245.883 0-61.508 4.517-121.962 13.236-181.046l-0.811 6.695c-28.219 16.855-49.019 43.649-57.719 75.443l-0.207 0.887c-15.266 71.251-24.009 153.11-24.009 237.011 0 83.814 8.724 165.59 25.315 244.469l-1.356-7.702c16.355 55.006 65.436 94.847 124.159 97.149l0.256 0.008h812.707c56.716-2.405 104.248-39.212 122.429-89.987l0.296-0.949c-1.321 0.030-2.662 0.189-4.003 0.189z" />
<glyph unicode="&#xe932;" glyph-name="Shape" horiz-adv-x="1117" d="M1099.452 934.262c-26.739 30.555-74.152 34.456-105.906 8.746l-52.383-42.413c-17.757-14.006-34.238-28.845-51.334-43.355-34.352-28.911-66.79-59.137-100.002-89.012-32.255-30.445-65.011-60.715-96.446-91.839-32.004-30.796-62.914-62.337-94.212-93.724-61.775-63.257-122.432-127.457-181.95-192.687-27.719-30.379-55.187-61-82.45-91.883-12.583 6.817-25.166 13.611-37.543 20.538l-88.992 50.676c-15.387 8.636-28.243 16.614-42.65 25.075l-21.199 12.603c-7.066 4.143-14.498 9.403-21.746 14.072l-2.439 1.578c-24.938 15.979-58.401 17.162-85.094 0.438-35.765-22.379-45.864-68.43-22.567-102.82 4.855-7.167 9.118-14.159 14.498-21.502l15.979-22.050c10.6-14.422 21.815-30.27 32.232-43.706l63.826-83.773c21.496-27.727 43.333-54.534 65.080-81.91l65.581-81.954c2.188-2.718 4.65-5.567 7.112-8.132 47.14-49.295 132.371-57.646 178.189-7.189 53.91 59.356 162.46 224.337 185.552 259.846 46.206 71.016 93.688 141.31 142.355 210.792 24.664 34.412 49.078 69.175 74.449 103.062 24.938 34.347 50.924 67.597 76.637 101.33 26.419 32.856 52.406 66.457 79.828 98.349 13.677 16.023 26.967 32.637 41.122 48.046l43.994 49.229c23.616 26.346 24.527 66.063 0.479 93.571z" />
<glyph unicode="&#xe933;" glyph-name="404" horiz-adv-x="889" d="M434.717 245.132c-63.944 0-115.925-52.021-115.925-115.925 0-63.944 52.021-115.925 115.925-115.925 63.944 0 115.925 52.021 115.925 115.925s-52.021 115.925-115.925 115.925zM487.453 98c0-28.712-23.354-52.066-52.066-52.066s-52.111 23.354-52.111 52.066c0 28.712 23.354 52.066 52.111 52.066 28.667 0.045 52.066-23.354 52.066-52.066zM341.036 268.098c7.304 5.637 8.841 15.173 3.767 23.141-3.882 6.103-8.265 12.333-13.339 19.030 3.806 3.984 7.304 7.459 10.724 10.596 4.305 3.984 6.266 9.494 5.343 15.088-1.038 6.315-5.497 11.953-11.378 14.283-5.766 2.289-11.724 1.102-16.453-3.264-3.498-3.264-6.996-6.697-10.571-10.426-3.613 3.772-7.111 7.163-10.571 10.426-4.728 4.365-10.724 5.595-16.453 3.264-5.881-2.373-10.379-7.968-11.378-14.283-0.884-5.595 1.038-11.104 5.343-15.088 3.383-3.136 6.919-6.612 10.724-10.596-5.074-6.654-9.495-12.927-13.339-19.030-5.074-7.968-3.537-17.505 3.806-23.141 2.998-2.331 6.689-3.645 10.417-3.645 5.036 0 10.071 2.373 13.569 7.841 2.306 3.645 4.882 7.375 7.919 11.486 3.037-4.111 5.612-7.841 7.919-11.486 6.035-9.536 16.914-9.621 23.948-4.196v0zM549.709 346.975c-4.728 4.363-10.724 5.592-16.452 3.262-5.881-2.372-10.378-7.964-11.377-14.276-0.884-5.592 1.038-11.099 5.343-15.081 3.383-3.135 6.919-6.609 10.724-10.591-5.112-6.693-9.494-12.921-13.338-19.021-3.229-5.084-3.844-10.972-1.653-16.14 2.46-5.804 8.072-9.998 14.299-10.591 0.538-0.042 1.038-0.085 1.576-0.085 5.42 0 10.302 2.796 13.53 7.879 2.345 3.686 4.92 7.413 7.918 11.48 3.037-4.109 5.612-7.837 7.918-11.48 6.073-9.574 17.028-9.616 23.985-4.194 7.303 5.634 8.841 15.165 3.767 23.13-3.844 6.058-8.264 12.285-13.338 19.021 3.805 3.982 7.303 7.456 10.724 10.591 6.765 6.27 7.495 15.885 1.73 23.384-5.497 7.244-16.067 10.209-24.216 2.711-3.498-3.262-6.996-6.693-10.57-10.421-3.613 3.77-7.111 7.202-10.57 10.421l0.001 0.001zM789.908 612.301c2.508 9.714 4.022 19.871 4.022 30.384 0 42.448-21.579 79.75-54.099 101.129l96.652 89.774c11.46 10.823 17.947 25.504 18.292 41.295s-5.492 30.694-16.476 42.004c-11.071 11.444-25.947 17.698-41.817 17.698-14.92 0-29.147-5.633-40.174-16.101l-170.509-164.022c-10.898 8.073-23.135 14.194-36.109 18.052l27.72 115.275c3.46 14.992 0.995 30.516-7.006 43.735-8.26 13.661-21.277 23.198-36.758 26.879-4.411 1.065-8.952 1.597-13.493 1.597-27.071 0-50.251-18.496-56.391-45.154l-40.217-181.77c-17.644 10.423-37.666 16.057-58.51 16.057-26.163 0-51.288-8.96-71.657-25.105-20.368 16.146-45.494 25.105-71.657 25.105-64.694 0-117.371-54.025-117.371-120.385 0-5.234 0.389-10.335 1.038-15.392h-6.011l-99.376-198.45h108.933l83.419-478.906h468.464l87.83 478.906h140.11l-98.847 197.395zM747.917 642.685c0-10.468-2.249-20.359-6.141-29.363l-142.445 0.044 104.392 96.961c25.903-11 44.196-37.125 44.196-67.641l-0.002-0.001zM644.995 746.698l142.623 137.327c2.335 2.218 5.492 3.46 8.865 3.46 2.076 0 6.011-0.488 9.211-3.815 2.638-2.75 3.157-5.722 3.114-7.718-0.043-2.040-0.692-5.012-3.33-7.496l-274.684-255.089h-19.374l1.47 6.121 132.105 127.21zM538.699 726.871c4.411-1.419 8.606-3.327 12.67-5.544l-18.206-17.565 5.535 23.109zM464.751 706.158l7.914 35.794 35.936 162.251c1.341 5.899 8.216 9.802 14.66 8.25 3.46-0.798 6.271-2.883 8.043-5.766 1.081-1.73 2.119-4.524 1.384-7.762l-68.672-285.554h-19.806l20.542 92.787zM221.718 701.9c20.801 0 40.564-9.359 54.142-25.637l17.471-20.981 17.471 20.936c13.622 16.323 33.385 25.681 54.185 25.681 17.688 0 34.38-6.653 47.483-18.673l-15.481-69.859h-244.849c-1.081 4.968-1.73 10.069-1.73 15.392-0.043 40.319 31.958 73.142 71.31 73.142l-0.002-0.001zM100.672 462.117h-25.342l52.153 104.014h375.017l-5.016-10.024-47.093-94.033-349.718 0.043zM622.629-16.789h-391.755l-75.246 431.669h322.775l30.185 60.323 15.006 32.024 31.914-68.085v0.976l12.627-25.283h133.666l-79.173-431.624zM710.459 462.117h-114.204l-50.726 101.263 2.984 2.75h212.766l52.109-104.058-102.929 0.044z" />
<glyph unicode="&#xe934;" glyph-name="chan" horiz-adv-x="1105" d="M1014.652 960h-787.666c-0.070 0-0.152 0-0.234 0-31.124 0-58.584-15.688-74.904-39.589l-0.201-0.312c5.456 0.993 11.755 1.58 18.183 1.617h39.527c5.255 1.855 11.314 2.932 17.624 2.943h787.677c0.144 0.001 0.315 0.002 0.486 0.002 29.395 0 53.265-23.65 53.621-52.961v-712.576c-0.013-6.194-1.113-12.127-3.119-17.624l0.115 0.359v-38.68c-0.042-6.334-0.643-12.499-1.757-18.484l0.099 0.643c24.546 15.773 40.608 42.89 40.739 73.768v712.562c-0.587 48.912-40.374 88.337-89.37 88.337-0.288 0-0.576-0.001-0.864-0.004h0.044zM949.66 896h-787.666c-0.069 0-0.151 0-0.233 0-31.125 0-58.585-15.689-74.905-39.589l-0.201-0.312c5.457 0.993 11.756 1.58 18.186 1.617h39.527c5.254 1.856 11.313 2.932 17.622 2.943h787.677c0.149 0.001 0.326 0.002 0.502 0.002 29.395 0 53.265-23.651 53.621-52.961v-712.579c-0.015-6.195-1.116-12.128-3.122-17.625l0.115 0.36v-38.68c-0.040-6.333-0.641-12.498-1.757-18.483l0.099 0.641c24.549 15.77 40.611 42.889 40.739 73.768v712.564c-0.585 48.912-40.372 88.337-89.368 88.337-0.294 0-0.587-0.001-0.881-0.004h0.045zM884.035-64h-793.209c-0.238-0.002-0.519-0.004-0.801-0.004-49.364 0-89.449 39.729-90.025 88.956l-0.001 0.054v717.986c0.576 49.282 40.661 89.011 90.025 89.011 0.282 0 0.563-0.001 0.844-0.004h793.166c0.238 0.002 0.519 0.004 0.801 0.004 49.364 0 89.449-39.729 90.025-88.956l0.001-0.054v-717.986c-0.576-49.282-40.661-89.011-90.025-89.011-0.282 0-0.563 0.001-0.844 0.004h0.043zM90.826 796.397c-0.144 0.001-0.313 0.002-0.483 0.002-29.618 0-53.668-23.838-54.012-53.374v-718.018c0.344-29.569 24.395-53.406 54.013-53.406 0.17 0 0.34 0.001 0.509 0.002h793.183c0.143-0.001 0.312-0.002 0.48-0.002 29.618 0 53.669 23.837 54.015 53.374v718.019c-0.346 29.569-24.397 53.406-54.015 53.406-0.169 0-0.338-0.001-0.506-0.002h0.026zM487.429 661.334c-145.52-2.308-262.599-120.814-262.599-266.667 0-147.293 119.405-266.698 266.698-266.698s266.697 119.404 266.698 266.696v0c-1.177 147.533-121.048 266.676-268.746 266.676-0.721 0-1.441-0.003-2.161-0.009l0.11 0.001zM487.429 163.554c-126.117 2-227.587 104.706-227.587 231.111 0 127.654 103.484 231.138 231.138 231.138s231.138-103.484 231.138-231.138v0c-1.020-127.861-104.908-231.118-232.913-231.118-0.625 0-1.249 0.002-1.873 0.007l0.096-0.001zM370.087 474.678c-14.56-0.226-26.276-12.082-26.276-26.675 0-14.734 11.944-26.678 26.678-26.678s26.676 11.942 26.678 26.675v0c-0.266 14.766-12.28 26.639-27.076 26.678h-0.004zM599.358 474.678c-14.56-0.226-26.276-12.082-26.276-26.675 0-14.734 11.944-26.678 26.678-26.678 14.733 0 26.676 11.942 26.678 26.675v0c0 0.023 0 0.049 0 0.076 0 7.367-3.022 14.028-7.894 18.81l-0.004 0.004c-4.901 4.815-11.626 7.788-19.046 7.788-0.048 0-0.095 0-0.143 0h0.007zM554.827 394.677h-134.796c-1.749-0.040-3.314-0.797-4.418-1.987l-0.004-0.004c-0.998-1.074-1.61-2.517-1.61-4.104 0-0.149 0.005-0.296 0.016-0.442l-0.001 0.020c3.897-37.432 35.278-66.364 73.415-66.364s69.518 28.933 73.389 66.046l0.027 0.318c0.032 0.229 0.051 0.493 0.051 0.761 0 1.499-0.578 2.862-1.523 3.88l0.003-0.004c-1.079 1.155-2.612 1.875-4.312 1.875-0.083 0-0.166-0.002-0.248-0.005h0.012z" />
<glyph unicode="&#xe935;" glyph-name="sign" d="M512-64c-0.004 0-0.008 0-0.013 0-282.77 0-512 229.23-512 512s229.23 512 512 512c282.77 0 512-229.23 512-512v0c-0.326-282.634-229.354-511.667-511.956-512h-0.032zM512 919.447c-0.004 0-0.008 0-0.013 0-260.373 0-471.447-211.074-471.447-471.447s211.074-471.447 471.447-471.447c260.373 0 471.447 211.074 471.447 471.447v0c-0.311 260.241-211.193 471.124-471.404 471.437h-0.031zM475.045 622.23c0-8.030-6.509-14.539-14.539-14.539s-14.539 6.509-14.539 14.539c0 8.030 6.509 14.539 14.539 14.539s14.539-6.509 14.539-14.539zM681.457 580.803c-15.314 24.376-29.914 52.663-42.143 82.182l-1.409 3.839c-24.259 56.121-47.208 109.122-125.905 109.122s-101.661-53.018-125.92-109.157c-13.627-33.347-28.221-61.627-44.952-88.436l1.418 2.437c-85.126-133.249-100.19-275.896-40.309-381.593 40.851-72.25 117.163-120.223 204.679-120.223 1.793 0 3.582 0.020 5.365 0.060l-0.266-0.005c1.516-0.035 3.302-0.055 5.093-0.055 87.518 0 163.832 47.973 204.078 119.058l0.607 1.165c59.845 105.712 44.781 248.356-40.337 381.606zM699.74 211.158c-36.574-64.607-104.842-107.5-183.128-107.5-1.625 0-3.247 0.018-4.863 0.055l0.24-0.004c-1.37-0.032-2.985-0.051-4.604-0.051-78.288 0-146.558 42.892-182.593 106.458l-0.543 1.041c-55.363 97.744-40.535 231.046 39.643 356.588 15.985 25.37 31.198 54.787 43.924 85.495l1.455 3.964c24.51 56.661 40.695 94.106 102.731 94.106s78.215-37.432 102.72-94.121c14.193-34.674 29.405-64.089 46.846-91.965l-1.467 2.514c80.183-125.542 95.003-258.837 39.648-356.581zM501.75 488.999c-51.353 0-111.37-85.555-112.676-160.588-0.048-1.337-0.076-2.907-0.076-4.484 0-33.971 12.768-64.96 33.766-88.43l-0.112 0.127c20.025-20.711 48.060-33.568 79.098-33.568s59.073 12.858 79.068 33.538l0.030 0.031c20.891 23.347 33.661 54.342 33.661 88.319 0 1.571-0.027 3.137-0.082 4.695l0.006-0.226c-1.321 75.034-61.346 160.588-112.684 160.588zM564.876 252.038c-16.052-16.38-38.403-26.534-63.126-26.534-24.731 0-47.088 10.16-63.126 26.534l-0.015 0.015c-16.901 19.043-27.225 44.256-27.225 71.881 0 1.423 0.027 2.839 0.082 4.248l-0.006-0.203c1.126 65.109 54.785 137.579 90.303 137.579s89.165-72.476 90.311-137.579c0.046-1.185 0.073-2.576 0.073-3.973 0-27.659-10.339-52.904-27.362-72.080l0.097 0.112zM598.029 622.23c0-8.030-6.509-14.539-14.539-14.539s-14.539 6.509-14.539 14.539c0 8.030 6.509 14.539 14.539 14.539s14.539-6.509 14.539-14.539zM524.884 550.642c16.267 4.132 28.108 18.646 28.108 35.926 0 0.439-0.008 0.875-0.023 1.31l0.002-0.063c0.038 0.186 0.060 0.399 0.060 0.618 0 1.395-0.894 2.58-2.14 3.016l-0.022 0.007c-0.094 0.018-0.203 0.028-0.314 0.028-0.036 0-0.071-0.001-0.107-0.003h-56.421c-1.469-0.282-2.563-1.557-2.563-3.087 0-0.147 0.010-0.291 0.030-0.433l-0.002 0.016v-0.162c1.475-22.462 16.418-39.105 33.391-37.173z" />
<glyph unicode="&#xe936;" glyph-name="recipies" horiz-adv-x="634" d="M443.889 529.386c-0.021 0-0.045 0-0.070 0-10.197 0-20.074-1.369-29.458-3.932l0.782 0.182c-18.992 36.008-56.153 60.148-98.959 60.209h-0.008c-0.225 0.002-0.492 0.003-0.758 0.003-42.472 0-79.337-24.006-97.766-59.19l-0.289-0.607c-8.055 2.073-17.303 3.263-26.829 3.263-49.898 0-92.169-32.652-106.613-77.754l-0.219-0.792c-2.724-9.039-4.292-19.426-4.292-30.18 0-48.16 31.449-88.974 74.93-103.026l0.766-0.214v-147.836c-0.005-0.233-0.009-0.508-0.009-0.784 0-19.471 15.538-35.314 34.891-35.804l0.045-0.001h253.854c19.399 0.491 34.937 16.333 34.937 35.805 0 0.276-0.003 0.55-0.009 0.824l0.001-0.041v147.836c44.289 14.404 75.738 55.315 75.738 103.571 0 5.945-0.477 11.779-1.396 17.465l0.083-0.624c-9.482 52.406-54.754 91.636-109.189 91.636-0.058 0-0.116 0-0.174 0h0.009zM450.616 169.523c0.035-0.286 0.056-0.618 0.056-0.954 0-4.031-2.904-7.384-6.735-8.081l-0.050-0.008h-253.852c-3.881 0.704-6.785 4.057-6.785 8.089 0 0.336 0.020 0.668 0.059 0.994l-0.004-0.039v142.455c2.090-0.137 4.532-0.216 6.992-0.216 12.905 0 25.307 2.156 36.865 6.127l-0.797-0.238c22.583-24.453 54.807-39.714 90.596-39.714s68.013 15.261 90.52 39.63l0.076 0.083c10.76-3.733 23.162-5.889 36.067-5.889 2.46 0 4.901 0.078 7.322 0.233l-0.33-0.017zM424.677 341.543c6.818 12.090 11.617 26.24 13.524 41.291l0.059 0.571c0.061 0.486 0.095 1.049 0.095 1.62 0 7.067-5.298 12.896-12.138 13.733l-0.067 0.007-1.814 0.124h-0.107c-0.036 0-0.079 0.001-0.122 0.001-7.067 0-12.91-5.237-13.862-12.042l-0.008-0.074c-6.661-46.194-45.976-81.295-93.491-81.295-28.881 0-54.733 12.969-72.050 33.401l-0.113 0.137-2.755 3.584-0.519 0.622c-9.185 12.15-15.472 26.977-17.562 43.121l-0.049 0.46c-0.989 6.879-6.843 12.106-13.918 12.106-0.642 0-1.274-0.043-1.892-0.126l0.072 0.008c-6.992-0.762-12.386-6.634-12.386-13.767 0-0.556 0.033-1.105 0.097-1.644l-0.006 0.065c1.96-15.64 6.76-29.806 13.883-42.493l-0.3 0.582c-5.749-1.405-12.349-2.211-19.138-2.211-0.026 0-0.052 0-0.078 0h0.004c-0.374-0.006-0.816-0.010-1.259-0.010-44.885 0-81.271 36.386-81.271 81.271s36.386 81.271 81.271 81.271c0.443 0 0.885-0.004 1.325-0.011l-0.066 0.001c0.086 0 0.188 0.001 0.29 0.001 10.597 0 20.734-1.968 30.066-5.558l-0.573 0.194c1.598-0.676 3.456-1.068 5.406-1.068 5.768 0 10.733 3.436 12.961 8.373l0.036 0.090 0.244 0.619c12.073 31.696 42.212 53.807 77.516 53.807 0.062 0 0.124 0 0.186 0h0.005c0.053 0 0.117 0 0.18 0 35.462 0 65.695-22.387 77.337-53.799l0.185-0.571c1.304-3.488 3.869-6.249 7.127-7.778l0.085-0.036c1.78-0.846 3.867-1.34 6.070-1.34 1.682 0 3.297 0.288 4.798 0.818l-0.101-0.031 0.154 0.054 1.002 0.397c9.398 4.093 20.347 6.475 31.852 6.475 45.057 0 81.584-36.526 81.584-81.584s-36.526-81.584-81.584-81.584c-0.343 0-0.685 0.002-1.027 0.006l0.052-0.001c-0.033 0-0.072 0-0.111 0-6.774 0-13.36 0.803-19.669 2.318l0.572-0.116zM216.42 211.692c-0.207 0.008-0.45 0.012-0.694 0.012-6.137 0-11.605-2.861-15.145-7.321l-0.031-0.040c-1.534-2.044-2.456-4.624-2.456-7.42 0-2.765 0.903-5.319 2.429-7.384l-0.024 0.034c3.546-4.537 9.018-7.426 15.165-7.426 0.182 0 0.363 0.003 0.543 0.008l-0.027-0.001h82.371c0.493-0.051 1.066-0.080 1.645-0.080 8.471 0 15.489 6.216 16.743 14.336l0.012 0.095c-0.634 8.514-7.698 15.182-16.319 15.182-0.263 0-0.524-0.006-0.784-0.018l0.037 0.001zM552.636 782.877h-96.134l-0.090 5.881c-1.246 67.048-3.794 94.181-3.955 113.276-0.11 13 2.655 22.818 2.655 37.274 0 10.789-2.765 17.64-11.542 19.851-1.926 0.534-4.137 0.841-6.42 0.841-6.943 0-13.223-2.84-17.741-7.421l-0.003-0.003c-6.739-7.411-13.724-14.23-21.095-20.615l-0.306-0.26c-0.702-0.595-1.407-1.241-2.165-1.836-0.313-0.264-0.596-0.529-0.865-0.806l-0.003-0.003c-81.379-68.718-227.611-119.316-296.689-140.298-7.892-2.416-14.741-4.432-20.4-6.051-43.281-1.773-77.717-37.208-77.882-80.724v-685.070c0.157-44.721 36.446-80.913 81.188-80.913 0.028 0 0.057 0 0.085 0h471.362c0.024 0 0.052 0 0.081 0 44.742 0 81.032 36.193 81.188 80.898v685.069c-0.158 44.72-36.447 80.911-81.188 80.911-0.028 0-0.057 0-0.085 0h0.004zM395.242 879.163c6.068 3.994 11.92 8.092 17.608 12.247v-108.532h-230.429c5.825 1.89 11.725 3.83 17.774 5.881 74.437 24.221 138.982 54.864 198.651 92.528l-3.604-2.124zM601.398 16.913c-0.093-26.832-21.866-48.547-48.71-48.547-0.018 0-0.036 0-0.054 0h-471.364c-0.015 0-0.033 0-0.051 0-26.845 0-48.618 21.716-48.71 48.539v685.063c0.093 26.832 21.866 48.547 48.71 48.547 0.018 0 0.036 0 0.054 0h471.364c0.015 0 0.033 0 0.051 0 26.845 0 48.618-21.716 48.71-48.539v-0.009z" />
<glyph unicode="&#xe937;" glyph-name="tv" horiz-adv-x="958" d="M655.43-64.017c-35.113 0.107-64.159 25.946-69.274 59.645l-0.049 0.389h-214.247c-5.225-34.115-34.325-59.953-69.476-60.034h-61.525c-35.155 0.082-64.251 25.921-69.419 59.642l-0.049 0.392h-29.469c-78.462 0.377-141.922 64.070-141.922 142.584 0 0.050 0 0.101 0 0.151v-0.008 479.557c0 0.093 0 0.202 0 0.312 0 78.51 63.463 142.198 141.888 142.561h158.361c4.129 7.22 8.021 13.223 12.199 19.006l-0.426-0.62-44.743 45.645c-14.070 14.333-22.756 33.995-22.756 55.686 0 21.732 8.718 41.428 22.848 55.78l-0.010-0.010c14.178 14.409 33.89 23.338 55.687 23.338 0.070 0 0.139 0 0.209 0h-0.011c0.059 0 0.13 0 0.2 0 21.802 0 41.52-8.928 55.695-23.328l0.010-0.010 71.417-72.101c8.54 1.279 18.395 2.009 28.421 2.009s19.881-0.73 29.516-2.141l-1.095 0.132 71.351 72.101c14.276 14.403 34.066 23.321 55.939 23.321 36.38 0 66.998-24.668 76.039-58.19l0.127-0.551c1.66-6.072 2.613-13.044 2.613-20.239 0-21.771-8.731-41.503-22.883-55.885l0.010 0.011-44.37-44.792c3.725-5.123 7.575-11.068 11.116-17.214l0.528-0.994h158.389c78.334-0.39 141.685-63.982 141.685-142.37 0-0.37-0.001-0.739-0.004-1.109v0.057-479.445c0-0.084 0-0.183 0-0.282 0-78.513-63.474-142.2-141.906-142.545h-29.432c-4.997-34.333-34.216-60.412-69.533-60.45h-61.65zM323.087 45.583h311.803v-39.131c0-0.023 0-0.050 0-0.077 0-5.762 2.33-10.98 6.099-14.762l-0.001 0.001c3.708-3.745 8.85-6.065 14.534-6.065h61.553c0.022 0 0.048 0 0.074 0 5.702 0 10.86 2.333 14.57 6.096l0.002 0.002c3.749 3.792 6.065 9.008 6.065 14.765 0 0.014 0 0.028 0 0.042v-0.002 39.53h78.225c51.093 0.316 92.39 41.809 92.39 92.946 0 0.117 0 0.233-0.001 0.35v-0.018 479.557c0.003 0.264 0.004 0.576 0.004 0.888 0 51.057-41.196 92.492-92.162 92.879h-189.103l-6.712 14.204c-7.039 14.799-15.632 27.53-25.828 38.782l0.119-0.133-15.71 17.385 76.362 77.161c5.305 5.377 8.582 12.767 8.582 20.923 0 2.723-0.365 5.36-1.049 7.866l0.049-0.209c-3.362 12.68-14.734 21.872-28.254 21.872-8.114 0-15.455-3.311-20.745-8.657l-0.002-0.002-89.975-90.893-13.213 2.791c-9.551 2.123-20.52 3.34-31.774 3.34s-22.223-1.216-32.785-3.525l1.010 0.185-13.213-2.791-90.018 90.906c-5.314 5.264-12.628 8.516-20.702 8.516-16.248 0-29.419-13.172-29.419-29.419 0-8.174 3.334-15.569 8.715-20.901l0.002-0.002 76.547-78.083-15.628-17.306c-10.113-11.154-18.742-23.92-25.409-37.808l-0.412-0.953-6.696-14.204h-189.060c-51.088-0.333-92.374-41.825-92.374-92.959 0-0.13 0-0.259 0.001-0.389v0.020-479.524c0-0.072 0-0.158 0-0.243 0-51.133 41.286-92.623 92.342-92.952h78.272v-39.131c0-0.020 0-0.043 0-0.067 0-11.458 9.248-20.756 20.687-20.837h61.525c11.454 0.073 20.712 9.375 20.712 20.84 0 0.022 0 0.044 0 0.067v-0.003zM602.898 400.966c5.11-6.299 8.204-14.414 8.204-23.251 0-2.754-0.3-5.437-0.87-8.019l0.046 0.246c-14.838-69.095-75.4-120.138-147.885-120.138s-133.047 51.042-147.705 119.144l-0.179 0.993c-0.441 2.145-0.693 4.61-0.693 7.134 0 9.129 3.301 17.486 8.775 23.944l-0.045-0.054c7.238 8.582 17.997 13.997 30.021 13.997 0.195 0 0.39-0.001 0.584-0.004h219.58c0.043 0 0.094 0 0.145 0 12.024 0 22.784-5.413 29.976-13.934l0.048-0.058zM549.996 321.886c-11.687 3.332-25.109 5.248-38.979 5.248-36.098 0-69.164-12.979-94.788-34.524l0.225 0.184c13.682-6.036 29.636-9.55 46.411-9.55 34.506 0 65.539 14.867 87.044 38.545l0.087 0.097zM280.454 519.814c-16.312-0.118-29.491-13.368-29.491-29.698 0-16.404 13.297-29.699 29.699-29.699s29.699 13.297 29.699 29.699c0 16.33-13.179 29.58-29.48 29.698h-0.011zM662.205 529.124c18.055-0.108 32.651-14.77 32.651-32.841 0-18.139-14.704-32.841-32.841-32.841s-32.841 14.704-32.841 32.841c0 18.070 14.595 32.733 32.639 32.841h0.011z" />
<glyph unicode="&#xe938;" glyph-name="categories1" horiz-adv-x="1331" d="M1144.003 140.8c-0.237 0.002-0.517 0.003-0.797 0.003-56.717 0-102.749-45.75-103.206-102.36v-0.043c0.039-28.356 11.688-53.985 30.448-72.391l0.016-0.016c18.895-18.546 44.813-29.993 73.405-29.993 0.047 0 0.094 0 0.141 0h-0.007c56.554 0 102.4 45.846 102.4 102.4s-45.846 102.4-102.4 102.4v0zM755.2 550.4h-678.4c-2.072 0.217-4.478 0.34-6.912 0.34-35.847 0-65.437-26.784-69.852-61.431l-0.036-0.349c4.451-34.996 34.042-61.78 69.888-61.78 2.434 0 4.839 0.123 7.21 0.365l-0.298-0.025h678.4c2.072-0.217 4.478-0.34 6.912-0.34 35.847 0 65.437 26.784 69.852 61.431l0.036 0.349c-4.451 34.996-34.042 61.78-69.888 61.78-2.434 0-4.839-0.123-7.21-0.365l0.298 0.025zM755.2 99.84h-678.4c-2.072 0.217-4.478 0.34-6.912 0.34-35.847 0-65.437-26.784-69.852-61.431l-0.036-0.349c4.451-34.996 34.042-61.78 69.888-61.78 2.434 0 4.839 0.123 7.21 0.365l-0.298-0.025h678.4c2.072-0.217 4.478-0.34 6.912-0.34 35.847 0 65.437 26.784 69.852 61.431l0.036 0.349c-4.451 34.996-34.042 61.78-69.888 61.78-2.434 0-4.839-0.123-7.21-0.365l0.298 0.025zM1144.003 591.36c-0.237 0.002-0.517 0.003-0.797 0.003-56.717 0-102.749-45.75-103.206-102.36v-0.043c0.041-28.358 11.69-53.987 30.448-72.397l0.016-0.015c18.897-18.543 44.815-29.988 73.406-29.988 0.047 0 0.093 0 0.14 0h-0.007c56.554 0 102.4 45.846 102.4 102.4s-45.846 102.4-102.4 102.4v0zM1255.188 960h-1179.177c-1.974 0.198-4.266 0.311-6.585 0.311-35.734 0-65.205-26.812-69.393-61.416l-0.033-0.335c4.221-34.939 33.693-61.751 69.426-61.751 2.319 0 4.611 0.113 6.872 0.333l-0.287-0.023h1179.177c1.974-0.198 4.266-0.311 6.585-0.311 35.734 0 65.205 26.812 69.393 61.416l0.033 0.335c-4.221 34.939-33.693 61.751-69.426 61.751-2.319 0-4.611-0.113-6.872-0.333l0.287 0.023z" />
<glyph unicode="&#xe939;" glyph-name="team" horiz-adv-x="586" d="M222.512 223.996c-1.846-0.050-3.491-0.869-4.633-2.147l-0.005-0.006c-1.042-1.166-1.679-2.714-1.679-4.41 0-0.166 0.006-0.331 0.018-0.494l-0.001 0.022c2.914-40.215 36.256-71.736 76.96-71.736s74.045 31.522 76.945 71.486l0.015 0.251c0.035 0.248 0.055 0.535 0.055 0.826 0 1.609-0.606 3.077-1.602 4.188l0.005-0.006c-1.12 1.254-2.742 2.039-4.547 2.039-0.077 0-0.154-0.001-0.23-0.004h0.011zM141.77 281.601c-0.002-0.139-0.004-0.303-0.004-0.468 0-15.679 12.71-28.389 28.389-28.389s28.389 12.71 28.389 28.389c0 0.164-0.001 0.329-0.004 0.492v-0.025c0.002 0.139 0.004 0.303 0.004 0.468 0 15.679-12.71 28.389-28.389 28.389s-28.389-12.71-28.389-28.389c0-0.164 0.001-0.329 0.004-0.492v0.025zM382.1 281.601c-0.002-0.139-0.004-0.303-0.004-0.468 0-15.679 12.71-28.389 28.389-28.389s28.389 12.71 28.389 28.389c0 0.164-0.001 0.329-0.004 0.492v-0.025c0 0.047 0 0.103 0 0.159 0 7.885-3.159 15.033-8.281 20.245l0.004-0.004c-5.095 5.188-12.184 8.403-20.024 8.403-0.028 0-0.057 0-0.085 0h0.004c-15.704-0.116-28.39-12.873-28.39-28.594 0-0.073 0-0.147 0.001-0.22v0.011zM491.889 370.828c29.584-40.798 47.324-91.862 47.324-147.069 0-73.251-31.231-139.208-81.103-185.282l-0.17-0.155c-43.201-39.822-101.132-64.239-164.766-64.239-63.627 0-121.553 24.412-164.922 64.38l0.169-0.154c-50.051 46.231-81.287 112.194-81.287 185.452 0 55.201 17.735 106.259 47.818 147.789l-0.506-0.734c-10.132 8.927-17.676 20.566-21.508 33.784l-0.125 0.505c-39.436-49.25-63.288-112.467-63.288-181.255 0-59.947 18.114-115.663 49.168-161.974l-0.663 1.050c51.124-76.854 137.372-126.816 235.289-126.816 29.608 0 58.149 4.568 84.957 13.038l-1.995-0.544c117.456 38.67 200.75 147.386 200.75 275.556 0 68.725-23.948 131.857-63.954 181.506l0.434-0.556c-3.955-13.718-11.495-25.355-21.543-34.214l-0.078-0.068zM93.562 615.432v-189.719c-0.023-0.539-0.036-1.171-0.036-1.806 0-24.227 19.061-44.002 43.005-45.147l0.103-0.004h313.047c24.046 1.147 43.108 20.922 43.108 45.148 0 0.635-0.013 1.267-0.039 1.896l0.003-0.090v189.722c54.978 19.709 93.598 71.37 93.598 132.052 0 7.932-0.66 15.711-1.928 23.283l0.113-0.819c-10.354 66.306-66.585 116.59-134.751 117.589l-0.104 0.001c-0.018 0-0.040 0-0.061 0-12.599 0-24.788-1.757-36.334-5.040l0.935 0.227c-22.555 45.706-68.605 76.715-121.953 77.275l-0.075 0.001c-53.374-0.085-99.501-31.027-121.502-75.937l-0.353-0.799c-9.754 2.475-20.952 3.895-32.481 3.895-62.752 0-115.678-42.069-132.114-99.542l-0.237-0.969c-3.538-11.714-5.575-25.177-5.575-39.115 0-60.704 38.635-112.385 92.656-131.794l0.976-0.306zM457.983 425.713c0-6.938-4.291-11.607-8.297-11.607h-313.052c-4.006 0-8.297 4.664-8.297 11.607v182.827c2.576-0.176 5.584-0.276 8.614-0.276 15.94 0 31.234 2.768 45.427 7.849l-0.941-0.294c27.273-31.297 67.201-50.963 111.723-50.963s84.45 19.666 111.572 50.786l0.151 0.177c13.255-4.787 28.551-7.555 44.494-7.555 3.028 0 6.033 0.1 9.012 0.296l-0.405-0.021zM136.634 852.2c0.097 0 0.211 0.001 0.325 0.001 13.103 0 25.616-2.53 37.076-7.127l-0.671 0.238c1.969-0.846 4.26-1.338 6.667-1.338 7.219 0 13.403 4.426 15.989 10.712l0.042 0.115 0.306 0.794c14.113 40.235 51.592 68.645 95.764 69.053h0.064c44.423-0.426 82.018-29.192 95.603-69.067l0.212-0.718c1.581-4.467 4.787-8.023 8.89-10.025l0.104-0.046c2.162-1.057 4.704-1.675 7.39-1.675 2.149 0 4.206 0.396 6.102 1.118l-0.118-0.039 1.239 0.514c11.132 4.733 24.080 7.483 37.67 7.483 0.138 0 0.277 0 0.415-0.001h-0.021c56.531-1.388 101.828-47.545 101.828-104.281s-45.297-102.893-101.699-104.278l-0.129-0.003c-0.037 0-0.082 0-0.126 0-8.365 0-16.489 1.031-24.252 2.972l0.687-0.145c8.423 15.558 14.345 33.721 16.677 52.991l0.072 0.731c0.093 0.681 0.146 1.467 0.146 2.266 0 8.836-6.503 16.154-14.984 17.428l-0.097 0.012-2.238 0.157h-0.144c-8.919-0.070-16.245-6.802-17.247-15.462l-0.008-0.081c-6.529-58.5-55.397-103.661-114.945-104.305l-0.065-0.001c-0.054 0-0.117 0-0.18 0-35.983 0-68.063 16.712-88.902 42.798l-0.176 0.228-3.4 4.6-0.64 0.797c-11.371 15.696-19.125 34.72-21.657 55.358l-0.058 0.582c-0.77 6.349-4.816 11.6-10.372 14.065l-0.112 0.045c-2.007 0.887-4.347 1.403-6.807 1.403-3.961 0-7.609-1.338-10.518-3.586l0.040 0.030c-4.236-3.285-6.937-8.376-6.937-14.098 0-0.764 0.048-1.517 0.142-2.255l-0.009 0.088c2.399-20.024 8.323-38.21 17.154-54.599l-0.4 0.812c-7.082-1.796-15.213-2.827-23.584-2.827-0.039 0-0.078 0-0.116 0h0.006c-56.532 1.388-101.83 47.546-101.83 104.284s45.298 102.895 101.702 104.281l0.129 0.003zM348.253 473.25l-188.288 0.026c-9.268-0.074-16.761-7.57-16.828-16.832v-0.006c-0.001-0.063-0.001-0.137-0.001-0.211 0-4.687 1.862-8.94 4.888-12.058l-0.004 0.004c3.046-3.143 7.3-5.1 12.012-5.119h187.274c9.339 0.152 16.851 7.758 16.851 17.119 0 9.024-6.981 16.417-15.836 17.074l-0.057 0.003z" />
<glyph unicode="&#xe93a;" glyph-name="Shape1" d="M0 448c0 282.317 229.683 512 512 512 114.020 0 221.94-36.684 312.096-106.086l-118.979-154.556c-55.745 42.91-122.524 65.595-193.117 65.595-174.768 0-316.952-142.185-316.952-316.952s142.185-316.952 316.952-316.952c140.761 0 260.379 92.223 301.602 219.429h-301.602v195.048h512v-97.524c0-282.317-229.683-512-512-512s-512 229.683-512 512z" />
<glyph unicode="&#xe93b;" glyph-name="Facebook" horiz-adv-x="473" d="M102.153 761.684c0-25.805 0-140.985 0-140.985h-102.153v-172.397h102.153v-512.302h209.845v512.288h140.815c0 0 13.188 82.663 19.581 173.047-18.328 0-159.603 0-159.603 0s0 100.295 0 117.875c0 17.618 22.879 41.316 45.493 41.316 22.571 0 70.209 0 114.331 0 0 23.472 0 104.573 0 179.475-58.902 0-125.913 0-155.452 0-220.198 0.012-215.011-172.556-215.011-198.316z" />
</font>
</defs>
</svg>
