<?xml version="1.0" encoding="UTF-8"?>
<svg width="92px" height="106px" viewBox="0 0 92 106" version="1.1" xmlns="http://www.w3.org/2000/svg" xmlns:xlink="http://www.w3.org/1999/xlink">
    <!-- Generator: Sketch 52.3 (67297) - http://www.bohemiancoding.com/sketch -->
    <title>Group 3</title>
    <desc>Created with Sketch.</desc>
    <g id="Page-1" stroke="none" stroke-width="1" fill="none" fill-rule="evenodd">
        <g id="Search-Results--No-Results-Copy" transform="translate(-680.000000, -288.000000)" fill="#ED3D48">
            <g id="Group-3" transform="translate(680.000000, 288.000000)">
                <g id="np_bad-chinese-takeout_1223352_000000">
                    <path d="M45,74 C38.3807711,74 33,79.3850311 33,86 C33,92.6192289 38.3850311,98 45,98 C51.6192289,98 57,92.6149689 57,86 C57,79.3850311 51.6149689,74 45,74 Z M50.4589883,89.2304506 C50.4589883,92.2025836 48.0414752,94.6200966 45.0693423,94.6200966 C42.0972093,94.6200966 39.6750814,92.2025836 39.6750814,89.2304506 C39.6750814,86.2583177 42.0925944,83.8408047 45.0693423,83.8408047 C48.0368603,83.8361814 50.4589883,86.2583177 50.4589883,89.2304506 Z" id="Shape" fill-rule="nonzero"></path>
                    <path d="M35.3025855,71.622686 C36.0586223,71.0391713 36.2177874,70.0520606 35.6925375,69.2272127 C35.2906469,68.5954358 34.8370289,67.950518 34.3117484,67.2573043 C34.7056833,66.8448916 35.0677852,66.4851326 35.4218804,66.1604723 C35.8675427,65.7480596 36.0704795,65.1777083 35.9749804,64.5986075 C35.8675427,63.9448954 35.405969,63.3613357 34.7972096,63.1200812 C34.2003379,62.883162 33.583582,63.0060131 33.0941175,63.4579049 C32.7320156,63.7957286 32.3699138,64.1511073 31.9998765,64.5371932 C31.625836,64.1467158 31.2637341,63.7957286 30.9056356,63.4579049 C30.4162016,63.0060131 29.7955036,62.8787817 29.2025435,63.1200812 C28.5937332,63.3657722 28.1281663,63.9449066 28.0247727,64.5986075 C27.9332525,65.1777307 28.1322104,65.7480483 28.5778727,66.1604723 C28.9280359,66.4851326 29.2941106,66.8449029 29.6880047,67.2573043 C29.1627548,67.9461152 28.705164,68.5954358 28.3072156,69.2272127 C27.7819759,70.0520381 27.9411308,71.039205 28.7011505,71.622686 C29.011525,71.8639855 29.3935213,72 29.7795005,72 C30.3007674,72 30.8219937,71.754309 31.1841261,71.188338 C31.4228687,70.811024 31.6894715,70.4249381 32.0038289,69.999362 C32.3181762,70.4249381 32.584779,70.811024 32.8235318,71.188338 C33.4482535,72.1754936 34.5743988,72.1842654 35.3025346,71.622686 L35.3025855,71.622686 Z" id="Path"></path>
                    <path d="M56.9034198,63.4576803 C56.4140092,63.0060102 55.7933408,62.8788412 55.2004091,63.1200223 C54.5916278,63.3655927 54.1260833,63.944443 54.0226946,64.5978233 C53.9311787,65.1766624 54.1301271,65.7467002 54.5757681,66.1589218 C54.9259146,66.4834229 55.2919819,66.8430166 55.6858471,67.2552158 C55.1566497,67.9480782 54.7030534,68.5926908 54.305124,69.2241578 C53.9708881,69.7503802 53.9072252,70.3599002 54.1340284,70.8949351 C54.3886804,71.4957099 54.9696027,71.9298449 55.6141676,71.9912291 C55.6698723,71.9956151 55.7216002,72 55.7773079,72 C56.3383368,72 56.8436886,71.7105805 57.1778939,71.184358 C57.4206078,70.8028509 57.6871979,70.4169545 57.9975575,69.9959653 C58.3118898,70.4213326 58.5784798,70.8072291 58.8172212,71.184358 C59.4458958,72.1754075 60.5799223,72.1797969 61.3000781,71.6184929 C62.0560788,71.0352645 62.2152363,70.0486381 61.6900114,69.2241948 C61.2921126,68.5971173 60.8345437,67.9525046 60.3092883,67.2552528 C60.7032044,66.8430424 61.065289,66.4834599 61.4193673,66.1589589 C62.1196603,65.5099568 62.1952614,64.5145628 61.5984182,63.7383917 C61.029434,62.9885233 59.9352351,62.6815574 59.0917258,63.4577398 C58.7296413,63.7953978 58.3675567,64.1506021 57.9975371,64.5364986 C57.6235145,64.1462127 57.2614299,63.7910196 56.9033485,63.4577398 L56.9034198,63.4576803 Z" id="Path"></path>
                    <path d="M81.7678268,35.9922547 C82.0274602,34.9867234 82.1841386,33.9352804 82.1841386,32.8470822 C82.1841386,28.4530325 79.9503935,24.5916803 76.5840759,22.378611 L86.5890584,13.0855537 C87.7753774,11.9652432 88.4468073,10.4454566 88.4825619,8.81092603 C88.5183165,7.17639547 87.9140525,5.63366474 86.7769992,4.46283497 C85.6310187,3.27825285 84.0910501,2.63083488 82.4482871,2.63083488 C80.9038492,2.63083488 79.4311497,3.21394595 78.2896386,4.29757177 L60.6392473,21.2764254 C59.5111671,20.4407767 58.2443773,19.807158 56.9014028,19.4077524 L59.7708233,7.4749506 C60.1289422,5.92305164 59.8737828,4.31602577 59.0456354,2.94772646 C58.1906309,1.53358601 56.8431756,0.546355884 55.2406365,0.165286701 C54.784032,0.055091649 54.3140081,0 53.8439155,0 C51.0416494,0 48.6421955,1.91463169 48.0065201,4.67415087 L43.8434023,23.4901764 C42.0169386,22.4111817 39.9444329,21.8280236 37.7866663,21.8280236 C35.0783706,21.8280236 32.4775679,22.7554957 30.3690785,24.4267462 C28.2607036,22.7554252 25.6597863,21.8280236 22.9514906,21.8280236 C16.25461,21.8280236 10.8018057,27.4204078 10.8018057,34.2897617 C10.8018057,34.831557 10.8420938,35.3595764 10.9092413,35.8830352 L10.2870083,35.8830352 L0,56.4257438 L11.2762187,56.4257438 L19.9114107,106 L68.4047204,106 L77.4964711,56.4257438 L92,56.4257438 L81.7678268,35.9922547 Z M77.4211229,32.8470822 C77.4211229,33.9306728 77.1883514,34.9545993 76.785459,35.886585 L62.0401283,35.8819938 L72.8463803,25.8450171 C75.5277454,26.9836993 77.4213636,29.6880328 77.4213636,32.8469576 L77.4211229,32.8470822 Z M66.767057,22.0800559 L81.5307235,7.8646003 C81.7724566,7.63503022 82.0992329,7.50646345 82.4484017,7.50646345 C82.6632731,7.50646345 83.0706347,7.55696981 83.4018919,7.90133199 C83.6749561,8.18600548 83.7286797,8.4936348 83.7241989,8.70024905 C83.7197215,8.91145918 83.6525751,9.2190885 83.3795109,9.47621029 L54.9454434,35.8818833 L52.9399775,35.8818833 L53.0921752,35.2482647 L60.312769,28.2967494 L66.767057,22.0800559 Z M55.7638109,24.1324461 C56.2204154,24.2793728 56.6546274,24.4768071 57.0753856,24.7063772 L55.1908207,26.5246249 L55.7638109,24.1324461 Z M48.1090052,26.2766361 L48.9281978,22.5713789 L52.6481651,5.77588982 C52.7869318,5.16522704 53.4987003,4.76117852 54.1656724,4.92188111 C54.5237913,5.00452798 54.8147672,5.22033045 54.998296,5.51876803 C55.110209,5.69783059 55.2176481,5.98709994 55.1415435,6.32226921 L48.0329121,35.8815777 L45.9826384,35.8815777 L48.1090052,26.2766361 Z M22.9512958,26.7174163 C25.1044785,26.7174163 27.1502829,27.6862159 28.5558279,29.3712658 L30.3642997,31.543078 L32.1727715,29.3758499 C33.5829005,27.6861924 35.6285902,26.7174163 37.7817729,26.7174163 C39.6127059,26.7174163 41.3406153,27.4061383 42.6969978,28.6503844 L41.0944587,35.8818833 L15.7488086,35.8818833 C15.6368967,35.3676397 15.5697491,34.8396203 15.5697491,34.2886098 C15.5652729,30.1149502 18.8778509,26.7172988 22.9514677,26.7172988 L22.9512958,26.7174163 Z M10.4211453,51.5386314 L7.79788143,51.5386314 L9.74513145,47.6542411 L13.1964808,40.7716051 L52.0165694,40.7716051 L51.4973027,41.8092722 L46.6224164,51.5431097 L15.2649527,51.5385174 L10.4211453,51.5386314 Z M64.4518327,101.112888 L23.8990217,101.112888 L16.109907,56.4283532 L49.5221137,56.4283532 L52.646744,50.1839669 L54.2001206,46.8689471 L57.5037531,53.9168463 L57.5037531,53.8158336 L58.8108584,56.4330102 L72.6474267,56.4330102 L64.4518327,101.112888 Z M73.5435834,51.5386314 L61.7216488,51.5386314 L58.3463925,44.8029221 L56.4707663,41.0562903 L56.7796424,40.7716169 L78.8042411,40.7716169 L84.1983712,51.5432273 L78.3923757,51.5432273 L73.5435834,51.5386314 Z" id="Shape" fill-rule="nonzero"></path>
                </g>
            </g>
        </g>
    </g>
</svg>