<?xml version="1.0" encoding="UTF-8"?>
<svg width="96px" height="96px" viewBox="0 0 96 96" version="1.1" xmlns="http://www.w3.org/2000/svg" xmlns:xlink="http://www.w3.org/1999/xlink">
    <!-- Generator: Sketch 55.2 (78181) - https://sketchapp.com -->
    <title>Group 27</title>
    <desc>Created with Sketch.</desc>
    <g stroke="none" stroke-width="1" fill="none" fill-rule="evenodd">
        <g>
            <rect fill="#D8D8D8" x="0" y="0" width="96" height="96"></rect>
            <g transform="translate(20.000000, 24.000000)" fill="#AAA4A4" fill-rule="nonzero" stroke="#A29A9A" stroke-width="2">
                <path d="M27.9998809,30.2409532 C26.4685787,30.2409532 25.0234809,29.8732596 23.7342298,29.2379574 C24.9915523,28.9433708 26.2958443,28.7701929 27.6363919,28.7435617 C26.2957545,28.7698208 24.9913856,28.9412227 23.7339915,29.2379574 C20.527217,27.6556596 18.3117617,24.3626809 18.3117617,20.5531915 C18.3117617,15.2099574 22.6588511,10.8651915 27.9997617,10.8651915 C33.3406723,10.8651915 37.6877617,15.2100766 37.6877617,20.5531915 C37.6877617,24.3626213 35.469983,27.6578638 32.2655319,29.2379574 C39.8795064,31.0299574 45.7064255,37.5015319 46.5232511,45.441617 C45.8925957,46.1118298 45.2247064,46.7471319 44.5242298,47.3475234 C44.5176766,38.241566 37.1054213,30.8364596 27.9994638,30.8364596 C18.8942328,30.8364596 11.482862,38.2403845 11.4746997,47.3453441 C10.7728246,46.745588 10.1057794,46.111002 9.47587915,45.439271 L9.47591489,45.439234 C9.47583285,45.4400281 9.47575085,45.4408222 9.47566891,45.4416163 C10.2930383,37.5015319 16.1224,31.0298383 23.7342298,29.2379574 C25.0234809,29.8732655 26.4685787,30.2409532 27.9998809,30.2409532 Z M46.6237123,47.3016033 C46.6237792,47.3217144 46.6238128,47.3418343 46.6238128,47.3619631 L44.524766,47.3619631 L44.524766,47.348 L44.5247302,47.3479631 C45.2244218,46.7482444 45.8915991,46.1136934 46.5239466,45.4419943 C46.5238459,45.4410146 46.5237451,45.440035 46.5236443,45.4390553 C50.8197974,40.880417 53.4610911,34.7436511 53.4610911,27.9998213 C53.4610911,13.9605021 42.039474,2.53888511 28.0001549,2.53888511 C13.9608357,2.53888511 2.53921872,13.9605021 2.53921872,27.9998213 C2.53921872,34.7442468 5.18075064,40.8807745 9.47428255,45.4372681 C9.41145174,46.0702468 9.37654468,46.7102553 9.37654468,47.3594979 L9.37817712,47.3594979 C9.37824273,46.7116828 9.41073605,46.0708702 9.47566891,45.4416163 C15.9269957,51.1552625 21.6985702,53.4614497 28.0003574,53.4614497 C34.3021447,53.4614497 40.0733021,51.1550837 44.5251234,47.3479178 L44.5251234,47.3618809 L46.6241702,47.3618809 L46.6237115,47.3612851 C46.6237115,47.3413819 46.6236787,47.3214875 46.6236132,47.3016019 Z M28,0.439838298 C43.1962553,0.439838298 55.5603404,12.8039234 55.5603404,28.0001787 C55.5603404,43.196434 43.1962553,55.5605191 28,55.5605191 C12.8037447,55.5605191 0.439659574,43.196434 0.439659574,28.0001787 C0.439659574,12.8039234 12.8037447,0.439838298 28,0.439838298 Z M20.4114043,20.5531915 C20.4114043,24.7372255 23.815966,28.1417872 28,28.1417872 C32.184034,28.1417872 35.5885957,24.7372255 35.5885957,20.5531915 C35.5885957,16.3691574 32.184034,12.9645957 28,12.9645957 C23.815966,12.9645957 20.4114043,16.3690383 20.4114043,20.5531915 Z"></path>
            </g>
        </g>
    </g>
</svg>