<?xml version="1.0" encoding="UTF-8"?>
<svg width="40px" height="40px" viewBox="0 0 101 119" version="1.1" xmlns="http://www.w3.org/2000/svg" xmlns:xlink="http://www.w3.org/1999/xlink">
    <!-- Generator: sketchtool 52.3 (67297) - http://www.bohemiancoding.com/sketch -->
    <title>C9541AD3-88AD-4524-8567-5FA3016DBC5A</title>
    <desc>Created with sketchtool.</desc>
    <g id="Page-1" stroke="none" stroke-width="1" fill="none" fill-rule="evenodd">
        <g id="Sign-up---success" transform="translate(-665.000000, -296.000000)" fill="#ED3D48">
            <path d="M709.337265,355.582478 C709.337265,357.525536 707.757889,359.102926 705.812384,359.102926 C703.866879,359.102926 702.287503,357.525536 702.287503,355.582478 C702.287503,353.63942 703.866879,352.06203 705.812384,352.06203 C707.757889,352.06203 709.337265,353.63942 709.337265,355.582478 Z M738.361745,352.06203 C736.41624,352.06203 734.836864,353.63942 734.836864,355.582478 C734.836864,357.525536 736.41624,359.102926 738.361745,359.102926 C740.307249,359.102926 741.886625,357.525536 741.886625,355.582478 C741.881155,353.63942 740.307249,352.06203 738.361745,352.06203 Z M764.817588,355.014903 C764.817588,355.014903 764.025157,354.834779 762.708115,354.45817 C760.582274,365.499898 754.0461,374.991204 745.007464,381.023263 C747.045865,382.851744 748.166216,384.947664 748.166216,387.169061 C748.166216,387.185437 748.160745,387.201813 748.160745,387.218189 C755.358106,394.188242 759.855879,403.996731 759.855879,414.857783 L757.057799,414.857783 C757.057799,406.605174 754.254263,399.007043 749.576154,392.976381 C749.608948,393.129216 749.625344,393.292949 749.625344,393.456696 L749.625344,394.777559 C749.625344,394.837586 749.603477,394.892178 749.603477,394.952219 L750.7238,396.103886 C752.374248,397.801302 753.25956,400.044635 753.226823,402.424343 C753.194043,404.804051 752.232189,407.020138 750.538008,408.668509 L746.592296,412.494676 C744.865321,414.164846 742.630215,415 740.394969,415 C738.072283,415 735.749737,414.099411 734.01185,412.303668 L726.486555,404.558549 L717.709818,404.558549 L710.184523,412.303668 C708.44118,414.093864 706.118634,415 703.801404,415 C701.566158,415 699.331052,414.170365 697.604077,412.494676 L693.652909,408.668509 C691.953355,407.020138 690.996986,404.804191 690.964094,402.424343 C690.931315,400.044635 691.816641,397.801302 693.467117,396.103886 L694.58744,394.952219 C694.581983,394.892178 694.565587,394.837586 694.565587,394.777559 L694.565587,393.456696 C694.565587,393.292949 694.581983,393.129202 694.614777,392.976381 C689.936668,399.007602 687.133132,406.605313 687.133132,414.857783 L684.335052,414.857783 C684.335052,403.996172 688.832685,394.187823 696.030185,387.218189 C696.030185,387.201813 696.024715,387.185437 696.024715,387.169061 C696.024715,384.958563 697.161435,382.868092 699.199836,381.034162 C688.073133,373.61656 680.728313,360.970614 680.728313,346.637313 C680.728313,345.458358 680.78843,344.290301 680.886797,343.133214 C674.07739,343.624441 669.262734,343.384291 669.262734,343.384291 L674.33971,339.290679 C668.639742,338.199054 665,332.02049 665,332.02049 C675.727837,334.438483 676.52571,327.954125 677.755326,323.391166 C678.700769,319.887067 681.471455,313.893992 683.744895,311.132267 C706.654172,283.203359 736.650985,302.486595 736.650985,302.486595 C736.650985,302.486595 772.928087,297.929086 764.817853,355.015951 L764.817588,355.014903 Z M718.414235,399.192713 C718.080872,398.876146 717.550762,398.881595 717.222869,399.214539 L716.108002,400.360742 L714.752682,401.758022 L713.020251,403.542768 C712.730608,403.837511 712.309805,403.957593 711.899928,403.875712 C711.495521,403.782933 711.167614,403.488191 711.036454,403.089742 C710.899838,402.680381 710.954485,402.085447 711.238658,401.757966 C711.249584,401.747054 711.249584,401.736141 711.260525,401.725228 L712.588521,400.3607 L717.370439,395.437523 C717.446939,395.355642 717.507056,395.262863 717.55079,395.159156 C717.589039,395.0609 717.610906,394.951744 717.610906,394.842589 C717.605436,394.613351 717.517996,394.405939 717.359513,394.247655 C717.20103,394.09482 716.955106,393.996577 716.758359,394.012953 C716.528833,394.018403 716.321159,394.105733 716.162676,394.264031 L715.293747,395.159156 L710.67034,399.918573 C710.45174,400.14781 710.1457,400.273356 709.83419,400.278805 C709.517223,400.289718 709.211183,400.164187 708.987113,399.940398 L708.877806,399.836692 C708.407813,399.378216 708.396886,398.630448 708.855953,398.161073 L711.77421,395.159156 L713.812611,393.063236 L715.441233,391.387618 C715.76367,391.054674 715.7582,390.519781 715.424837,390.19775 C715.091473,389.881182 714.561363,389.886631 714.23347,390.219575 L711.468128,393.068769 L709.429727,395.16469 L707.653646,396.993171 C707.194579,397.462573 706.445883,397.478949 705.975918,397.02046 L705.866611,396.916753 C705.637084,396.698428 705.505924,396.398237 705.500454,396.081655 C705.494984,395.765073 705.615217,395.459432 705.833817,395.235644 L705.90486,395.15924 L707.943261,393.06332 L711.32614,389.581018 C711.643106,389.253523 711.63765,388.707718 711.309743,388.39115 C711.15126,388.238315 710.943586,388.156449 710.724986,388.156449 L710.71406,388.156449 C710.484533,388.156449 710.27686,388.249228 710.123833,388.407526 L705.598778,393.063264 L704.019402,394.689838 C703.707892,395.006406 703.243369,395.121025 702.822566,395.000956 C702.423616,394.880874 702.035606,394.542467 701.931769,394.138569 C701.833403,393.76196 701.866196,393.358062 702.095723,393.057857 C702.112119,393.036017 702.123046,393.008728 702.144913,392.986903 L703.740658,391.34398 C703.893685,391.185697 703.981125,390.972835 703.975654,390.743583 C703.975654,390.514345 703.882744,390.306933 703.724261,390.154112 C703.560307,389.995829 703.347178,389.913948 703.134034,389.913948 C702.915434,389.913948 702.696834,390.001278 702.527424,390.165025 L699.723888,393.052365 L697.685487,395.148286 L695.696193,397.195022 L695.166083,397.740827 C693.963776,398.985273 693.308018,400.628167 693.340755,402.369318 C693.368079,404.115919 694.062128,405.737043 695.308085,406.943176 L699.259253,410.769348 C700.477943,411.948299 702.084614,412.597825 703.79522,412.597825 L703.893587,412.597825 C705.642386,412.570533 707.265552,411.871896 708.473204,410.632974 L714.391842,404.54167 L717.107937,401.747109 L718.44139,400.377118 C718.446861,400.371655 718.452331,400.360742 718.457787,400.349829 C718.74743,400.027798 718.736504,399.509281 718.414067,399.192713 L718.414235,399.192713 Z M723.813689,401.75798 C723.485782,401.337706 723.267196,400.862855 723.179756,400.3607 L720.999213,400.3607 C720.911773,400.862855 720.693173,401.337706 720.36528,401.75798 L723.813689,401.75798 Z M724.190772,394.804275 C724.201699,394.17114 724.392976,393.576192 724.737265,393.063124 L719.430707,393.063124 C719.851511,393.690811 720.026391,394.433116 719.955347,395.159045 L724.218082,395.159045 C724.207155,395.038962 724.190758,394.924344 724.190758,394.804261 L724.190772,394.804275 Z M744.460061,393.063124 L741.656525,390.175784 C741.339559,389.848304 740.793052,389.84284 740.465159,390.159408 C740.306676,390.312243 740.213766,390.525104 740.213766,390.748893 C740.208309,390.978131 740.295749,391.185543 740.448762,391.34929 L742.044507,392.992212 C742.066374,393.014052 742.077301,393.041341 742.099154,393.063166 C742.345077,393.357908 742.443443,393.750894 742.339621,394.127503 C742.230328,394.5314 741.918817,394.847968 741.514411,394.962601 C741.099078,395.07722 740.481528,395.006266 740.175488,394.689698 L738.596112,393.063124 L734.071057,388.407386 C733.754091,388.079892 733.213054,388.06353 732.879691,388.39101 C732.551784,388.707578 732.540858,389.253398 732.857838,389.580878 L736.246173,393.06318 L738.284574,395.159101 L738.355617,395.235518 C738.574217,395.464756 738.69445,395.770411 738.68898,396.081529 C738.68351,396.398097 738.55235,396.698303 738.322823,396.916628 L738.213516,397.020334 C737.743523,397.47336 736.989357,397.456984 736.535788,396.993045 L734.759707,395.164564 L732.721306,393.068644 L729.955964,390.219449 C729.633527,389.886505 729.097961,389.881042 728.764597,390.203073 C728.606114,390.355908 728.513204,390.568769 728.513204,390.792558 C728.513204,391.021796 728.595188,391.234671 728.748201,391.392955 L730.376823,393.068574 L732.415224,395.164494 L735.333481,398.166411 C735.792534,398.635813 735.781607,399.389031 735.311628,399.84203 L735.202321,399.945736 C734.978251,400.164061 734.677681,400.289592 734.355244,400.284143 C734.038278,400.27868 733.737694,400.153148 733.519094,399.92391 L728.895701,395.164494 L728.026772,394.269368 C727.873745,394.111084 727.660615,394.018291 727.436545,394.018291 C727.163298,393.996466 726.999345,394.100158 726.835391,394.252992 C726.676908,394.411276 726.583998,394.618688 726.583998,394.842477 C726.583998,394.951646 726.600381,395.060802 726.644101,395.164508 C726.682364,395.268214 726.742481,395.360994 726.818981,395.442874 L731.600899,400.366052 L732.928895,401.73058 C732.939822,401.741492 732.945292,401.752419 732.950762,401.763332 C733.240406,402.0799 733.338772,402.527477 733.202156,402.931374 C733.070996,403.324359 732.715766,403.700968 732.311359,403.793762 C731.906953,403.886541 731.458812,403.837427 731.169169,403.542685 L729.436738,401.757938 L728.081418,400.360658 L726.966551,399.214455 C726.802598,399.045258 726.583998,398.957928 726.359942,398.957928 C726.146812,398.957928 725.933668,399.034332 725.769715,399.198093 C725.441808,399.514661 725.436352,400.027728 725.736921,400.366135 C725.742392,400.371585 725.747848,400.382512 725.753318,400.393424 L727.086771,401.763416 L729.802867,404.557976 L735.721505,410.64928 C736.929268,411.893724 738.552322,412.592337 740.301122,412.614134 C742.11008,412.635967 743.694912,411.991911 744.935441,410.785655 L748.881153,406.959482 C750.127166,405.753238 750.826658,404.132225 750.848483,402.385625 C750.875806,400.639024 750.225476,398.996102 749.017699,397.757134 L748.493059,397.216777 L746.503765,395.164452 L744.460061,393.063124 Z M744.815291,384.319224 C744.339842,383.631496 743.694968,382.965608 742.902524,382.332431 C742.186608,381.759322 741.344973,381.213517 740.38859,380.705857 C738.50856,379.701562 736.196926,378.833781 733.540989,378.173286 C733.502739,378.238791 733.453549,378.293369 733.415299,378.35341 C732.781367,379.308577 731.901538,380.050826 730.87954,380.525761 C730.08711,380.891458 729.212724,381.09887 728.294534,381.09887 C727.731644,381.09887 727.179667,380.995164 726.649543,380.842343 C726.704189,381.09887 726.742453,381.382699 726.742453,381.682891 C726.742453,382.807269 726.299783,383.718729 725.74782,383.718729 C725.201327,383.718729 724.753186,382.807227 724.753186,381.682891 C724.753186,381.082494 724.884346,380.553064 725.081093,380.176483 C724.769583,379.979998 724.469013,379.761673 724.190297,379.510595 C723.113694,379.783498 722.004297,379.739833 720.944105,379.412353 C720.752828,379.417802 720.561551,379.417802 720.370274,379.428729 C719.949471,379.696182 719.501345,379.914507 719.036822,380.072791 C719.271818,380.443937 719.430302,381.022509 719.430302,381.682877 C719.430302,382.807255 718.987631,383.718715 718.435668,383.718715 C717.889175,383.718715 717.441035,382.807213 717.441035,381.682877 C717.441035,381.175273 717.533931,380.711334 717.686958,380.356551 C717.495681,380.372927 717.298948,380.400216 717.102201,380.400216 C716.440931,380.400216 715.796072,380.285597 715.189434,380.083648 C714.003524,379.696126 712.959645,378.948358 712.19465,377.933094 C712.167312,377.894878 712.134533,377.867589 712.10721,377.829388 C708.839192,378.511652 706.008235,379.505006 703.778572,380.70038 C702.827658,381.207984 701.986122,381.753803 701.270093,382.326954 C700.483133,382.95464 699.849228,383.620528 699.373695,384.308297 C698.996612,384.854103 698.712425,385.410835 698.553941,385.978466 L745.628833,385.978466 C745.46488,385.416284 745.186163,384.859552 744.81455,384.319196 L744.815291,384.319224 Z M760.155763,353.650319 C752.078547,350.921291 736.120259,343.75478 733.891589,329.154598 C721.223703,343.493488 703.648545,341.03693 703.648545,341.03693 C704.659575,340.851357 707.851121,338.346047 711.288561,335.447809 C702.79597,340.130933 692.05736,342.101238 683.553996,342.909006 C683.433763,344.13709 683.36819,345.381493 683.36819,346.63695 C683.36819,360.385908 690.598427,372.475457 701.452178,379.330514 C703.895042,377.796719 707.075619,376.535953 710.824626,375.679001 C710.043136,375.09498 709.562216,374.374514 709.562216,373.479403 C709.562216,372.824428 710.092326,372.289535 710.753583,372.289535 C711.409383,372.289535 711.944949,372.818978 711.944949,373.479403 C712.152622,374.030672 715.212966,375.520689 721.158885,375.520689 C726.170246,375.520689 730.12701,374.205276 731.105219,373.337439 L730.624299,372.726129 C730.219893,372.213062 730.307333,371.465307 730.821032,371.05596 C731.340202,370.652062 732.083442,370.739392 732.493304,371.252445 L733.318514,372.294942 L733.389557,372.382272 L734.37325,373.626718 C734.777656,374.139785 734.690216,374.88754 734.176517,375.296887 C733.957917,375.466084 733.695597,375.547964 733.444204,375.547964 C733.121767,375.547964 732.810271,375.400593 732.58073,375.149516 C731.564244,375.984614 729.941162,376.617778 728.104922,377.070776 C727.307036,377.267262 726.4763,377.42556 725.629321,377.545628 C726.345238,378.28247 727.301593,378.713671 728.31268,378.713671 C729.318239,378.713671 730.247272,378.315222 730.935879,377.649334 C731.312962,377.289101 731.619002,376.852451 731.826676,376.344847 C732.045276,375.809954 732.619106,375.504299 733.187466,375.635294 C737.040282,376.497682 740.270105,377.769361 742.745706,379.319503 C751.68641,373.66485 758.167322,364.441263 760.156756,353.650067 L760.155763,353.650319 Z M733.054963,379.646718 C732.645086,379.646718 732.289856,380.159786 732.142313,380.885715 C732.093137,381.131329 732.0658,381.398782 732.0658,381.682598 C732.0658,382.801512 732.50847,383.712986 733.054963,383.718435 L733.060433,383.718435 C733.147873,383.718435 733.229843,383.685683 733.311827,383.647481 C733.7381,383.418243 734.055066,382.632273 734.055066,381.682626 C734.055066,381.628048 734.049596,381.57892 734.049596,381.524342 C734.00042,380.476382 733.579603,379.646676 733.054963,379.646676 L733.054963,379.646718 Z M711.118018,379.646718 C710.593379,379.646718 710.172575,380.476354 710.134326,381.524384 C710.134326,381.578961 710.128869,381.62809 710.128869,381.682668 C710.128869,382.626922 710.445836,383.418369 710.872109,383.642074 C710.954079,383.685739 711.036063,383.713028 711.123503,383.713028 L711.128959,383.713028 C711.675466,383.707578 712.118122,382.801526 712.118122,381.67719 C712.118122,381.393375 712.090799,381.125921 712.041609,380.880307 C711.883125,380.159842 711.527895,379.646774 711.118018,379.646774 L711.118018,379.646718 Z M735.84185,370.979249 C735.22977,370.979249 734.737924,370.482558 734.737924,369.876711 C734.737924,369.265401 735.22977,368.774173 735.84185,368.774173 C736.45393,368.774173 736.945776,369.265401 736.945776,369.876711 C736.951247,370.482558 736.45393,370.979249 735.84185,370.979249 Z M736.136964,369.876711 C736.136964,369.712964 736.005804,369.581969 735.84185,369.581969 C735.677897,369.581969 735.546737,369.712964 735.546737,369.876711 C735.552207,370.198742 736.13695,370.198742 736.13695,369.876711 L736.136964,369.876711 Z M739.153573,373.943076 C739.153573,374.936459 738.34476,375.74431 737.350071,375.74431 C736.355382,375.74431 735.546569,374.936501 735.546569,373.943076 C735.546569,372.949652 736.355382,372.141842 737.350071,372.141842 C738.344704,372.147306 739.153573,372.949652 739.153573,373.943076 Z M737.754533,373.943076 C737.754533,373.724751 737.574183,373.539178 737.350127,373.539178 C737.131527,373.539178 736.945721,373.719302 736.945721,373.943076 C736.945721,374.161401 737.126071,374.346974 737.350127,374.346974 C737.574183,374.346974 737.754533,374.166851 737.754533,373.943076 Z" id="Fill-1"></path>
        </g>
    </g>
</svg>