<?xml version="1.0" encoding="UTF-8"?>
<svg width="157px" height="157px" viewBox="0 0 157 157" version="1.1" xmlns="http://www.w3.org/2000/svg" xmlns:xlink="http://www.w3.org/1999/xlink">
    <!-- Generator: sketchtool 52.3 (67297) - http://www.bohemiancoding.com/sketch -->
    <title>592CDA3B-6C12-4456-9C0F-50F446C4A811</title>
    <desc>Created with sketchtool.</desc>
    <g id="Page-1" stroke="none" stroke-width="1" fill="none" fill-rule="evenodd">
        <g id="Sign-up---success" transform="translate(-641.000000, -276.000000)" fill="#ED3D48">
            <g id="Group-4" transform="translate(634.000000, 276.000000)">
                <g id="avatar-copy" transform="translate(7.000000, 0.000000)">
                    <g id="Group-6">
                        <path d="M78.5,154 C120.197499,154 154,120.197499 154,78.5 C154,36.8025014 120.197499,3 78.5,3 C36.8025014,3 3,36.8025014 3,78.5 C3,120.197499 36.8025014,154 78.5,154 Z M78.5,157 C35.1456471,157 -1.13686838e-13,121.854353 -1.13686838e-13,78.5 C-1.13686838e-13,35.1456471 35.1456471,-1.13686838e-13 78.5,-1.13686838e-13 C121.854353,-1.13686838e-13 157,35.1456471 157,78.5 C157,121.854353 121.854353,157 78.5,157 Z" id="Mask" fill-rule="nonzero"></path>
                        <path d="M68.3372646,79.5824778 C68.3372646,81.5255358 66.7578886,83.1029255 64.8123838,83.1029255 C62.866879,83.1029255 61.287503,81.5255358 61.287503,79.5824778 C61.287503,77.6394199 62.866879,76.0620302 64.8123838,76.0620302 C66.7578886,76.0620302 68.3372646,77.6394199 68.3372646,79.5824778 Z M97.3617447,76.0620302 C95.4162399,76.0620302 93.8368638,77.6394199 93.8368638,79.5824778 C93.8368638,81.5255358 95.4162399,83.1029255 97.3617447,83.1029255 C99.3072494,83.1029255 100.886625,81.5255358 100.886625,79.5824778 C100.881155,77.6394199 99.3072494,76.0620302 97.3617447,76.0620302 Z M123.817588,79.0149026 C123.817588,79.0149026 123.025157,78.8347792 121.708115,78.4581702 C119.582274,89.4998982 113.0461,98.9912041 104.007464,105.023263 C106.045865,106.851744 107.166216,108.947664 107.166216,111.169061 C107.166216,111.185437 107.160745,111.201813 107.160745,111.218189 C114.358106,118.188242 118.855879,127.996731 118.855879,138.857783 L116.057799,138.857783 C116.057799,130.605174 113.254263,123.007043 108.576154,116.976381 C108.608948,117.129216 108.625344,117.292949 108.625344,117.456696 L108.625344,118.777559 C108.625344,118.837586 108.603477,118.892178 108.603477,118.952219 L109.7238,120.103886 C111.374248,121.801302 112.25956,124.044635 112.226823,126.424343 C112.194043,128.804051 111.232189,131.020138 109.538008,132.668509 L105.592296,136.494676 C103.865321,138.164846 101.630215,139 99.3949692,139 C97.0722833,139 94.7497373,138.099411 93.0118501,136.303668 L85.4865548,128.558549 L76.7098184,128.558549 L69.1845231,136.303668 C67.4411796,138.093864 65.1186336,139 62.801404,139 C60.5661581,139 58.3310521,138.170365 56.6040773,136.494676 L52.6529091,132.668509 C50.9533555,131.020138 49.9969859,128.804191 49.9640944,126.424343 C49.9313149,124.044635 50.8166413,121.801302 52.4671166,120.103886 L53.5874397,118.952219 C53.5819834,118.892178 53.5655867,118.837586 53.5655867,118.777559 L53.5655867,117.456696 C53.5655867,117.292949 53.5819834,117.129202 53.6147769,116.976381 C48.9366676,123.007602 46.1331317,130.605313 46.1331317,138.857783 L43.335052,138.857783 C43.335052,127.996172 47.8326852,118.187823 55.0301855,111.218189 C55.0301855,111.201813 55.0247152,111.185437 55.0247152,111.169061 C55.0247152,108.958563 56.1614351,106.868092 58.1998361,105.034162 C47.0731325,97.6165597 39.7283134,84.9706142 39.7283134,70.637313 C39.7283134,69.4583578 39.7884301,68.2903013 39.8867966,67.1332135 C33.07739,67.6244414 28.2627344,67.3842908 28.2627344,67.3842908 L33.33971,63.2906787 C27.639742,62.1990535 24,56.0204897 24,56.0204897 C34.7278373,58.4384832 35.5257097,51.9541246 36.7553258,47.3911661 C37.7007689,43.8870666 40.4714554,37.8939917 42.7448951,35.1322672 C65.6541721,7.20335897 95.6509848,26.4865954 95.6509848,26.4865954 C95.6509848,26.4865954 131.928087,21.9290863 123.817853,79.0159506 L123.817588,79.0149026 Z M77.414235,123.192713 C77.0808718,122.876146 76.5507616,122.881595 76.2228686,123.214539 L75.1080018,124.360742 L73.7526819,125.758022 L72.0202509,127.542768 C71.7306077,127.837511 71.3098045,127.957593 70.8999278,127.875712 C70.4955214,127.782933 70.1676144,127.488191 70.0364544,127.089742 C69.8998382,126.680381 69.9544847,126.085447 70.2386577,125.757966 C70.2495842,125.747054 70.2495842,125.736141 70.2605247,125.725228 L71.5885212,124.3607 L76.3704393,119.437523 C76.4469388,119.355642 76.5070556,119.262863 76.5507896,119.159156 C76.5890393,119.0609 76.6109063,118.951744 76.6109063,118.842589 C76.6054361,118.613351 76.5179961,118.405939 76.3595128,118.247655 C76.2010296,118.09482 75.9551064,117.996577 75.7583594,118.012953 C75.5288329,118.018403 75.3211595,118.105733 75.1626762,118.264031 L74.2937466,119.159156 L69.6703397,123.918573 C69.4517397,124.14781 69.1456998,124.273356 68.8341896,124.278805 C68.5172231,124.289718 68.2111832,124.164187 67.9871129,123.940398 L67.877806,123.836692 C67.4078125,123.378216 67.396886,122.630448 67.855953,122.161073 L70.7742101,119.159156 L72.8126111,117.063236 L74.4412334,115.387618 C74.7636701,115.054674 74.7581998,114.519781 74.4248366,114.19775 C74.0914734,113.881182 73.5613632,113.886631 73.2334703,114.219575 L70.4681282,117.068769 L68.4297272,119.16469 L66.6536461,120.993171 C66.1945792,121.462573 65.445883,121.478949 64.9759176,121.02046 L64.8666106,120.916753 C64.6370841,120.698428 64.5059241,120.398237 64.5004539,120.081655 C64.4949836,119.765073 64.6152171,119.459432 64.8338171,119.235644 L64.9048603,119.15924 L66.9432614,117.06332 L70.3261396,113.581018 C70.6431061,113.253523 70.6376498,112.707718 70.3097429,112.39115 C70.1512597,112.238315 69.9435862,112.156449 69.7249862,112.156449 L69.7140597,112.156449 C69.4845332,112.156449 69.2768598,112.249228 69.1238328,112.407526 L64.5987784,117.063264 L63.0194024,118.689838 C62.7078922,119.006406 62.243369,119.121025 61.8225658,119.000956 C61.4236156,118.880874 61.0356059,118.542467 60.9317691,118.138569 C60.8334026,117.76196 60.8661961,117.358062 61.0957226,117.057857 C61.1121194,117.036017 61.1230459,117.008728 61.1449129,116.986903 L62.7406577,115.34398 C62.8936846,115.185697 62.9811246,114.972835 62.9756544,114.743583 C62.9756544,114.514345 62.8827442,114.306933 62.7242609,114.154112 C62.5603074,113.995829 62.3471777,113.913948 62.134034,113.913948 C61.915434,113.913948 61.6968341,114.001278 61.5274243,114.165025 L58.7238884,117.052365 L56.6854874,119.148286 L54.6961927,121.195022 L54.1660825,121.740827 C52.9637757,122.985273 52.3080178,124.628167 52.3407553,126.369318 C52.3680785,128.115919 53.0621282,129.737043 54.3080851,130.943176 L58.2592533,134.769348 C59.4779429,135.948299 61.0846142,136.597825 62.7952202,136.597825 L62.8935867,136.597825 C64.6423865,136.570533 66.2655525,135.871896 67.4732036,134.632974 L73.3918416,128.54167 L76.1079375,125.747109 L77.4413903,124.377118 C77.4468606,124.371655 77.4523308,124.360742 77.4577871,124.349829 C77.7474303,124.027798 77.7365038,123.509281 77.4140671,123.192713 L77.414235,123.192713 Z M82.8136892,125.75798 C82.4857823,125.337706 82.2671963,124.862855 82.1797563,124.3607 L79.9992128,124.3607 C79.9117729,124.862855 79.6931729,125.337706 79.3652799,125.75798 L82.8136892,125.75798 Z M83.1907724,118.804275 C83.2016989,118.17114 83.3929757,117.576192 83.7372654,117.063124 L78.4307073,117.063124 C78.8515105,117.690811 79.0263905,118.433116 78.9553473,119.159045 L83.2180817,119.159045 C83.2071552,119.038962 83.1907584,118.924344 83.1907584,118.804261 L83.1907724,118.804275 Z M103.460061,117.063124 L100.656525,114.175784 C100.339559,113.848304 99.793052,113.84284 99.4651591,114.159408 C99.3066758,114.312243 99.2137656,114.525104 99.2137656,114.748893 C99.2083093,114.978131 99.2957493,115.185543 99.4487623,115.34929 L101.044507,116.992212 C101.066374,117.014052 101.077301,117.041341 101.099154,117.063166 C101.345077,117.357908 101.443443,117.750894 101.339621,118.127503 C101.230328,118.5314 100.918817,118.847968 100.514411,118.962601 C100.099078,119.07722 99.4815278,119.006266 99.1754879,118.689698 L97.5961118,117.063124 L93.0710574,112.407386 C92.754091,112.079892 92.2130543,112.06353 91.8796911,112.39101 C91.5517841,112.707578 91.5408576,113.253398 91.8578381,113.580878 L95.2461726,117.06318 L97.2845736,119.159101 L97.3556169,119.235518 C97.5742168,119.464756 97.6944503,119.770411 97.6889801,120.081529 C97.6835098,120.398097 97.5523499,120.698303 97.3228234,120.916628 L97.2135164,121.020334 C96.743523,121.47336 95.9893566,121.456984 95.5357879,120.993045 L93.7597068,119.164564 L91.7213058,117.068644 L88.9559637,114.219449 C88.633527,113.886505 88.0979605,113.881042 87.7645973,114.203073 C87.6061141,114.355908 87.5132039,114.568769 87.5132039,114.792558 C87.5132039,115.021796 87.5951876,115.234671 87.7482006,115.392955 L89.3768228,117.068574 L91.4152239,119.164494 L94.333481,122.166411 C94.792534,122.635813 94.7816075,123.389031 94.311628,123.84203 L94.202321,123.945736 C93.9782508,124.164061 93.6776811,124.289592 93.3552444,124.284143 C93.0382779,124.27868 92.7376942,124.153148 92.5190943,123.92391 L87.8957014,119.164494 L87.0267717,118.269368 C86.8737447,118.111084 86.660615,118.018291 86.4365448,118.018291 C86.1632983,117.996466 85.9993449,118.100158 85.8353914,118.252992 C85.6769082,118.411276 85.5839979,118.618688 85.5839979,118.842477 C85.5839979,118.951646 85.6003807,119.060802 85.6441007,119.164508 C85.6823644,119.268214 85.7424812,119.360994 85.8189806,119.442874 L90.6008987,124.366052 L91.9288953,125.73058 C91.9398218,125.741492 91.9452921,125.752419 91.9507623,125.763332 C92.2404055,126.0799 92.338772,126.527477 92.2021558,126.931374 C92.0709958,127.324359 91.7157656,127.700968 91.3113591,127.793762 C90.9069527,127.886541 90.4588123,127.837427 90.169169,127.542685 L88.436738,125.757938 L87.0814182,124.360658 L85.9665514,123.214455 C85.8025979,123.045258 85.5839979,122.957928 85.3599417,122.957928 C85.146812,122.957928 84.9336683,123.034332 84.7697148,123.198093 C84.4418078,123.514661 84.4363516,124.027728 84.7369213,124.366135 C84.7423915,124.371585 84.7478478,124.382512 84.753318,124.393424 L86.0867709,125.763416 L88.8028668,128.557976 L94.7215047,134.64928 C95.9292678,135.893724 97.5523219,136.592337 99.3011216,136.614134 C101.11008,136.635967 102.694912,135.991911 103.935441,134.785655 L107.881153,130.959482 C109.127166,129.753238 109.826658,128.132225 109.848483,126.385625 C109.875806,124.639024 109.225476,122.996102 108.017699,121.757134 L107.493059,121.216777 L105.503765,119.164452 L103.460061,117.063124 Z M103.815291,108.319224 C103.339842,107.631496 102.694968,106.965608 101.902524,106.332431 C101.186608,105.759322 100.344973,105.213517 99.3885896,104.705857 C97.5085599,103.701562 95.1969264,102.833781 92.5409892,102.173286 C92.5027395,102.238791 92.4535492,102.293369 92.4152995,102.35341 C91.7813666,103.308577 90.9015384,104.050826 89.8795398,104.525761 C89.0871097,104.891458 88.2127238,105.09887 87.294534,105.09887 C86.7316443,105.09887 86.1796671,104.995164 85.6495429,104.842343 C85.7041894,105.09887 85.7424532,105.382699 85.7424532,105.682891 C85.7424532,106.807269 85.299783,107.718729 84.7478198,107.718729 C84.2013269,107.718729 83.7531864,106.807227 83.7531864,105.682891 C83.7531864,105.082494 83.8843464,104.553064 84.0810934,104.176483 C83.7695832,103.979998 83.4690135,103.761673 83.1902968,103.510595 C82.1136936,103.783498 81.004297,103.739833 79.9441047,103.412353 C79.7528279,103.417802 79.5615512,103.417802 79.3702745,103.428729 C78.9494713,103.696182 78.5013449,103.914507 78.0368217,104.072791 C78.2718184,104.443937 78.4303016,105.022509 78.4303016,105.682877 C78.4303016,106.807255 77.9876314,107.718715 77.4356683,107.718715 C76.8891753,107.718715 76.4410349,106.807213 76.4410349,105.682877 C76.4410349,105.175273 76.5339311,104.711334 76.6869581,104.356551 C76.4956814,104.372927 76.2989484,104.400216 76.1022014,104.400216 C75.4409313,104.400216 74.7960718,104.285597 74.1894342,104.083648 C73.0035241,103.696126 71.9596445,102.948358 71.1946496,101.933094 C71.1673123,101.894878 71.1345328,101.867589 71.1072096,101.829388 C67.8391925,102.511652 65.0082354,103.505006 62.7785716,104.70038 C61.8276583,105.207984 60.9861218,105.753803 60.2700933,106.326954 C59.4831334,106.95464 58.8492284,107.620528 58.3736948,108.308297 C57.9966116,108.854103 57.7124246,109.410835 57.5539414,109.978466 L104.628833,109.978466 C104.46488,109.416284 104.186163,108.859552 103.81455,108.319196 L103.815291,108.319224 Z M119.155763,77.6503187 C111.078547,74.9212905 95.120259,67.7547797 92.8915886,53.154598 C80.2237028,67.4934883 62.6485449,65.0369298 62.6485449,65.0369298 C63.659575,64.851357 66.8511206,62.3460474 70.2885614,59.4478086 C61.79597,64.1309332 51.0573601,66.1012382 42.5539961,66.9090059 C42.4337626,68.1370895 42.3681896,69.3814934 42.3681896,70.6369497 C42.3681896,84.3859083 49.5984274,96.4754568 60.4521783,103.330514 C62.8950417,101.796719 66.0756188,100.535953 69.8246258,99.6790013 C69.0431362,99.0949801 68.5622162,98.3745144 68.5622162,97.4794027 C68.5622162,96.8244275 69.0923264,96.2895347 69.7535826,96.2895347 C70.4093825,96.2895347 70.9449489,96.8189781 70.9449489,97.4794027 C71.1526224,98.0306717 74.212966,99.5206894 80.1588853,99.5206894 C85.1702459,99.5206894 89.1270103,98.2052758 90.1052189,97.337439 L89.624299,96.7261289 C89.2198925,96.2130615 89.3073325,95.465307 89.821032,95.0559597 C90.3402017,94.6520619 91.0834416,94.7393919 91.4933043,95.2524453 L92.3185139,96.2949421 L92.3895572,96.3822722 L93.37325,97.6267179 C93.7776565,98.1397853 93.6902165,98.8875398 93.1765171,99.2968871 C92.9579171,99.4660837 92.6955971,99.5479644 92.4442037,99.5479644 C92.1217669,99.5479644 91.8102707,99.4005932 91.5807303,99.1495159 C90.5642439,99.9846144 88.9411618,100.617778 87.1049221,101.070776 C86.3070357,101.267262 85.4762998,101.42556 84.6293211,101.545628 C85.3452378,102.28247 86.3015934,102.713671 87.3126795,102.713671 C88.3182394,102.713671 89.2472718,102.315222 89.9358792,101.649334 C90.3129624,101.289101 90.6190023,100.852451 90.8266758,100.344847 C91.0452758,99.8099544 91.6191059,99.5042993 92.1874659,99.6352944 C96.0402816,100.497682 99.2701049,101.769361 101.745706,103.319503 C110.68641,97.6648497 117.167322,88.4412628 119.156756,77.6500672 L119.155763,77.6503187 Z M92.0549628,103.646718 C91.6450861,103.646718 91.2898559,104.159786 91.1423132,104.885715 C91.0931369,105.131329 91.0657997,105.398782 91.0657997,105.682598 C91.0657997,106.801512 91.5084699,107.712986 92.0549628,107.718435 L92.060433,107.718435 C92.147873,107.718435 92.2298428,107.685683 92.3118265,107.647481 C92.7380999,107.418243 93.0550664,106.632273 93.0550664,105.682626 C93.0550664,105.628048 93.0495962,105.57892 93.0495962,105.524342 C93.0004199,104.476382 92.5796027,103.646676 92.0549628,103.646676 L92.0549628,103.646718 Z M70.1180185,103.646718 C69.5933785,103.646718 69.1725753,104.476354 69.1343256,105.524384 C69.1343256,105.578961 69.1288693,105.62809 69.1288693,105.682668 C69.1288693,106.626922 69.4458358,107.418369 69.8721092,107.642074 C69.954079,107.685739 70.0360627,107.713028 70.1235027,107.713028 L70.128959,107.713028 C70.6754659,107.707578 71.1181221,106.801526 71.1181221,105.67719 C71.1181221,105.393375 71.0907988,105.125921 71.0416086,104.880307 C70.8831254,104.159842 70.5278952,103.646774 70.1180185,103.646774 L70.1180185,103.646718 Z M94.8418501,94.9792491 C94.2297702,94.9792491 93.7379238,94.4825578 93.7379238,93.8767111 C93.7379238,93.2654009 94.2297702,92.7741731 94.8418501,92.7741731 C95.45393,92.7741731 95.9457765,93.2654009 95.9457765,93.8767111 C95.9512467,94.4825578 95.45393,94.9792491 94.8418501,94.9792491 Z M95.1369636,93.8767111 C95.1369636,93.7129638 95.0058036,93.5819688 94.8418501,93.5819688 C94.6778966,93.5819688 94.5467367,93.7129638 94.5467367,93.8767111 C94.5522069,94.1987423 95.1369496,94.1987423 95.1369496,93.8767111 L95.1369636,93.8767111 Z M98.1535732,97.9430762 C98.1535732,98.9364586 97.3447603,99.7443102 96.350071,99.7443102 C95.3553817,99.7443102 94.5465688,98.9365005 94.5465688,97.9430762 C94.5465688,96.9496518 95.3553817,96.1418421 96.350071,96.1418421 C97.3447044,96.1473055 98.1535732,96.9496518 98.1535732,97.9430762 Z M96.7545334,97.9430762 C96.7545334,97.7247511 96.5741832,97.5391783 96.350127,97.5391783 C96.131527,97.5391783 95.9457205,97.7193017 95.9457205,97.9430762 C95.9457205,98.1614012 96.1260707,98.346974 96.350127,98.346974 C96.5741832,98.346974 96.7545334,98.1668506 96.7545334,97.9430762 Z" id="Fill-1"></path>
                    </g>
                </g>
            </g>
        </g>
    </g>
</svg>