<?xml version="1.0" encoding="UTF-8"?>
<svg width="230px" height="153px" viewBox="0 0 230 153" version="1.1" xmlns="http://www.w3.org/2000/svg" xmlns:xlink="http://www.w3.org/1999/xlink">
    <!-- Generator: Sketch 55.2 (78181) - https://sketchapp.com -->
    <title>Group 28</title>
    <desc>Created with Sketch.</desc>
    <g stroke="none" stroke-width="1" fill="none" fill-rule="evenodd">
        <g>
            <rect fill="#D8D8D8" x="0" y="0" width="230" height="153"></rect>
            <g transform="translate(80.000000, 67.000000)" fill="#AAA4A4" fill-rule="nonzero">
                <path d="M3.17707426,63.0413 L8.25990099,63.0413 C8.25990099,49.7574 18.4227426,38.5826 31.5514158,36.8977 L31.5514158,35.42112 C31.5514158,30.57306 38.7512376,30.57306 38.7512376,35.42112 L38.7512376,36.8977 C51.8799109,38.58484 62.2543465,49.7602 62.2543465,63.0413 L67.1229782,63.0413 C71.3572495,63.0413 71.3572495,69.57643 67.1229782,69.57643 L3.17728515,69.57643 C-1.05698614,69.57643 -1.05698614,63.0413 3.17728515,63.0413 L3.17707426,63.0413 Z M45.737005,5.6931 L50.1827297,13.0732 L41.9256406,21.2954 L45.5256218,27.40948 L43.4084861,28.46494 L38.9627614,20.87414 L47.2198505,12.65194 L43.8313228,6.74842 L45.737005,5.6931 Z M36.6314307,0.42126 L41.0771554,7.80136 L32.8200663,16.02356 L36.4200475,22.13764 L34.3029119,23.40366 L29.8571871,15.60216 L38.1142762,7.59066 L34.7257485,1.47658 L36.6314307,0.42126 Z"></path>
            </g>
        </g>
    </g>
</svg>