<?xml version="1.0" encoding="utf-8"?>
<!-- Generator: Adobe Illustrator 25.0.1, SVG Export Plug-In . SVG Version: 6.00 Build 0)  -->
<svg version="1.1" id="Layer_1" xmlns="http://www.w3.org/2000/svg" xmlns:xlink="http://www.w3.org/1999/xlink" x="0px" y="0px"
	 viewBox="0 0 62 60" style="enable-background:new 0 0 62 60;" xml:space="preserve">
<style type="text/css">
	.st0{fill:#E6392B;}
</style>
<path class="st0" d="M58.7,16.2c-0.2-0.4-0.7-0.6-1.1-0.3c-4.5,2.5-10.3,1.3-13.6-2.9c-0.3-0.4-0.6-0.9-0.9-1.4
	c-0.2-0.4-0.7-0.5-1-0.3c-5.3,2.8-12,1.7-16.2-3c-2-2.2-3.1-5-3.3-7.8c0-0.4-0.4-0.6-0.7-0.5C9.3,3.9,0.2,15.7,0.3,29.5
	C0.4,46.5,14.3,60.1,31.2,60c16.9-0.1,30.6-13.9,30.5-30.9C61.6,24.5,60.6,20.1,58.7,16.2z"/>
</svg>
