<svg xmlns="http://www.w3.org/2000/svg" width="430" height="81" viewBox="0 0 430 81">
    <defs>
        <linearGradient id="a" x1="20.955%" x2="79.325%" y1="93.87%" y2="6.444%">
            <stop offset="0%" stop-color="#EC3849"/>
            <stop offset="100%" stop-color="#ec3849"/>
        </linearGradient>
        <linearGradient id="b" x1="20.861%" x2="79.421%" y1="65.636%" y2="34.476%">
            <stop offset="0%" stop-color="#EC3849"/>
            <stop offset="100%" stop-color="#ec3849"/>
        </linearGradient>
        <linearGradient id="c" x1="20.861%" x2="79.421%" y1="68.988%" y2="31.148%">
            <stop offset="0%" stop-color="#EC3849"/>
            <stop offset="100%" stop-color="#ec3849"/>
        </linearGradient>
        <linearGradient id="d" x1="20.861%" x2="79.421%" y1="74.713%" y2="25.464%">
            <stop offset="0%" stop-color="#EC3849"/>
            <stop offset="100%" stop-color="#ec3849"/>
        </linearGradient>
    </defs>
    <g fill="none" fill-rule="nonzero">
        <path fill="url(#a)" d="M62.516 4.547l-.066-.066A12.835 12.835 0 0 0 53.416.767a12.807 12.807 0 0 0-9.106 3.78L4.58 44.335a12.88 12.88 0 0 0-3.774 9.122 12.866 12.866 0 0 0 3.708 9.05l.038.044L33.29 91.338a12.815 12.815 0 0 0 9.106 3.775 12.824 12.824 0 0 0 9.105-3.775l39.725-39.794A12.889 12.889 0 0 0 95 42.423a12.875 12.875 0 0 0-3.774-9.121L62.516 4.547zm-.071 5.686l25.91 25.957a8.749 8.749 0 0 1 2.183 3.632l-32.983.449 4.89-30.038zM39.777 90.65a8.764 8.764 0 0 1-3.609-2.186l-25.906-25.95L40.2 57.62l-.422 33.029zm2.28-37.46l-.29.049-34.971 5.714a8.806 8.806 0 0 1-1.92-5.49 8.805 8.805 0 0 1 2.582-6.24L47.183 7.429a8.77 8.77 0 0 1 6.229-2.585 8.761 8.761 0 0 1 5.48 1.922L52.552 45.7a8.357 8.357 0 0 1-6.896 6.908l-3.6.58zm46.299-4.52L48.63 88.463a8.744 8.744 0 0 1-4.79 2.46l.426-33.971 2.045-.335a12.424 12.424 0 0 0 10.254-10.271l.328-2 33.918-.46a8.835 8.835 0 0 1-2.456 4.782z" transform="rotate(45 127.796 238.437)"/>
        <g stroke="#EE4D55" stroke-width="2">
            <path d="M284.877 7.46c-2.14-1.066-4.93-.445-6.485 1.442-.297.36-.558.695-.804 1.008-2.075 2.636-2.93 3.73-13.56 6.441-13.241 3.383-17.78 16.535-18.854 20.488-.985 3.613-2.016 11.754-.086 15.105.46.8 1.066 1.305 1.8 1.5.309.082.602.121.88.121 1.913 0 3.179-1.805 4.41-3.559 1-1.43 2.035-2.906 3.343-3.207 1.114-.257 2.293.13 3.657.575 2.367.773 5.316 1.738 9.082-.625 4.957-3.11 3.847-7.93 3.324-9.477 1.27-.246 4.601-1.27 7.945-5.445 3.453-4.317 1.492-7.742.594-8.918 3.101-1.535 5.777-5.45 6.898-10.164.567-2.36-.234-4.336-2.144-5.285zm1.363 5.102c-1.367 5.738-4.582 8.883-6.922 9.832a.403.403 0 0 0-.125.664c.145.14 3.527 3.496-.289 8.27-3.914 4.894-7.856 5.218-7.895 5.222a.4.4 0 0 0-.34.57c.106.227 2.5 5.606-2.831 8.95-3.446 2.16-6.078 1.3-8.403.539-1.414-.465-2.754-.903-4.09-.594-1.609.371-2.734 1.977-3.824 3.531-1.304 1.864-2.539 3.63-4.422 3.121-.527-.14-.957-.507-1.312-1.125-1.79-3.11-.758-11.102.164-14.492 1.047-3.843 5.453-16.645 18.277-19.918 10.895-2.78 11.863-4.015 13.992-6.726.242-.309.504-.64.797-.992.965-1.172 2.32-1.665 3.574-1.665.703 0 1.375.153 1.93.43 1.566.79 2.195 2.383 1.719 4.383zM148.172 16.355c-10.629-2.714-11.484-3.804-13.559-6.441a74.853 74.853 0 0 0-.804-1.008c-1.555-1.887-4.344-2.508-6.485-1.441-1.906.949-2.71 2.926-2.148 5.285 1.121 4.715 3.797 8.629 6.898 10.164-.898 1.176-2.859 4.602.594 8.918 3.344 4.176 6.676 5.2 7.945 5.445-.52 1.547-1.632 6.367 3.325 9.477 3.765 2.363 6.714 1.398 9.082.625 1.363-.445 2.539-.832 3.656-.574 1.308.3 2.344 1.777 3.344 3.207 1.23 1.754 2.496 3.558 4.41 3.558.277 0 .57-.039.879-.12.734-.196 1.344-.7 1.8-1.5 1.93-3.356.899-11.497-.085-15.106-1.075-3.95-5.61-17.105-18.852-20.488zm18.238 35.191c-.355.614-.78.985-1.312 1.125-1.879.504-3.113-1.257-4.422-3.12-1.09-1.552-2.215-3.157-3.824-3.532a4.193 4.193 0 0 0-.934-.102c-1.027 0-2.07.34-3.156.696-2.324.762-4.957 1.62-8.402-.54-5.332-3.343-2.938-8.722-2.832-8.948a.41.41 0 0 0-.02-.375.406.406 0 0 0-.32-.196c-.04-.004-3.961-.3-7.895-5.222-3.804-4.754-.433-8.13-.289-8.27a.408.408 0 0 0-.129-.664c-2.34-.95-5.554-4.094-6.921-9.832-.477-2 .152-3.594 1.722-4.379 1.543-.766 3.996-.598 5.504 1.234.293.356.55.684.797.993 2.129 2.707 3.102 3.945 13.996 6.726 12.82 3.274 17.23 16.074 18.277 19.918.918 3.387 1.953 11.38.16 14.488z"/>
        </g>
        <g fill="#ED3D48" transform="translate(193 29.257)">
            <ellipse cx="2.117" cy="2.124" rx="2.117" ry="2.124"/>
            <ellipse cx="23.288" cy="2.124" rx="2.117" ry="2.124"/>
            <path d="M13.247 12.721a6.359 6.359 0 0 0 5.802-5.778.504.504 0 0 0-.52-.57H6.873a.533.533 0 0 0-.522.545l.002.025c.301 3.491 3.388 6.078 6.894 5.778z"/>
        </g>
        <path fill="url(#b)" d="M71.447 75.822H71.3C70.321 67.482 63.086 61 54.675 61c-6.871 0-13.1 4.27-15.6 10.66-.43-.05-.868-.071-1.317-.071-5.483 0-10.3 3.844-11.567 9.183C21.011 81.239 17 85.618 17 90.86 17 96.45 21.534 101 27.106 101h44.338C78.368 101 84 95.35 84 88.408c.004-6.939-5.632-12.585-12.553-12.585v-.001zm0 22.66H27.106c-4.184 0-7.592-3.416-7.592-7.622 0-4.192 3.4-7.611 7.564-7.622l.159.007c.628 0 1.165-.464 1.242-1.076.66-4.598 4.65-8.068 9.28-8.068.643 0 1.285.068 1.938.202l.22.018c.55 0 1.027-.35 1.19-.871 1.895-5.94 7.347-9.933 13.569-9.933 7.658 0 13.901 6.014 14.218 13.686.011.35.17.683.438.91.233.201.523.29.954.293.42-.046.801-.074 1.161-.074 5.54 0 10.046 4.52 10.046 10.075-.008 5.55-4.51 10.075-10.046 10.075z" transform="translate(1 -21)"/>
        <path fill="url(#c)" stroke="url(#c)" d="M382.762 22c-10.991 0-18.887 9.02-19.113 18.638-6.715 1.985-11.649 8.03-11.649 15.29C352 64.795 359.302 72 368.286 72h43.428C421.31 72 428 65.638 428 57.714c0-6.41-4.418-12.635-10.942-14.09-.223-5.252-2.753-9.176-6.249-11.245-3.428-2.03-7.658-2.277-11.394-.725-2.994-5.33-8.896-9.654-16.653-9.654zm0 1.786c7.38 0 12.893 4.24 15.466 9.32a.91.91 0 0 0 1.216.39c3.336-1.646 7.333-1.434 10.46.419 3.128 1.852 5.43 5.322 5.43 10.407a.896.896 0 0 0 .763.865c5.926.98 10.093 6.727 10.093 12.527 0 6.948-5.672 12.5-14.476 12.5h-43.429c-8.005 0-14.476-6.386-14.476-14.285 0-6.686 4.644-12.274 10.913-13.84a.896.896 0 0 0 .679-.893c-.085-8.865 7.17-17.41 17.36-17.41z" transform="translate(1 -21)"/>
        <path fill="url(#d)" stroke="url(#d)" stroke-width=".3" d="M31.498 39.7c-1.408-5.03-6.14-8.616-11.498-8.616-6.151 0-11.207 4.532-11.853 10.458-4.626.882-8.019 4.872-8.019 9.593 0 5.392 4.459 9.781 9.937 9.781h18.88c6.028 0 10.93-4.827 10.93-10.76-.002-5.016-3.486-9.316-8.378-10.456zm-2.556 19.26H10.063c-4.382 0-7.95-3.51-7.95-7.825 0-3.997 3.042-7.34 7.074-7.771l.852-.092.033-.842c.209-5.266 4.57-9.39 9.928-9.39 4.647 0 8.73 3.24 9.71 7.7l.141.645.659.113c4.275.736 7.375 4.376 7.375 8.663.002 4.852-4.01 8.8-8.943 8.8z" transform="translate(1 -21)"/>
    </g>
</svg>
