<svg xmlns="http://www.w3.org/2000/svg" width="34" height="20" viewBox="0 0 34 20">
    <g fill="#FFF" fill-rule="evenodd">
        <path stroke="#FFF" d="M29.258 18.535H3.634c-1.604 0-2.911-1.304-2.911-2.908V3.215C.723 1.611 2.03.308 3.633.308h25.625c1.606 0 2.913 1.303 2.913 2.907v12.412c0 1.604-1.307 2.908-2.913 2.908h0zM3.634.891C2.353.89 1.31 1.933 1.31 3.215v12.412c0 1.28 1.042 2.322 2.323 2.322h25.624c1.282 0 2.325-1.042 2.325-2.322V3.215c0-1.282-1.043-2.324-2.325-2.324H3.634z" transform="translate(.695 .292)"/>
        <path d="M31.877 8.406H1.017c-.162 0-.294-.13-.294-.293V3.974c0-.16.132-.291.294-.291h30.86c.162 0 .294.13.294.291v4.14c0 .161-.132.292-.294.292zM1.311 7.819h30.272V4.266H1.31V7.82zM26.587 15.214c-.247 0-.495-.037-.736-.116-.242.079-.49.116-.736.116-1.334 0-2.42-1.084-2.42-2.417 0-1.332 1.086-2.416 2.42-2.416.25 0 .497.038.736.113.237-.075.484-.113.736-.113 1.334 0 2.42 1.084 2.42 2.416 0 1.333-1.086 2.417-2.42 2.417m-.735-.717c.033 0 .067.007.099.018.21.075.423.112.636.112 1.01 0 1.832-.819 1.832-1.83 0-1.01-.821-1.83-1.832-1.83-.219 0-.431.038-.636.11-.064.024-.134.024-.2 0-.205-.072-.42-.11-.636-.11-1.012 0-1.834.82-1.834 1.83 0 1.011.822 1.83 1.834 1.83.211 0 .426-.037.637-.112.032-.011.066-.018.1-.018M11.594 11.727H4.178c-.161 0-.292-.131-.292-.293 0-.16.13-.293.292-.293h7.416c.161 0 .293.133.293.293 0 .162-.132.293-.293.293M19.39 11.727h-4.58c-.162 0-.294-.131-.294-.293 0-.16.132-.293.294-.293h4.58c.164 0 .294.133.294.293 0 .162-.13.293-.294.293M19.39 14.45h-7.414c-.162 0-.294-.13-.294-.292 0-.16.132-.293.294-.293h7.414c.164 0 .294.133.294.293 0 .162-.13.292-.294.292M8.76 14.45H4.178c-.163 0-.293-.13-.293-.292 0-.16.13-.293.293-.293h4.58c.162 0 .294.133.294.293 0 .162-.132.292-.294.292" transform="translate(.695 .292)"/>
    </g>
</svg>
