<svg xmlns="http://www.w3.org/2000/svg" width="104" height="140" viewBox="0 0 104 140">
    <g fill="#ED3D48" fill-rule="evenodd">
        <g fill-rule="nonzero">
            <path d="M72.25 106.079c1.25-2.15 4.583-.86 3.333 1.29-11.666 27.078-47.083 27.078-59.166 0-.834-2.15 2.5-3.44 3.333-1.29 6.25 14.184 19.583 19.772 31.667 17.623 1.25-2.15 2.083-4.298.833-6.448-6.667-11.605 11.667-18.912 13.75-1.719 2.5-2.579 4.583-6.017 6.25-9.456zM58.5 121.123c.833-1.29.417-3.439 0-5.158-2.083-4.298 2.917-2.15 2.083 3.868 1.667-.86 2.5-1.29 3.75-2.579-1.25-17.193-16.666-9.026-10.416-.86 1.25 2.15.833 4.299 0 6.448 1.666-.43 2.916-.86 4.583-1.72zM26.417 88.026c0 2.15-3.75 2.15-3.75 0 .416-5.158 4.166-9.026 8.75-9.026 4.583 0 8.333 3.868 8.333 9.026 0 2.15-3.75 2.15-3.75 0 0-3.008-2.083-5.158-4.583-5.158-2.917 0-5 2.15-5 5.158zM69.333 88.026c0 2.15-3.75 2.15-3.75 0 0-3.008-2.083-5.158-4.583-5.158-2.917 0-5 2.15-5 5.158 0 2.15-3.75 2.15-3.75 0C52.25 82.868 56.417 79 61 79s8.333 3.868 8.333 9.026z"/>
        </g>
        <path d="M21.105 39.69C-2.533 26.626 14.351 3.024 37.567 9.346c12.24-14.751 36.3-11.38 46.43 5.48 22.372 3.792 29.126 27.394 3.8 32.874.844 8.007.422 15.594-.422 23.602 3.799 6.743 5.91 14.33 5.91 22.338 0 25.71-21.106 46.361-46.854 46.361C20.683 140 0 119.348 0 93.639c0-13.066 5.065-24.446 13.507-32.875 2.11-7.586 4.221-14.33 7.598-21.073zm62.049 32.454c-17.306 2.529-51.074-1.686-65.848-9.273C9.286 70.88 4.221 81.416 4.221 93.64c0 23.18 18.994 42.146 42.21 42.146 23.638 0 42.632-18.966 42.632-42.146 0-8.008-2.11-15.173-5.91-21.495zM35.879 13.138c-19.84-5.057-37.145 17.702 0 27.396-3.8.843-7.176.843-10.553.421-2.955 5.9-5.065 11.38-6.754 18.123 10.975 7.165 56.562 12.223 64.582 8.851.844-7.586 1.266-13.065.422-20.23-4.643 0-9.286-1.265-11.819-2.95 37.989 0 32.924-23.603 9.708-25.71C70.913-1.191 43.898-.35 35.456 21.146c0-2.529 0-5.058.422-8.008z"/>
    </g>
</svg>
