<?xml version="1.0" encoding="utf-8"?>
<!-- Generator: Adobe Illustrator 24.2.1, SVG Export Plug-In . SVG Version: 6.00 Build 0)  -->
<svg version="1.1" id="Isolation_Mode" xmlns="http://www.w3.org/2000/svg" xmlns:xlink="http://www.w3.org/1999/xlink" x="0px"
	 y="0px" viewBox="0 0 590.25 253.77" style="enable-background:new 0 0 590.25 253.77;" xml:space="preserve">
<style type="text/css">
	.st0{fill:#FFFFFF;}
</style>
<g>
	<path class="st0" d="M120.02,120.48c-4.21,0.22-8.28,1.02-12.37,1.37c-3.54,0.3-7.26,1.08-10.67,0.9c-3.41-0.18-4.7-1.93-5.06-5.26
		c-0.3-2.72,0.93-4.48,3.99-5.07c4.16-0.79,8.97-1.07,13.32-1.77c3.3-0.53,6.85-0.76,10.08-1.8c3.75-1.21,6.37-3.67,6.48-7.79
		c0.11-4.12-0.44-7.91-1.64-12.02c-0.52-1.79-2.94-3.37-4.78-4.07c-1.85-0.7-3.9-0.47-5.86-0.29c-14.78,1.41-29.59,2.83-44.35,4.42
		c-1.26,0.14-2.53,0.22-3.75,0.57c-3.61,1.02-5.28,3.11-5.5,6.85c-0.08,1.35,0.13,2.7,0.27,4.05c1.2,11.85,2.47,23.71,3.7,35.56
		c0,0.02,0.05-0.01,0.05,0c1.44,12.75,2.47,25.8,4.12,38.47c0.74,5.68,3.55,7.68,9.13,7.54c4.25-0.1,8.87-0.45,13.17-0.99
		c5.68-0.72,8.19-3.72,7.96-9.48c-0.2-4.92-1.17-9.84-1.43-14.86c-0.23-4.33,1.64-7.6,5.59-9.49c1.55-0.75,3.3-1.07,4.92-1.34
		c4.56-0.77,9.55-1.15,13.95-2.02c4.39-0.87,6.48-3.19,6.79-7.48c0.24-3.42-0.08-6.78-0.57-10.12
		C126.91,122.02,124.23,120.26,120.02,120.48z"/>
	<path class="st0" d="M289.21,71.62c-27.85-0.28-49.4,21.14-48.88,48.73c0.55,29.26,20.56,48.84,49.22,48.92
		c27.1,0.07,49.3-20.45,49.61-47.55C339.51,92.29,318.28,71.91,289.21,71.62z M306.82,127.24c-3.74,11.81-12.69,15.8-24.1,12.69
		c-3.66-1-5.45-3.12-6.94-6.11c-4.26-8.53-4.01-19.05,1.89-26.34c4.8-5.92,10.53-7,17.49-5.55c6.96,1.46,10.35,6.67,11.94,13.31
		c0.39,1.62,0.69,3.5,0.64,5.25C307.67,122.55,307.45,125.23,306.82,127.24z"/>
	<path class="st0" d="M180.72,74.81c-27.91,1.47-48,25.44-45.78,52.7c2.36,29.04,22.98,46.35,51.54,44.67
		c26.88-1.58,46.91-23.31,46.22-50.36C231.95,92.46,209.96,73.27,180.72,74.81z M198.84,135.67c-5.43,8.26-14.57,10.7-23.53,6.62
		c-1.38-0.63-2.29-1.28-3.31-2.76c-5.55-8.03-6.76-19.74-0.91-27.95c4.3-6.04,10.23-7.93,17.27-6.98
		c7.03,0.95,10.64,6.13,12.49,12.39c0.45,1.53,0.83,3.34,0.79,4.37C201.47,126.58,201.72,131.29,198.84,135.67z"/>
	<path class="st0" d="M413.53,79.91c-5.42-2.11-11.61-3.03-17.47-3.75c-12.82-1.58-25.72-1.58-38.6-0.25
		c-3.77,0.39-5.87,2.67-6.97,6.16c-0.55,1.76-0.81,3.69-0.89,5.55c-0.47,11.83-0.66,23.68-0.83,35.52c-0.01,0.02-0.09-0.03-0.09,0
		c-0.01,1.05-0.04,2.17-0.05,3.24c-0.14,10.95-0.52,22.44-0.39,33.24c0.06,5.12,2.76,8.38,7.64,8.54
		c13.95,0.45,27.93,1.38,41.76,0.85c13.83-0.53,24.56-6.06,31.3-18.3c9.19-16.67,9.73-32.45,4.29-50.58
		C430.33,90.45,423.03,83.62,413.53,79.91z M402.82,135.25c-3.43,7.07-10.78,9.96-18.24,7.25c-3.43-1.25-4.57-4.18-4.76-7.5
		c-0.28-4.87,0.19-9.71,0.2-14.55c0-0.05,0.13,0.04,0.13-0.01c0.11-3.93,0.07-7.92,0.31-11.85c0.11-1.77,0.39-3.58,1-5.23
		c0.81-2.2,2.18-4.1,4.74-4.18c11.63-0.38,18.77,3.7,19.91,16.04C406.72,121.95,405.94,128.83,402.82,135.25z"/>
	<path class="st0" d="M524.95,87.07c-5.49-0.84-11.15-1.55-16.87-1.54c-5.73,0-9.63,2.69-12.61,7.61c-1.44,2.38-2.39,4.79-3.98,7.32
		c-1.59,2.52-2.73,5.48-5.02,7.91c-2.29,2.42-4.91,1.73-6.44-1.52c-2.48-5.26-4.96-11.3-7.45-16.55c-2.5-5.25-5.94-8.25-11.69-9.03
		c-5.74-0.79-11.83-0.88-17.56-0.75c-4.44,0.1-6.68,2.66-5.59,6.99c1.09,4.33,3.06,8.2,5.26,12.17
		c5.23,9.43,10.98,18.85,16.08,28.42c4,7.5,5.78,14.79,5.17,23.24c-0.33,4.54-0.5,9.19-0.23,13.59c0.35,5.58,2.64,9.19,7.78,10.99
		c2.57,0.9,4.88,0.86,7.41,1.46c0.06,0.01-0.01-0.16,0.05-0.16c1.13-0.05,2.37,0.11,3.49-0.02c7.27-0.8,10.73-3.41,12.11-10.8
		c0.99-5.28,1.17-10.63,1.61-16.15c0.44-5.52,2.3-10.6,5.6-15.16c7-9.69,14.35-19.01,21.27-28.75c2.54-3.58,5.02-7.2,6.49-11.43
		C531.29,90.65,529.56,87.78,524.95,87.07z"/>
</g>
</svg>
