<svg xmlns="http://www.w3.org/2000/svg" xmlns:xlink="http://www.w3.org/1999/xlink" viewBox="0 0 251.5544 246.0268"><defs><style>.b6549a30-6b06-43cd-83dc-c30f3356ecd5{fill:url(#419026ba-f372-44ac-9c99-bcaa999ef0a2);}.d258b538-743e-446d-849a-a27f53fc93d1{fill:url(#2285bab2-30ab-4360-bd0d-3586f0a2cfb2);}.\38 afbd902-ed5a-4c8b-847c-1c25aa5de8bb{fill:url(#4d8da06a-5aa2-4e1f-b2b5-c45b641797ad);}.\30 874a446-73d8-4562-990c-e49e020089bd{fill:url(#990cf23b-3fa8-4139-9e01-132d9a96d1d5);}</style><linearGradient id="419026ba-f372-44ac-9c99-bcaa999ef0a2" x1="71.2276" y1="132.5756" x2="80.7756" y2="116.038" gradientUnits="userSpaceOnUse"><stop offset="0" stop-color="#ec3849"/><stop offset="1" stop-color="#f35644"/></linearGradient><linearGradient id="2285bab2-30ab-4360-bd0d-3586f0a2cfb2" x1="168.6996" y1="131.7259" x2="178.8087" y2="114.2163" xlink:href="#419026ba-f372-44ac-9c99-bcaa999ef0a2"/><linearGradient id="4d8da06a-5aa2-4e1f-b2b5-c45b641797ad" x1="121.298" y1="131.15" x2="130.8405" y2="114.6218" xlink:href="#419026ba-f372-44ac-9c99-bcaa999ef0a2"/><linearGradient id="990cf23b-3fa8-4139-9e01-132d9a96d1d5" x1="62.8794" y1="229.1939" x2="177.7615" y2="30.2124" xlink:href="#419026ba-f372-44ac-9c99-bcaa999ef0a2"/></defs><title>color Logo</title><g id="56c0ec23-9426-46df-bb0b-b7ca756404c4" data-name="Layer 2"><g id="b49638bf-e3fa-4eda-86c5-1bb76de843e6" data-name="Layer 1"><path class="b6549a30-6b06-43cd-83dc-c30f3356ecd5" d="M77.8356,114.9294c-3.3338-.4512-6.1438.4471-8.1823,3.308-2.7719,3.891-2.1974,9.4431.432,13.2471a3.3944,3.3944,0,0,0,1.5677,1.3064,8.497,8.497,0,0,0,11.1507-3.1393c1.3657-2.0777,1.248-4.3109,1.3273-6.7779a8.003,8.003,0,0,0-.3764-2.072C82.88,117.8362,81.1694,115.3806,77.8356,114.9294Z"/><path class="d258b538-743e-446d-849a-a27f53fc93d1" d="M168.5694,129.3347c.0914,1.57.6278,2.961,2.2553,3.5527a6.6932,6.6932,0,0,0,8.6447-3.436,17.7532,17.7532,0,0,0,1.5559-9.4914c-.5383-5.8494-3.9213-7.7813-9.4334-7.6022a2.5388,2.5388,0,0,0-2.2469,1.9826,8.8491,8.8491,0,0,0-.472,2.478c-.1139,1.8608-.0922,3.7533-.1467,5.6152Z"/><path class="8afbd902-ed5a-4c8b-847c-1c25aa5de8bb" d="M128.4481,113.66c-3.2961-.6909-6.0146-.1791-8.2874,2.6284-2.7982,3.4557-2.9147,8.4422-.8972,12.4837a4.8784,4.8784,0,0,0,3.2912,2.8938c5.4062,1.4776,9.6489-.4131,11.4192-6.0116a12.79,12.79,0,0,0,.434-3.2,9.7951,9.7951,0,0,0-.3021-2.4864C133.3518,116.8205,131.7446,114.35,128.4481,113.66Z"/><path class="0874a446-73d8-4562-990c-e49e020089bd" d="M239.518,66.5077a3.1169,3.1169,0,0,0-4.3079-1.4061A43.596,43.596,0,0,1,175.912,47.5109a3.1162,3.1162,0,0,0-4.202-1.2446A55.0547,55.0547,0,0,1,105.2347,34.02,54.7845,54.7845,0,0,1,91.5079,2.1662,2.3523,2.3523,0,0,0,88.4655.1075a125.7566,125.7566,0,1,0,151.0525,66.4ZM49.2917,130.043a3.4961,3.4961,0,0,1-3.2164,3.5439c-2.082.4119-4.447.5938-6.6086.9564a8.7042,8.7042,0,0,0-2.3318.6362,4.3913,4.3913,0,0,0-2.6473,4.4981c.1265,2.379.584,4.7077.6792,7.041.1117,2.7292-1.0807,4.1516-3.7718,4.4907-2.0351.2565-4.2238.42-6.239.4685-2.6424.0634-3.9746-.8837-4.3251-3.5751-.7813-6-1.2709-12.1859-1.9539-18.2286-.0008-.0087-.0214.0069-.0225-.0022-.5825-5.6139-1.181-11.2351-1.7513-16.8518a11.9762,11.9762,0,0,1-.1288-1.9178,3.1956,3.1956,0,0,1,2.6085-3.2472,10.6671,10.6671,0,0,1,1.7753-.2693c6.9971-.7534,14.0128-1.4277,21.0179-2.0957a6.1648,6.1648,0,0,1,2.7757.1355,3.8409,3.8409,0,0,1,2.266,1.9275,17.93,17.93,0,0,1,.7764,5.6951,3.897,3.897,0,0,1-3.0709,3.6927,31.78,31.78,0,0,1-4.7792.8541c-2.0644.33-4.341.4626-6.3144.8382a2.008,2.008,0,0,0-1.893,2.401c.1707,1.579.7783,2.4085,2.3958,2.4928a39.01,39.01,0,0,0,5.0584-.4262c1.9357-.164,3.8672-.5466,5.8607-.649s3.2656.7316,3.57,2.7974A22.0986,22.0986,0,0,1,49.2917,130.043Zm27.6543,16.91c-13.537.798-23.3056-7.4044-24.4249-21.1679A22.935,22.935,0,0,1,74.218,100.81c13.8559-.7284,24.2778,8.3658,24.631,22.2766A23.0038,23.0038,0,0,1,76.946,146.9531Zm48.8483-1.382c-13.5823-.0373-23.0671-9.3189-23.3269-23.1836-.245-13.0718,9.9678-23.2247,23.1643-23.0916,13.7747.139,23.8336,9.7957,23.6729,23.7395C149.1568,135.8782,138.6388,145.6064,125.7943,145.5711Zm66.0521-8.7881c-3.1958,5.8-8.28,8.4206-14.8342,8.6706s-13.18-.19-19.7894-.4051c-2.312-.0753-3.59-1.6234-3.6191-4.0477-.0609-5.1182.1219-10.5628.1859-15.75.0065-.506.0225-1.0356.0259-1.5352,0-.0145.0393.007.0423-.0023.0812-5.61.1676-11.2271.392-16.8316a10.251,10.251,0,0,1,.42-2.6306,3.7,3.7,0,0,1,3.3018-2.919,81.153,81.153,0,0,1,18.29.1192,34.8826,34.8826,0,0,1,8.281,1.7769,14.9418,14.9418,0,0,1,9.3385,9.5849C196.4557,121.4031,196.1993,128.8831,191.8464,136.783ZM236.58,115.741c-3.2763,4.6166-6.7632,9.031-10.0783,13.6235a13.983,13.983,0,0,0-2.6519,7.1841,72.9759,72.9759,0,0,1-.765,7.6515c-.656,3.4988-2.2952,4.7389-5.7395,5.1167-.5345.0586-1.1185-.0176-1.6557.0084-.0263.0013.005.0822-.0224.0757a31.4179,31.4179,0,0,1-3.511-.6906c-2.4377-.8522-3.5216-2.56-3.6869-5.206a48.6075,48.6075,0,0,1,.1082-6.438,19.4448,19.4448,0,0,0-2.4488-11.0114c-2.418-4.5353-5.1434-8.9983-7.6208-13.4677a24.0491,24.0491,0,0,1-2.4926-5.7672c-.5173-2.051.544-3.2667,2.6488-3.3129a53.7378,53.7378,0,0,1,8.3225.3567,6.7355,6.7355,0,0,1,5.5384,4.2816c1.1825,2.4884,2.3589,5.3505,3.5326,7.8451.725,1.54,1.9658,1.8683,3.0519.7208a21.3916,21.3916,0,0,0,2.3784-3.7468c.7524-1.1958,1.2026-2.3379,1.8857-3.4675a6.5814,6.5814,0,0,1,5.9761-3.6083,52.4788,52.4788,0,0,1,7.9968.7321c2.1833.3356,3.0054,1.6971,2.3082,3.7017A21.9406,21.9406,0,0,1,236.58,115.741Z"/></g></g></svg>