<?xml version="1.0" encoding="utf-8"?>
<!-- Generator: Adobe Illustrator 25.0.1, SVG Export Plug-In . SVG Version: 6.00 Build 0)  -->
<svg version="1.1" id="Layer_1" xmlns="http://www.w3.org/2000/svg" xmlns:xlink="http://www.w3.org/1999/xlink" x="0px" y="0px"
	 viewBox="0 0 62 60" style="enable-background:new 0 0 62 60;" xml:space="preserve">
<style type="text/css">
	.st0{fill:#E6392B;}
	.st1{fill-rule:evenodd;clip-rule:evenodd;fill:#FFFFFF;}
</style>
<path class="st0" d="M58.7,16.2c-0.2-0.4-0.7-0.6-1.1-0.3C53.1,18.4,47.3,17.2,44,13c-0.3-0.4-0.6-0.9-0.9-1.4
	c-0.2-0.4-0.7-0.5-1-0.3c-5.3,2.8-12,1.7-16.2-3c-2-2.2-3.1-5-3.3-7.8c0-0.4-0.4-0.6-0.7-0.5C9.3,3.9,0.2,15.7,0.3,29.5
	c0.1,17,14,30.6,30.9,30.5s30.6-13.9,30.5-30.9C61.6,24.5,60.6,20.1,58.7,16.2z"/>
<path class="st1" d="M34,32.7l5.5,5.5c0.8,0.8,0.8,2.2,0,3c-0.8,0.8-2.2,0.8-3,0L31,35.8l-5.5,5.5c-0.8,0.8-2.2,0.8-3,0
	c-0.8-0.8-0.8-2.2,0-3l5.5-5.5L23,27.8c-0.8-0.8-0.8-2.2,0-3c0.8-0.8,2.2-0.8,3,0l4.9,4.9l4.9-4.9c0.8-0.8,2.2-0.8,3,0
	c0.8,0.8,0.8,2.2,0,3L34,32.7z"/>
</svg>
