<?xml version="1.0" encoding="utf-8"?>
<!-- Generator: Adobe Illustrator 25.0.1, SVG Export Plug-In . SVG Version: 6.00 Build 0)  -->
<svg version="1.1" id="Layer_1" xmlns="http://www.w3.org/2000/svg" xmlns:xlink="http://www.w3.org/1999/xlink" x="0px" y="0px"
	 viewBox="0 0 62 60" style="enable-background:new 0 0 62 60;" xml:space="preserve">
<style type="text/css">
	.st0{fill:#E6392B;}
	.st1{fill:#FFFFFF;}
</style>
<path class="st0" d="M58.7,16.2c-0.2-0.4-0.7-0.6-1.1-0.3C53.1,18.4,47.3,17.2,44,13c-0.3-0.4-0.6-0.9-0.9-1.4
	c-0.2-0.4-0.7-0.5-1-0.3c-5.3,2.8-12,1.7-16.2-3c-2-2.2-3.1-5-3.3-7.8c0-0.4-0.4-0.6-0.7-0.5C9.3,3.9,0.2,15.7,0.3,29.5
	c0.1,17,14,30.6,30.9,30.5s30.6-13.9,30.5-30.9C61.6,24.5,60.6,20.1,58.7,16.2z"/>
<g id="Layer_2_1_">
	<g id="Layer_1-2">
		<path class="st1" d="M48.6,31.1l-1.8-9.6h-1.9l2.8,11.9v9.2h1.9v-9.2l2.8-11.9h-1.9L48.6,31.1L48.6,31.1z M38.7,23h1
			c0.5-0.1,0.9,0.1,1.3,0.3c0.3,0.4,0.4,0.8,0.4,1.3v14.7c0.1,0.5-0.1,0.9-0.4,1.3c-0.4,0.3-0.8,0.4-1.3,0.3h-1V23z M40.1,42.5
			c1,0.1,2-0.2,2.7-0.9c0.5-0.7,0.7-1.6,0.6-2.5V24.9c0.1-0.9-0.2-1.8-0.6-2.5c-0.7-0.7-1.7-1-2.7-0.9h-3.3v21.1L40.1,42.5z
			 M30.3,22.9c1,0,1.5,0.7,1.5,2v14.2c0,1.3-0.5,2-1.5,2s-1.5-0.7-1.5-2V24.9C28.8,23.6,29.3,22.9,30.3,22.9 M30.3,42.8
			c2.3,0,3.4-1.2,3.4-3.6V24.9c0-2.4-1.2-3.6-3.4-3.6c-2.3,0-3.4,1.2-3.4,3.6v14.3C26.9,41.6,28,42.8,30.3,42.8 M20.5,22.9
			c1,0,1.5,0.7,1.5,2v14.2c0,1.3-0.5,2-1.5,2s-1.5-0.7-1.5-2V24.9C19,23.6,19.5,22.9,20.5,22.9 M20.5,42.8c2.3,0,3.4-1.2,3.4-3.6
			V24.9c0-2.4-1.1-3.6-3.4-3.6s-3.4,1.2-3.4,3.6v14.3C17.1,41.6,18.2,42.8,20.5,42.8 M11.4,42.6V32.5h3v-1.6h-3v-7.7h3.2v-1.6H9.5
			v21.1H11.4z"/>
	</g>
</g>
</svg>
