<svg xmlns="http://www.w3.org/2000/svg" viewBox="0 0 16 8"><defs><style>.cls-1{fill:#fff;}</style></defs><g id="Layer_2" data-name="Layer 2"><g id="Layer_1-2" data-name="Layer 1"><path class="cls-1" d="M14.57,3.64,13.89.07h-.72l1.05,4.44V7.93h.72V4.51L16,.07h-.72l-.69,3.57Zm-3.71-3h.38a.69.69,0,0,1,.49.13.64.64,0,0,1,.14.48V6.71a.64.64,0,0,1-.14.48.69.69,0,0,1-.49.13h-.38Zm.51,7.25a1.21,1.21,0,0,0,1-.34,1.48,1.48,0,0,0,.24-.93V1.34a1.48,1.48,0,0,0-.24-.93,1.21,1.21,0,0,0-1-.34H10.14V7.93ZM7.73.61c.36,0,.54.25.54.74v5.3c0,.49-.18.74-.54.74s-.55-.25-.55-.74V1.35c0-.49.18-.74.55-.74M7.73,8C8.57,8,9,7.56,9,6.67V1.33C9,.44,8.57,0,7.73,0S6.46.44,6.46,1.33V6.67C6.46,7.56,6.88,8,7.73,8M4.09.61c.36,0,.54.25.54.74v5.3c0,.49-.18.74-.54.74s-.55-.25-.55-.74V1.35c0-.49.18-.74.55-.74M4.09,8c.84,0,1.26-.44,1.26-1.33V1.33C5.35.44,4.93,0,4.09,0S2.82.44,2.82,1.33V6.67C2.82,7.56,3.24,8,4.09,8M.72,7.93V4.15H1.85V3.54H.72V.68H1.91V.07H0V7.93Z"/></g></g></svg>