<svg xmlns="http://www.w3.org/2000/svg" width="29" height="28" viewBox="0 0 29 28">
    <g fill="#EC3849" fill-rule="evenodd">
        <path d="M25.557 27.83H2.27c-.313 0-.568-.256-.568-.569V10.846c0-.314.255-.568.568-.568h23.286c.314 0 .568.254.568.568v16.415c0 .313-.254.568-.568.568zM2.839 26.692h22.15v-15.28H2.839v15.28z" transform="translate(.652 -.016)"/>
        <path d="M27.261 11.414H.568c-.314 0-.568-.254-.568-.567V5.752c0-.314.254-.567.568-.567h26.693c.314 0 .568.253.568.567v5.095c0 .313-.254.567-.568.567zM1.136 10.278h25.557V6.32H1.136v3.958z" transform="translate(.652 -.016)"/>
        <path d="M17.606 27.83h-7.384c-.313 0-.567-.256-.567-.569V5.752c0-.314.254-.568.567-.568h7.384c.314 0 .568.254.568.568v21.51c0 .312-.254.567-.568.567zm-6.816-1.137h6.248V6.32H10.79v20.374z" transform="translate(.652 -.016)"/>
        <path d="M13.526 6.32c-.041 0-.082-.004-.123-.014l-.09-.02c-1.804-.401-3.67-.816-4.481-2.045-.277-.42-.375-.917-.275-1.4.099-.477.38-.888.79-1.158.437-.285.868-.372 1.33-.269.08-.406.297-.796.778-1.111.302-.198.65-.303 1.008-.303.62 0 1.2.315 1.548.843.04.062.08.129.12.207.09.166.09.366 0 .533-.426.803-.205 2.185.057 3.532.014.071.014.145 0 .217l-.105.531c-.03.15-.12.281-.247.365-.093.06-.201.092-.31.092m-3.214-3.812c-.065 0-.171.014-.341.125-.158.104-.265.259-.302.437-.038.186 0 .379.11.545.496.75 1.839 1.122 3.242 1.442-.248-1.319-.421-2.656-.035-3.687-.138-.148-.325-.234-.523-.234-.135 0-.27.04-.386.117-.251.165-.361.313-.281.952.027.217-.073.43-.258.548-.184.118-.42.12-.606.004-.273-.169-.47-.249-.62-.249" transform="translate(.652 -.016)"/>
        <path d="M13.735 6.32c-.109 0-.217-.032-.31-.092-.128-.084-.217-.215-.247-.365l-.105-.531c-.3-1.546-.545-3.151.056-4.283.041-.077.08-.144.121-.206.348-.528.927-.843 1.548-.843.357 0 .706.105 1.008.303.481.315.697.705.78 1.111.46-.103.891-.016 1.327.269.411.27.692.681.791 1.158.1.483.002.98-.275 1.4-.81 1.229-2.677 1.644-4.48 2.045l-.09.02c-.042.01-.083.014-.124.014m1.063-5.184c-.238 0-.462.124-.6.333-.02.031-.042.068-.066.114-.422.794-.21 2.155.047 3.487 1.424-.322 2.8-.693 3.302-1.455.11-.166.15-.359.111-.545-.037-.178-.144-.333-.302-.437-.17-.111-.277-.125-.34-.125-.152 0-.349.08-.62.249-.187.116-.423.114-.607-.004-.185-.118-.285-.331-.258-.548.08-.639-.03-.787-.282-.952-.116-.077-.25-.117-.385-.117" transform="translate(.652 -.016)"/>
    </g>
</svg>
