<svg xmlns="http://www.w3.org/2000/svg" width="24" height="19">
    <path fill="#FFF" fill-rule="evenodd" d="M21.265 5.25H2.141C.958 5.25 0 4.292 0 3.109 0 1.927.958.968 2.141.968h19.124c1.183 0 2.141.959 2.141 2.141 0 1.183-.958 2.141-2.141 2.141zM2.154 7.638h19.102c1.189 0 2.154.965 2.154 2.154 0 1.19-.965 2.154-2.154 2.154H2.154C.964 11.946 0 10.982 0 9.792c0-1.189.964-2.154 2.154-2.154zm-.01 6.581h19.118c1.184 0 2.144.96 2.144 2.144v.023c0 1.185-.96 2.145-2.144 2.145H2.144C.96 18.531 0 17.571 0 16.386v-.023c0-1.184.96-2.144 2.144-2.144z"/>
</svg>
