<?xml version="1.0" encoding="utf-8"?>
<!-- Generator: Adobe Illustrator 22.1.0, SVG Export Plug-In . SVG Version: 6.00 Build 0)  -->
<svg version="1.1" id="Layer_1" xmlns="http://www.w3.org/2000/svg" xmlns:xlink="http://www.w3.org/1999/xlink" x="0px" y="0px"
	 viewBox="0 0 330.6 29.8" style="enable-background:new 0 0 330.6 29.8;" xml:space="preserve">
<style type="text/css">
	.st0{fill:#3a3a3a;fill-opacity:0.5;}
	.st1{enable-background:new    ;}
</style>
<title>Asset 8</title>
<g id="moveo_copy-3">
	<g id="moveo-2">
		<path class="st0" d="M215.6,27.8c-0.1-0.6-0.1-2.4-0.1-5.3V12c0-3.3-0.7-5.9-2.1-7.7c-0.7-0.9-1.6-1.7-2.6-2.2
			c-1.2-0.5-2.5-0.8-3.8-0.8c-1.6,0-3.1,0.4-4.5,1.1c-1.3,0.7-2.4,1.7-3.4,2.7c-1.2-2.5-3.8-4-6.5-3.9s-5.3,1.1-7.4,2.9V1.8h-6.7
			v27.5h6.9c-0.1-1.1-0.2-3.7-0.2-7.6V10.8c1.2-2.1,3.4-3.3,5.8-3.3c0.5,0,1,0.1,1.4,0.4c0.5,0.4,0.9,1,1.1,1.7
			c0.4,1.8,0.6,3.7,0.5,5.6v14.3c0.9,0,1.9-0.1,3-0.1h3.8c-0.2-2.7-0.3-6.4-0.3-10.8v-7.5c0.5-1.1,1.3-2,2.2-2.8
			c0.4-0.3,0.8-0.5,1.2-0.7c0.5-0.1,1-0.2,1.5-0.2s1,0.1,1.5,0.4c1.3,0.8,1.9,3.2,1.9,7.3v14.3c1,0,1.8-0.1,2.4-0.1h2
			c0.7,0,1.7,0.1,3.1,0.2v-0.1c-0.1-0.1-0.2-0.3-0.4-0.5C215.7,28.6,215.6,28.2,215.6,27.8z M233.2,1.3c-5.9-0.3-11.3,3.3-13.3,8.9
			c-0.7,1.8-1,3.6-1,5.5c-0.2,3.6,1.1,7.1,3.4,9.8c2.5,2.8,6,4.2,10.5,4.2c3.9,0.2,7.7-1.4,10.4-4.3c2.5-2.8,3.9-6.4,3.7-10.2
			c0.2-3.7-1.1-7.3-3.6-10C240.8,2.6,237.4,1.3,233.2,1.3z M238.4,21.5c-1.3,1.6-3.2,2.4-5.2,2.3c-2.2,0.1-4.3-0.8-5.7-2.4
			c-0.7-0.8-1.2-1.7-1.6-2.7c-0.4-1-0.5-2.1-0.6-3.2c-0.1-2.1,0.6-4.1,1.8-5.8c1.3-1.7,3.4-2.7,5.6-2.6c2.1-0.1,4.2,0.8,5.6,2.4
			c1.3,1.7,2,3.8,1.9,6C240.3,17.7,239.7,19.8,238.4,21.5L238.4,21.5z M288.7,1.3c-4-0.2-7.9,1.4-10.7,4.2c-1.3,1.3-2.3,2.9-3,4.6
			c-0.7,1.8-1.1,3.8-1,5.7c-0.1,3.8,1.5,7.5,4.4,10c3,2.6,7,4,11,3.9c0.8,0,1.7-0.1,2.5-0.2c2.3-0.1,4.5-0.8,6.5-1.9l0.3-4.1
			c0-0.8,0.1-1.5,0.1-2.3c-0.4,0.3-0.8,0.5-1.2,0.7c-2.2,1.1-4.7,1.6-7.2,1.5c-2.3,0.1-4.5-0.4-6.5-1.6c-1.6-1-2.8-2.5-3.2-4.4h9.3
			c5.4,0,9-0.2,10.7-0.7c0.3-0.9,0.4-1.9,0.4-2.8c0.1-3.3-1.1-6.6-3.3-9C295.3,2.5,292.1,1.2,288.7,1.3z M292.5,12.6l-2.2,0.1h-8
			h-1.5c0.2-0.8,0.6-1.6,1-2.3c1.2-2.2,3.6-3.5,6.1-3.4c3.4,0,5.4,1.9,6.2,5.7C293.6,12.5,293,12.6,292.5,12.6L292.5,12.6z M327,5.3
			c-2.5-2.7-5.9-4-10.2-4c-5.9-0.3-11.3,3.3-13.3,8.9c-0.7,1.8-1,3.6-1,5.5c-0.2,3.6,1.1,7.1,3.4,9.9c2.5,2.8,6,4.2,10.5,4.2
			c3.9,0.2,7.7-1.4,10.4-4.3c2.5-2.8,3.9-6.4,3.7-10.2C330.8,11.6,329.5,8,327,5.3z M322,21.4c-1.3,1.6-3.2,2.4-5.2,2.3
			c-2.2,0.1-4.3-0.8-5.7-2.4c-0.7-0.8-1.2-1.7-1.6-2.7s-0.5-2.1-0.5-3.2c-0.1-2.1,0.6-4.1,1.8-5.8c1.3-1.7,3.4-2.7,5.6-2.6
			c2.1-0.1,4.2,0.8,5.5,2.4c1.3,1.7,2,3.8,1.9,6C323.9,17.7,323.3,19.8,322,21.4L322,21.4z"/>
	</g>
	<g id="moveo_copy-4">
		<polygon class="st0" points="266.4,1.8 260.1,19.9 253.7,1.8 246.3,1.8 257.4,29.3 262.8,29.3 273.6,1.8 		"/>
	</g>
</g>
<rect x="114.9" y="13.7" transform="matrix(0.7071 -0.7071 0.7071 0.7071 21.2656 91.7251)" class="st0" width="12.9" height="12.9"/>
<rect x="134" y="13.6" transform="matrix(0.7071 -0.7071 0.7071 0.7071 26.9183 105.178)" class="st0" width="12.9" height="12.9"/>
<rect x="124.4" y="4.2" transform="matrix(0.7071 -0.7071 0.7071 0.7071 30.8164 95.6423)" class="st0" width="12.9" height="12.9"/>
<rect x="143.5" y="4.2" transform="matrix(0.7071 -0.7071 0.7071 0.7071 36.3961 109.1179)" class="st0" width="12.9" height="12.9"/>
<rect x="153.1" y="13.6" transform="matrix(0.7071 -0.7071 0.7071 0.7071 32.5493 118.6974)" class="st0" width="12.9" height="12.9"/>
<path class="st0" d="M9.6,9.7c-0.7-0.3-1.3-0.4-2-0.4c-0.8,0-1.5,0.1-2.2,0.5s-1.2,0.9-1.6,1.6c-0.4,0.7-0.6,1.4-0.6,2.3
	s0.2,1.6,0.6,2.3c0.4,0.7,0.9,1.2,1.6,1.6c0.7,0.4,1.4,0.6,2.2,0.6c0.6,0,1.3-0.1,1.9-0.4s1.2-0.7,1.7-1.2l1.5,1.7
	C12,19,11.2,19.6,10.3,20c-0.9,0.4-1.9,0.6-2.8,0.6c-1.3,0-2.5-0.3-3.5-0.9c-1.1-0.6-1.9-1.4-2.5-2.5c-0.6-1-0.9-2.2-0.9-3.5
	s0.3-2.4,0.9-3.4S3,8.5,4,7.9C5.1,7.3,6.3,7,7.6,7c0.9,0,1.9,0.2,2.8,0.6c0.9,0.4,1.7,0.9,2.3,1.6l-1.5,1.9
	C10.7,10.4,10.2,10,9.6,9.7z"/>
<path class="st0" d="M18,10.7c0.6-0.3,1.3-0.5,2.1-0.5v2.4c-1-0.1-1.9,0.2-2.5,0.7s-0.9,1.3-0.9,2.2v4.9h-2.5V10.3h2.5v1.9
	C16.9,11.6,17.4,11.1,18,10.7z"/>
<path class="st0" d="M29,11.6c0.8,0.9,1.2,2.2,1.2,3.9c0,0.3,0,0.6,0,0.7h-7.5c0.2,0.7,0.5,1.3,1,1.7s1.1,0.6,1.9,0.6
	c0.5,0,1-0.1,1.5-0.3c0.5-0.2,0.9-0.5,1.2-0.8l1.3,1.4c-0.5,0.6-1.1,1-1.8,1.3s-1.5,0.5-2.4,0.5c-1,0-1.9-0.2-2.7-0.6
	c-0.8-0.4-1.4-1-1.8-1.8s-0.6-1.7-0.6-2.7s0.2-1.9,0.7-2.7c0.4-0.8,1-1.4,1.8-1.8c0.8-0.4,1.7-0.7,2.7-0.7
	C27,10.2,28.2,10.7,29,11.6z M28,14.5c0-0.7-0.3-1.3-0.7-1.8c-0.5-0.4-1.1-0.7-1.9-0.7c-0.7,0-1.3,0.2-1.8,0.7
	c-0.5,0.4-0.8,1-0.9,1.8H28z"/>
<path class="st0" d="M37.8,20.4v-1.2c-0.4,0.4-0.8,0.8-1.4,1c-0.6,0.2-1.2,0.3-1.9,0.3s-1.3-0.1-1.9-0.4s-0.9-0.6-1.2-1.1
	c-0.3-0.5-0.4-1-0.4-1.6c0-0.9,0.3-1.7,1-2.2c0.7-0.5,1.6-0.8,2.8-0.8h2.9v-0.3c0-0.6-0.2-1.1-0.6-1.4c-0.4-0.3-1-0.5-1.7-0.5
	c-1,0-2,0.3-3,0.9l-0.9-1.7c0.8-0.4,1.5-0.8,2.2-1c0.7-0.1,1.5-0.2,2.3-0.2c1.3,0,2.3,0.3,3.1,0.9c0.7,0.6,1.1,1.5,1.1,2.6v6.6h-2.4
	V20.4z M36.9,18.1c0.5-0.3,0.8-0.7,0.9-1.2V16h-2.6c-0.7,0-1.1,0.1-1.4,0.3c-0.3,0.2-0.5,0.5-0.5,1c0,0.4,0.2,0.8,0.5,1
	c0.3,0.3,0.8,0.4,1.3,0.4C35.8,18.6,36.4,18.4,36.9,18.1z"/>
<g class="st1">
	<path class="st0" d="M48.6,19.8c-0.8,0.5-1.7,0.7-2.5,0.7c-0.9,0-1.6-0.3-2.1-0.8s-0.8-1.3-0.8-2.3v-5h-1.4l0-1.8h1.4V7.9h2.4v2.8
		h2.9v1.8h-2.9v4.6c0,0.5,0.1,0.8,0.3,1c0.2,0.2,0.4,0.3,0.8,0.3c0.4,0,0.9-0.1,1.4-0.4L48.6,19.8z"/>
</g>
<g class="st1">
	<path class="st0" d="M57.8,11.6c0.8,0.9,1.2,2.2,1.2,3.9c0,0.3,0,0.6,0,0.7h-7.5c0.2,0.7,0.5,1.3,1,1.7c0.5,0.4,1.1,0.6,1.9,0.6
		c0.5,0,1-0.1,1.5-0.3c0.5-0.2,0.9-0.5,1.2-0.8l1.3,1.4c-0.5,0.6-1.1,1-1.8,1.3s-1.5,0.5-2.4,0.5c-1,0-1.9-0.2-2.7-0.6
		c-0.8-0.4-1.4-1-1.8-1.8c-0.4-0.8-0.6-1.7-0.6-2.7c0-1,0.2-1.9,0.7-2.7c0.4-0.8,1-1.4,1.8-1.8c0.8-0.4,1.7-0.7,2.7-0.7
		C55.8,10.2,57,10.7,57.8,11.6z M56.8,14.6c0-0.7-0.3-1.3-0.7-1.8c-0.5-0.4-1.1-0.7-1.9-0.7c-0.7,0-1.3,0.2-1.8,0.7
		c-0.5,0.4-0.8,1-0.9,1.8H56.8z"/>
	<path class="st0" d="M70.9,6.4v14h-2.5v-1.6c-0.4,0.6-0.8,1-1.4,1.3c-0.6,0.3-1.2,0.4-2,0.4c-1,0-1.8-0.2-2.5-0.7
		c-0.7-0.4-1.3-1-1.7-1.8c-0.4-0.8-0.6-1.7-0.6-2.7c0-1,0.2-1.9,0.6-2.7s1-1.4,1.7-1.8c0.7-0.4,1.6-0.6,2.5-0.6c0.8,0,1.4,0.2,2,0.5
		c0.6,0.3,1.1,0.7,1.4,1.3V6.4H70.9z M67.7,17.6c0.5-0.6,0.8-1.3,0.8-2.2c0-0.9-0.3-1.6-0.8-2.2c-0.5-0.6-1.2-0.9-2.1-0.9
		s-1.5,0.3-2.1,0.9c-0.5,0.6-0.8,1.3-0.8,2.2c0,0.9,0.3,1.6,0.8,2.2c0.5,0.6,1.2,0.9,2.1,0.9S67.1,18.2,67.7,17.6z"/>
</g>
<g class="st1">
	<path class="st0" d="M85.7,10.9c0.7,0.4,1.3,1,1.7,1.8c0.4,0.8,0.6,1.7,0.6,2.7c0,1-0.2,1.9-0.6,2.7c-0.4,0.8-0.9,1.4-1.7,1.8
		c-0.7,0.4-1.6,0.6-2.5,0.6c-0.8,0-1.4-0.1-2-0.4c-0.6-0.3-1.1-0.7-1.4-1.3v1.6h-2.5v-14h2.5V12c0.4-0.6,0.8-1,1.4-1.3
		s1.2-0.4,2-0.4C84.1,10.2,85,10.4,85.7,10.9z M84.7,17.5c0.5-0.6,0.8-1.3,0.8-2.2c0-0.9-0.3-1.6-0.8-2.2c-0.5-0.6-1.2-0.9-2-0.9
		c-0.8,0-1.5,0.3-2.1,0.9c-0.5,0.6-0.8,1.3-0.8,2.2c0,0.9,0.3,1.6,0.8,2.2c0.5,0.6,1.2,0.9,2.1,0.9C83.5,18.4,84.2,18.1,84.7,17.5z"
		/>
</g>
<g class="st1">
	<path class="st0" d="M92.2,23.6c-0.6,0.4-1.3,0.6-2.1,0.6c-0.5,0-0.9-0.1-1.3-0.2s-0.8-0.4-1.2-0.7l1.1-1.9
		c0.2,0.2,0.5,0.3,0.7,0.4c0.2,0.1,0.4,0.1,0.6,0.1c0.7,0,1.2-0.3,1.5-1l0.3-0.7l-4.2-9.9h2.6l2.9,7.4l2.6-7.4h2.5l-4.5,11.4
		C93.3,22.5,92.8,23.1,92.2,23.6z"/>
</g>
</svg>
