<?xml version="1.0" encoding="UTF-8"?>
<svg width="355px" height="236px" viewBox="0 0 355 236" version="1.1" xmlns="http://www.w3.org/2000/svg" xmlns:xlink="http://www.w3.org/1999/xlink">
    <!-- Generator: Sketch 55.2 (78181) - https://sketchapp.com -->
    <title>Group 26</title>
    <desc>Created with Sketch.</desc>
    <g stroke="none" stroke-width="1" fill="none" fill-rule="evenodd">
        <g>
            <rect fill="#D8D8D8" x="0" y="0" width="355" height="236"></rect>
            <g transform="translate(134.000000, 72.000000)" fill="#564343" fill-opacity="0.350688374" fill-rule="nonzero">
                <path d="M78.086,72.242 L69.8282,72.242 C70.57039,69.7732 70.76179,67.2186 70.76179,64.8123 L70.765696,28.3673 C70.765696,12.7733 57.910696,0.0863 42.109696,0.0863 C26.304696,0.0863 13.453696,12.7743 13.453696,28.3673 C13.453696,28.382924 13.461509,28.394643 13.461509,28.414174 C13.461509,28.4298 13.453696,28.441518 13.453696,28.46105 L13.453696,36.19545 C10.770096,35.21498 7.699796,35.44545 4.949796,37.00795 C2.695896,38.29315 1.086496,40.37515 0.418596,42.87515 C-0.245464,45.35175 0.098286,47.92985 1.524096,50.32825 L17.403096,70.08225 C18.317156,71.44165 20.442196,75.55885 19.356196,78.26195 C19.250726,78.52367 19.246816,78.79711 19.285883,79.05883 C18.567133,79.88305 18.113983,80.94943 18.113983,82.12913 L18.113983,86.03143 C18.113983,88.61733 20.215583,90.71893 22.801483,90.71893 L61.414483,90.71893 C64.000383,90.71893 66.101983,88.61733 66.101983,86.03143 L66.101983,82.12913 C66.101983,81.76194 66.047296,81.40647 65.969173,81.06273 L78.094173,81.06273 C79.734773,81.06273 81.070773,79.75803 81.070773,78.14863 L81.070773,75.15643 C81.062961,73.54703 79.726973,72.24233 78.086373,72.24233 L78.086,72.242 Z M4.086,48.554 C3.21881,47.0774 2.9883,45.3431 3.43756,43.679 C3.88678,41.9954 4.97666,40.5892 6.75786,39.5774 C9.07036,38.261 11.93756,38.4485 14.07816,40.05006 C14.125035,40.089123 14.17972,40.093029 14.2305,40.124279 C14.32425,40.178967 14.418,40.229749 14.52738,40.268809 C14.62894,40.303966 14.73441,40.31959 14.84379,40.331309 C14.902384,40.339122 14.95707,40.366466 15.01567,40.366466 C15.054733,40.366466 15.085983,40.346934 15.11723,40.343028 C15.2266,40.335216 15.32817,40.307872 15.43754,40.276622 C15.53129,40.249278 15.62113,40.22584 15.70707,40.182872 C15.793008,40.139903 15.87113,40.081312 15.94926,40.018812 C16.031291,39.956312 16.10942,39.893812 16.17582,39.815692 C16.199258,39.788348 16.23832,39.772724 16.261758,39.741474 C16.30082,39.686786 16.312539,39.624284 16.343789,39.565694 C16.39457,39.479757 16.441445,39.389914 16.472699,39.292254 C16.511762,39.182874 16.527387,39.081314 16.539105,38.968034 C16.546918,38.90944 16.574262,38.858654 16.574262,38.800064 L16.574262,28.456064 C16.574262,28.440439 16.566449,28.428721 16.566449,28.409189 C16.566449,28.393564 16.574262,28.381845 16.574262,28.362314 C16.574262,14.495314 28.027262,3.206314 42.105262,3.206314 C56.183262,3.206314 67.636262,14.491314 67.636262,28.362314 L67.636262,64.811314 C67.636262,71.131614 66.140162,74.834314 62.476062,77.565314 C62.128402,77.483283 61.776842,77.432504 61.405762,77.432504 L22.796762,77.428598 C22.769418,77.428598 22.742075,77.43641 22.714731,77.43641 C23.144421,73.11611 20.128831,68.53801 19.913931,68.22551 L4.086,48.554 Z M62.973,86.023 C62.973,86.88237 62.26988,87.5855 61.4105,87.5855 L22.7975,87.5855 C21.93422,87.5855 21.235,86.88237 21.235,86.023 L21.235,82.1207 C21.235,81.26132 21.93422,80.5582 22.7975,80.5582 L61.4105,80.5582 C62.26988,80.5582 62.973,81.26132 62.973,82.1207 L62.973,86.023 Z M66.6605,77.9292 C67.39878,77.10498 68.0121,76.2456 68.5121,75.355 L77.9418,75.15188 L78.09024,77.9292 L66.6605,77.9292 Z"></path>
                <path d="M26.352,63.32 C26.352,62.45672 27.05122,61.7575 27.9145,61.7575 L56.2975,61.7575 C57.16078,61.7575 57.86,62.45672 57.86,63.32 C57.86,64.18328 57.16078,64.8825 56.2975,64.8825 L27.9145,64.8825 C27.04731,64.8825 26.352,64.18328 26.352,63.32 L26.352,63.32 Z"></path>
                <path d="M26.352,53.555 C26.352,52.69172 27.05122,51.9925 27.9145,51.9925 L56.2975,51.9925 C57.16078,51.9925 57.86,52.69172 57.86,53.555 C57.86,54.41828 57.16078,55.1175 56.2975,55.1175 L27.9145,55.1175 C27.04731,55.1175 26.352,54.41828 26.352,53.555 L26.352,53.555 Z"></path>
            </g>
            <g transform="translate(35.000000, 72.000000)" fill="#564343" fill-opacity="0.350688374" fill-rule="nonzero">
                <path d="M27,77.055 C24.6289,77.055 22.6992,78.9847 22.6992,81.3597 C22.6992,83.7269 24.6289,85.6566 27,85.6566 C29.3711,85.6566 31.3008,83.7269 31.3008,81.3558 C31.3008,78.9847 29.3711,77.055 27,77.055 Z M27,82.5316 C26.35156,82.5316 25.8242,82.00426 25.8242,81.3558 C25.8242,80.70736 26.35154,80.1761 27,80.1761 C27.64846,80.1761 28.1758,80.70344 28.1758,81.3558 C28.1758,82.00424 27.64846,82.5316 27,82.5316 Z"></path>
                <path d="M45.773,0.5074 L8.464,0.5074 C4.1593,0.5074 0.6515,4.0117 0.6515,8.3203 L0.6515,58.9063 C0.6515,63.2149 4.1593,66.7188 8.464,66.7188 L20.136,66.7188 L18.0657,83.8398 C18.0657,87.8789 22.9446,91.1289 26.9837,91.1289 C31.0267,91.1289 35.9095,87.875 35.8978,83.6484 L33.8275,66.7144 L45.7725,66.7144 C50.0811,66.7144 53.585,63.2105 53.585,58.9019 L53.585,8.3199 C53.585,4.0113 50.0811,0.5074 45.7725,0.5074 L45.773,0.5074 Z M50.4605,58.9058 C50.4605,61.4917 48.3589,63.5933 45.773,63.5933 L32.062,63.5933 C31.61278,63.5933 31.19091,63.78861 30.894,64.12064 C30.59322,64.45267 30.4565,64.90189 30.51119,65.34724 L32.78459,83.84324 C32.78459,85.94874 29.46429,88.00734 26.98379,88.00734 C24.50719,88.00734 21.19079,85.94874 21.17909,84.03074 L23.45249,65.34674 C23.507177,64.90143 23.366553,64.45612 23.06968,64.12014 C22.77281,63.7842 22.34702,63.5928 21.89778,63.5928 L8.46378,63.5928 C5.87788,63.5928 3.77628,61.4912 3.77628,58.9053 L3.77628,8.3193 C3.77628,5.7334 5.87788,3.6318 8.46378,3.6318 L45.76878,3.6318 C48.35468,3.6318 50.45628,5.7334 50.45628,8.3193 L50.4605,58.9058 Z"></path>
                <path d="M46.777,8.324 C46.777,9.18728 46.07778,9.8865 45.2145,9.8865 L9.0195,9.8865 C8.15622,9.8865 7.457,9.18728 7.457,8.324 C7.457,7.46072 8.15622,6.7615 9.0195,6.7615 L45.2145,6.7615 C46.07778,6.7615 46.777,7.46072 46.777,8.324 Z"></path>
            </g>
            <g transform="translate(250.000000, 72.000000)" fill="#564343" fill-opacity="0.350688374" fill-rule="nonzero">
                <path d="M83.145,7.855 C77.8559,2.5698 71.352,-0.2856 65.293,0.023 C60.625,0.24566 56.2852,2.4918 53.406,6.1714 C46.8318,14.2495 37.773,40.6874 36.769,43.6634 L36.765094,43.6634 C36.714313,43.81965 36.640094,43.97199 36.550254,44.11262 C36.019004,44.95246 36.140094,46.05402 36.847134,46.75712 L44.241634,54.15162 C44.944754,54.85865 46.046334,54.97974 46.886134,54.4485 C47.026754,54.358656 47.179104,54.28444 47.339254,54.23366 C50.315854,53.22586 76.753254,44.17166 84.831254,37.59266 L84.827348,37.59266 C88.507048,34.71376 90.753148,30.37386 90.975748,25.70566 C91.284338,19.64706 88.428848,13.14366 83.143748,7.85366 L83.145,7.855 Z M55.829,8.14016 L55.829,8.144066 C58.1571,5.155766 61.6688,3.327666 65.454,3.140166 C68.1063,3.050322 70.7431,3.569856 73.161,4.667466 C60.372,7.897966 52.868,19.401466 40.056,43.694466 C41.9583,38.194466 50.115,15.155466 55.829,8.143466 L55.829,8.14016 Z M42.388,46.40616 L42.23566,46.25382 C57.11466,17.96482 64.12666,8.65982 77.38766,7.06282 C78.2236,7.66438 79.02436,8.31282 79.78606,9.00812 L42.388,46.40616 Z M44.7474,48.76166 L44.59506,48.60932 L81.99306,11.21432 C82.68837,11.97604 83.33686,12.77682 83.93836,13.61272 C82.34066,26.87472 73.03636,33.88272 44.74736,48.76072 L44.7474,48.76166 Z M87.8604,25.54666 C87.66899,29.33186 85.8448,32.84356 82.8565,35.17166 C75.8409,40.88646 52.7945,49.05066 47.3015,50.94466 C71.5985,38.13266 83.1025,30.62866 86.3325,17.83966 C87.4302,20.25766 87.9497,22.89436 87.8598,25.54666 L87.8604,25.54666 Z"></path>
                <path d="M36.086,48.551 C35.62897,48.08225 35.0079,47.82053 34.3555,47.8126756 C33.70316,47.808814 33.0743,48.06272 32.6094,48.51975 L26.9961,54.13305 C26.44141,54.68383 25.875,55.21895 25.3047,55.72285 L5.0627,73.54685 C2.6447,75.60155 1.176,78.55855 1.0041,81.72655 C0.88691,83.95705 1.70722,86.13675 3.2619,87.73435 C4.7892,89.22265 6.8439,90.03905 8.9767,89.99995 C9.074357,89.99995 9.17592,89.99995 9.27358,89.996044 C12.44158,89.824164 15.39858,88.355444 17.45328,85.937444 L35.28128,65.695444 C35.78519,65.121224 36.32038,64.550944 36.86718,64.004044 L42.48048,58.390744 L42.484386,58.390744 C43.433606,57.421994 43.417976,55.863444 42.453136,54.914144 L36.086,48.551 Z M34.4454,61.586 C33.84384,62.18756 33.2618,62.8087 32.711,63.4337 L14.883,83.6717 C13.4455,85.3709 11.383,86.4178 9.1642,86.574 C7.879,86.656031 6.6212,86.199 5.6837,85.3123 C4.80089,84.37871 4.3439,83.1209 4.4298,81.8357 C4.58214,79.6169 5.629,77.5545 7.3282,76.1169 L27.5662,58.2889 C28.1912,57.74203 28.8123,57.1561 29.4178,56.5545 L34.3358,51.6365 L39.3631,56.6677 L34.4454,61.586 Z"></path>
            </g>
        </g>
    </g>
</svg>