<?xml version="1.0" encoding="UTF-8"?>
<svg width="26px" height="26px" viewBox="0 0 26 26" version="1.1" xmlns="http://www.w3.org/2000/svg" xmlns:xlink="http://www.w3.org/1999/xlink">
    <!-- Generator: sketchtool 53 (72520) - https://sketchapp.com -->
    <title>3EC50E65-DC12-43A1-8AF2-BBB74277A612</title>
    <desc>Created with sketchtool.</desc>
    <g id="Page-1" stroke="none" stroke-width="1" fill="none" fill-rule="evenodd">
        <g id="Recipe---mobile1" transform="translate(-101.000000, -93.000000)" fill-rule="nonzero">
            <g id="Whatsapp-icon" transform="translate(101.000000, 93.000000)">
                <circle id="Oval" fill="#75B73B" cx="13" cy="13" r="13"></circle>
                <path d="M12.6362539,5.50707422 C8.67384375,5.69557422 5.54698828,8.99554297 5.55892187,12.9623203 C5.56080309,14.1292919 5.83832588,15.2793151 6.36888281,16.318707 L5.57887891,20.1534023 C5.55890817,20.2503147 5.58979418,20.3507161 5.66078255,20.4196471 C5.73177093,20.4885782 5.833037,20.5164989 5.92932031,20.4936875 L9.68687891,19.6034922 C10.6809576,20.0986876 11.7736884,20.3639475 12.884168,20.3796328 C16.934125,20.4415352 20.3109766,17.2258633 20.4373711,13.1773789 C20.5037106,11.1004479 19.6986226,9.09038071 18.2168909,7.63349538 C16.7351593,6.17661005 14.7117663,5.40562536 12.6362539,5.50707422 Z M17.1198828,17.05925 C15.3498715,18.8282099 12.6484291,19.2703852 10.4068047,18.1580547 L9.88365625,17.8973438 L7.57971094,18.4430898 L8.06462109,16.0890742 L7.80690625,15.5841563 C6.66307347,13.3345934 7.09615054,10.6045192 8.88001563,8.81938281 C11.1559439,6.54722704 14.842424,6.54875596 17.1164668,8.82279878 C19.3905097,11.0968416 19.3920386,14.7833217 17.1198828,17.05925 L17.1198828,17.05925 Z" id="Shape" fill="#FFFFFF"></path>
                <path d="M16.6113086,14.5529922 L15.1699336,14.1391758 C14.9804458,14.0849003 14.7764501,14.1386859 14.6383555,14.279332 L14.285832,14.6383555 C14.1374875,14.7903239 13.9121784,14.8379114 13.7150508,14.7589102 C13.0332109,14.4829648 11.5988945,13.2076445 11.2328125,12.5699336 C11.1275856,12.3853954 11.1439633,12.1556263 11.2743008,11.9878789 L11.5819336,11.5898047 C11.7024707,11.4338225 11.7279061,11.2243558 11.6482031,11.0440586 L11.0418242,9.67255859 C10.9732027,9.51760289 10.8355202,9.40408569 10.6703245,9.36626271 C10.5051289,9.32843974 10.3317703,9.37074136 10.2025625,9.48040234 C9.80032422,9.8206875 9.32303125,10.3375898 9.26508984,10.9104023 C9.16276562,11.9202891 9.59592969,13.1932227 11.2334727,14.7217891 C13.1254297,16.4878594 14.6405898,16.7209961 15.6272187,16.4820703 C16.1867773,16.3466367 16.633957,15.8033789 16.9159961,15.3584844 C17.0070377,15.2155091 17.0253335,15.0379758 16.9653646,14.8794381 C16.9053957,14.7209003 16.7741835,14.5999203 16.6113086,14.5529922 L16.6113086,14.5529922 Z" id="Shape" fill="#FFFFFF"></path>
            </g>
        </g>
    </g>
</svg>